<svg xmlns="http://www.w3.org/2000/svg" class="h-12" viewBox="0 0 368 106" fill="currentColor"><path fill="#E30613" fill-rule="evenodd" d="M302.12 4.427a83.518 83.518 0 0 1 53.422 10.125c0 3.135-.188 6.156-.568 9.177.755.682 2.458.755 3.516 1.057a90.9 90.9 0 0 0 .567-10.198c0-1.323-.567-2.458-1.703-3.02C339.672 1.443 319.427-2.037 299.932 1.25c.756 1.02 1.511 2.041 2.188 3.177Zm36.422 19c-5.969-4.344-7.745-3.136-5.594 3.781.755-.38 1.25-1.135 1.323-2.005.187-.755-.115-1.698-.677-2.266-.266-1.474 1.359-1.396 4.948.49ZM318.557 62.79c.11 10.126-1.323 19.12-4.343 26.938.562 0 1.244-.188 1.812-.49 15.224-8.88 27.047-21.948 34.531-37.364-1.25-.375-2.271-.87-3.213-1.625-3.589 7.479-8.313 14.396-13.901 20.515-10.125-9.744-.302-23.838 13.411-24.974.677 1.25 1.511 2.193 2.453 2.76 3.323 2.079 8.615 2.267 9.255-2.38.115-.942-.567-2.005-1.51-2.192-.302-.115-.49-.188-.677-.375-.568-.568-.193-2.573.109-3.516 4.344 1.136 13.224-3.703 10.506-8.234-.568-.948-1.625-1.323-2.646-1.438-2.266-2.38-7.104-3.51-10.198-4.078-3.516-3.703-11.333-6.161-15.906-6.614-1.891-1.433-8.313-3.589-8.995.302-6.797.568-16.656 1.437-22.589 5.026.568.38 4.266 2.078 4.834 2.568 5.406-3.136 11.073-4.912 17.229-5.474.114 1.885 1.135 5.854 2.38 7.552-3.135-10.578 0-12.203 7.859-7.854 6.157.864 14.282 4.833 14.203 6.421-1.057 1.433-5.291-2.458-6.802.375.568-.677 2.193.87 4.084 1.438-.683.187-1.25.187-1.891.114 2.38.756 4.646.188 6.349-1.625 4.833 1.058 7.667 2.38 8.609 3.891-3.588 1.89-3.208 2.834 1.063 3.021-2.948 3.02-6.047 3.703-9.261 2.005-3.395 2.188-10.687 10.386-16.093-1.323-.49 2.266.192 6.042 2.458 7.552-7.219-.979-21.495 10.844-23.12 19.078Zm34.453-15.526c-1.51-.942-2.192-3.703 1.625-7.859-.755 2.76-.682 4.651.375 5.781l1.25-1.244-.114 1.89c.187.11.302.11.38.188-.115 1.13-1.062 1.698-2.078 1.698l-.115-2.38-1.323 1.926Z" clip-rule="evenodd"></path><path fill="#3AAA35" fill-rule="evenodd" d="M272.88 14.552c9.183-5.214 19.115-8.615 29.24-10.125-.677-1.136-1.432-2.193-2.188-3.214-10.015 1.625-19.76 5.1-28.828 10.313-1.13.568-1.812 1.703-1.812 3.026 0 4.719.38 9.37 1.135 13.9l.302.303c.755-1.245 1.698-2.266 2.943-2.948-.49-3.703-.792-7.48-.792-11.255Zm45.677 48.24c-1.812-12.277-5.968-18.245-12.015-24.667 2.458.114 4.911-.302 6.724-1.438.869-.567 1.135-1.698.682-2.645-2.76-5.475-7.479-7.855-13.146-8.047.49-3.51.188-7.178-2.078-9.933-4.349-5.479-13.526-4.646-19.573-3.588-1.057.187-1.698 1.057-1.698 2.078 0 1.057.755 1.812 1.698 2 2.38.38 7.859 1.323 8.802 3.969.495 1.244-.109 2.64-.677 3.963-4.156-1.698-9.255 2.833-11.073 6.35-.187-1.136.115-2.381.948-3.59-2.646.303-4.271 2.38-5.292 4.646-3.776-.302-4.911-4.27-5.401-7.479a2.242 2.242 0 0 0-1.698-1.703c-.947-.11-1.817.38-2.192 1.25-3.589 7.667-.943 13.146 5.854 16.36-.568 1.51-.49 3.208.302 4.833l-1.625 4.531c-3.661.417-4.609 5.14-1.583 7.031.489 2.641 2.078 4.646 4.911 4.532.375.567.865.942 1.511 1.323 4.078 2.078 12.39-6.61 12.088 4.833 1.245-13.901-10.578-2.943-12.391-8.234 1.433-.188 2.568-1.13 3.401-2.834 3.698 2.834 8.61.302 14.579-7.745-.302 2.459-2.381 5.48-6.23 8.99 12.276-.563 16.922-7.177 13.787-19.87 4.724 5.292 6.349 12.203 4.724 20.89 0-6.421-.568-10.197-1.703-11.52-.302 6.61-1.62 12.203-4.151 16.734 1.057-4.645 1.432-7.744 1.13-9.37-4.646 5.667-5.781 12.204-4.344 19.193 5.667 6.047 12.203 11.334 19.568 15.604.568.302 1.135.49 1.818.49 3.02-7.854 4.453-16.813 4.343-26.938Zm-46.619-28.558c1.51 3.401-2.568 6.156-1.626 9.443-.942-1.245-.942-2.833.115-4.724-6.989-2.943-9.823-8.047-6.12-13.901-.38 2.911 1.584 9.182 7.631 9.182ZM275.26 50.1c1.438.948 1.891 2.76 1.136 4.27.302-1.437-.38-2.833-1.703-3.4-1.323-.568-2.834-.115-3.589 1.135-.677-.302-2.453 0-2.755-.115l.755-1.812c.87-.115 1.432.114 1.698.375 1.25-1.208 3.021-1.396 4.458-.453Zm11.334-14.089c-1.323 3.021-.568 4.459-4.459 5.1-.453-3.667 1.058-4.042 4.459-5.1Zm-12.578 16.922c.489.568.567 1.51.187 2.193.188-2.193-1.891-2.266-1.891-1.323 0 .302.193.49.495.568a.6.6 0 0 1-.567.755c-.568-.188-.948-.568-1.058-1.136-.078-1.51 1.813-2.078 2.834-1.057Zm34.718-19c-3.703 1.057-5.099.87-4.458-.682-.755-.87-3.135-1.433-7.104-1.625 3.891-1.094 7.708-.339 11.562 2.307Zm2.948.11c-4.458-5.021-10.317-5.59-24.484-3.136 9.182-12.958-1.885-15.411-7.365-16.469 15.037-2.567 21.271 2 18.547 13.714 6.084-.568 10.542 1.437 13.302 5.89Z" clip-rule="evenodd"></path><path fill="currentColor" d="m142.095 62.322 6.667 16.542h-2.146l-1.833-4.583h-7.271l-1.813 4.583h-2.125l6.605-16.542h1.916Zm1.979 10.188-2.958-7.354-2.896 7.354h5.854ZM150.156 70.927v-.667c0-1.719.317-3.193.958-4.417.635-1.219 1.526-2.15 2.667-2.792 1.151-.635 2.505-.958 4.062-.958 2.234 0 4.005.583 5.313 1.75 1.302 1.156 2.073 2.787 2.312 4.896h-2.062c-.25-1.625-.849-2.839-1.792-3.646-.948-.818-2.203-1.229-3.771-1.229-1.739 0-3.114.536-4.125 1.604-1.016 1.073-1.521 2.667-1.521 4.792v.666c0 2.1.505 3.688 1.521 4.771 1.011 1.084 2.386 1.625 4.125 1.625 1.583 0 2.844-.406 3.792-1.229.958-.833 1.547-2.047 1.771-3.646h2.062c-.239 2.1-1.01 3.73-2.312 4.896-1.308 1.167-3.079 1.75-5.313 1.75-1.557 0-2.911-.318-4.062-.958-1.141-.651-2.032-1.584-2.667-2.792-.641-1.219-.958-2.693-.958-4.416ZM175.309 62.322l6.667 16.542h-2.146l-1.833-4.583h-7.271l-1.813 4.583h-2.125l6.605-16.542h1.916Zm1.979 10.188-2.958-7.354-2.896 7.354h5.854ZM184.161 62.322h6.625c1.594 0 2.985.328 4.167.98a6.786 6.786 0 0 1 2.771 2.729c.666 1.182 1 2.562 1 4.145v.813c0 1.599-.334 2.99-1 4.167a6.915 6.915 0 0 1-2.771 2.729c-1.182.656-2.573.979-4.167.979h-6.625V62.322Zm12.521 8.667v-.813c0-1.9-.552-3.385-1.646-4.458-1.099-1.083-2.64-1.625-4.625-1.625h-4.229v13h4.229c1.985 0 3.526-.531 4.625-1.604 1.094-1.083 1.646-2.583 1.646-4.5ZM213.713 78.864h-12.084V62.322h11.709v1.771h-9.688v5.5h8.875v1.771h-8.875v5.73h10.063v1.77ZM225.346 75.677l6.292-13.355h2.562v16.542h-2.021v-13.25l-6.271 13.25h-1.125l-6.27-13.417v13.417h-2.021V62.322h2.666l6.188 13.355ZM248.888 62.322h2.354l-6.458 10.271v6.271h-2.021V72.51l-6.479-10.188h2.375l5.146 8.188 5.083-8.188ZM156.26 18.943v3.23h-17.459v10.312h15.959v3.25h-15.959v13.542h-3.687V18.943h21.146ZM170.705 49.693c-2.265 0-4.229-.447-5.895-1.354a9.361 9.361 0 0 1-3.855-3.833c-.89-1.667-1.333-3.625-1.333-5.875v-.75c0-2.26.443-4.219 1.333-5.875a9.282 9.282 0 0 1 3.855-3.813c1.666-.9 3.63-1.354 5.895-1.354 2.276 0 4.24.453 5.896 1.354a9.308 9.308 0 0 1 3.854 3.813c.901 1.656 1.355 3.614 1.355 5.875v.75c0 2.25-.454 4.208-1.355 5.875a9.388 9.388 0 0 1-3.854 3.833c-1.656.907-3.62 1.354-5.896 1.354Zm0-3.125c2.417 0 4.276-.677 5.584-2.041 1.302-1.375 1.958-3.464 1.958-6.271 0-2.792-.656-4.875-1.958-6.25-1.308-1.375-3.167-2.063-5.584-2.063-2.406 0-4.26.688-5.562 2.063-1.307 1.375-1.958 3.458-1.958 6.25 0 2.807.651 4.896 1.958 6.27 1.302 1.365 3.156 2.042 5.562 2.042ZM197.464 26.84c.635 0 1.172.036 1.604.103.427.073.781.146 1.062.23v3.479a23.35 23.35 0 0 0-1.312-.125 28.456 28.456 0 0 0-1.604-.042c-2.073 0-3.683.76-4.834 2.27-1.156 1.517-1.729 4.032-1.729 7.543v8.979h-3.521V27.256h2.271l.667 6.396c.609-2.417 1.573-4.151 2.896-5.209 1.317-1.067 2.817-1.604 4.5-1.604ZM224.851 37.13c0 .808-.057 1.532-.167 2.168h-18c.193 2.474.927 4.307 2.209 5.5 1.276 1.182 3.031 1.77 5.27 1.77 1.417 0 2.563-.197 3.438-.604.875-.4 1.562-.927 2.062-1.583.5-.667.886-1.386 1.167-2.167h3.604c-.25 1.308-.781 2.537-1.583 3.688-.792 1.14-1.906 2.057-3.333 2.75-1.433.692-3.245 1.041-5.438 1.041-2.24 0-4.182-.447-5.833-1.354a9.37 9.37 0 0 1-3.834-3.833c-.89-1.667-1.333-3.625-1.333-5.875v-.75c0-2.26.443-4.219 1.333-5.875.901-1.651 2.193-2.922 3.875-3.813 1.677-.9 3.651-1.354 5.917-1.354 2.193 0 4.073.433 5.646 1.292 1.583.849 2.812 2.042 3.687 3.583.875 1.542 1.313 3.35 1.313 5.417Zm-10.646-7.187c-2.182 0-3.911.542-5.187 1.625-1.282 1.084-2.042 2.724-2.292 4.917h14.562c-.166-2.167-.854-3.797-2.062-4.896-1.208-1.093-2.886-1.646-5.021-1.646ZM241.173 38.006l8.562 11.27h-4.395l-6.646-8.978-6.709 8.979h-4.395l8.562-11.23-8.146-10.791h4.313l6.375 8.604 6.396-8.604h4.27l-8.187 10.75ZM19.91 33.665v.084c1.083.197 2.167.572 3.25 1.124a7.628 7.628 0 0 1 2.688 2.271c.718.948 1.083 2.167 1.083 3.667a7.206 7.206 0 0 1-1.23 4.063c-.806 1.223-2.056 2.197-3.75 2.916-1.697.724-3.853 1.084-6.478 1.084H.18V18.54h15.292c2.343 0 4.312.365 5.895 1.084 1.584.708 2.777 1.677 3.584 2.895a7.291 7.291 0 0 1 1.208 4.084c0 1.458-.312 2.677-.937 3.645-.625.974-1.412 1.73-2.355 2.271a10.25 10.25 0 0 1-2.958 1.146Zm-4.646-8.229H8.118v5.354h7.271c.802 0 1.459-.25 1.959-.75s.75-1.146.75-1.937c0-.802-.25-1.448-.75-1.938-.5-.484-1.198-.729-2.084-.729ZM8.118 41.978h7.146c1.276 0 2.188-.24 2.73-.73.552-.484.833-1.13.833-1.937 0-.802-.282-1.458-.834-1.958-.541-.5-1.411-.75-2.604-.75H8.12v5.375ZM40.93 49.498c-2.542 0-4.724-.468-6.542-1.395-1.807-.927-3.187-2.23-4.146-3.896-.958-1.677-1.437-3.63-1.437-5.854v-1c0-2.209.479-4.151 1.437-5.834.959-1.677 2.339-2.979 4.146-3.895 1.818-.928 4-1.396 6.542-1.396 2.552 0 4.734.468 6.541 1.395 1.818.917 3.209 2.22 4.167 3.896.959 1.683 1.438 3.625 1.438 5.834v1c0 2.224-.48 4.177-1.438 5.854-.958 1.666-2.349 2.969-4.166 3.896-1.808.927-3.99 1.395-6.542 1.395Zm0-6.687c1.276 0 2.281-.406 3.02-1.23.735-.817 1.105-2.088 1.105-3.812 0-1.625-.37-2.838-1.104-3.645-.74-.803-1.745-1.209-3.021-1.209-1.266 0-2.266.406-3 1.209-.74.807-1.104 2.02-1.104 3.645 0 1.724.364 2.995 1.104 3.813.734.823 1.734 1.229 3 1.229ZM54.73 41.478h7.813c.136.614.5 1.135 1.084 1.562.583.432 1.588.646 3.02.646 1.386 0 2.334-.156 2.834-.48.5-.317.75-.655.75-1.02 0-.25-.125-.5-.375-.75s-.77-.49-1.563-.73c-.791-.234-2-.447-3.625-.645-2.448-.302-4.364-.77-5.75-1.396-1.375-.625-2.354-1.4-2.937-2.333-.583-.943-.875-2.026-.875-3.25 0-1.193.38-2.313 1.146-3.354.76-1.042 1.927-1.88 3.5-2.521 1.583-.651 3.593-.98 6.041-.98 2.625 0 4.76.355 6.417 1.063 1.651.698 2.886 1.64 3.708 2.834.834 1.197 1.334 2.541 1.5 4.041h-7.812c-.115-.666-.427-1.193-.938-1.583-.515-.386-1.432-.584-2.75-.584-1.25 0-2.099.162-2.541.48-.448.323-.667.645-.667.979 0 .281.125.541.375.791s.781.48 1.604.688c.818.208 2.068.427 3.75.646 2.386.281 4.271.745 5.646 1.396 1.386.64 2.375 1.437 2.958 2.395.584.959.875 2.053.875 3.271 0 1.141-.395 2.24-1.187 3.292-.792 1.042-2.02 1.896-3.688 2.563-1.656.666-3.786 1-6.395 1-2.766 0-4.995-.344-6.688-1.021-1.682-.677-2.932-1.625-3.75-2.834-.823-1.218-1.312-2.609-1.48-4.166ZM96.12 26.228c1.667 0 3.193.453 4.583 1.354 1.402.89 2.527 2.177 3.375 3.854.844 1.682 1.271 3.667 1.271 5.958v.917c0 2.307-.427 4.302-1.271 5.98-.848 1.666-1.973 2.952-3.375 3.853A8.254 8.254 0 0 1 96.12 49.5c-2.057 0-3.864-.63-5.416-1.896-1.542-1.26-2.594-3.052-3.146-5.375l-2.667 6.645h-3.73V18.54h7.98V30.75c.75-1.47 1.734-2.589 2.958-3.355a7.41 7.41 0 0 1 4.021-1.166Zm-2.875 16.375c1.25 0 2.24-.396 2.98-1.188.734-.791 1.104-1.979 1.104-3.562 0-1.568-.37-2.75-1.105-3.542-.74-.792-1.729-1.188-2.979-1.188-1.224 0-2.219.407-2.979 1.209-.75.807-1.125 1.979-1.125 3.52 0 1.532.375 2.704 1.125 3.522.76.822 1.755 1.229 2.98 1.229ZM118.522 40.02l4.104-13.167h7.979l-7.271 20.729c-.89 2.526-1.849 4.526-2.875 6-1.031 1.484-2.218 2.547-3.562 3.187-1.334.636-2.948.959-4.834.959-.864 0-1.682-.058-2.458-.167a19.566 19.566 0 0 1-1.937-.375V50.79c.526.052 1.052.104 1.583.146.526.042.99.063 1.396.063.885 0 1.588-.183 2.104-.542.51-.365.937-1.057 1.271-2.084l-8.063-21.52h8.396l4.167 13.166Z"></path></svg>