<svg width="40" height="40" viewBox="0 0 40 40" fill="none" xmlns="http://www.w3.org/2000/svg">
<rect x="2" y="2" width="36" height="36" rx="18" fill="#00AAFE"/>
<rect x="2" y="2" width="36" height="36" rx="18" stroke="white" stroke-width="4"/>
<path d="M25 19C25.34 19 25.67 19.04 26 19.09V14.27L18.5 11L11 14.27V19.18C11 23.72 14.2 27.97 18.5 29C19.05 28.87 19.58 28.68 20.1 28.45C19.41 27.47 19 26.28 19 25C19 21.69 21.69 19 25 19Z" fill="white"/>
<path d="M25 21C22.79 21 21 22.79 21 25C21 27.21 22.79 29 25 29C27.21 29 29 27.21 29 25C29 22.79 27.21 21 25 21ZM25 22.38C25.62 22.38 26.12 22.89 26.12 23.5C26.12 24.11 25.61 24.62 25 24.62C24.39 24.62 23.88 24.11 23.88 23.5C23.88 22.89 24.38 22.38 25 22.38ZM25 27.75C24.07 27.75 23.26 27.29 22.76 26.58C22.81 25.86 24.27 25.5 25 25.5C25.73 25.5 27.19 25.86 27.24 26.58C26.74 27.29 25.93 27.75 25 27.75Z" fill="white"/>
</svg>
