<svg width="42" height="42" viewBox="0 0 42 42" fill="none" xmlns="http://www.w3.org/2000/svg">
<mask id="mask0_637_1653" style="mask-type:luminance" maskUnits="userSpaceOnUse" x="-94" y="-4" width="154" height="154">
<path d="M60 -4H-94V150H60V-4Z" fill="white"/>
</mask>
<g mask="url(#mask0_637_1653)">
<g opacity="0.2">
<path d="M-13.9996 107.718C-14.2979 107.914 -13.9181 108.077 -13.9642 108.263C-14.4004 108.263 -14.8367 108.263 -15.2729 108.263C-15.6987 108.081 -16.1441 108.179 -16.582 108.17C-18.1785 108.08 -19.7771 108.019 -21.3707 107.893C-23.7838 107.702 -26.2014 107.602 -28.5947 107.147C-31.9465 106.511 -35.3084 105.931 -38.6362 105.174C-38.6733 105.165 -38.7148 105.175 -38.7542 105.176C-38.8066 104.959 -38.7163 104.885 -38.5111 104.944C-38.0575 105.075 -37.5959 105.133 -37.0491 105.149C-37.1754 105.079 -37.2476 105.062 -37.2731 105.018C-37.2972 104.976 -37.2696 104.91 -37.1909 104.91C-36.9015 104.911 -36.6122 104.911 -36.3138 104.871C-39.7772 103.85 -43.1641 102.617 -46.5608 101.41C-43.7807 102.719 -40.9267 103.844 -38.0173 104.856C-38.3748 104.939 -38.6728 105.217 -39.0586 105.092C-39.6333 104.664 -40.3488 104.704 -40.9958 104.565C-42.6108 104.217 -44.1813 103.726 -45.7519 103.235C-51.442 101.459 -56.8894 99.0999 -62.1599 96.3242C-62.9466 95.9098 -63.6996 95.4367 -64.4512 94.9622C-64.523 94.9169 -64.5727 94.8663 -64.5919 94.7852C-64.4813 94.6509 -64.3769 94.7557 -64.2799 94.8012C-63.7279 95.0608 -63.1368 95.2057 -62.5324 95.3545C-62.7785 95.1971 -63.0247 95.0396 -63.3245 94.848C-62.9576 94.6194 -62.604 94.7374 -62.2746 94.7178C-61.9228 94.6968 -61.5688 94.7131 -61.2072 94.6729C-64.973 92.3353 -68.7438 90.0327 -72.4865 87.6813C-69.644 90.1275 -66.6239 92.3448 -63.5256 94.7032C-63.9719 94.7334 -64.2791 94.7542 -64.5861 94.7742C-64.7964 94.8663 -64.9004 94.6736 -65.0362 94.5925C-67.9581 92.8463 -70.7589 90.9095 -73.6454 89.1084C-75.8399 87.739 -77.8128 86.1028 -79.7358 84.3897C-81.318 82.9801 -82.9254 81.5987 -84.4442 80.1189C-84.4706 80.0931 -84.5129 80.0838 -84.5478 80.0666C-84.5549 80.0132 -84.585 79.9851 -84.6393 79.984L-84.6428 79.9504L-84.6767 79.9496C-84.6797 79.8974 -84.707 79.8699 -84.7594 79.8676L-84.7622 79.8333L-84.7965 79.8307C-84.7988 79.7784 -84.826 79.7511 -84.8784 79.7487L-84.8812 79.7144L-84.9156 79.7118C-84.918 79.6595 -84.9451 79.6322 -84.9976 79.6299L-85.0003 79.5956L-85.0346 79.5928C-85.037 79.5405 -85.0641 79.5132 -85.1166 79.5109L-85.1193 79.4764L-85.1538 79.4737C-85.1561 79.4214 -85.1833 79.3941 -85.2356 79.3918L-85.2383 79.3574L-85.2728 79.3547C-85.2751 79.3024 -85.3023 79.2751 -85.3547 79.2728L-85.3574 79.2384L-85.3919 79.2357C-85.3942 79.1834 -85.4214 79.1561 -85.4738 79.1537L-85.4766 79.1193L-85.511 79.1165C-85.5134 79.0643 -85.5405 79.0369 -85.593 79.0346L-85.5957 79.0002L-85.6302 78.9974C-85.6325 78.9451 -85.6597 78.9178 -85.7121 78.9155L-85.7149 78.8812L-85.7492 78.8784C-85.7515 78.8261 -85.7787 78.7988 -85.8311 78.7965L-85.8337 78.7622L-85.8682 78.7596C-85.8705 78.7073 -85.8977 78.6798 -85.9501 78.6776L-85.9511 78.6449L-85.9837 78.6441C-86.0813 78.5334 -86.1933 78.4024 -85.9346 78.378C-85.679 78.354 -85.4196 78.3707 -85.1619 78.3702C-84.9318 78.3698 -84.7018 78.37 -84.4477 78.3173C-87.5453 75.4388 -90.4694 72.4149 -93.4278 69.4033C-93.3261 69.5561 -93.2318 69.7143 -93.1214 69.8606C-90.9727 72.7098 -88.7616 75.508 -86.3554 78.1471C-86.2784 78.2315 -86.166 78.2977 -86.1763 78.4374C-86.4541 78.3982 -86.6762 78.2852 -86.8806 78.0714C-89.536 75.2935 -92.1465 72.4774 -94.5571 69.4793C-97.5148 65.8008 -100.236 61.9601 -102.648 57.9018C-102.739 57.7487 -102.93 57.4845 -102.9 57.4564C-102.615 57.1878 -102.84 56.9946 -102.96 56.7838C-103.087 56.5601 -103.216 56.3377 -103.346 56.1155C-104.771 53.6711 -106.075 51.1616 -107.401 48.6633C-108.115 47.3173 -108.816 45.9683 -109.375 44.55C-110.013 42.9307 -110.479 41.2531 -111.022 39.6017C-111.769 37.3286 -112.455 35.0359 -113.076 32.7244C-113.132 32.5161 -113.161 32.3019 -113.431 32.2362C-113.563 32.2039 -113.541 32.0433 -113.577 31.9338C-114.281 29.7865 -114.767 27.5857 -115.189 25.3693C-115.511 23.6788 -115.904 22.0003 -116.094 20.2866C-116.22 19.1509 -116.325 18.0127 -116.432 16.875C-116.539 15.737 -116.64 14.5985 -116.738 13.4597C-116.793 12.8294 -116.842 12.1986 -116.884 11.5674C-116.986 10.072 -117.084 8.57632 -117.178 7.08038C-117.192 6.84486 -117.211 6.61591 -117.356 6.41813C-117.356 5.70427 -117.356 4.9904 -117.356 4.27654C-117.22 4.33006 -117.063 4.20805 -116.935 4.32883C-116.687 4.98547 -116.735 5.68546 -116.657 6.3646C-116.397 8.64701 -116.097 10.9239 -115.761 13.1959C-115.558 14.5661 -115.322 15.9315 -115.096 17.2983C-115.051 17.5677 -114.986 17.8336 -114.91 18.0993C-114.818 13.5054 -114.538 8.92441 -114.124 4.28341C-115.096 4.31717 -116.016 4.23179 -116.937 4.33377C-116.874 4.29108 -116.85 4.23248 -116.863 4.15781C-116.795 3.34581 -116.796 2.53381 -116.863 1.72182C-116.806 1.67419 -116.799 1.61475 -116.82 1.54805C-116.794 0.757462 -116.775 -0.0334015 -116.74 -0.823578C-116.656 -2.74117 -116.515 -4.65793 -116.465 -6.57455C-116.419 -8.34693 -116.084 -10.0713 -115.814 -11.8041C-115.586 -13.2641 -115.18 -14.6969 -114.832 -16.1368C-114.284 -18.4058 -113.711 -20.6691 -113.058 -22.9104C-112.866 -23.5696 -113.034 -23.5191 -112.28 -23.522C-111.725 -23.5242 -111.169 -23.5335 -110.614 -23.5177C-110.346 -23.5102 -110.25 -23.5948 -110.2 -23.8729C-109.728 -26.4631 -109.176 -29.0371 -108.55 -31.5943C-108.183 -33.0925 -107.779 -34.5816 -107.402 -36.0774C-107.333 -36.3513 -107.219 -36.5965 -107.078 -36.8371C-104.833 -40.6636 -102.514 -44.4439 -100.017 -48.1126C-99.9527 -48.2067 -99.8572 -48.2922 -99.8759 -48.469C-100.564 -48.5643 -101.271 -48.4593 -101.965 -48.5264C-102.008 -48.7298 -101.872 -48.8404 -101.795 -48.9698C-100.564 -51.0268 -99.2483 -53.0289 -97.924 -55.0261C-97.0045 -56.4126 -96.1063 -57.8128 -95.0756 -59.1218C-94.0336 -60.4452 -92.9207 -61.7041 -91.7662 -62.9322C-90.3427 -64.4466 -88.7416 -65.7855 -87.451 -67.4343C-86.796 -68.271 -85.9785 -68.9805 -85.2346 -69.7476C-85.1754 -69.5719 -85.0242 -69.6168 -84.8996 -69.6149C-84.4184 -69.6074 -83.9371 -69.6065 -83.4565 -69.6026C-84.063 -68.7755 -84.668 -67.9484 -85.2748 -67.1225C-86.7743 -65.0815 -88.2108 -62.9968 -89.6067 -60.8839C-89.7195 -60.713 -89.8156 -60.531 -89.8753 -60.3221C-86.6352 -63.4141 -83.3681 -66.4628 -79.9832 -69.5836C-81.2414 -69.5836 -82.3594 -69.5836 -83.4773 -69.5836C-82.6865 -70.4955 -81.8267 -71.3421 -80.9687 -72.1886C-79.2233 -73.9107 -77.4466 -75.6009 -75.5314 -77.3367C-75.8903 -77.2129 -76.0675 -77.0388 -76.2587 -76.893C-79.0443 -74.769 -81.7811 -72.584 -84.4709 -70.3399C-84.6515 -70.1892 -84.8382 -70.0459 -85.0235 -69.9009C-85.0338 -69.8928 -85.0632 -69.8939 -85.0721 -69.9027C-85.0847 -69.9151 -85.0866 -69.9386 -85.0931 -69.9572C-84.983 -70.2516 -84.561 -70.2415 -84.4905 -70.5745C-84.3855 -70.5922 -84.3132 -70.6476 -84.2847 -70.7534C-84.0065 -70.8829 -83.8443 -71.1404 -83.6367 -71.3465C-82.685 -72.291 -81.5877 -73.0596 -80.5561 -73.9074C-79.9761 -74.3841 -79.3079 -74.7989 -78.8602 -75.3806C-78.182 -76.2617 -77.2816 -76.8488 -76.4226 -77.4776C-74.0778 -79.1939 -71.7213 -80.897 -69.216 -82.3815C-67.5179 -83.3877 -65.8454 -84.4373 -64.1614 -85.4676C-63.9597 -85.2543 -64.2402 -85.2572 -64.2998 -85.2176C-65.5678 -84.3753 -66.8536 -83.5596 -68.1159 -82.7092C-69.4935 -81.781 -70.8521 -80.8244 -72.2163 -79.8764C-72.4834 -79.6908 -72.7385 -79.4878 -72.9864 -79.2748C-69.6209 -81.3542 -66.2639 -83.4447 -62.7428 -85.3678C-63.1123 -85.548 -63.5124 -85.2937 -63.8138 -85.5503C-62.6527 -86.1404 -61.4964 -86.7401 -60.3296 -87.3186C-57.9453 -88.501 -55.5075 -89.5697 -53.1024 -90.7077C-51.0964 -91.6568 -48.9557 -92.2127 -46.8683 -92.9223C-44.2285 -93.8197 -41.5613 -94.6324 -38.8569 -95.3173C-38.7635 -95.3409 -38.6784 -95.397 -38.5895 -95.4379C-38.4973 -95.4169 -38.3879 -95.4464 -38.287 -95.2893C-41.2521 -94.3293 -44.2064 -93.3817 -47.0997 -92.2558C-46.6766 -92.2738 -46.2972 -92.4672 -45.9079 -92.5977C-43.1354 -93.5277 -40.3502 -94.4151 -37.5263 -95.1779C-37.4882 -95.1882 -37.4479 -95.1904 -37.4096 -95.2C-37.1216 -95.2715 -37.3741 -95.3218 -37.4095 -95.3982C-37.478 -95.5462 -37.349 -95.5421 -37.2562 -95.5635C-36.3753 -95.7669 -35.4973 -95.9831 -34.6135 -96.1726C-33.914 -96.3227 -33.2379 -96.5943 -32.5073 -96.5944C-32.4801 -96.5944 -32.4528 -96.6893 -32.4256 -96.7399C-31.7321 -96.7748 -31.0733 -96.9985 -30.3952 -97.1194C-27.1763 -97.6934 -23.9362 -98.0322 -20.6702 -98.1985C-18.1643 -98.3262 -15.6574 -98.4744 -13.1509 -98.4947C-10.4629 -98.5165 -7.77495 -98.3688 -5.09518 -98.0879C-3.71907 -97.9436 -2.3321 -97.8889 -0.961746 -97.6855C1.01006 -97.3928 2.99408 -97.1643 4.92196 -96.6245C5.01296 -96.5989 5.11768 -96.6226 5.21609 -96.6232C5.24862 -96.5199 5.31739 -96.4872 5.42637 -96.4627C6.76008 -96.1612 8.10229 -95.8884 9.41719 -95.5185C9.82374 -95.4041 10.1786 -95.0883 10.6648 -95.1009C10.5983 -95.2297 10.3622 -95.1328 10.3885 -95.3067C10.4257 -95.5528 10.6491 -95.3907 10.7746 -95.4522C14.2748 -94.757 17.6399 -93.6149 20.9909 -92.4129C26.0669 -90.5924 30.8726 -88.1943 35.6227 -85.671C35.7084 -85.6254 35.8002 -85.5914 35.8891 -85.5519C35.6403 -85.2791 35.2919 -85.5469 34.9866 -85.369C36.2213 -84.974 37.3402 -84.3798 38.5647 -83.7356C38.1102 -84.0507 37.7518 -84.294 37.4006 -84.5471C37.3259 -84.6009 37.3398 -84.6789 37.4309 -84.7246C37.6152 -84.7784 37.7259 -84.6309 37.8523 -84.5543C40.2559 -83.0955 42.6348 -81.5978 44.9964 -80.0715C47.9337 -78.173 50.621 -75.9559 53.2607 -73.6757C54.5352 -72.5748 55.7999 -71.4624 57.0673 -70.3531C57.3056 -70.1446 57.5353 -69.9265 57.7597 -69.7211C57.7505 -69.5518 57.5941 -69.6299 57.5496 -69.563C57.5058 -69.4974 57.5993 -69.4893 57.6329 -69.475C58.5592 -69.0781 59.1602 -68.2915 59.8294 -67.6008C62.4927 -64.8518 64.9814 -61.9455 67.3311 -58.9281C68.7537 -57.1012 69.9734 -55.1215 71.2118 -53.1627C72.1534 -51.6735 73.0674 -50.1669 73.9937 -48.668C73.9469 -48.4233 73.7487 -48.5132 73.6119 -48.5114C72.8791 -48.5024 72.1463 -48.5072 71.42 -48.5072C71.4029 -48.4799 71.3901 -48.4639 71.3824 -48.4459C71.3753 -48.4295 71.364 -48.4041 71.3709 -48.3937C73.8942 -44.6303 76.3895 -40.8485 78.7656 -36.9843C77.3748 -40.8973 75.7846 -44.7255 74.0119 -48.5385C74.2734 -48.5385 74.4687 -48.5385 74.6639 -48.5385C78.3411 -42.4913 81.0645 -35.9965 83.5834 -29.4113C84.3154 -27.4976 84.8748 -25.5182 85.432 -23.5697C85.2605 -23.4093 85.0776 -23.5313 84.9446 -23.4329C84.9343 -23.3964 84.9082 -23.3564 84.917 -23.3268C86.194 -19.0395 87.3309 -14.7161 88.2881 -10.3456C88.3823 -9.91589 88.4159 -9.4819 88.4403 -9.05036C88.5747 -6.67778 88.7077 -4.30464 88.7318 -1.92738C88.7505 -0.0843277 88.761 1.75887 88.7728 3.60193C88.777 4.26487 88.7738 4.26487 89.4266 4.27695C89.4266 5.98234 89.4266 7.6876 89.4266 9.39299C89.2545 9.77895 89.3378 10.1844 89.3359 10.5833C89.2577 12.6015 89.071 14.6106 88.8487 16.6173C88.4778 19.9634 87.9328 23.2811 87.234 26.5736C86.8645 28.3147 86.4465 30.0444 85.9803 31.7622C85.8218 32.3463 85.8235 32.3468 85.1625 32.2054C85.253 31.4621 85.3355 30.7175 85.4354 29.9753C85.7415 27.7025 85.9982 25.4242 86.2117 23.1411C86.3277 21.9017 86.421 20.6601 86.5236 19.4193C86.5332 19.3024 86.5361 19.1849 86.5483 18.948C86.2242 19.703 86.0676 20.39 85.8604 21.0586C84.7781 24.5491 83.5826 28.0013 82.3641 31.4459C82.3443 31.5016 82.3183 31.5551 82.2956 31.6099C82.0309 32.2494 82.0312 32.2632 82.7554 32.2462C83.563 32.2273 84.3735 32.3218 85.1789 32.1891C84.892 33.2353 84.6032 34.2818 84.3175 35.3292C83.4533 38.4972 82.4885 41.6344 81.4444 44.7475C81.1342 45.6723 80.6274 46.5049 80.1825 47.3646C78.4818 50.6516 76.7024 53.8956 74.7795 57.0591C74.7496 57.1083 74.7312 57.1643 74.6988 57.2359C74.8234 57.3965 75.0508 57.2254 75.1973 57.4157C74.7474 58.1564 74.2952 58.9207 73.824 59.6732C70.1 65.6184 65.8121 71.1264 60.9796 76.2105C60.393 76.8277 59.7584 77.4002 59.1875 78.031C58.9158 78.3312 58.6254 78.4332 58.2517 78.3986C58.2517 78.2175 58.3998 78.1281 58.5002 78.0148C60.894 75.3168 63.0712 72.4478 65.2002 69.5406C65.3347 69.3569 65.4475 69.1575 65.5731 68.9613C62.4824 72.1249 59.4367 75.3276 56.0172 78.3471C56.8213 78.366 57.4826 78.3816 58.1438 78.3971C57.4876 79.1945 56.7011 79.8627 55.9591 80.5732C53.7564 82.683 51.5133 84.7489 49.1975 86.7352C47.9143 87.8359 46.4682 88.7029 45.0558 89.6149C42.5456 91.236 40.0121 92.8213 37.4908 94.4253C37.2445 94.5819 37.0145 94.7637 36.7769 94.9338C36.7109 94.8096 36.6335 94.7276 36.4666 94.7367C36.1573 94.7534 35.8465 94.7415 35.5129 94.6836C38.2653 92.4506 41.0734 90.3142 43.7264 87.9823C40.1309 90.221 36.5057 92.4089 32.8966 94.6845C33.6299 94.6845 34.3631 94.6845 35.0965 94.6845C35.1112 94.7271 35.1259 94.7697 35.1405 94.8122C34.2999 95.3677 33.4074 95.8415 32.5301 96.3371C31.619 96.8519 30.6983 97.3499 29.7769 97.8461C28.8816 98.3281 27.9801 98.7985 27.0997 99.3132C27.4983 99.266 27.8397 99.0801 28.182 98.8965C29.9395 97.954 31.664 96.9489 33.4745 96.1067C34.3347 95.7066 35.2047 95.3332 36.1042 95.0277C36.3167 94.9555 36.5215 94.9367 36.7364 94.9348C31.1785 98.3092 25.2263 100.815 19.0884 102.899C17.0535 103.59 14.9965 104.223 12.907 104.74C12.8015 104.584 12.938 104.601 13.022 104.576C14.8399 104.027 16.6512 103.459 18.4283 102.787C18.7979 102.647 19.17 102.513 19.6491 102.337C17.2406 103.1 14.9561 103.875 12.6296 104.514C12.422 104.571 12.198 104.585 12.0117 104.711L11.978 104.716C11.7601 104.669 11.6138 104.877 11.4089 104.875C11.4067 104.867 11.4045 104.858 11.4023 104.849C11.4208 104.845 11.4536 104.834 11.4558 104.838C11.5004 104.927 11.7026 104.878 11.6448 105.054C10.563 105.274 9.4817 105.497 8.39903 105.713C7.10773 105.97 5.81562 106.224 4.52227 106.471C4.35029 106.503 4.16856 106.485 3.99137 106.491C3.94402 106.397 3.98232 106.352 4.07771 106.337C6.02522 106.033 7.94706 105.602 9.8689 105.17C10.098 105.119 10.325 105.059 10.5848 104.995C10.3255 104.872 10.0806 104.969 9.76376 104.872C12.9249 103.815 15.9316 102.579 18.8738 101.187C16.9854 101.71 8.50335 104.653 8.09982 104.923C8.56662 104.923 8.99884 104.923 9.43105 104.923C9.43751 104.958 9.44409 104.994 9.45054 105.03C7.20999 105.562 4.96945 106.093 2.72876 106.625C2.99696 106.499 3.24786 106.515 3.40749 106.599C2.96663 106.709 2.52988 106.84 2.08463 106.927C-0.866905 107.508 -3.85152 107.793 -6.85424 107.923C-8.31299 107.986 -9.77022 108.085 -11.2281 108.168C-11.666 108.179 -12.1118 108.079 -12.5373 108.262C-12.9735 108.262 -13.4098 108.262 -13.846 108.262C-13.8072 108.056 -13.835 107.867 -13.9996 107.718ZM-33.1777 -95.267C-33.6732 -95.4179 -34.1308 -95.2497 -34.5671 -95.3986C-34.4567 -95.6081 -34.2506 -95.5892 -34.0951 -95.6317C-32.383 -96.1002 -30.6508 -96.4861 -28.92 -96.8792C-28.4023 -96.9968 -27.8828 -97.1223 -27.3743 -97.2911C-26.9674 -97.4262 -26.5333 -97.5025 -26.0911 -97.3814C-29.5031 -96.9542 -32.8606 -96.2693 -36.2866 -95.4597C-36.2696 -95.457 -36.1803 -95.331 -36.2034 -95.4069C-35.9295 -95.3597 -35.6421 -95.4271 -35.3492 -95.321C-35.49 -95.1248 -35.6962 -95.1086 -35.8714 -95.0395C-38.2603 -94.0982 -40.631 -93.114 -42.9499 -92.0091C-43.2854 -91.8494 -43.6252 -91.6985 -43.929 -91.4803L-43.9618 -91.4943L-43.9449 -91.4707C-40.4077 -92.8076 -36.8782 -94.1721 -33.1777 -95.267ZM-16.4177 104.891C-17.8496 103.46 -19.2051 102.107 -20.5952 100.718C-20.7586 101.022 -20.6678 101.297 -20.6827 101.557C-20.6974 101.812 -20.6707 102.07 -20.6705 102.326C-20.6694 103.193 -20.4809 104.043 -20.4293 104.905C-21.5486 104.905 -22.6678 104.905 -23.7871 104.905C-21.8178 105.583 -20.0388 106.649 -18.1071 107.369C-19.0084 106.653 -19.7956 105.838 -20.4449 104.892C-19.1483 104.891 -17.8492 104.891 -16.4177 104.891ZM-9.45234 106.812C-9.58232 106.957 -9.75307 107.066 -9.87701 107.219C-9.04826 107.143 -5.27224 105.506 -4.55083 104.956C-5.76362 104.956 -6.96198 104.956 -8.16049 104.956C-7.89697 103.559 -8.0754 102.171 -8.20675 100.63C-9.54485 102.09 -10.7818 103.439 -12.1007 104.878C-10.7156 104.899 -9.42805 104.918 -8.14059 104.937C-8.41743 105.674 -8.94093 106.24 -9.45234 106.812ZM-2.36052 106.358C-0.88942 105.97 0.570839 105.546 2.01051 105.053C2.05854 105.036 2.13679 105.06 2.13788 104.918C1.22294 104.918 0.307442 104.918 -0.74736 104.918C0.778503 103.686 1.967 102.326 3.04211 100.845C0.694229 102.17 -1.65131 103.491 -3.98232 104.896C-2.93163 104.896 -1.88094 104.896 -0.830399 104.896C-0.819557 104.935 -0.808846 104.973 -0.798004 105.012C-1.19179 105.209 -1.58282 105.411 -1.97977 105.601C-3.13586 106.155 -4.33562 106.608 -5.51518 107.107C-5.58202 107.135 -5.6431 107.177 -5.70692 107.212C-5.73424 107.23 -5.76526 107.266 -5.78818 107.262C-5.83553 107.252 -5.84294 107.209 -5.80424 107.195C-5.78146 107.186 -5.74522 107.213 -5.71516 107.225C-4.59708 106.937 -3.47763 106.652 -2.36052 106.358ZM-69.9016 -77.1847C-73.1169 -74.7406 -76.3342 -72.2989 -79.5503 -69.8559C-79.6113 -69.8095 -79.6663 -69.7555 -79.8183 -69.6226C-78.1092 -69.6152 -76.4997 -69.6083 -74.8904 -69.6013C-74.9307 -69.2041 -75.1553 -68.882 -75.3205 -68.5372C-76.6209 -65.8252 -77.8119 -63.0659 -78.8937 -60.2595C-78.9422 -60.1339 -78.9747 -60.0023 -79.0577 -59.735C-75.5657 -63.0954 -72.1081 -66.2959 -68.5262 -69.5799C-70.7467 -69.5799 -72.8303 -69.5799 -74.914 -69.5799C-73.1485 -72.3116 -71.1796 -74.8939 -69.1553 -77.4361C-69.0347 -77.5876 -68.7992 -77.7002 -68.8779 -77.9645C-68.8283 -77.9783 -68.7786 -77.9921 -68.7289 -78.006C-68.7543 -77.8932 -68.8148 -77.9423 -68.8718 -77.975C-69.1777 -77.6641 -69.5569 -77.4467 -69.9016 -77.1847ZM-36.623 -91.1071C-39.9594 -89.3715 -43.1835 -87.4406 -46.4593 -85.584C-46.3587 -85.381 -46.2051 -85.4655 -46.0917 -85.4651C-44.4688 -85.4588 -42.846 -85.4628 -41.2231 -85.4582C-41.0292 -85.4577 -40.8272 -85.5085 -40.641 -85.4058C-41.1081 -83.9147 -41.6036 -82.4353 -41.9741 -80.9188C-42.1794 -80.078 -42.4057 -79.2415 -42.5463 -78.2834C-39.6498 -80.6702 -36.828 -82.9957 -34.0149 -85.314C-34.0355 -85.4385 -34.115 -85.4368 -34.1929 -85.4368C-36.2728 -85.4371 -38.3524 -85.4378 -40.4323 -85.4353C-40.5078 -85.4352 -40.5833 -85.4035 -40.6587 -85.3863C-39.5375 -87.4462 -38.0988 -89.2798 -36.623 -91.1071ZM-31.8261 94.7117C-30.3815 94.7161 -28.9369 94.7146 -27.4924 94.7109C-27.3021 94.7104 -27.1056 94.7488 -26.849 94.6469C-29.295 92.1919 -31.7118 89.7662 -34.2071 87.2617C-34.3469 89.8161 -34.412 92.2575 -34.1828 94.6997C-34.3736 94.7828 -34.5744 94.7386 -34.7698 94.739C-36.7253 94.7429 -38.6809 94.7414 -40.669 94.7414C-40.6111 94.8119 -40.5849 94.8759 -40.5403 94.8936C-38.7121 95.618 -37.1734 96.8031 -35.6283 97.9777C-34.6035 98.7569 -33.6015 99.5668 -32.5345 100.29C-32.4427 100.352 -32.3626 100.446 -32.2294 100.43C-32.1822 100.276 -32.2894 100.168 -32.3429 100.048C-33.0698 98.4204 -33.65 96.7393 -34.1567 95.0318C-34.1898 94.9203 -34.2367 94.8067 -34.1979 94.6851C-33.4072 94.694 -32.6166 94.7092 -31.8261 94.7117ZM-26.3991 -89.6718C-26.3652 -90.1624 -26.302 -90.6509 -26.2392 -91.2678C-28.7546 -89.3372 -31.1924 -87.4661 -33.6274 -85.5973C-33.5381 -85.376 -33.3786 -85.4654 -33.2648 -85.4651C-31.0886 -85.4593 -28.9125 -85.4615 -26.7362 -85.46C-26.6399 -85.46 -26.5437 -85.4411 -26.4474 -85.4308C-25.9579 -83.0346 -25.355 -80.668 -24.601 -78.222C-22.6232 -80.6289 -20.6967 -82.9734 -18.7899 -85.2937C-18.8277 -85.4481 -18.9128 -85.4364 -18.9878 -85.4364C-21.3817 -85.4371 -23.7756 -85.4374 -26.1693 -85.436C-26.2678 -85.436 -26.3662 -85.4206 -26.4648 -85.4124C-26.5846 -86.8345 -26.4973 -88.2536 -26.3991 -89.6718ZM45.3688 -69.5918C43.413 -69.5975 41.4574 -69.595 39.4893 -69.595C39.5463 -69.3838 39.7265 -69.3801 39.8554 -69.3176C41.5578 -68.4926 42.934 -67.2474 44.2357 -65.9104C45.976 -64.1231 47.5105 -62.1513 49.2173 -60.3335C49.4193 -60.1184 49.6307 -59.9121 49.8986 -59.6398C49.8206 -60.1395 49.647 -60.5133 49.5103 -60.8957C48.499 -63.7245 47.3682 -66.5051 46.1411 -69.2471C46.0972 -69.3452 45.9812 -69.4343 46.0548 -69.5678C46.4052 -69.6601 46.7622 -69.6076 47.1156 -69.6097C48.4408 -69.6171 49.7663 -69.6126 51.118 -69.6595C47.5312 -72.3958 43.9922 -75.1844 40.3369 -77.8635C40.2761 -77.6635 40.3982 -77.5963 40.4599 -77.515C42.3025 -75.0845 44.0061 -72.5567 45.7151 -70.0323C45.8253 -69.8695 45.9503 -69.7166 46.0684 -69.5592C45.8415 -69.6485 45.6025 -69.5912 45.3688 -69.5918ZM-91.4006 -57.7583C-91.1909 -58.2033 -90.9725 -58.6443 -90.7514 -59.101C-91.5336 -58.5336 -98.7822 -49.9015 -99.596 -48.5643C-98.1587 -48.5643 -96.7445 -48.5643 -95.3303 -48.5643C-96.3492 -44.8794 -97.7813 -38.0932 -97.9264 -36.5744C-95.0714 -40.6298 -92.2572 -44.5729 -89.2758 -48.3725C-89.365 -48.5923 -89.5278 -48.5024 -89.6469 -48.5028C-91.3518 -48.5091 -93.0566 -48.5057 -94.7616 -48.5091C-94.9577 -48.5095 -95.158 -48.4713 -95.3503 -48.5455C-94.1954 -51.6856 -92.8256 -54.7337 -91.4006 -57.7583ZM38.6856 81.2015C37.7473 83.1422 36.7464 85.051 35.7007 86.9564C39.3894 84.2444 42.962 81.3917 46.6256 78.3938C46.3381 78.3938 46.1905 78.3934 46.043 78.3938C44.0013 78.3993 41.9595 78.4049 39.9178 78.4105C40.3897 76.6151 40.8849 74.8255 41.2889 73.0124C41.6157 71.546 41.9297 70.0773 42.1924 68.5859C41.9841 68.5685 41.9115 68.7283 41.8109 68.8275C40.5975 70.0237 39.3806 71.2166 38.1838 72.4291C37.836 72.7814 37.421 73.0477 37.0727 73.3949C36.3056 74.1599 35.5912 74.9768 34.7849 75.7036C34.4789 75.9795 34.1702 76.2501 33.8559 76.5164C33.4393 76.869 33.1265 77.3353 32.7065 77.6943C32.4991 77.8717 32.3135 78.0745 32.024 78.3579C34.7388 78.3687 37.3388 78.3791 39.9388 78.3894C39.619 79.3703 39.132 80.2779 38.6856 81.2015ZM-57.6799 -78.0333C-61.2838 -75.3382 -64.7361 -72.4632 -68.2707 -69.6183C-65.7908 -69.6183 -63.3109 -69.6183 -60.831 -69.6183C-61.1037 -68.3406 -61.2573 -67.0438 -61.4137 -65.7491C-61.6463 -63.8255 -61.8409 -61.8973 -61.9519 -59.9619C-61.9551 -59.9056 -61.9523 -59.8492 -61.9523 -59.6661C-58.6913 -63.0092 -55.4798 -66.26 -52.2764 -69.6045C-55.1331 -69.6045 -57.9896 -69.6045 -60.8463 -69.6045C-59.9005 -72.4494 -58.848 -75.2538 -57.6799 -78.0333ZM-105.206 32.2477C-103.145 32.2513 -101.084 32.25 -99.0224 32.2492C-98.9439 32.2492 -98.8654 32.2389 -98.6915 32.2267C-100.876 27.786 -102.867 23.3028 -104.806 18.7907C-105.025 20.1542 -105.112 21.5141 -105.204 22.8722C-105.394 25.6766 -105.57 28.4821 -105.608 31.2946C-105.612 31.596 -105.557 31.9226 -105.721 32.2117C-105.901 32.3371 -106.104 32.2745 -106.296 32.2753C-107.66 32.2812 -109.024 32.2785 -110.49 32.2785C-108.53 36.5921 -106.465 40.7725 -104.227 44.8683C-104.797 40.9 -105.298 36.937 -105.597 32.9501C-105.616 32.6956 -105.617 32.4363 -105.733 32.1987C-105.558 32.2148 -105.382 32.2474 -105.206 32.2477ZM-81.6945 57.3134C-84.8423 53.3671 -87.7718 49.4028 -90.6946 45.3564C-90.8007 45.5769 -90.7339 45.7267 -90.727 45.8731C-90.5613 49.4154 -90.1697 52.9364 -89.7368 56.4536C-89.7009 56.7458 -89.5956 57.0313 -89.6449 57.3326C-91.6612 57.3326 -93.6773 57.3326 -95.8105 57.3326C-92.7313 61.0793 -89.6231 64.6563 -86.3639 68.1253C-86.6165 67.3846 -86.8738 66.6453 -87.1206 65.9026C-88.0249 63.1802 -88.859 60.4368 -89.5484 57.6511C-89.5768 57.5364 -89.6247 57.4266 -89.6634 57.3144C-87.0543 57.3133 -84.4443 57.3134 -81.6945 57.3134ZM-51.9206 78.3715C-48.9305 78.3698 -45.9405 78.3703 -42.9585 78.3703C-42.9403 78.3401 -42.927 78.3241 -42.9208 78.3058C-42.9152 78.2893 -42.9088 78.2626 -42.917 78.2535C-45.8276 75.0703 -48.7393 71.8882 -51.6522 68.707C-51.7152 68.6382 -51.7607 68.5367 -51.8935 68.5516C-52.0627 69.1609 -52.0572 69.796 -52.1102 70.4195C-52.3198 72.8839 -52.4762 75.3522 -52.5121 77.8264C-52.515 78.0239 -52.4978 78.2216 -52.49 78.4193C-53.0437 78.4108 -53.5975 78.3956 -54.1512 78.3949C-56.3088 78.392 -58.4663 78.3936 -60.624 78.3936C-60.8127 78.3936 -61.0014 78.3936 -61.1902 78.3936C-58.5348 79.6549 -56.6083 81.7595 -54.6183 83.7827C-53.6055 84.8122 -52.627 85.8759 -51.5433 86.8336C-51.4134 86.9485 -51.3067 87.1007 -51.0717 87.1644C-51.2153 86.4693 -51.3535 85.8024 -51.4909 85.1353C-51.9216 83.0429 -52.2373 80.9322 -52.4933 78.812C-52.5098 78.6753 -52.506 78.5361 -52.5117 78.398C-52.314 78.3894 -52.1173 78.3717 -51.9206 78.3715ZM21.8227 87.0684C22.4574 86.7494 30.8505 79.4859 31.7874 78.4587C31.6964 78.3496 31.5712 78.3962 31.463 78.3962C28.689 78.3932 25.9149 78.3938 23.141 78.3947C23.0624 78.3947 22.9836 78.4071 22.905 78.4135C22.9398 77.4819 22.834 76.5551 22.7639 75.6297C22.595 73.4007 22.3705 71.1761 22.0795 68.959C22.0666 68.861 22.0739 68.7549 22.0375 68.6665C21.9682 68.4976 21.8625 68.4772 21.7415 68.6326C20.7558 69.897 19.6404 71.048 18.5737 72.2412C16.8458 74.1741 15.095 76.0867 13.3542 78.0082C13.2772 78.0933 13.166 78.1567 13.1622 78.3254C13.2911 78.4112 13.4506 78.3678 13.5956 78.3681C16.4877 78.3714 19.3797 78.37 22.2718 78.3717C22.4891 78.3718 22.7062 78.3873 22.9235 78.3955C22.697 81.2955 22.3528 84.181 21.8227 87.0684ZM76.4794 35.4949C76.2348 38.4545 75.9497 41.4093 75.5423 44.3517C75.5191 44.5193 75.4583 44.6906 75.5643 44.938C77.8486 40.7917 79.9802 36.6316 81.9637 32.4145C81.836 32.2039 81.6594 32.283 81.5155 32.2823C80.1084 32.2758 78.7013 32.2816 77.2941 32.2746C77.1049 32.2737 76.8988 32.349 76.7255 32.2024C76.685 31.6089 76.624 31.0194 76.6013 30.4284C76.4702 27.0259 76.1608 23.6367 75.8403 20.2485C75.7961 19.7814 75.7291 19.3164 75.6159 18.8365C73.6091 23.3167 71.5845 27.7765 69.3899 32.1205C69.4834 32.2867 69.5932 32.2474 69.6817 32.2476C71.9007 32.2503 74.1197 32.2502 76.3387 32.2489C76.475 32.2488 76.6181 32.276 76.7402 32.1832C76.5789 33.2812 76.5705 34.3914 76.4794 35.4949ZM-42.6293 -76.8338C-42.6248 -77.2394 -42.6286 -77.6451 -42.6286 -78.1825C-45.7873 -75.301 -48.8596 -72.4984 -52.0173 -69.6177C-48.7384 -69.6177 -45.5612 -69.6177 -42.3839 -69.6177C-42.0329 -67.8602 -41.693 -66.1005 -41.3283 -64.3458C-41.0067 -62.7983 -40.6487 -61.2586 -40.2103 -59.6192C-37.4468 -62.9509 -34.7321 -66.2238 -31.9321 -69.5995C-35.5026 -69.5995 -38.9521 -69.5995 -42.4017 -69.5995C-42.6237 -72.0063 -42.6559 -74.4191 -42.6293 -76.8338ZM2.05223 -69.6038C4.78717 -66.2221 7.43536 -62.9479 10.0853 -59.6712C10.2422 -59.7231 10.244 -59.8565 10.2708 -59.9504C11.1635 -63.0707 11.9913 -66.2077 12.6488 -69.3873C12.6646 -69.4638 12.6598 -69.5445 12.6646 -69.6233C15.8849 -69.6233 19.1053 -69.6233 22.4358 -69.6233C19.3369 -72.5032 16.3174 -75.3089 13.1986 -78.2073C13.1751 -75.2495 13.0348 -72.4192 12.6851 -69.6032C9.18523 -69.6038 5.68606 -69.6038 2.05223 -69.6038ZM-80.8836 -50.7933C-80.4455 -53.5654 -79.9292 -56.3229 -79.2898 -59.0564C-79.2724 -59.1311 -79.2794 -59.2115 -79.2673 -59.4228C-82.6482 -55.8471 -85.9017 -52.309 -89.0058 -48.652C-88.9439 -48.495 -88.8308 -48.5376 -88.7434 -48.5375C-86.3483 -48.5349 -83.9532 -48.5346 -81.5581 -48.5375C-81.4217 -48.5376 -81.2854 -48.5685 -81.1489 -48.5851C-81.3044 -47.9848 -81.2631 -47.3658 -81.2775 -46.7565C-81.3528 -43.5694 -81.2697 -40.3835 -81.1651 -37.198C-81.1588 -37.0055 -81.1311 -36.8136 -81.0999 -36.4755C-78.0363 -40.5622 -75.0581 -44.5438 -71.9228 -48.4001C-72.0709 -48.5792 -72.2408 -48.5026 -72.3853 -48.5029C-75.099 -48.5084 -77.8127 -48.505 -80.5263 -48.5106C-80.7384 -48.511 -80.9621 -48.4449 -81.1644 -48.5704C-81.1898 -49.3263 -81.0002 -50.0561 -80.8836 -50.7933ZM51.1188 -48.5098C48.3233 -48.5057 45.528 -48.507 42.7325 -48.507C42.5383 -48.507 42.3442 -48.507 42.0117 -48.507C45.1813 -44.5074 48.2525 -40.5704 51.318 -36.4595C51.3709 -36.9961 51.4285 -37.4118 51.4508 -37.8293C51.6312 -41.1924 51.7531 -44.5575 51.7297 -47.9263C51.7282 -48.1428 51.699 -48.3592 51.6825 -48.5755C51.8199 -48.5621 51.9573 -48.5372 52.0947 -48.5371C54.5708 -48.5348 57.0468 -48.535 59.5229 -48.5364C59.6175 -48.5364 59.7181 -48.5117 59.8596 -48.6205C56.7184 -52.329 53.437 -55.9042 50.0908 -59.4611C49.9893 -59.2708 50.0534 -59.1227 50.0824 -58.9816C50.7239 -55.861 51.2216 -52.717 51.6084 -49.5552C51.649 -49.2228 51.746 -48.8955 51.7036 -48.5549C51.5149 -48.4576 51.313 -48.51 51.1188 -48.5098ZM-71.4818 57.3139C-68.3536 57.3105 -65.2253 57.3116 -62.0971 57.3116C-61.9014 57.3116 -61.7055 57.3116 -61.5196 57.3116C-61.5006 57.2763 -61.488 57.2598 -61.4828 57.2411C-61.478 57.224 -61.4734 57.1983 -61.4824 57.1871C-64.501 53.3439 -67.4424 49.4422 -70.3416 45.5086C-70.3869 45.4471 -70.4254 45.3731 -70.5803 45.3713C-70.7445 46.4028 -70.9156 47.4435 -71.0747 48.4861C-71.4268 50.7926 -71.7269 53.1065 -71.9743 55.4264C-72.043 56.0715 -72.1988 56.7153 -72.1086 57.3729C-72.2462 57.3603 -72.3837 57.3367 -72.5212 57.3365C-75.4357 57.3345 -78.35 57.3349 -81.2645 57.3356C-81.3407 57.3356 -81.4169 57.344 -81.6123 57.3555C-78.4 61.0964 -75.1377 64.6776 -71.7484 68.1883C-71.7754 67.7811 -71.7995 67.3736 -71.8297 66.9665C-72.0631 63.8246 -72.1887 60.6788 -72.1609 57.5277C-72.1604 57.4698 -72.1399 57.412 -72.1287 57.3541C-71.917 57.2687 -71.6967 57.314 -71.4818 57.3139ZM-7.81187 57.6872C-5.92695 61.1174 -4.02776 64.5399 -2.23644 68.0206C-2.18359 68.1231 -2.15958 68.2504 -1.9821 68.315C0.618744 64.6883 3.19296 61.0253 5.86009 57.4038C5.6435 57.2971 5.46617 57.3376 5.29625 57.3376C1.05878 57.335 -3.17883 57.335 -7.4163 57.3371C-7.63316 57.3372 -7.85003 57.3603 -8.06689 57.3727C-8.08405 57.1738 -8.17339 57.0019 -8.27235 56.8327C-10.5012 53.0234 -12.8014 49.2572 -15.1052 45.4932C-15.145 45.4282 -15.1963 45.3703 -15.299 45.2335C-17.7005 49.23 -20.0527 53.1936 -22.3697 57.3114C-22.067 57.3114 -21.8599 57.3114 -21.6527 57.3114C-17.3128 57.3114 -12.9729 57.3105 -8.63306 57.3147C-8.44146 57.3148 -8.23927 57.2521 -8.05604 57.3662C-7.90437 57.419 -7.87541 57.5717 -7.81187 57.6872ZM31.4772 -48.5367C34.8243 -48.5349 38.1715 -48.5349 41.5186 -48.5372C41.6315 -48.5374 41.7531 -48.4993 41.8564 -48.5787C41.9068 -48.6771 41.826 -48.7247 41.7782 -48.7793C38.7907 -52.1881 35.809 -55.6017 32.8051 -58.996C32.4379 -59.4111 32.255 -59.8032 32.2377 -60.3777C32.1563 -63.0872 31.9083 -65.7863 31.5963 -68.4793C31.5548 -68.839 31.3927 -69.197 31.5398 -69.568C31.7291 -69.6569 31.9299 -69.6097 32.1245 -69.61C34.2634 -69.6139 36.4023 -69.6124 38.5412 -69.6124C38.7303 -69.6124 38.9196 -69.6124 39.1616 -69.6124C38.319 -70.4787 29.1094 -77.7522 28.6353 -77.9217C28.6358 -77.6811 28.7814 -77.5095 28.8551 -77.3198C29.7917 -74.9051 30.6137 -72.4518 31.3423 -69.9671C31.3879 -69.8115 31.4112 -69.661 31.5508 -69.5608C31.4344 -69.5714 31.3165 -69.5934 31.1985 -69.5935C28.4031 -69.5954 25.6078 -69.595 22.817 -69.595C22.7654 -69.4823 22.8542 -69.4414 22.9128 -69.4131C24.4049 -68.6931 25.5838 -67.5845 26.6861 -66.3804C27.7849 -65.1801 28.762 -63.8809 29.7602 -62.5989C30.5146 -61.6297 31.2509 -60.6442 32.1117 -59.7647C32.2625 -59.6107 32.2685 -59.4671 32.252 -59.2868C32.1064 -57.6895 31.9911 -56.0888 31.8121 -54.4955C31.6066 -52.6658 31.3461 -50.8423 31.1072 -49.0165C31.0866 -48.8596 31.0493 -48.7051 31.0197 -48.5494C30.8517 -48.4547 30.6699 -48.5103 30.4961 -48.51C26.8693 -48.5062 23.2425 -48.5072 19.6156 -48.5072C19.4236 -48.5072 19.2317 -48.5072 19.0215 -48.5072C19.174 -48.1609 27.5554 -36.7978 27.8608 -36.523C28.1846 -37.6602 28.5096 -38.7718 28.8171 -39.8882C29.5787 -42.653 30.3045 -45.4269 30.9371 -48.2244C30.9626 -48.3375 30.9816 -48.452 31.0037 -48.5659C31.1617 -48.5558 31.3194 -48.5367 31.4772 -48.5367ZM-23.2912 -23.4576C-23.2799 -23.209 -23.1254 -23.0452 -23.0196 -22.8659C-20.5753 -18.7235 -18.1319 -14.5808 -15.6725 -10.4475C-15.4597 -10.0901 -15.4333 -9.84205 -15.6591 -9.46117C-18.253 -5.08562 -20.822 -0.695518 -23.3947 3.69252C-23.4916 3.85791 -23.6288 4.0071 -23.664 4.24154C-18.152 4.24154 -12.6563 4.24154 -7.15305 4.24154C-7.12422 4.03963 -7.26971 3.90911 -7.35426 3.76458C-9.92477 -0.624695 -12.5006 -5.01067 -15.0757 -9.39721C-15.0957 -9.43138 -15.1123 -9.46844 -15.1373 -9.4985C-15.3636 -9.76999 -15.3385 -9.99989 -15.1483 -10.318C-12.5986 -14.5821 -10.0692 -18.8582 -7.53667 -23.1326C-7.48932 -23.2126 -7.40038 -23.2822 -7.45295 -23.4576C-12.7289 -23.4576 -17.9984 -23.4576 -23.2912 -23.4576ZM-24.6108 30.2824C-26.9072 26.5113 -29.2029 22.7397 -31.5096 18.9749C-31.6814 18.6945 -31.7159 18.4927 -31.5432 18.1839C-29.042 13.7086 -26.5747 9.21428 -24.038 4.75871C-23.9643 4.62942 -23.831 4.51385 -23.8785 4.3125C-29.1604 4.3125 -34.4419 4.3125 -39.729 4.3125C-39.7685 4.54034 -39.6079 4.68817 -39.5171 4.85219C-37.0514 9.30254 -34.5597 13.7383 -32.0022 18.1367C-31.8014 18.4821 -31.8154 18.7078 -31.9932 19.0371C-34.2294 23.1819 -36.4279 27.3468 -38.5512 31.5507C-38.6548 31.7559 -38.8029 31.9489 -38.8286 32.2231C-33.7175 32.2231 -28.631 32.2231 -23.4496 32.2231C-23.8631 31.5317 -24.2322 30.9041 -24.6108 30.2824ZM8.41138 32.3073C8.351 32.5335 8.49552 32.6721 8.56841 32.8214C10.4101 36.5909 12.2135 40.3784 13.9874 44.1802C14.1338 44.4941 14.1749 44.8479 14.3914 45.1343C14.5104 45.2919 14.3166 45.3745 14.2462 45.4751C12.6674 47.731 11.0835 49.9834 9.50256 52.2379C8.44474 53.7465 7.38993 55.2571 6.33485 56.7677C6.23397 56.9123 6.14174 57.0629 6.04209 57.2159C6.51287 57.3474 17.0738 57.4005 18.9812 57.2866C19.0791 57.1497 18.9915 57.0244 18.9475 56.9013C17.5958 53.1198 16.1441 49.3767 14.6236 45.6601C14.5788 45.5507 14.542 45.4327 14.4728 45.3401C14.3988 45.2411 14.4196 45.1962 14.4875 45.0985C17.3264 41.0182 20.0484 36.8599 22.7525 32.6897C22.8161 32.5914 22.8727 32.4883 22.9802 32.3073C18.0611 32.3073 13.2377 32.3073 8.41138 32.3073ZM33.1314 57.3114C35.9649 57.3114 38.7985 57.3114 41.632 57.3114C41.7706 57.3114 41.91 57.3036 42.048 57.3128C42.2794 57.3283 42.3681 57.2399 42.3365 57.0007C42.2691 56.4909 42.2307 55.9772 42.1606 55.4679C41.7258 52.3123 41.2325 49.1659 40.645 46.0348C40.5909 45.7463 40.4218 45.4286 40.4962 45.1818C40.5646 44.9552 40.8134 44.7466 40.9684 44.5198C43.5928 40.679 46.1823 36.815 48.6813 32.891C48.7866 32.7256 48.8866 32.5568 48.9918 32.3852C48.5755 32.2492 38.1179 32.1951 36.833 32.3163C36.7651 32.4973 36.862 32.6534 36.9137 32.8175C38.1678 36.7972 39.31 40.8094 40.3974 44.8374C40.4681 45.0994 40.4438 45.2912 40.2676 45.5223C37.4823 49.1762 34.7098 52.8399 31.9352 56.5019C31.7584 56.7352 31.5865 56.9723 31.3352 57.3116C32.0275 57.3114 32.5795 57.3114 33.1314 57.3114ZM-7.04914 4.30975C-4.35675 9.07936 -1.69922 13.7871 1.0025 18.5734C3.74527 13.8516 6.36601 9.1097 9.08119 4.30975C3.66237 4.30975 -1.63855 4.30975 -7.04914 4.30975ZM16.551 -9.92989C14.1033 -5.17345 11.6671 -0.480713 9.14529 4.23824C14.2352 4.23824 19.2529 4.23824 24.3492 4.23824C21.771 -0.527931 19.2114 -5.21395 16.551 -9.92989ZM-47.2105 -9.92838C-49.8679 -5.21889 -52.3888 -0.514755 -54.944 4.2436C-49.8989 4.2436 -44.9363 4.2436 -39.8754 4.2436C-42.3676 -0.465347 -44.7874 -5.14999 -47.2105 -9.92838ZM1.00841 18.5693C-1.7673 23.1533 -4.49263 27.6543 -7.25845 32.2223C-2.04909 32.2223 3.05364 32.2223 8.25958 32.2223C5.90676 27.6141 3.48257 23.1366 1.00841 18.5693ZM-15.2693 45.216C-12.5959 40.889 -9.97061 36.64 -7.29977 32.3174C-12.697 32.3174 -17.9929 32.3174 -23.3935 32.3174C-20.6783 36.6282 -18.0033 40.8751 -15.2693 45.216ZM38.5049 4.33103C33.7898 4.33103 29.1409 4.33103 24.4113 4.33103C26.7215 9.0526 28.9772 13.7486 31.2141 18.5799C33.7581 13.8211 36.1043 9.09982 38.5049 4.33103ZM-68.8514 4.31181C-66.5575 9.10146 -64.2034 13.8153 -61.6954 18.5769C-59.5071 13.7772 -57.3253 9.06838 -55.0044 4.31181C-59.6648 4.31181 -64.2147 4.31181 -68.8514 4.31181ZM8.17956 -23.5552C5.45354 -27.8974 2.68923 -32.1317 -0.103905 -36.4186C-2.49392 -32.1241 -4.86034 -27.872 -7.26285 -23.5552C-2.07928 -23.5552 3.01123 -23.5552 8.17956 -23.5552ZM-23.4156 -23.5491C-25.7562 -27.8543 -28.0649 -32.101 -30.4096 -36.4136C-33.2452 -32.1387 -36.0257 -27.9151 -38.8022 -23.5491C-33.6303 -23.5491 -28.5676 -23.5491 -23.4156 -23.5491ZM22.8798 -23.4513C18.0044 -23.4513 13.217 -23.4513 8.42841 -23.4513C8.51241 -23.0911 15.1315 -12.121 16.5798 -9.94677C18.7389 -14.4369 20.7881 -18.9223 22.8798 -23.4513ZM-53.3718 -23.4282C-51.4032 -18.9057 -49.3265 -14.4539 -47.1958 -9.92632C-44.4541 -14.4707 -41.7512 -18.9532 -38.8994 -23.4388C-39.635 -23.4931 -52.8481 -23.4831 -53.3718 -23.4282ZM-38.993 32.3895C-39.4285 32.2341 -50.5731 32.1659 -53.3257 32.2977C-53.2128 32.775 -45.686 44.2106 -44.8535 45.148C-42.9466 40.8325 -41.0466 36.5763 -38.993 32.3895ZM36.6531 32.2359C34.9695 27.6435 33.1395 23.161 31.233 18.6C28.4978 23.1686 25.8093 27.6591 23.0693 32.2359C27.6464 32.2359 32.1002 32.2359 36.6531 32.2359ZM-66.9469 32.2137C-62.4804 32.2137 -58.0721 32.2137 -53.5777 32.2137C-56.2615 27.6756 -59.007 23.2095 -61.6881 18.5711C-63.5597 23.1432 -65.3005 27.6311 -66.9469 32.2137ZM38.5695 4.23728C42.8585 4.23728 47.0808 4.23728 51.3623 4.23728C49.1669 -0.510918 46.9233 -5.19405 44.5355 -9.93236C42.6014 -5.10757 40.6306 -0.447639 38.5695 4.23728ZM-81.4749 4.23523C-77.2819 4.23523 -73.1537 4.23523 -68.9584 4.23523C-70.9568 -0.418671 -72.8913 -5.08534 -74.7788 -9.92934C-77.1451 -5.19144 -79.3163 -0.514755 -81.4749 4.23523ZM27.8319 -36.421C26.26 -32.071 24.6252 -27.8463 22.9498 -23.5653C27.4658 -23.5653 31.9085 -23.5653 36.4663 -23.5653C33.6523 -27.9192 30.7946 -32.139 27.8319 -36.421ZM60.4936 57.3157C59.6783 61.0076 58.5874 64.581 57.4866 68.1648C60.7456 64.6824 63.9081 61.1237 66.9719 57.4074C66.5244 57.2624 66.0969 57.3559 65.6799 57.3389C65.2445 57.3212 64.8079 57.3349 64.3719 57.3349C63.9358 57.3349 63.4997 57.3349 63.0637 57.3349C62.6276 57.3349 62.1916 57.3349 61.7555 57.3349C61.3216 57.3349 60.8876 57.3349 60.4379 57.3349C60.8883 53.3479 61.1842 49.3878 61.2676 45.387C58.3082 49.3631 55.3714 53.3475 52.1844 57.3157C55.0271 57.3157 57.7205 57.3157 60.4936 57.3157ZM-53.4335 -23.5515C-55.0167 -27.8076 -56.5945 -32.0215 -58.0349 -36.2764C-58.0683 -36.2839 -58.0874 -36.2912 -58.1069 -36.292C-58.1247 -36.2927 -58.1519 -36.2927 -58.1594 -36.2821C-61.0836 -32.17 -63.8694 -27.9642 -66.6368 -23.7461C-66.665 -23.7033 -66.6595 -23.6385 -66.6758 -23.5516C-62.269 -23.5515 -57.8827 -23.5515 -53.4335 -23.5515ZM5.74988 -48.4086C5.3097 -48.5299 -7.07288 -48.5658 -8.02351 -48.4451C-5.39055 -44.4402 -2.7775 -40.4655 -0.118042 -36.4204C1.93364 -40.4585 3.89803 -44.4032 5.74988 -48.4086ZM-36.096 -48.4826C-34.2721 -44.4225 -32.3895 -40.4546 -30.4164 -36.4257C-27.7083 -40.4537 -25.0299 -44.4071 -22.3706 -48.4826C-26.9974 -48.4826 -31.5037 -48.4826 -36.096 -48.4826ZM48.8641 -23.4373C44.7698 -23.4373 40.72 -23.4373 36.5974 -23.4373C39.3039 -18.9801 41.944 -14.5281 44.549 -9.9395C46.1061 -14.4428 47.4922 -18.9123 48.8641 -23.4373ZM-66.8691 -23.4295C-70.9154 -23.4295 -74.8992 -23.4295 -78.9157 -23.4295C-77.6723 -18.9198 -76.2675 -14.4793 -74.7658 -9.92426C-72.177 -14.5418 -69.5928 -18.9858 -66.8691 -23.4295ZM62.6961 4.31661C58.9139 4.31661 55.2032 4.31661 51.4147 4.31661C53.2527 9.03132 54.9798 13.7312 56.6471 18.5655C58.816 13.82 60.8462 9.1311 62.6961 4.31661ZM-44.8404 45.3018C-45.2962 45.9544 -49.0141 56.1324 -49.2107 57.2503C-48.5056 57.3688 -36.7773 57.3354 -36.3444 57.1997C-39.1808 53.2275 -42.0085 49.2675 -44.8404 45.3018ZM-86.5868 18.5705C-84.9845 13.7293 -83.3306 9.03036 -81.5394 4.32609C-85.2165 4.32609 -88.8433 4.32609 -92.5412 4.32609C-90.7148 9.11354 -88.7103 13.7941 -86.5868 18.5705ZM-70.5441 45.1976C-69.4503 40.8163 -68.3219 36.5734 -67.0202 32.3791C-67.4764 32.2496 -77.5217 32.199 -78.9999 32.3221C-76.2415 36.661 -73.4816 40.9031 -70.5441 45.1976ZM-22.2758 -48.5735C-17.5117 -48.5735 -12.837 -48.5735 -8.07718 -48.5735C-10.4603 -52.2206 -12.7191 -55.8765 -15.05 -59.5851C-17.4657 -55.8584 -19.8189 -52.2301 -22.2758 -48.5735ZM-22.435 57.3722C-27.0483 57.3722 -31.6029 57.3722 -36.2449 57.3722C-33.5198 61.0578 -30.8334 64.6911 -28.0925 68.3979C-26.2519 64.6286 -24.3943 61.0078 -22.435 57.3722ZM56.6514 18.5892C54.2007 23.2163 51.6791 27.6682 49.1751 32.1382C49.6098 32.2783 58.6922 32.3309 59.9919 32.2032C59.0303 27.6429 57.914 23.1645 56.6514 18.5892ZM-49.1731 -48.3982C-49.6116 -48.5361 -59.5738 -48.5877 -60.9409 -48.4648C-60.1194 -44.4606 -59.1968 -40.4909 -58.1049 -36.4453C-55.0798 -40.4935 -52.1308 -44.4402 -49.1731 -48.3982ZM-89.7064 32.2079C-86.1981 32.2079 -82.7304 32.2079 -79.1741 32.2079C-81.659 27.6885 -84.1642 23.2375 -86.5683 18.723C-87.7832 23.1871 -88.8212 27.6545 -89.7064 32.2079ZM10.1912 -59.5928C8.79433 -55.8498 7.39159 -52.2001 5.84321 -48.563C10.191 -48.563 14.459 -48.563 18.8186 -48.563C15.9243 -52.2633 13.0949 -55.8804 10.1912 -59.5928ZM-36.1505 -48.5515C-37.587 -52.1886 -38.9104 -55.8202 -40.1889 -59.5801C-43.1433 -55.889 -46.0461 -52.2622 -49.0161 -48.5515C-44.677 -48.5515 -40.4567 -48.5515 -36.1505 -48.5515ZM48.9156 -23.5572C52.5196 -23.5572 56.0785 -23.5572 59.7291 -23.5572C57.0452 -27.8981 54.2737 -32.123 51.3484 -36.4242C50.6461 -32.0358 49.8215 -27.8113 48.9156 -23.5572ZM66.9358 -9.73993C65.6246 -5.05501 64.257 -0.405502 62.7458 4.2451C65.9445 4.2451 69.0878 4.2451 72.316 4.2451C70.6384 -0.494034 68.893 -5.14807 66.9358 -9.73993ZM-81.0881 -36.2333C-81.1109 -36.2382 -81.1297 -36.2452 -81.1487 -36.2458C-81.1665 -36.2462 -81.1934 -36.246 -81.201 -36.2352C-83.1373 -33.5089 -84.9254 -30.6841 -86.7356 -27.8742C-87.6425 -26.4665 -88.5198 -25.0397 -89.4522 -23.5551C-85.9059 -23.5551 -82.454 -23.5551 -78.9343 -23.5551C-79.7665 -27.799 -80.4982 -32.0049 -81.0881 -36.2333ZM19.1747 57.3618C20.1979 60.986 21.1448 64.6078 21.9657 68.2697C22.469 67.9561 29.2074 60.0297 31.2429 57.3618C27.1909 57.3618 23.2205 57.3618 19.1747 57.3618ZM71.243 -48.5511C68.3037 -52.2999 65.2728 -55.8437 62.1378 -59.3635C62.0789 -59.1494 62.1977 -59.0376 62.2561 -58.9122C63.7235 -55.7544 65.0878 -52.5533 66.2827 -49.2817C66.3671 -49.0506 66.5257 -48.8246 66.4161 -48.5033C64.337 -48.5033 62.247 -48.5033 60.029 -48.5033C63.0786 -44.57 65.9408 -40.6444 68.8015 -36.6932C68.7578 -37.686 68.5572 -38.6525 68.3816 -39.6217C68.2017 -40.6146 68.0149 -41.6064 67.8169 -42.596C67.619 -43.5853 67.4072 -44.5719 67.195 -45.5584C66.9838 -46.5407 66.7646 -47.5213 66.5382 -48.5509C68.1046 -48.5511 69.6217 -48.5511 71.243 -48.5511ZM-51.9326 68.3684C-51.5125 66.4658 -51.1303 64.647 -50.7059 62.8381C-50.278 61.014 -49.808 59.1996 -49.35 57.3546C-53.3171 57.3546 -57.2512 57.3546 -61.2923 57.3546C-58.1975 61.09 -55.1091 64.6913 -51.9326 68.3684ZM-92.5416 4.24963C-93.9584 -0.386971 -95.2939 -5.02728 -96.4671 -9.72153C-96.9312 -9.24842 -101.466 2.96918 -101.656 4.24977C-98.6456 4.24963 -95.6387 4.24963 -92.5416 4.24963ZM-69.028 78.5426C-69.0429 78.5113 -69.0299 78.4666 -69.0299 78.3854C-66.549 78.3854 -64.0645 78.3854 -61.58 78.3854C-61.5592 78.3498 -61.5385 78.3143 -61.5178 78.2787C-63.1948 76.648 -64.9126 75.059 -66.5898 73.4284C-68.2611 71.8035 -69.9344 70.1804 -71.6983 68.4679C-70.9944 71.8914 -70.0981 75.126 -69.0893 78.3907C-71.2125 78.3907 -73.2789 78.3907 -75.4898 78.3907C-74.8918 78.6923 -74.4167 78.9096 -73.9627 79.1646C-72.3972 80.044 -71.0455 81.2065 -69.7226 82.4052C-68.2402 83.7484 -66.8356 85.1759 -65.3067 86.4683C-65.051 86.6845 -64.7894 86.8936 -64.5305 87.106C-66.1257 84.2923 -67.6426 81.4526 -69.028 78.5426ZM59.8645 -23.4448C62.3248 -19.0039 64.6455 -14.5635 66.8901 -10.0496C67.2472 -11.0172 68.8763 -21.4365 68.9879 -23.4448C65.9453 -23.4448 62.9465 -23.4448 59.8645 -23.4448ZM69.2172 32.3759C69.041 32.2215 68.8767 32.2823 68.7307 32.282C66.0354 32.2772 63.34 32.278 60.6447 32.2787C60.0625 32.2789 60.0612 32.2808 60.1395 32.8946C60.6372 36.8029 61.026 40.722 61.2864 44.6535C61.2942 44.7718 61.2857 44.892 61.4033 45.0853C64.1238 40.8828 66.7291 36.667 69.2172 32.3759ZM-89.594 -23.3449C-89.6959 -23.5181 -89.8255 -23.4723 -89.9326 -23.4724C-92.5691 -23.4753 -95.2058 -23.4757 -97.8424 -23.4739C-98.3397 -23.4735 -98.3499 -23.4672 -98.2984 -22.9944C-98.0044 -20.2977 -97.6942 -17.603 -97.2864 -14.9208C-97.0752 -13.5313 -96.8634 -12.1419 -96.6493 -10.7529C-96.6162 -10.5385 -96.5688 -10.3264 -96.5281 -10.1133C-94.2624 -14.5772 -91.9847 -19.0038 -89.594 -23.3449ZM-15.0847 -59.588C-13.0461 -62.8849 -11.0116 -66.1306 -9.16232 -69.5637C-13.0326 -69.5637 -16.8246 -69.5637 -20.7321 -69.5637C-18.8949 -66.1713 -17.0248 -62.8945 -15.0847 -59.588ZM-61.0486 -48.5636C-61.4755 -52.1702 -61.8027 -55.7788 -61.9776 -59.5506C-65.3325 -55.8789 -68.4686 -52.2244 -71.7383 -48.5636C-68.1315 -48.5636 -64.634 -48.5636 -61.0486 -48.5636ZM-90.829 45.0084C-90.5722 40.7696 -90.2484 36.5474 -89.7432 32.3071C-92.684 32.3071 -95.5715 32.3071 -98.567 32.3071C-96.0783 36.6532 -93.5363 40.8668 -90.829 45.0084ZM-2.04318 68.4052C-4.38873 71.7384 -6.68802 75.0056 -9.03659 78.343C-5.23394 78.343 -1.54097 78.343 2.2404 78.343C0.877602 74.9966 -0.511414 71.7346 -2.04318 68.4052ZM-32.0825 78.3383C-28.3334 78.3383 -24.65 78.3383 -20.8579 78.3383C-23.2846 75.0065 -25.6652 71.738 -28.0931 68.4044C-29.5222 71.7075 -30.8203 74.9865 -32.0825 78.3383ZM79.9905 4.30605C77.4408 4.30605 74.9663 4.30605 72.4177 4.30605C73.6434 8.98273 74.6705 13.6789 75.6676 18.3891C77.2937 13.7532 78.7531 9.08252 79.9905 4.30605ZM52.0488 57.4262C51.8959 57.2748 51.7305 57.3386 51.5865 57.3383C48.7156 57.3335 45.8445 57.3348 42.9735 57.3348C42.9141 57.3348 42.8539 57.3416 42.7955 57.3336C42.5165 57.2958 42.4204 57.3979 42.4249 57.693C42.4464 59.0786 42.4505 60.4644 42.4479 61.8502C42.4461 62.7803 42.4366 63.7108 42.4059 64.6404C42.3663 65.836 42.302 67.0308 42.242 68.3678C45.6259 64.7156 48.9021 61.1373 52.0488 57.4262ZM-101.773 4.32993C-104.168 4.32993 -106.531 4.32993 -108.97 4.32993C-107.794 9.05027 -106.424 13.6965 -104.867 18.2955C-103.936 13.6158 -102.937 8.97862 -101.773 4.32993ZM-14.8189 87.2516C-12.9091 84.2948 -11.0356 81.394 -9.12306 78.433C-13.0208 78.433 -16.8476 78.433 -20.7634 78.433C-18.7301 81.369 -16.7977 84.2822 -14.8189 87.2516ZM-2.31165 94.5823C-2.29285 94.6228 -2.28626 94.6419 -2.27583 94.6585C-2.26649 94.6734 -2.25291 94.6974 -2.24124 94.6974C0.172249 94.6992 2.58574 94.6991 5.05359 94.6991C4.67393 96.6915 4.08305 98.568 3.37056 100.438C3.90215 100.251 11.001 95.5325 11.8539 94.811C11.7214 94.68 11.5574 94.7454 11.4149 94.7449C9.47401 94.7395 7.5331 94.7423 5.59231 94.7406C5.07719 94.7401 5.07197 94.7362 5.07348 94.2345C5.08048 92.0366 4.96532 89.8451 4.73172 87.6599C4.72362 87.5845 4.70674 87.5101 4.67613 87.3307C2.29174 89.8054 -0.0130463 92.1971 -2.31165 94.5823ZM-9.0871 -69.6374C-5.36887 -69.6374 -1.72105 -69.6374 2.02794 -69.6374C-0.35659 -72.4738 -2.61691 -75.3077 -4.94379 -78.204C-6.26967 -75.2554 -7.61985 -72.4478 -9.0871 -69.6374ZM69.0621 -32.5446C69.1224 -29.8339 69.1214 -27.1228 69.0624 -24.4121C69.0431 -23.5206 69.0321 -23.5209 69.902 -23.5209C71.8419 -23.5209 73.782 -23.5209 75.722 -23.5209C75.9129 -23.5209 76.1037 -23.5209 76.3829 -23.5209C74.031 -27.8732 71.5993 -32.0673 68.9468 -36.1575C68.9861 -34.9532 69.0354 -33.7491 69.0621 -32.5446ZM-31.8413 -69.6446C-28.1264 -69.6446 -24.4986 -69.6446 -20.7801 -69.6446C-22.1447 -72.466 -23.4105 -75.2848 -24.6121 -78.2084C-27.0199 -75.3387 -29.3592 -72.4842 -31.8413 -69.6446ZM-42.7774 78.4255C-39.9021 81.4031 -37.0948 84.3103 -34.222 87.2851C-33.6235 84.2514 -32.9196 81.3593 -32.1332 78.4255C-35.686 78.4255 -39.1779 78.4255 -42.7774 78.4255ZM2.29819 78.4225C3.1957 81.3189 3.97668 84.213 4.68546 87.2334C7.49137 84.3037 10.2017 81.4142 12.936 78.4225C9.33951 78.4225 5.84513 78.4225 2.29819 78.4225ZM-104.984 -23.5225C-102.924 -23.5207 -100.863 -23.5191 -98.8028 -23.5225C-98.3838 -23.5232 -98.3729 -23.5328 -98.3799 -23.9501C-98.4452 -27.8703 -98.2843 -31.7844 -98.0626 -35.6969C-98.0548 -35.8347 -98.0616 -35.9733 -98.1027 -36.1365C-99.4167 -34.1149 -100.615 -32.023 -101.806 -29.9274C-102.995 -27.8375 -104.172 -25.7414 -105.29 -23.5631C-105.135 -23.5419 -105.06 -23.5227 -104.984 -23.5225ZM71.9065 57.3008C70.2359 60.8942 68.3895 64.3107 66.5196 67.7214C69.3043 64.3947 71.9644 60.976 74.5175 57.4023C74.0721 57.2665 73.6458 57.3547 73.2299 57.3386C72.7948 57.3219 72.3584 57.3349 71.8389 57.3349C73.1636 53.4599 74.336 49.572 75.2489 45.6032C72.6232 49.532 69.9684 53.4265 67.109 57.301C68.7545 57.3008 70.2867 57.3008 71.9065 57.3008ZM46.7437 78.3501C48.6161 78.3501 50.3306 78.3501 52.1765 78.3501C51.065 79.8316 49.9749 81.2009 48.8468 82.5397C47.7116 83.8869 46.5581 85.2186 45.4181 86.5508C46.0287 86.3439 52.5281 81.2883 55.8111 78.4587C55.3843 78.3338 54.9811 78.4102 54.5874 78.3968C54.1915 78.3832 53.7948 78.3938 53.3986 78.3938C52.9857 78.3938 52.5727 78.3938 52.0536 78.3938C53.0249 76.7909 53.9261 75.2277 54.7592 73.6276C55.5978 72.017 56.4115 70.3939 57.1332 68.7091C53.748 71.9435 50.4089 75.2215 46.7437 78.3501ZM18.4321 94.7102C16.8565 96.7528 15.1296 98.5248 13.3994 100.314C16.9173 98.5941 20.3317 96.6898 23.7865 94.8619C23.7773 94.8224 23.7683 94.783 23.7591 94.7436C22.016 94.7436 20.2727 94.7436 18.4342 94.7436C19.6515 92.3349 20.757 89.9833 21.5807 87.4876C18.486 89.8628 15.3913 92.2381 12.2967 94.6133C12.306 94.6456 12.3155 94.678 12.3248 94.7102C14.3199 94.7102 16.3151 94.7102 18.4321 94.7102ZM80.0381 4.23097C81.8628 4.23097 83.6698 4.23097 85.5355 4.23097C84.5648 -0.433769 83.4393 -5.04939 82.1053 -9.61338C81.5371 -4.98227 80.8725 -0.385185 80.0381 4.23097ZM-100.263 57.3177C-101.02 57.3177 -101.718 57.3177 -102.541 57.3177C-100.001 60.935 -97.4224 64.3847 -94.6927 67.7303C-95.6528 66.0227 -96.6265 64.3224 -97.5692 62.6052C-98.5091 60.8931 -99.4159 59.163 -100.282 57.3172C-98.8197 57.3172 -97.4316 57.3172 -95.9137 57.3172C-98.7339 53.4594 -101.325 49.5928 -103.898 45.701C-102.907 49.625 -101.679 53.4682 -100.263 57.3177ZM17.5392 -85.4602C17.5517 -85.498 17.5642 -85.5358 17.5766 -85.5737C14.4723 -87.3913 11.3687 -89.2102 8.17654 -90.913C9.40566 -89.1717 10.616 -87.434 11.5943 -85.4433C9.40937 -85.4433 7.30841 -85.4433 5.20759 -85.4433C5.72737 -85.0774 6.25278 -84.7816 6.74332 -84.4281C8.02076 -83.5076 9.11358 -82.3869 10.2019 -81.2604C11.0006 -80.4337 11.8017 -79.6094 12.6055 -78.7875C12.7548 -78.6348 12.9212 -78.4986 13.1826 -78.2614C12.8369 -80.7743 12.2335 -83.0938 11.5779 -85.46C13.5974 -85.4602 15.5683 -85.4602 17.5392 -85.4602ZM-109.029 4.25252C-109.793 -0.368576 -110.385 -4.98611 -110.869 -9.62889C-112.144 -5.06324 -113.167 -0.443657 -114.085 4.25252C-112.356 4.25252 -110.716 4.25252 -109.029 4.25252ZM-47.3796 94.7386C-45.3039 94.7386 -43.3354 94.7386 -41.367 94.7386C-41.3546 94.7051 -41.3424 94.6717 -41.3301 94.6382C-44.5222 92.218 -47.7142 89.7977 -51.016 87.2943C-49.9586 89.911 -48.699 92.2941 -47.3635 94.7168C-49.017 94.7168 -50.6059 94.7168 -52.2064 94.7168C-52.1584 94.9404 -51.9952 94.9172 -51.8748 94.9602C-50.2275 95.5493 -48.7009 96.3827 -47.2043 97.2751C-45.6917 98.177 -44.1836 99.086 -42.6712 99.9884C-42.4367 100.128 -42.1905 100.248 -41.9496 100.378C-43.8156 98.5842 -45.6728 96.8121 -47.3796 94.7386ZM-75.8063 78.3735C-79.3127 75.2185 -82.6589 71.9442 -86.0399 68.6892C-84.4503 71.9977 -82.7123 75.2221 -80.6755 78.3708C-81.8307 78.3708 -82.9245 78.3708 -84.0184 78.3708C-84.0261 78.403 -84.0336 78.4351 -84.0413 78.4671C-83.8214 78.5703 -83.6004 78.671 -83.3821 78.7771C-81.9258 79.4841 -80.6592 80.4645 -79.4437 81.5171C-77.8856 82.8663 -76.4415 84.3388 -74.9104 85.7171C-74.4288 86.1507 -73.9536 86.5938 -73.3958 86.9421C-75.916 84.222 -78.4166 81.4856 -80.707 78.3735C-78.9876 78.3735 -77.3969 78.3735 -75.8063 78.3735ZM82.0643 -10.3169C82.0797 -11.1984 82.1131 -12.08 82.1063 -12.9612C82.0945 -14.4664 82.0765 -15.9721 82.026 -17.4764C81.9648 -19.2963 81.8671 -21.1149 81.7843 -22.9341C81.7815 -22.9933 81.7596 -23.0526 81.7629 -23.1108C81.7785 -23.3855 81.6697 -23.4949 81.3798 -23.4809C80.9052 -23.458 80.4288 -23.4748 79.953 -23.4748C78.8245 -23.4748 77.6962 -23.4748 76.4635 -23.4748C78.4461 -19.08 80.2735 -14.7168 82.0643 -10.3169ZM-109.954 -23.4813C-110.219 -23.4839 -110.243 -23.3449 -110.259 -23.1581C-110.319 -22.429 -110.388 -21.7003 -110.436 -20.9704C-110.58 -18.7801 -110.698 -16.5884 -110.753 -14.3938C-110.782 -13.2272 -110.809 -12.0605 -110.829 -10.8937C-110.833 -10.684 -110.87 -10.4679 -110.758 -10.1824C-109.107 -14.6826 -107.343 -19.0657 -105.391 -23.4746C-106.987 -23.4745 -108.471 -23.4669 -109.954 -23.4813ZM-51.968 -85.4335C-51.9441 -85.6398 -51.797 -85.7138 -51.689 -85.8099C-49.7463 -87.5367 -47.652 -89.0665 -45.521 -90.5483C-45.2682 -90.7242 -44.9989 -90.8794 -44.8034 -91.1119C-46.739 -90.2616 -48.664 -89.371 -50.5793 -88.4588C-52.5054 -87.5415 -54.4176 -86.5973 -56.2725 -85.4788C-54.9094 -85.4788 -53.5463 -85.4788 -52.0358 -85.4788C-53.9699 -83.1643 -55.7512 -80.9051 -57.2829 -78.4242C-55.5766 -79.5984 -53.8727 -80.7763 -52.1633 -81.946C-50.4497 -83.1185 -48.7093 -84.2503 -46.9592 -85.4335C-48.6188 -85.4335 -50.2783 -85.4335 -51.968 -85.4335ZM-14.773 87.281C-16.1762 89.7205 -17.4455 92.1607 -18.7131 94.6797C-15.9697 94.6797 -13.3098 94.6797 -10.5461 94.6797C-11.9203 92.1613 -13.2893 89.7409 -14.773 87.281ZM23.4075 -85.3407C23.4209 -85.3767 23.4249 -85.3972 23.4356 -85.4132C23.4446 -85.4269 23.4614 -85.4449 23.4747 -85.4449C24.8758 -85.4463 26.2768 -85.4463 27.7174 -85.4463C27.1552 -86.0638 19.2882 -89.927 16.7649 -90.8519C17.8414 -90.0244 18.9471 -89.1942 20.0307 -88.3361C21.1456 -87.4531 22.2353 -86.5387 23.326 -85.4597C21.6281 -85.4597 20.0229 -85.4597 18.4177 -85.4597C18.4119 -85.4275 18.4061 -85.3954 18.4004 -85.3631C18.7313 -85.2138 19.0662 -85.0725 19.3925 -84.9137C20.8061 -84.2258 22.0855 -83.3289 23.311 -82.3549C24.7525 -81.2092 26.1768 -80.0419 27.611 -78.8868C27.8014 -78.7334 28.0052 -78.597 28.2029 -78.4527C26.8031 -80.9036 25.1874 -83.186 23.4075 -85.3407ZM28.7947 94.7514C30.992 92.3883 33.1133 90.113 35.0288 87.6486C31.4702 89.9936 27.8853 92.2899 24.3003 94.6059C24.392 94.6369 24.2936 94.6001 24.3346 94.6679C24.3428 94.6817 24.361 94.6985 24.3745 94.6985C25.7982 94.6999 27.2218 94.6998 28.6436 94.6998C28.6926 94.9242 28.5201 94.9614 28.4243 95.0344C26.3761 96.596 24.248 98.0429 22.0869 99.4425C21.5984 99.7589 21.0819 100.034 20.7834 100.329C24.5734 98.6479 28.4222 96.7005 32.2885 94.7514C31.1689 94.7514 30.0496 94.7514 28.7947 94.7514ZM-10.5121 -85.4179C-8.64472 -83.0058 -6.83242 -80.6649 -4.94722 -78.2298C-4.08018 -80.6383 -3.34312 -82.9894 -2.73604 -85.4179C-5.32851 -85.4179 -7.85921 -85.4179 -10.5121 -85.4179ZM-57.413 94.699C-58.4643 94.699 -59.4197 94.699 -60.375 94.699C-58.5329 95.4169 -56.7495 96.2295 -55.0216 97.1643C-53.2952 98.0985 -51.5676 99.0306 -49.8146 99.9174C-52.3474 98.2808 -54.8922 96.67 -57.2486 94.7198C-55.8622 94.7198 -54.4758 94.7198 -53.0894 94.7198C-56.7408 92.242 -60.4207 89.8717 -64.0882 87.4549C-62.0442 89.9862 -59.7418 92.2866 -57.413 94.699ZM-8.21086 100.598C-6.32004 98.6485 -4.48083 96.7522 -2.62926 94.8431C-3.09511 94.7076 -8.62662 94.6597 -10.4875 94.7723C-9.66481 96.7073 -8.86832 98.5879 -8.21086 100.598ZM-14.4374 -91.2131C-15.8398 -89.2856 -17.2013 -87.414 -18.605 -85.4846C-15.9146 -85.4846 -13.3133 -85.4846 -10.6036 -85.4846C-11.9209 -87.4193 -13.2009 -89.2654 -14.4374 -91.2131ZM55.1673 -69.5873C55.8807 -69.5873 56.5239 -69.5873 57.19 -69.5873C56.8556 -70.1738 48.9996 -76.4453 47.7982 -77.0659C50.2769 -74.6596 52.7675 -72.2649 55.1714 -69.6096C53.8972 -69.6096 52.7461 -69.6096 51.6218 -69.6096C51.576 -69.5121 51.5932 -69.4877 51.6405 -69.4658C53.5879 -68.5733 55.1235 -67.1524 56.5706 -65.6189C58.1751 -63.9186 59.6016 -62.062 61.1936 -60.3507C61.3409 -60.1924 61.4896 -60.0355 61.6377 -59.8778C59.6735 -63.2448 57.4589 -66.3971 55.1673 -69.5873ZM88.7397 4.29012C87.7274 4.29012 86.7819 4.29218 85.8363 4.28834C85.6484 4.28751 85.597 4.37591 85.6152 4.5461C85.6639 4.99809 85.7055 5.4509 85.7538 5.90302C86.141 9.52105 86.3477 13.1524 86.5463 16.7842C86.5697 17.211 86.5495 17.6402 86.5495 18.0685C86.589 18.0711 86.6284 18.0738 86.668 18.0766C87.5391 13.5286 88.2068 8.95034 88.7397 4.29012ZM-2.56461 -87.2106C-2.58699 -86.7366 -2.62651 -86.2634 -2.6681 -85.7907C-2.68663 -85.58 -2.653 -85.4571 -2.39647 -85.4578C-0.10569 -85.4639 2.18495 -85.4614 4.50264 -85.5174C2.21446 -87.4328 -0.119972 -89.2695 -2.56242 -91.1873C-2.51301 -89.7772 -2.50394 -88.4934 -2.56461 -87.2106ZM-26.3065 94.754C-26.3584 94.9475 -26.1851 94.9464 -26.1022 94.9958C-25.2054 95.5294 -24.4618 96.239 -23.7833 97.0187C-22.8597 98.08 -21.9517 99.155 -21.035 100.222C-20.9348 100.339 -20.8584 100.492 -20.653 100.51C-20.1471 98.5856 -19.5072 96.7011 -18.7898 94.7542C-21.3614 94.754 -23.8346 94.754 -26.3065 94.754ZM-68.0202 -78.5952C-64.3145 -80.9028 -60.6192 -83.2202 -56.8057 -85.4147C-57.8491 -85.4147 -58.8925 -85.4147 -59.9359 -85.4147C-59.9469 -85.4573 -59.9579 -85.4997 -59.9689 -85.5422C-57.0567 -87.4475 -53.9862 -89.08 -50.9247 -90.734C-54.7714 -89.1608 -58.566 -87.4768 -62.2388 -85.4764C-61.5996 -85.4764 -60.9605 -85.4764 -60.3213 -85.4764C-60.3095 -85.4352 -60.2979 -85.3941 -60.2861 -85.353C-62.9628 -83.2147 -65.5641 -80.9905 -68.0202 -78.5952ZM79.1759 -35.987C79.4349 -34.879 79.6965 -33.7716 79.9523 -32.6629C80.6195 -29.7727 81.1968 -26.8643 81.6794 -23.9379C81.732 -23.6194 81.834 -23.5058 82.1611 -23.5137C83.0094 -23.5346 83.8588 -23.5207 84.7895 -23.5207C83.0642 -27.7971 81.2218 -31.9375 79.1759 -35.987ZM-114.196 25.1025C-113.934 27.2033 -113.633 29.2982 -113.311 31.3906C-113.179 32.2478 -113.192 32.2499 -112.328 32.2499C-111.776 32.2499 -111.223 32.2499 -110.591 32.2499C-112.097 27.8661 -113.511 23.5151 -114.794 19.1267C-114.657 21.1335 -114.443 23.1196 -114.196 25.1025ZM34.1282 -85.4441C33.6089 -86.0029 26.0573 -89.5081 23.4665 -90.3982C26.2182 -88.8521 28.9826 -87.3272 31.6121 -85.5481C31.5147 -85.5129 31.608 -85.5587 31.5714 -85.4884C31.563 -85.4725 31.5495 -85.4468 31.5383 -85.4468C30.5719 -85.4449 29.6056 -85.4451 28.6225 -85.3653C29.0125 -85.2053 29.4067 -85.0546 29.7921 -84.8837C31.3916 -84.1741 32.8638 -83.2458 34.2845 -82.2341C35.7362 -81.2003 37.1751 -80.1483 38.6206 -79.1058C38.7939 -78.9809 38.9743 -78.8664 39.182 -78.7813C38.6816 -79.4216 38.0664 -79.9464 37.4798 -80.4972C36.8734 -81.0665 36.253 -81.621 35.6293 -82.1714C35.0055 -82.7218 34.3752 -83.2652 33.7385 -83.8005C33.1114 -84.3277 32.4723 -84.8409 31.7362 -85.4441C32.6094 -85.4441 33.3487 -85.4441 34.1282 -85.4441ZM-23.5922 -95.3255C-23.6066 -95.3667 -23.6212 -95.408 -23.6356 -95.4492C-22.6086 -96.2537 -21.413 -96.7855 -20.1412 -97.4288C-21.1379 -97.379 -25.7813 -95.9499 -26.8217 -95.3896C-25.7836 -95.3896 -24.828 -95.3896 -23.7602 -95.3896C-24.7055 -94.0903 -25.5363 -92.8357 -26.0547 -91.3865C-24.1459 -92.6743 -22.2371 -93.962 -20.2159 -95.3255C-21.4256 -95.3255 -22.509 -95.3255 -23.5922 -95.3255ZM-7.80445 -95.3433C-5.90128 -94.3191 -4.45475 -92.7524 -2.70942 -91.3817C-2.89663 -92.1867 -3.23537 -92.8012 -3.5302 -93.4318C-3.83079 -94.0744 -4.20866 -94.6741 -4.67024 -95.3583C-4.08979 -95.4033 -3.58963 -95.3763 -3.09222 -95.3814C-2.60716 -95.3863 -2.12196 -95.3825 -1.631 -95.4326C-3.73485 -96.3615 -5.93066 -96.9731 -8.14526 -97.5407C-7.02416 -96.93 -5.89194 -96.3463 -4.89067 -95.5484C-4.84414 -95.5113 -4.80351 -95.4703 -4.82973 -95.3432C-5.81138 -95.3433 -6.80785 -95.3433 -7.80445 -95.3433ZM-27.6661 104.913C-28.6584 104.913 -29.5245 104.913 -30.3904 104.913C-27.679 105.497 -25.0953 106.483 -22.4255 107.153C-24.1278 106.482 -25.8547 105.872 -27.5711 104.974C-26.9954 104.839 -26.4966 104.921 -26.0062 104.906C-25.4967 104.89 -24.9863 104.902 -24.4565 104.852C-26.8807 103.5 -29.3322 102.212 -31.7653 100.875C-30.5917 102.357 -29.2802 103.691 -27.6661 104.913ZM-32.2925 -95.3853C-31.6901 -95.3853 -31.0875 -95.3853 -30.4851 -95.3853C-30.4688 -95.3411 -30.4526 -95.2969 -30.4363 -95.2526C-32.4018 -94.0851 -34.3456 -92.8857 -36.1285 -91.445C-33.264 -92.7535 -30.4381 -94.1414 -27.5004 -95.3487C-28.265 -95.3487 -29.0297 -95.3487 -29.7943 -95.3487C-29.8015 -95.3943 -29.8085 -95.4397 -29.8156 -95.4853C-28.1581 -96.1744 -26.4176 -96.6242 -24.7127 -97.1867C-27.2749 -96.7578 -29.8031 -96.1907 -32.2925 -95.3853ZM5.04123 104.9C5.05001 104.938 5.05894 104.977 5.06772 105.015C3.2694 105.657 1.4155 106.125 -0.471199 106.664C0.195038 106.726 5.0411 105.673 7.40792 104.958C6.69625 104.958 6.12074 104.958 5.54537 104.958C5.53261 104.92 5.51984 104.882 5.50721 104.844C6.65096 104.274 7.80898 103.731 8.91552 103.092C10.0269 102.45 11.1373 101.807 12.1786 101.042C9.07461 102.322 5.95576 103.557 2.86849 104.9C3.59264 104.9 4.31693 104.9 5.04123 104.9ZM1.52531 -95.4813C1.51859 -95.4398 1.51186 -95.3984 1.50513 -95.3569C0.815834 -95.3569 0.126541 -95.3569 -0.562614 -95.3569C2.14954 -94.4191 4.57484 -92.9355 7.1135 -91.6782C6.63174 -92.1777 6.06543 -92.5709 5.51037 -92.9746C4.95078 -93.3817 4.37843 -93.7723 3.79866 -94.1499C3.20792 -94.5346 2.60126 -94.8947 2.00529 -95.3521C2.68677 -95.3521 3.36823 -95.3521 4.0497 -95.3521C3.24017 -95.8217 -2.80096 -97.2545 -3.96791 -97.3042C-2.05265 -96.7185 -0.217552 -96.2312 1.52531 -95.4813ZM-14.4118 -91.3041C-13.6139 -92.6234 -12.9383 -93.9215 -12.2883 -95.2996C-13.6114 -95.2996 -14.8806 -95.2996 -16.2017 -95.2996C-15.7297 -93.9203 -15.1129 -92.6338 -14.4118 -91.3041ZM-35.5947 105.047C-35.2855 104.929 -31.2366 105.687 -29.7835 106.126C-31.0457 105.731 -32.1732 105.378 -33.3008 105.025C-33.2983 104.996 -33.2958 104.968 -33.2935 104.94C-32.5876 104.94 -31.8817 104.94 -31.1758 104.94C-31.1658 104.897 -31.1558 104.855 -31.1456 104.813C-34.4436 103.543 -37.7288 102.242 -41.0344 100.891C-38.6896 102.4 -36.2839 103.717 -33.7828 104.872C-34.3999 104.952 -35.0063 104.847 -35.5947 105.047ZM9.75854 -93.8875C11.1455 -93.3346 12.5278 -92.7699 13.9252 -92.2407C11.7455 -93.3817 9.49131 -94.357 7.19585 -95.277C7.51292 -95.4437 7.85632 -95.3286 8.23927 -95.4509C5.73162 -96.0807 3.26104 -96.5623 0.770409 -96.9492C2.64627 -96.4662 4.54533 -96.0746 6.50491 -95.464C6.08958 -95.2549 5.74027 -95.4029 5.41594 -95.27C6.90955 -94.9144 8.35004 -94.449 9.75854 -93.8875ZM-14.0523 107.467C-13.471 106.6 -12.8937 105.803 -12.236 104.972C-12.9278 104.882 -13.5666 104.938 -14.2015 104.928C-14.8518 104.917 -15.5025 104.926 -16.2777 104.926C-15.4888 105.827 -14.7806 106.636 -14.0523 107.467ZM-12.2057 -97.7671C-12.0751 -96.9308 -12.1188 -96.1794 -12.1985 -95.4051C-10.9723 -95.4051 -9.79643 -95.4051 -8.62071 -95.4051C-9.75018 -96.2467 -10.9033 -97.0229 -12.2057 -97.7671ZM-19.0713 -95.3829C-18.2799 -95.3829 -17.4883 -95.3789 -16.6969 -95.3844C-16.2664 -95.3874 -16.2537 -95.3944 -16.2469 -95.7933C-16.236 -96.4297 -16.1146 -97.0435 -15.8573 -97.7623C-17.2863 -97.0587 -18.5368 -96.2532 -19.8243 -95.5152C-19.8208 -95.4711 -19.8174 -95.4269 -19.8141 -95.3829C-19.5665 -95.3829 -19.3189 -95.3829 -19.0713 -95.3829ZM-43.2412 103.74C-42.9527 103.9 -42.6687 104.073 -42.3171 104.029C-42.6252 103.933 -42.9332 103.837 -43.2412 103.74Z" fill="url(#paint0_radial_637_1653)"/>
</g>
<mask id="mask1_637_1653" style="mask-type:luminance" maskUnits="userSpaceOnUse" x="-133" y="-123" width="231" height="231">
<path d="M97.9278 -122.039H-132.03V107.918H97.9278V-122.039Z" fill="white"/>
</mask>
<g mask="url(#mask1_637_1653)">
<path d="M296.216 53.755V37.1844L310.49 28.9267V11.938L296.216 3.68031V-12.8903L310.49 -21.148V-38.1367L296.216 -46.3941V-62.7563L310.49 -71.0139V-88.0027L295.721 -96.4963L281.26 -88.18L266.912 -96.4968L252.565 -88.1803L238.219 -96.4968L223.871 -88.18L209.423 -96.4963L194.974 -88.18L180.627 -96.4968L166.279 -88.18L151.831 -96.4963L137.382 -88.18L123.035 -96.4968L108.687 -88.18L94.2389 -96.4963L79.7902 -88.18L65.443 -96.4968L51.0957 -88.18L36.647 -96.4963L22.1983 -88.18L7.8511 -96.4968L-6.49619 -88.18L-20.9449 -96.4963L-35.3936 -88.18L-49.7408 -96.4968L-49.8951 -96.4076L-64.0879 -88.1799L-78.5366 -96.4961L-92.9852 -88.1799L-107.332 -96.4967L-107.487 -96.4075L-121.68 -88.1799L-136.128 -96.4961L-150.577 -88.1799L-164.924 -96.4967L-165.079 -96.4075L-179.272 -88.1799L-193.72 -96.4961L-208.169 -88.1799L-222.516 -96.4967L-222.67 -96.4075L-236.863 -88.1799L-251.312 -96.4961L-265.76 -88.1799L-280.106 -96.4967L-280.258 -96.4075L-294.447 -88.1799L-308.887 -96.4961L-323.627 -88.0025V-71.2228L-337.902 -62.9652V-45.9765L-323.627 -37.7188V-21.3569L-337.902 -13.0992V3.88936L-323.627 12.147V28.7177L-337.902 36.9753V53.9641L-323.627 62.2215V78.7921L-337.902 87.0498V104.039L-323.198 112.532L-308.802 104.216L-294.455 112.533L-280.108 104.216L-265.761 112.533L-251.414 104.216L-236.966 112.532L-222.517 104.216L-208.17 112.533L-193.822 104.216L-179.374 112.532L-164.925 104.216L-150.578 112.533L-136.231 104.216L-121.782 112.532L-107.333 104.216L-92.9861 112.533L-78.6389 104.216L-64.1903 112.532L-49.7416 104.216L-35.3944 112.533L-21.0471 104.216L-6.59857 112.532L7.85013 104.216L22.1974 112.533L36.5446 104.216L50.9932 112.532L65.4419 104.216L79.7891 112.533L94.1364 104.216L108.585 112.532L123.034 104.216L137.381 112.533L151.729 104.216L166.177 112.532L180.626 104.216L194.974 112.533L209.322 104.216L223.772 112.532L238.224 104.216L252.577 112.533L266.937 104.216L281.41 112.532L296.216 104.039V87.2589L310.49 79.0013V62.0127L296.216 53.755ZM223.745 -37.6009V-21.5034L209.539 -13.3637L195.333 -21.5034V-37.6606L209.438 -45.7993L223.745 -37.6009ZM194.647 -37.6606V-21.5028L180.716 -13.3643L166.784 -21.5028V-37.7189L180.715 -45.7993L194.647 -37.6606ZM166.098 -37.6009V-21.5034L151.961 -13.3637L137.824 -21.5034V-37.6606L151.859 -45.7993L166.098 -37.6009ZM137.137 -37.6606V-21.5028L123.069 -13.3643L109 -21.5028V-37.7189L123.068 -45.7993L137.137 -37.6606ZM108.588 -37.6009V-21.5034L94.3825 -13.3637L80.1766 -21.5034V-37.6606L94.2806 -45.7993L108.588 -37.6009ZM79.4903 -37.6606V-21.5028L65.4217 -13.3643L51.3531 -21.5028V-37.7189L65.4211 -45.7993L79.4903 -37.6606ZM50.6668 -37.6009V-21.5034L36.5982 -13.3637L22.5295 -21.5034V-37.6606L36.4963 -45.7993L50.6668 -37.6009ZM21.9805 -37.6606V-21.5028L7.9119 -13.3643L-6.15674 -21.5028V-37.7189L7.91135 -45.7993L21.9805 -37.6606ZM-6.70575 -37.6009V-21.5034L-20.843 -13.3637L-34.9803 -21.5034V-37.6603L-20.9449 -45.7991L-6.70575 -37.6009ZM-35.6665 -37.6606V-21.5028L-49.5979 -13.3643L-63.5293 -21.5028V-37.7189L-49.5984 -45.7993L-35.6665 -37.6606ZM-64.2156 -37.6009V-21.5034L-78.4214 -13.3637L-92.6273 -21.5034V-37.6603L-78.5233 -45.7991L-64.2156 -37.6009ZM-93.1763 -37.6606V-21.5028L-107.245 -13.3643L-121.314 -21.5028V-37.7189L-107.246 -45.7993L-93.1763 -37.6606ZM-121.863 -37.6009V-21.5034L-136 -13.3637L-150.137 -21.5034V-37.6603L-136.102 -45.7991L-121.863 -37.6009ZM-150.823 -37.6606V-21.5028L-164.892 -13.3643L-178.961 -21.5028V-37.7189L-164.893 -45.7993L-150.823 -37.6606ZM-179.647 -37.6009V-21.5034L-193.716 -13.3637L-207.784 -21.5034V-37.6603L-193.817 -45.7991L-179.647 -37.6009ZM-208.333 -37.6606V-21.5028L-222.402 -13.3643L-236.47 -21.5028V-37.7189L-222.402 -45.7993L-208.333 -37.6606ZM-237.157 -37.6009V-21.5034L-251.363 -13.3637L-265.569 -21.5034V-37.6603L-251.464 -45.7991L-237.157 -37.6009ZM-279.843 37.3301L-265.774 29.1916L-251.706 37.3301V53.6091L-265.774 61.7474L-279.843 53.6091V37.3301ZM180.716 36.7103L166.784 28.5719V12.2929L180.716 4.15439L194.647 12.2929V28.5719L180.716 36.7103ZM-222.196 -12.7444L-208.127 -20.883L-194.059 -12.7444V3.53455L-208.127 11.6731L-222.196 3.53455V-12.7444ZM-193.51 -12.7439L-179.304 -20.8836L-165.098 -12.7439V3.53386L-179.304 11.6735L-193.51 3.53386V-12.7439ZM-164.412 -12.7444L-150.48 -20.883L-136.549 -12.7444V3.53455L-150.48 11.6731L-164.412 3.53455V-12.7444ZM-135.863 -12.7439L-121.725 -20.8836L-107.588 -12.7439V3.53386L-121.725 11.6735L-135.863 3.53386V-12.7439ZM-106.902 -12.7444L-92.8332 -20.883L-78.7646 -12.7444V3.53455L-92.8332 11.6729L-106.902 3.53455V-12.7444ZM-78.3528 -12.7439L-64.1469 -20.8836L-49.9411 -12.7439V3.53386L-64.1469 11.6735L-78.3528 3.53386V-12.7439ZM-49.2548 -12.7444L-35.1862 -20.883L-21.1175 -12.7444V3.53455L-35.1862 11.6729L-49.2548 3.53455V-12.7444ZM-20.4312 -12.7439L-6.49988 -20.8836L7.43149 -12.7439V3.53386L-6.49988 11.6735L-20.4312 3.53386V-12.7439ZM8.11777 -12.7444L22.1864 -20.883L36.255 -12.7444V3.53455L22.1864 11.6729L8.11777 3.53455V-12.7444ZM36.9413 -12.7439L51.0786 -20.8836L65.2158 -12.7439V3.53386L51.0786 11.6735L36.9413 3.53386V-12.7439ZM65.9021 -12.7444L79.8335 -20.883L93.7648 -12.7444V3.53455L79.8335 11.6731L65.9021 3.53455V-12.7444ZM94.4511 -12.7439L108.657 -20.8836L122.863 -12.7439V3.53386L108.657 11.6735L94.4511 3.53386V-12.7439ZM123.412 -12.7444L137.481 -20.883L151.549 -12.7444V3.53455L137.481 11.6731L123.412 3.53455V-12.7444ZM152.098 -12.7439L166.235 -20.8836L180.373 -12.7439V3.53386L166.235 11.6735L152.098 3.53386V-12.7439ZM151.961 36.711L137.824 28.5714V12.2935L151.961 4.15385L166.098 12.2935V28.5712L151.961 36.711ZM123.069 36.7103L109 28.5719V12.2929L123.069 4.15439L137.137 12.2929V28.5719L123.069 36.7103ZM94.3825 36.711L80.1766 28.5712V12.2935L94.3825 4.15385L108.588 12.2935V28.5712L94.3825 36.711ZM65.4217 36.7103L51.3531 28.5719V12.2929L65.4217 4.15439L79.4903 12.2929V28.5719L65.4217 36.7103ZM36.5982 36.711L22.5295 28.5712V12.2935L36.5982 4.15385L50.6668 12.2935V28.5712L36.5982 36.711ZM7.9119 36.7103L-6.15674 28.5719V12.2929L7.9119 4.15439L21.9805 12.2929V28.5719L7.9119 36.7103ZM-20.843 36.711L-34.9803 28.5714V12.2935L-20.843 4.15385L-6.70575 12.2935V28.5712L-20.843 36.711ZM-49.5979 36.7103L-63.5293 28.5719V12.2929L-49.5979 4.15439L-35.6665 12.2929V28.5719L-49.5979 36.7103ZM-78.4214 36.711L-92.6273 28.5712V12.2935L-78.4214 4.15385L-64.2156 12.2935V28.5712L-78.4214 36.711ZM-107.245 36.7103L-121.314 28.5719V12.2929L-107.245 4.15439L-93.1763 12.2929V28.5719L-107.245 36.7103ZM-136 36.711L-150.137 28.5714V12.2935L-136 4.15385L-121.863 12.2935V28.5712L-136 36.711ZM-164.892 36.7103L-178.961 28.5719V12.2929L-164.892 4.15439L-150.823 12.2929V28.5719L-164.892 36.7103ZM-193.716 36.711L-207.784 28.5712V12.2935L-193.716 4.15385L-179.647 12.2935V28.5712L-193.716 36.711ZM-222.402 36.7103L-236.47 28.5718V12.2929L-222.402 4.15439L-208.333 12.2929V28.5719L-222.402 36.7103ZM-251.363 36.711L-265.569 28.5714V12.2935L-251.363 4.15385L-237.157 12.2935V28.5712L-251.363 36.711ZM-251.02 -12.7439L-236.951 -20.8836L-222.882 -12.7439V3.53386L-236.951 11.6735L-251.02 3.53386V-12.7439ZM209.196 3.53455L195.128 11.6731L181.059 3.53455V-12.7444L195.128 -20.883L209.196 -12.7444V3.53455ZM223.745 28.5712L209.539 36.7108L195.333 28.5712V12.2935L209.539 4.15385L223.745 12.2935V28.5712ZM209.196 53.6091L195.128 61.7474L181.059 53.6091V37.3301L195.128 29.1916L209.196 37.3301V53.6091ZM180.373 53.6086L166.235 61.7481L152.098 53.6086V37.3308L166.235 29.1912L180.373 37.3308V53.6086ZM151.549 53.6091L137.481 61.7474L123.412 53.6091V37.3301L137.481 29.1916L151.549 37.3301V53.6091ZM122.863 53.6086L108.657 61.7481L94.4511 53.6086V37.3308L108.657 29.1912L122.863 37.3308V53.6086ZM93.7648 53.6091L79.8335 61.7474L65.9021 53.6091V37.3301L79.8335 29.1916L93.7648 37.3301V53.6091ZM65.2158 53.6086L51.0786 61.7481L36.9413 53.6086V37.3308L51.0786 29.1912L65.2158 37.3308V53.6086ZM36.255 53.6091L22.1864 61.7474L8.11777 53.6091V37.3301L22.1864 29.1916L36.255 37.3301V53.6091ZM7.43149 53.6086L-6.49988 61.7481L-20.4312 53.6086V37.3308L-6.49988 29.1912L7.43149 37.3308V53.6086ZM-21.1175 53.6091L-35.1862 61.7474L-49.2548 53.6091V37.3301L-35.1862 29.1916L-21.1175 37.3301V53.6091ZM-49.9411 53.6086L-64.1469 61.7481L-78.3528 53.6086V37.3308L-64.1469 29.1912L-49.9411 37.3308V53.6086ZM-78.7646 53.6091L-92.8332 61.7475L-106.902 53.6091V37.3301L-92.8332 29.1917L-78.7646 37.3301V53.6091ZM-107.588 53.6086L-121.725 61.7481L-135.863 53.6086V37.3308L-121.725 29.1912L-107.588 37.3308V53.6086ZM-136.549 53.6091L-150.48 61.7474L-164.412 53.6091V37.3301L-150.48 29.1916L-136.549 37.3301V53.6091ZM-165.098 53.6086L-179.304 61.7481L-193.51 53.6086V37.3308L-179.304 29.1912L-165.098 37.3308V53.6086ZM-194.059 53.6091L-208.127 61.7474L-222.196 53.6091V37.3301L-208.127 29.1916L-194.059 37.3301V53.6091ZM-222.882 53.6086L-236.951 61.7481L-251.02 53.6086V37.3308L-236.951 29.1912L-222.882 37.3308V53.6086ZM-279.843 -12.7444L-265.774 -20.883L-251.706 -12.7444V3.53455L-265.774 11.6731L-279.843 3.53455V-12.7444ZM238.02 3.53386L223.951 11.6735L209.883 3.53386V-12.7439L223.951 -20.8836L238.02 -12.7439V3.53386ZM238.02 53.6086L223.951 61.7481L209.883 53.6086V37.3308L223.951 29.1912L238.02 37.3308V53.6086ZM-293.843 12.2929L-279.912 4.15439L-265.98 12.2929V28.5719L-279.912 36.7104L-293.843 28.5719V12.2929ZM-293.843 -21.5028V-37.6605L-279.912 -45.7988L-265.98 -37.6605V-21.5027L-279.912 -13.3641L-293.843 -21.5028ZM252.432 -21.5028L238.363 -13.3643L224.294 -21.5028V-37.7189L238.362 -45.7993L252.432 -37.6606V-21.5028ZM252.432 28.5719L238.363 36.7104L224.294 28.5719V12.2929L238.363 4.15439L252.432 12.2929V28.5719ZM252.432 78.6465L238.363 86.7849L224.294 78.6465V62.3675L238.363 54.229L252.432 62.3675V78.6465ZM223.745 78.6458L209.539 86.7854L195.333 78.6458V62.3682L209.539 54.2285L223.745 62.3682V78.6458ZM194.647 78.6465L180.716 86.7849L166.784 78.6465V62.3675L180.716 54.229L194.647 62.3675V78.6465ZM166.098 78.6458L151.961 86.7854L137.824 78.6458V62.3682L151.961 54.2285L166.098 62.3682V78.6458ZM137.137 78.6465L123.069 86.7849L109 78.6465V62.3675L123.069 54.229L137.137 62.3675V78.6465ZM108.588 78.6458L94.3825 86.7854L80.1766 78.6458V62.3682L94.3825 54.2285L108.588 62.3682V78.6458ZM79.4903 78.6465L65.4217 86.7849L51.3531 78.6465V62.3675L65.4217 54.229L79.4903 62.3675V78.6465ZM50.6668 78.6458L36.5982 86.7854L22.5295 78.6458V62.3682L36.5982 54.2285L50.6668 62.3682V78.6458ZM21.9805 78.6465L7.9119 86.7849L-6.15674 78.6465V62.3675L7.9119 54.229L21.9805 62.3675V78.6465ZM-6.70575 78.6458L-20.843 86.7854L-34.9803 78.6458V62.3682L-20.843 54.2285L-6.70575 62.3682V78.6458ZM-35.6665 78.6465L-49.5979 86.7849L-63.5293 78.6465V62.3675L-49.5979 54.229L-35.6665 62.3675V78.6465ZM-64.2156 78.6458L-78.4214 86.7854L-92.6273 78.6458V62.3682L-78.4214 54.2285L-64.2156 62.3682V78.6458ZM-93.1763 78.6465L-107.245 86.7849L-121.314 78.6465V62.3675L-107.245 54.229L-93.1763 62.3675V78.6465ZM-121.863 78.6458L-136 86.7854L-150.137 78.6458V62.3682L-136 54.2285L-121.863 62.3682V78.6458ZM-150.823 78.6465L-164.892 86.7849L-178.961 78.6465V62.3675L-164.892 54.229L-150.823 62.3675V78.6465ZM-179.647 78.6458L-193.716 86.7854L-207.784 78.6458V62.3682L-193.716 54.2285L-179.647 62.3682V78.6458ZM-208.333 78.6465L-222.402 86.7849L-236.47 78.6465V62.3675L-222.402 54.229L-208.333 62.3675V78.6465ZM-237.157 78.6458L-251.363 86.7854L-265.569 78.6458V62.3682L-251.363 54.2285L-237.157 62.3682V78.6458ZM-265.98 78.6465L-279.912 86.7849L-293.843 78.6465V62.3675L-279.912 54.229L-265.98 62.3675V78.6465ZM-279.843 -62.6104L-265.774 -70.7489L-251.706 -62.6104V-46.3941L-265.774 -38.3139L-279.843 -46.4523V-62.6104ZM-251.02 -62.6097L-236.951 -70.7493L-222.882 -62.6097V-46.4525L-236.849 -38.3139L-251.02 -46.512V-62.6097ZM-222.196 -62.6104L-208.127 -70.7489L-194.059 -62.6104V-46.3941L-208.127 -38.3139L-222.196 -46.4523V-62.6104ZM-193.51 -62.6097L-179.304 -70.7493L-165.098 -62.6097V-46.4525L-179.202 -38.3139L-193.51 -46.512V-62.6097ZM-164.412 -62.6104L-150.48 -70.7489L-136.549 -62.6104V-46.3941L-150.48 -38.3139L-164.412 -46.4523V-62.6104ZM-135.863 -62.6097L-121.725 -70.7493L-107.588 -62.6097V-46.4525L-121.624 -38.3139L-135.863 -46.512V-62.6097ZM-106.902 -62.6104L-92.8332 -70.7488L-78.7646 -62.6104V-46.3941L-92.8327 -38.3139L-106.902 -46.4523V-62.6104ZM-78.3528 -62.6097L-64.1469 -70.7493L-49.9411 -62.6097V-46.4525L-64.0451 -38.3139L-78.3528 -46.512V-62.6097ZM-49.2548 -62.6104L-35.1862 -70.7489L-21.1175 -62.6104V-46.3941L-35.1856 -38.3139L-49.2548 -46.4523V-62.6104ZM-20.4312 -62.6097L-6.49988 -70.7493L7.43149 -62.6097V-46.4523L-6.39804 -38.3139L-20.4312 -46.512V-62.6097ZM8.11777 -62.6104L22.1864 -70.7489L36.255 -62.6104V-46.3941L22.1869 -38.3139L8.11777 -46.4523V-62.6104ZM36.9413 -62.6097L51.0786 -70.7493L65.2158 -62.6097V-46.4523L51.1804 -38.3139L36.9413 -46.512V-62.6097ZM65.9021 -62.6104L79.8335 -70.7489L93.7648 -62.6104V-46.3941L79.834 -38.3139L65.9021 -46.4523V-62.6104ZM94.4511 -62.6097L108.657 -70.7493L122.863 -62.6097V-46.4523L108.759 -38.3139L94.4511 -46.512V-62.6097ZM123.412 -62.6104L137.481 -70.7489L151.549 -62.6104V-46.3941L137.481 -38.3139L123.412 -46.4523V-62.6104ZM152.098 -62.6097L166.235 -70.7493L180.373 -62.6097V-46.4523L166.337 -38.3139L152.098 -46.512V-62.6097ZM181.059 -62.6104L195.128 -70.7489L209.196 -62.6104V-46.3941L195.128 -38.3139L181.059 -46.4523V-62.6104ZM209.883 -62.6097L223.951 -70.7493L238.02 -62.6097V-46.4523L224.053 -38.3139L209.883 -46.512V-62.6097ZM238.706 -62.6104L252.706 -70.7489L266.706 -62.6104V-46.4525L252.706 -38.3143L238.706 -46.4525V-62.6104ZM266.706 3.53455L252.706 11.6731L238.706 3.53455V-12.7444L252.706 -20.883L266.706 -12.7444V3.53455ZM266.706 53.6091L252.706 61.7474L238.706 53.6091V37.3301L252.706 29.1916L266.706 37.3301V53.6091ZM266.912 54.2291L280.843 62.3676V78.6465L266.912 86.7849L252.981 78.6465V62.3675L266.912 54.2291ZM-308.392 37.3301L-294.323 29.1916L-280.255 37.3301V53.6091L-294.323 61.7474L-308.392 53.6091V37.3301ZM-308.392 -12.7444L-294.323 -20.883L-280.255 -12.7444V3.53455L-294.323 11.6731L-308.392 3.53455V-12.7444ZM-308.392 -62.6104L-294.323 -70.7489L-280.255 -62.6104V-46.4526L-294.324 -38.3139L-308.392 -46.3941V-62.6104ZM280.843 -21.5028L266.912 -13.3643L252.981 -21.5028V-37.6606L266.912 -45.7993L280.843 -37.7189V-21.5028ZM280.843 28.5719L266.912 36.7104L252.981 28.5719V12.2929L266.912 4.15439L280.843 12.2929V28.5719ZM-322.941 62.3682L-308.735 54.2285L-294.529 62.3682V78.6458L-308.735 86.7854L-322.941 78.6458V62.3682ZM-322.941 12.2935L-308.735 4.15385L-294.529 12.2935V28.5712L-308.735 36.7108L-322.941 28.5712V12.2935ZM-322.941 -21.5034V-37.6009L-308.633 -45.7991L-294.529 -37.6606V-21.5035L-308.735 -13.3639L-322.941 -21.5034ZM295.53 -62.6097V-46.512L281.29 -38.3139L267.255 -46.4523V-62.6097L281.392 -70.7493L295.53 -62.6097ZM295.53 3.53386L281.392 11.6735L267.255 3.53386V-12.7439L281.392 -20.8836L295.53 -12.7439V3.53386ZM295.53 53.6086L281.392 61.7481L267.255 53.6086V37.3308L281.392 29.1912L295.53 37.3308V53.6086ZM309.804 78.6458L295.667 86.7854L281.53 78.6458V62.3682L295.667 54.2285L309.804 62.3682V78.6458ZM281.392 111.823L267.255 103.683V87.4054L281.392 79.2658L295.53 87.4054V103.683L281.392 111.823ZM252.706 111.822L238.706 103.684V87.4047L252.706 79.2663L266.706 87.4047V103.684L252.706 111.822ZM223.951 111.823L209.883 103.683V87.4054L223.951 79.2658L238.02 87.4054V103.683L223.951 111.823ZM195.128 111.822L181.059 103.684V87.4047L195.128 79.2663L209.196 87.4047V103.684L195.128 111.822ZM166.235 111.823L152.098 103.683V87.4054L166.235 79.2658L180.373 87.4054V103.683L166.235 111.823ZM137.481 111.822L123.412 103.684V87.4047L137.481 79.2663L151.549 87.4047V103.684L137.481 111.822ZM108.657 111.823L94.4511 103.683V87.4054L108.657 79.2658L122.863 87.4054V103.683L108.657 111.823ZM79.8335 111.822L65.9021 103.684V87.4047L79.8335 79.2663L93.7648 87.4047V103.684L79.8335 111.822ZM51.0786 111.823L36.9413 103.683V87.4054L51.0786 79.2658L65.2158 87.4054V103.683L51.0786 111.823ZM22.1864 111.822L8.11777 103.684V87.4047L22.1864 79.2663L36.255 87.4047V103.684L22.1864 111.822ZM-6.49988 111.823L-20.4312 103.683V87.4054L-6.49988 79.2658L7.43149 87.4054V103.683L-6.49988 111.823ZM-35.1862 111.822L-49.2548 103.684V87.4047L-35.1862 79.2663L-21.1175 87.4047V103.684L-35.1862 111.822ZM-64.1469 111.823L-78.3528 103.683V87.4054L-64.1469 79.2658L-49.9411 87.4054V103.683L-64.1469 111.823ZM-92.8332 111.822L-106.902 103.684V87.4047L-92.8332 79.2663L-78.7646 87.4047V103.684L-92.8332 111.822ZM-121.725 111.823L-135.863 103.683V87.4054L-121.725 79.2658L-107.588 87.4054V103.683L-121.725 111.823ZM-150.48 111.822L-164.412 103.684V87.4047L-150.48 79.2663L-136.549 87.4047V103.684L-150.48 111.822ZM-179.304 111.823L-193.51 103.683V87.4054L-179.304 79.2658L-165.098 87.4054V103.683L-179.304 111.823ZM-208.127 111.822L-222.196 103.684V87.4047L-208.127 79.2663L-194.059 87.4047V103.684L-208.127 111.822ZM-236.951 111.823L-251.02 103.683V87.4054L-236.951 79.2658L-222.882 87.4054V103.683L-236.951 111.823ZM-265.774 111.822L-279.843 103.684V87.4047L-265.774 79.2663L-251.706 87.4047V103.684L-265.774 111.822ZM-294.323 111.822L-308.392 103.684V87.4047L-294.323 79.2663L-280.255 87.4047V103.684L-294.323 111.822ZM-337.216 87.4054L-323.147 79.2658L-309.078 87.4054V103.683L-323.147 111.823L-337.216 103.683V87.4054ZM-337.216 37.3308L-323.147 29.1912L-309.078 37.3308V53.6086L-323.147 61.7481L-337.216 53.6086V37.3308ZM-337.216 -12.7439L-323.147 -20.8836L-309.078 -12.7439V3.53386L-323.147 11.6735L-337.216 3.53386V-12.7439ZM-337.216 -62.6097L-323.147 -70.7493L-309.078 -62.6097V-46.512L-323.304 -38.2824L-337.216 -46.3319V-62.6097ZM-308.735 -95.7868L-294.529 -87.6472V-71.3694L-308.735 -63.2298L-322.941 -71.3694V-87.6472L-308.735 -95.7868ZM-279.912 -95.7861L-265.98 -87.6476V-71.3686L-279.912 -63.2301L-293.843 -71.3686V-87.6476L-279.912 -95.7861ZM-251.363 -95.7868L-237.157 -87.6472V-71.3694L-251.363 -63.2298L-265.569 -71.3694V-87.6472L-251.363 -95.7868ZM-222.402 -95.7861L-208.333 -87.6476V-71.3686L-222.402 -63.2301L-236.47 -71.3686V-87.6476L-222.402 -95.7861ZM-193.716 -95.7868L-179.647 -87.6472V-71.3694L-193.716 -63.2298L-207.784 -71.3693V-87.647L-193.716 -95.7868ZM-164.892 -95.7861L-150.823 -87.6476V-71.3686L-164.892 -63.2301L-178.961 -71.3687V-87.6477L-164.892 -95.7861ZM-136 -95.7868L-121.863 -87.6472V-71.3694L-136 -63.2298L-150.137 -71.3694V-87.6472L-136 -95.7868ZM-107.245 -95.7861L-93.1763 -87.6477V-71.3687L-107.245 -63.2302L-121.314 -71.3687V-87.6477L-107.245 -95.7861ZM-78.4214 -95.7868L-64.2156 -87.647V-71.3693L-78.4214 -63.2297L-92.6273 -71.3693V-87.647L-78.4214 -95.7868ZM-49.5979 -95.7861L-35.6665 -87.6477V-71.3687L-49.5979 -63.2302L-63.5293 -71.3687V-87.6477L-49.5979 -95.7861ZM-20.843 -95.7868L-6.70575 -87.6472V-71.3694L-20.843 -63.2298L-34.9803 -71.3694V-87.6472L-20.843 -95.7868ZM7.9119 -95.7861L21.9805 -87.6477V-71.3687L7.9119 -63.2302L-6.15674 -71.3687V-87.6477L7.9119 -95.7861ZM36.5982 -95.7868L50.6668 -87.6472V-71.3694L36.5982 -63.2298L22.5295 -71.3693V-87.647L36.5982 -95.7868ZM65.4217 -95.7861L79.4903 -87.6476V-71.3686L65.4217 -63.2301L51.3531 -71.3687V-87.6477L65.4217 -95.7861ZM94.3825 -95.7868L108.588 -87.6472V-71.3694L94.3825 -63.2298L80.1766 -71.3693V-87.647L94.3825 -95.7868ZM123.069 -95.7861L137.137 -87.6476V-71.3686L123.069 -63.2301L109 -71.3687V-87.6477L123.069 -95.7861ZM151.961 -95.7868L166.098 -87.6472V-71.3694L151.961 -63.2298L137.824 -71.3694V-87.6472L151.961 -95.7868ZM180.716 -95.7861L194.647 -87.6476V-71.3686L180.716 -63.2301L166.784 -71.3687V-87.6477L180.716 -95.7861ZM209.539 -95.7868L223.745 -87.6472V-71.3694L209.539 -63.2298L195.333 -71.3693V-87.647L209.539 -95.7868ZM238.363 -95.7861L252.432 -87.6476V-71.3686L238.363 -63.2301L224.294 -71.3687V-87.6477L238.363 -95.7861ZM266.912 -95.7861L280.843 -87.6476V-71.3686L266.912 -63.2301L252.981 -71.3687V-87.6477L266.912 -95.7861ZM309.804 -71.3693L295.667 -63.2297L281.53 -71.3693V-87.647L295.667 -95.7867L309.804 -87.647V-71.3693ZM309.804 -21.5034L295.667 -13.3637L281.53 -21.5034V-37.6009L295.823 -45.8306L309.804 -37.7811V-21.5034ZM309.804 28.5712L295.667 36.7108L281.53 28.5712V12.2935L295.667 4.15385L309.804 12.2935V28.5712Z" fill="url(#paint1_radial_637_1653)"/>
</g>
<path d="M36.9547 7.89765C39.0722 7.89765 40.7888 6.18107 40.7888 4.06357C40.7888 1.94607 39.0722 0.229492 36.9547 0.229492C34.8372 0.229492 33.1206 1.94607 33.1206 4.06357C33.1206 6.18107 34.8372 7.89765 36.9547 7.89765Z" fill="url(#paint2_radial_637_1653)"/>
<path d="M8.05625 7.89765C10.1738 7.89765 11.8903 6.18107 11.8903 4.06357C11.8903 1.94607 10.1738 0.229492 8.05625 0.229492C5.93875 0.229492 4.22217 1.94607 4.22217 4.06357C4.22217 6.18107 5.93875 7.89765 8.05625 7.89765Z" fill="url(#paint3_radial_637_1653)"/>
<path d="M36.3399 40.4851C38.4574 40.4851 40.174 38.7685 40.174 36.651C40.174 34.5335 38.4574 32.8169 36.3399 32.8169C34.2224 32.8169 32.5059 34.5335 32.5059 36.651C32.5059 38.7685 34.2224 40.4851 36.3399 40.4851Z" fill="url(#paint4_radial_637_1653)"/>
<path d="M7.44053 40.4851C9.55803 40.4851 11.2746 38.7685 11.2746 36.651C11.2746 34.5335 9.55803 32.8169 7.44053 32.8169C5.32302 32.8169 3.60645 34.5335 3.60645 36.651C3.60645 38.7685 5.32302 40.4851 7.44053 40.4851Z" fill="url(#paint5_radial_637_1653)"/>
</g>
<defs>
<radialGradient id="paint0_radial_637_1653" cx="0" cy="0" r="1" gradientUnits="userSpaceOnUse" gradientTransform="translate(-13.9642 4.88329) scale(103.385 103.385)">
<stop stop-color="#55FFFC"/>
<stop offset="0.4363" stop-color="#53F8F6"/>
<stop offset="0.9931" stop-color="#080E28"/>
</radialGradient>
<radialGradient id="paint1_radial_637_1653" cx="0" cy="0" r="1" gradientUnits="userSpaceOnUse" gradientTransform="translate(-13.7058 8.01804) scale(240.859 240.859)">
<stop offset="0.0834" stop-color="#00FFFF"/>
<stop offset="0.198" stop-color="#1C9FC7"/>
<stop offset="0.3156" stop-color="#37418F"/>
<stop offset="0.3841" stop-color="#37418F"/>
<stop offset="0.6548" stop-color="#37418F"/>
<stop offset="0.8724" stop-color="#37418F"/>
<stop offset="1" stop-color="#0ECDE2"/>
</radialGradient>
<radialGradient id="paint2_radial_637_1653" cx="0" cy="0" r="1" gradientUnits="userSpaceOnUse" gradientTransform="translate(36.9547 4.06354) scale(3.83401)">
<stop stop-color="#FDE0BF"/>
<stop offset="0.1541" stop-color="#FDDFBD"/>
<stop offset="0.2325" stop-color="#FDDBB5"/>
<stop offset="0.2939" stop-color="#FCD5A8"/>
<stop offset="0.3464" stop-color="#FBCC95"/>
<stop offset="0.3932" stop-color="#FBC07C"/>
<stop offset="0.4361" stop-color="#F9B25E"/>
<stop offset="0.475" stop-color="#F8A13B"/>
<stop offset="0.5019" stop-color="#F7931E"/>
<stop offset="0.5837" stop-color="#F9B25E"/>
<stop offset="0.6788" stop-color="#FCD3A3"/>
<stop offset="0.7586" stop-color="#FDEBD5"/>
<stop offset="0.8189" stop-color="#FFF9F3"/>
<stop offset="0.8526" stop-color="white"/>
<stop offset="1" stop-color="#31AEE3"/>
</radialGradient>
<radialGradient id="paint3_radial_637_1653" cx="0" cy="0" r="1" gradientUnits="userSpaceOnUse" gradientTransform="translate(8.05622 4.06354) scale(3.83401 3.83401)">
<stop stop-color="#FDE0BF"/>
<stop offset="0.1541" stop-color="#FDDFBD"/>
<stop offset="0.2325" stop-color="#FDDBB5"/>
<stop offset="0.2939" stop-color="#FCD5A8"/>
<stop offset="0.3464" stop-color="#FBCC95"/>
<stop offset="0.3932" stop-color="#FBC07C"/>
<stop offset="0.4361" stop-color="#F9B25E"/>
<stop offset="0.475" stop-color="#F8A13B"/>
<stop offset="0.5019" stop-color="#F7931E"/>
<stop offset="0.5837" stop-color="#F9B25E"/>
<stop offset="0.6788" stop-color="#FCD3A3"/>
<stop offset="0.7586" stop-color="#FDEBD5"/>
<stop offset="0.8189" stop-color="#FFF9F3"/>
<stop offset="0.8526" stop-color="white"/>
<stop offset="1" stop-color="#31AEE3"/>
</radialGradient>
<radialGradient id="paint4_radial_637_1653" cx="0" cy="0" r="1" gradientUnits="userSpaceOnUse" gradientTransform="translate(36.3399 36.651) scale(3.83401)">
<stop stop-color="#FDE0BF"/>
<stop offset="0.1541" stop-color="#FDDFBD"/>
<stop offset="0.2325" stop-color="#FDDBB5"/>
<stop offset="0.2939" stop-color="#FCD5A8"/>
<stop offset="0.3464" stop-color="#FBCC95"/>
<stop offset="0.3932" stop-color="#FBC07C"/>
<stop offset="0.4361" stop-color="#F9B25E"/>
<stop offset="0.475" stop-color="#F8A13B"/>
<stop offset="0.5019" stop-color="#F7931E"/>
<stop offset="0.5837" stop-color="#F9B25E"/>
<stop offset="0.6788" stop-color="#FCD3A3"/>
<stop offset="0.7586" stop-color="#FDEBD5"/>
<stop offset="0.8189" stop-color="#FFF9F3"/>
<stop offset="0.8526" stop-color="white"/>
<stop offset="1" stop-color="#31AEE3"/>
</radialGradient>
<radialGradient id="paint5_radial_637_1653" cx="0" cy="0" r="1" gradientUnits="userSpaceOnUse" gradientTransform="translate(7.44052 36.651) scale(3.83401)">
<stop stop-color="#FDE0BF"/>
<stop offset="0.1541" stop-color="#FDDFBD"/>
<stop offset="0.2325" stop-color="#FDDBB5"/>
<stop offset="0.2939" stop-color="#FCD5A8"/>
<stop offset="0.3464" stop-color="#FBCC95"/>
<stop offset="0.3932" stop-color="#FBC07C"/>
<stop offset="0.4361" stop-color="#F9B25E"/>
<stop offset="0.475" stop-color="#F8A13B"/>
<stop offset="0.5019" stop-color="#F7931E"/>
<stop offset="0.5837" stop-color="#F9B25E"/>
<stop offset="0.6788" stop-color="#FCD3A3"/>
<stop offset="0.7586" stop-color="#FDEBD5"/>
<stop offset="0.8189" stop-color="#FFF9F3"/>
<stop offset="0.8526" stop-color="white"/>
<stop offset="1" stop-color="#31AEE3"/>
</radialGradient>
</defs>
</svg>
