<svg width="1728" height="1117" viewBox="0 0 1728 1117" fill="none" xmlns="http://www.w3.org/2000/svg">
<g clip-path="url(#clip0_473_149)">
<rect width="1728" height="1117" fill="white"/>
<g clip-path="url(#clip1_473_149)">
<mask id="mask0_473_149" style="mask-type:luminance" maskUnits="userSpaceOnUse" x="-2" y="-583" width="1733" height="1733">
<path d="M1731 -583H-2V1150H1731V-583Z" fill="white"/>
</mask>
<g mask="url(#mask0_473_149)">
<mask id="mask1_473_149" style="mask-type:luminance" maskUnits="userSpaceOnUse" x="923" y="-270" width="1120" height="712">
<path d="M2042.12 -269.188H923.907V441.844H2042.12V-269.188Z" fill="white"/>
</mask>
<g mask="url(#mask1_473_149)">
<path d="M1727.73 242.869L1764.37 260.113C1766.42 261.075 1767.3 263.527 1766.34 265.572C1765.37 267.625 1762.92 268.501 1760.88 267.539L1724.23 250.295C1722.18 249.334 1721.3 246.881 1722.27 244.836C1723.23 242.783 1725.68 241.908 1727.73 242.869Z" fill="#EDF3FF"/>
<path d="M1709.74 372.652L1703.19 332.68C1702.83 330.445 1704.35 328.33 1706.58 327.966C1708.82 327.602 1710.93 329.119 1711.3 331.354L1717.84 371.326C1718.2 373.562 1716.68 375.676 1714.45 376.04C1712.21 376.404 1710.1 374.887 1709.74 372.652Z" fill="#EDF3FF"/>
</g>
<mask id="mask2_473_149" style="mask-type:luminance" maskUnits="userSpaceOnUse" x="923" y="-270" width="1120" height="712">
<path d="M2042.12 -269.188H923.907V441.844H2042.12V-269.188Z" fill="white"/>
</mask>
<g mask="url(#mask2_473_149)">
<path d="M1007.61 279.167L1044.1 261.594C1046.14 260.607 1048.59 261.473 1049.57 263.509C1050.56 265.554 1049.69 268.007 1047.66 268.986L1011.17 286.558C1009.12 287.546 1006.67 286.68 1005.68 284.643C1004.71 282.607 1005.56 280.155 1007.61 279.167Z" fill="#EDF3FF"/>
<path d="M1067.15 122.653L1071.3 162.936C1071.53 165.189 1069.9 167.208 1067.63 167.442C1065.38 167.676 1063.36 166.038 1063.13 163.777L1058.98 123.493C1058.74 121.24 1060.38 119.221 1062.64 118.988C1064.9 118.762 1066.91 120.4 1067.15 122.653Z" fill="#EDF3FF"/>
<path d="M1124.36 212.152L1130.78 172.164C1131.13 169.928 1133.25 168.403 1135.48 168.758C1137.72 169.113 1139.24 171.228 1138.89 173.463L1132.47 213.452C1132.11 215.688 1130 217.213 1127.76 216.858C1125.52 216.502 1123.99 214.397 1124.36 212.152Z" fill="#EDF3FF"/>
<path d="M1212.06 329.156L1176.23 310.275C1174.23 309.217 1173.46 306.731 1174.52 304.729C1175.57 302.727 1178.06 301.956 1180.06 303.013L1215.89 321.894C1217.89 322.952 1218.66 325.438 1217.61 327.44C1216.55 329.442 1214.07 330.213 1212.06 329.156Z" fill="#EDF3FF"/>
<path d="M1088.28 444.392L1052.45 425.511C1050.45 424.454 1049.68 421.967 1050.73 419.966C1051.79 417.964 1054.28 417.193 1056.28 418.25L1092.11 437.131C1094.11 438.188 1094.88 440.675 1093.83 442.676C1092.77 444.678 1090.28 445.449 1088.28 444.392Z" fill="#EDF3FF"/>
<path d="M1195.99 461.358L1195.13 420.867C1195.08 418.596 1196.88 416.725 1199.15 416.673C1201.42 416.621 1203.29 418.423 1203.35 420.693L1204.2 461.185C1204.26 463.455 1202.45 465.327 1200.18 465.379C1197.91 465.422 1196.04 463.628 1195.99 461.358Z" fill="#EDF3FF"/>
<path d="M1100.32 279.757L1078.91 314.131C1077.71 316.055 1075.17 316.644 1073.25 315.448C1071.33 314.252 1070.74 311.714 1071.93 309.79L1093.34 275.416C1094.54 273.492 1097.08 272.903 1099 274.099C1100.93 275.295 1101.52 277.833 1100.32 279.757Z" fill="#EDF3FF"/>
<path d="M966.02 225.745L950.622 263.204C949.764 265.301 947.364 266.306 945.267 265.44C943.17 264.582 942.165 262.181 943.032 260.085L958.429 222.626C959.287 220.529 961.687 219.524 963.784 220.39C965.881 221.248 966.878 223.648 966.02 225.745Z" fill="#EDF3FF"/>
<path d="M957.847 123.239L923.299 102.105C921.367 100.918 920.761 98.3966 921.939 96.4643C923.126 94.532 925.648 93.9254 927.58 95.1039L962.127 116.238C964.06 117.425 964.666 119.946 963.488 121.879C962.309 123.811 959.779 124.418 957.847 123.239Z" fill="#EDF3FF"/>
<path d="M1252.49 442.685L1291.4 431.472C1293.58 430.848 1295.85 432.105 1296.48 434.28C1297.1 436.455 1295.85 438.733 1293.67 439.357L1254.76 450.57C1252.58 451.194 1250.3 449.937 1249.68 447.762C1249.05 445.587 1250.3 443.317 1252.49 442.685Z" fill="#EDF3FF"/>
<path d="M1185.3 238.487L1148.26 254.856C1146.19 255.774 1143.76 254.83 1142.84 252.759C1141.93 250.688 1142.87 248.262 1144.94 247.343L1181.98 230.975C1184.06 230.056 1186.48 231.001 1187.4 233.072C1188.32 235.151 1187.38 237.569 1185.3 238.487Z" fill="#EDF3FF"/>
<path d="M1130.84 396.742L1124.3 356.771C1123.93 354.535 1125.45 352.421 1127.68 352.057C1129.92 351.693 1132.03 353.21 1132.4 355.445L1138.94 395.417C1139.3 397.652 1137.79 399.767 1135.55 400.131C1133.31 400.494 1131.2 398.978 1130.84 396.742Z" fill="#EDF3FF"/>
<path d="M1052.72 343.22H1012.22C1009.95 343.22 1008.11 341.383 1008.11 339.112C1008.11 336.842 1009.95 335.005 1012.22 335.005H1052.72C1054.99 335.005 1056.83 336.842 1056.83 339.112C1056.83 341.383 1054.99 343.22 1052.72 343.22Z" fill="#EDF3FF"/>
<path d="M963.677 414.021L1004.15 415.459C1006.42 415.537 1008.19 417.443 1008.11 419.705C1008.03 421.975 1006.13 423.743 1003.87 423.665L963.392 422.226C961.121 422.148 959.354 420.242 959.432 417.98C959.51 415.71 961.416 413.943 963.677 414.021Z" fill="#EDF3FF"/>
<path d="M918.406 353.185L956.272 367.56C958.395 368.366 959.461 370.731 958.655 372.854C957.849 374.977 955.484 376.043 953.361 375.237L915.495 360.862C913.372 360.056 912.306 357.691 913.112 355.568C913.918 353.445 916.292 352.379 918.406 353.185Z" fill="#EDF3FF"/>
<path d="M960.428 167.881L996.804 185.688C998.84 186.684 999.681 189.145 998.684 191.181C997.688 193.218 995.227 194.058 993.191 193.062L956.815 175.255C954.779 174.259 953.938 171.798 954.935 169.761C955.94 167.725 958.392 166.885 960.428 167.881Z" fill="#EDF3FF"/>
<path d="M1247.04 361.033L1209.88 377.15C1207.8 378.051 1205.39 377.098 1204.48 375.019C1203.58 372.939 1204.54 370.522 1206.62 369.62L1243.77 353.504C1245.85 352.602 1248.27 353.556 1249.17 355.635C1250.07 357.715 1249.12 360.132 1247.04 361.033Z" fill="#EDF3FF"/>
</g>
<mask id="mask3_473_149" style="mask-type:luminance" maskUnits="userSpaceOnUse" x="923" y="-270" width="1120" height="712">
<path d="M2042.12 -269.188H923.907V441.844H2042.12V-269.188Z" fill="white"/>
</mask>
<g mask="url(#mask3_473_149)">
</g>
<mask id="mask4_473_149" style="mask-type:luminance" maskUnits="userSpaceOnUse" x="923" y="-270" width="1120" height="712">
<path d="M2042.12 -269.188H923.907V441.844H2042.12V-269.188Z" fill="white"/>
</mask>
<g mask="url(#mask4_473_149)">
<path d="M1277.19 33.4043L1317.66 34.8427C1319.93 34.9207 1321.7 36.827 1321.62 39.0886C1321.54 41.3588 1319.64 43.1265 1317.38 43.0485L1276.9 41.6101C1274.63 41.5321 1272.86 39.6258 1272.94 37.3642C1273.02 35.1027 1274.92 33.3263 1277.19 33.4043Z" fill="#EDF3FF"/>
<path d="M1423.09 285.105L1463.41 288.953C1465.66 289.169 1467.33 291.171 1467.11 293.432C1466.89 295.685 1464.89 297.349 1462.63 297.132L1422.31 293.285C1420.06 293.068 1418.4 291.067 1418.61 288.805C1418.83 286.552 1420.83 284.897 1423.09 285.105Z" fill="#EDF3FF"/>
<path d="M1239.12 192.156L1224.45 154.411C1223.62 152.297 1224.67 149.923 1226.78 149.1C1228.9 148.276 1231.27 149.325 1232.1 151.439L1246.77 189.184C1247.59 191.298 1246.54 193.672 1244.43 194.496C1242.31 195.319 1239.93 194.27 1239.12 192.156Z" fill="#EDF3FF"/>
<path d="M1647.38 88.8717L1611.55 69.9907C1609.55 68.9335 1608.78 66.4466 1609.84 64.445C1610.89 62.4434 1613.38 61.6722 1615.38 62.7294L1651.21 81.6104C1653.21 82.6675 1653.99 85.1544 1652.93 87.156C1651.87 89.1663 1649.39 89.9288 1647.38 88.8717Z" fill="#EDF3FF"/>
<path d="M1555.77 436.285L1570.2 398.445C1571 396.322 1573.38 395.265 1575.5 396.071C1577.62 396.876 1578.68 399.251 1577.87 401.365L1563.45 439.205C1562.64 441.328 1560.27 442.385 1558.15 441.579C1556.03 440.773 1554.96 438.399 1555.77 436.285Z" fill="#EDF3FF"/>
<path d="M1601.12 319.724L1629.05 290.393C1630.61 288.756 1633.21 288.686 1634.85 290.255C1636.49 291.814 1636.56 294.414 1634.99 296.06L1607.07 325.391C1605.51 327.029 1602.91 327.098 1601.26 325.53C1599.62 323.97 1599.56 321.371 1601.12 319.724Z" fill="#EDF3FF"/>
<path d="M1392.88 346.288L1372.82 311.108C1371.69 309.141 1372.38 306.629 1374.35 305.511C1376.32 304.384 1378.83 305.078 1379.95 307.045L1400.01 342.224C1401.13 344.191 1400.44 346.704 1398.47 347.822C1396.51 348.94 1393.99 348.255 1392.88 346.288Z" fill="#EDF3FF"/>
<path d="M1245.5 307.254L1276.19 280.826C1277.91 279.344 1280.5 279.543 1281.98 281.259C1283.46 282.975 1283.26 285.565 1281.55 287.047L1250.86 313.475C1249.14 314.957 1246.55 314.758 1245.07 313.042C1243.59 311.326 1243.79 308.736 1245.5 307.254Z" fill="#EDF3FF"/>
<path d="M1227.6 74.5892L1192.2 54.9196C1190.22 53.8192 1189.51 51.315 1190.61 49.3394C1191.71 47.3551 1194.21 46.6445 1196.19 47.745L1231.58 67.4146C1233.57 68.515 1234.28 71.0192 1233.18 72.9948C1232.08 74.9704 1229.58 75.6897 1227.6 74.5892Z" fill="#EDF3FF"/>
<path d="M1707.41 241.978L1744.4 258.476C1746.47 259.404 1747.4 261.83 1746.48 263.901C1745.55 265.972 1743.12 266.899 1741.05 265.98L1704.06 249.482C1701.99 248.555 1701.06 246.129 1701.98 244.058C1702.91 241.987 1705.34 241.06 1707.41 241.978Z" fill="#EDF3FF"/>
<path d="M1170.69 173.285L1162.91 213.032C1162.48 215.259 1160.32 216.706 1158.1 216.273C1155.87 215.839 1154.42 213.682 1154.86 211.455L1162.63 171.708C1163.06 169.482 1165.22 168.035 1167.45 168.468C1169.67 168.901 1171.12 171.059 1170.69 173.285Z" fill="#EDF3FF"/>
<path d="M1493.23 398.452L1481.42 437.193C1480.76 439.359 1478.47 440.581 1476.3 439.922C1474.13 439.264 1472.91 436.968 1473.57 434.801L1485.38 396.06C1486.04 393.894 1488.34 392.672 1490.5 393.331C1492.67 393.989 1493.89 396.286 1493.23 398.452Z" fill="#EDF3FF"/>
<path d="M1182.74 247.689L1204.31 213.41C1205.51 211.495 1208.05 210.914 1209.96 212.119C1211.88 213.323 1212.46 215.862 1211.26 217.777L1189.69 252.056C1188.48 253.971 1185.94 254.551 1184.03 253.347C1182.11 252.142 1181.53 249.604 1182.74 247.689Z" fill="#EDF3FF"/>
<path d="M1658.66 228.855L1621.19 244.227C1619.09 245.085 1616.69 244.088 1615.84 241.983C1614.98 239.886 1615.98 237.485 1618.08 236.628L1655.55 221.256C1657.65 220.398 1660.05 221.394 1660.9 223.5C1661.76 225.588 1660.76 227.989 1658.66 228.855Z" fill="#EDF3FF"/>
<path d="M1300.76 312.956L1320.18 277.412C1321.27 275.419 1323.76 274.692 1325.75 275.775C1327.75 276.858 1328.48 279.353 1327.39 281.346L1307.97 316.89C1306.89 318.883 1304.4 319.611 1302.4 318.528C1300.41 317.436 1299.68 314.941 1300.76 312.956Z" fill="#EDF3FF"/>
<path d="M1151.31 101.376L1116.48 122.033C1114.53 123.185 1112.01 122.544 1110.86 120.595C1109.7 118.645 1110.35 116.123 1112.3 114.971L1147.13 94.3135C1149.08 93.1611 1151.6 93.8023 1152.75 95.752C1153.9 97.7016 1153.26 100.214 1151.31 101.376Z" fill="#EDF3FF"/>
<path d="M1291.02 131.901L1301.58 92.8046C1302.17 90.6124 1304.42 89.3213 1306.61 89.9106C1308.81 90.4998 1310.1 92.7527 1309.51 94.9449L1298.95 134.041C1298.36 136.234 1296.1 137.525 1293.91 136.935C1291.72 136.346 1290.43 134.093 1291.02 131.901Z" fill="#EDF3FF"/>
<path d="M1150.63 17.1387L1144.09 -22.8329C1143.72 -25.0685 1145.24 -27.1827 1147.47 -27.5467C1149.71 -27.9106 1151.82 -26.3942 1152.19 -24.1587L1158.73 15.813C1159.09 18.0486 1157.58 20.1628 1155.34 20.5267C1153.11 20.8907 1150.99 19.3743 1150.63 17.1387Z" fill="#EDF3FF"/>
<path d="M1689.94 41.2257L1683.4 1.25402C1683.03 -0.981548 1684.55 -3.09581 1686.78 -3.45974C1689.02 -3.82367 1691.13 -2.30732 1691.5 -0.0717485L1698.04 39.8999C1698.4 42.1355 1696.89 44.2497 1694.65 44.6137C1692.42 44.9776 1690.3 43.4612 1689.94 41.2257Z" fill="#EDF3FF"/>
<path d="M1373.29 386.538L1412.92 394.891C1415.14 395.359 1416.56 397.534 1416.09 399.752C1415.62 401.97 1413.45 403.391 1411.23 402.924L1371.6 394.571C1369.38 394.103 1367.96 391.928 1368.43 389.709C1368.89 387.491 1371.07 386.07 1373.29 386.538Z" fill="#EDF3FF"/>
<path d="M1320.73 198.896L1357.11 216.703C1359.14 217.699 1359.98 220.16 1358.99 222.196C1357.99 224.233 1355.53 225.073 1353.49 224.077L1317.12 206.27C1315.08 205.274 1314.24 202.813 1315.24 200.777C1316.24 198.74 1318.69 197.9 1320.73 198.896Z" fill="#EDF3FF"/>
<path d="M1522.79 58.5069L1563.26 59.9453C1565.53 60.0233 1567.3 61.9296 1567.22 64.1912C1567.15 66.4614 1565.24 68.229 1562.98 68.151L1522.5 66.7127C1520.23 66.6347 1518.47 64.7284 1518.54 62.4668C1518.62 60.1966 1520.52 58.4203 1522.79 58.5069Z" fill="#EDF3FF"/>
<path d="M1484.72 217.25L1470.05 179.506C1469.22 177.391 1470.27 175.017 1472.39 174.194C1474.5 173.371 1476.87 174.419 1477.7 176.533L1492.37 214.278C1493.19 216.392 1492.14 218.767 1490.03 219.59C1487.91 220.413 1485.54 219.365 1484.72 217.25Z" fill="#EDF3FF"/>
<path d="M1473.2 99.6834L1437.8 80.0138C1435.82 78.9134 1435.11 76.4092 1436.21 74.4336C1437.31 72.4493 1439.81 71.7388 1441.79 72.8393L1477.18 92.5088C1479.17 93.6093 1479.88 96.1135 1478.78 98.0891C1477.68 100.073 1475.18 100.784 1473.2 99.6834Z" fill="#EDF3FF"/>
<path d="M1416.29 198.377L1408.52 238.124C1408.08 240.351 1405.93 241.798 1403.7 241.364C1401.47 240.931 1400.03 238.774 1400.46 236.547L1408.23 196.8C1408.66 194.573 1410.82 193.126 1413.05 193.56C1415.28 194.001 1416.72 196.159 1416.29 198.377Z" fill="#EDF3FF"/>
<path d="M1523.21 268.937L1544.78 234.658C1545.99 232.743 1548.52 232.162 1550.44 233.367C1552.35 234.571 1552.94 237.11 1551.73 239.025L1530.16 273.304C1528.96 275.219 1526.42 275.799 1524.51 274.595C1522.58 273.39 1522.01 270.852 1523.21 268.937Z" fill="#EDF3FF"/>
<path d="M1477.51 -2.32941L1515.38 12.0458C1517.5 12.8516 1518.57 15.2172 1517.76 17.3401C1516.96 19.4631 1514.59 20.5289 1512.47 19.723L1474.6 5.34777C1472.48 4.54192 1471.41 2.17639 1472.22 0.0534644C1473.03 -2.06946 1475.39 -3.13526 1477.51 -2.32941Z" fill="#EDF3FF"/>
<path d="M1396.91 126.467L1362.08 147.125C1360.13 148.277 1357.61 147.636 1356.46 145.686C1355.3 143.737 1355.95 141.215 1357.9 140.063L1392.73 119.405C1394.68 118.253 1397.2 118.894 1398.35 120.844C1399.5 122.793 1398.86 125.315 1396.91 126.467Z" fill="#EDF3FF"/>
<path d="M1536.62 157.001L1547.18 117.904C1547.77 115.712 1550.02 114.421 1552.22 115.01C1554.41 115.599 1555.7 117.852 1555.11 120.045L1544.55 159.141C1543.96 161.333 1541.7 162.624 1539.51 162.035C1537.32 161.437 1536.03 159.184 1536.62 157.001Z" fill="#EDF3FF"/>
<path d="M1396.23 42.2342L1389.69 2.26257C1389.32 0.0269954 1390.84 -2.08727 1393.07 -2.4512C1395.31 -2.81513 1397.42 -1.29872 1397.79 0.936848L1404.33 40.9085C1404.69 43.1441 1403.18 45.2583 1400.94 45.6222C1398.71 45.9861 1396.59 44.4698 1396.23 42.2342Z" fill="#EDF3FF"/>
<path d="M1592.7 161.32L1629.08 179.126C1631.12 180.123 1631.96 182.584 1630.96 184.62C1629.96 186.656 1627.5 187.497 1625.47 186.5L1589.09 168.694C1587.06 167.697 1586.21 165.236 1587.21 163.2C1588.21 161.164 1590.67 160.323 1592.7 161.32Z" fill="#EDF3FF"/>
<path d="M1685.56 337.02L1721.93 354.826C1723.97 355.823 1724.81 358.283 1723.81 360.32C1722.82 362.356 1720.35 363.196 1718.32 362.2L1681.94 344.393C1679.91 343.397 1679.07 340.936 1680.06 338.9C1681.06 336.864 1683.52 336.023 1685.56 337.02Z" fill="#EDF3FF"/>
<path d="M1524.01 369.148L1529.29 328.994C1529.59 326.75 1531.65 325.164 1533.9 325.459C1536.15 325.753 1537.73 327.816 1537.44 330.069L1532.15 370.222C1531.86 372.466 1529.8 374.052 1527.54 373.758C1525.29 373.463 1523.71 371.401 1524.01 369.148Z" fill="#EDF3FF"/>
<path d="M1197 345.353L1198.52 304.879C1198.61 302.618 1200.51 300.841 1202.77 300.928C1205.03 301.014 1206.81 302.921 1206.72 305.182L1205.21 345.657C1205.12 347.918 1203.21 349.695 1200.95 349.608C1198.69 349.521 1196.92 347.615 1197 345.353Z" fill="#EDF3FF"/>
<path d="M1705.21 182L1690.99 144.082C1690.19 141.959 1691.26 139.593 1693.39 138.796C1695.51 137.999 1697.87 139.073 1698.67 141.196L1712.89 179.114C1713.69 181.237 1712.61 183.603 1710.49 184.4C1708.37 185.197 1706 184.123 1705.21 182Z" fill="#EDF3FF"/>
<path d="M1280.08 358.438L1296.91 395.282C1297.85 397.344 1296.94 399.779 1294.88 400.724C1292.82 401.668 1290.38 400.758 1289.44 398.696L1272.61 361.852C1271.67 359.79 1272.58 357.355 1274.64 356.411C1276.7 355.466 1279.14 356.376 1280.08 358.438Z" fill="#EDF3FF"/>
<path d="M1656.59 417.855L1625.69 391.669C1623.96 390.205 1623.75 387.614 1625.22 385.881C1626.68 384.148 1629.27 383.94 1631 385.404L1661.9 411.59C1663.64 413.054 1663.84 415.645 1662.38 417.378C1660.91 419.102 1658.32 419.319 1656.59 417.855Z" fill="#EDF3FF"/>
</g>
<mask id="mask5_473_149" style="mask-type:luminance" maskUnits="userSpaceOnUse" x="923" y="-270" width="1120" height="712">
<path d="M2042.12 -269.188H923.907V441.844H2042.12V-269.188Z" fill="white"/>
</mask>
<g mask="url(#mask5_473_149)">
<path d="M996.667 80.7671L1011.09 42.927C1011.9 40.8041 1014.27 39.747 1016.39 40.5528C1018.51 41.3587 1019.57 43.7329 1018.76 45.8558L1004.34 83.6958C1003.53 85.8188 1001.16 86.8759 999.032 86.0701C996.918 85.2556 995.852 82.8814 996.667 80.7671Z" fill="#EDF3FF"/>
<path d="M934.131 42.9334L922.321 81.6746C921.662 83.8409 919.366 85.0626 917.2 84.4041C915.034 83.7455 913.812 81.4493 914.47 79.2831L926.281 40.5418C926.939 38.3756 929.235 37.1539 931.402 37.8124C933.568 38.4709 934.79 40.7671 934.131 42.9334Z" fill="#EDF3FF"/>
<path d="M1126.45 -18.4997L1162.83 -0.693132C1164.87 0.303341 1165.71 2.76417 1164.71 4.80045C1163.71 6.83672 1161.25 7.67727 1159.22 6.68079L1122.84 -11.1258C1120.8 -12.1223 1119.96 -14.5831 1120.96 -16.6194C1121.96 -18.6557 1124.42 -19.4962 1126.45 -18.4997Z" fill="#EDF3FF"/>
<path d="M964.902 13.6284L970.188 -26.5251C970.482 -28.7694 972.544 -30.3551 974.797 -30.0605C977.042 -29.7659 978.627 -27.7036 978.333 -25.4507L973.047 14.7029C972.752 16.9471 970.69 18.5328 968.437 18.2382C966.193 17.935 964.607 15.8727 964.902 13.6284Z" fill="#EDF3FF"/>
<path d="M1097.48 62.3248L1066.58 36.1392C1064.85 34.6748 1064.64 32.0839 1066.11 30.3509C1067.57 28.6179 1070.16 28.41 1071.89 29.8744L1102.79 56.06C1104.53 57.5244 1104.73 60.1152 1103.27 61.8482C1101.81 63.5812 1099.21 63.7978 1097.48 62.3248Z" fill="#EDF3FF"/>
</g>
</g>
<mask id="mask6_473_149" style="mask-type:luminance" maskUnits="userSpaceOnUse" x="-2" y="-583" width="1733" height="1733">
<path d="M1731 -583H-2V1150H1731V-583Z" fill="white"/>
</mask>
<g mask="url(#mask6_473_149)">
<mask id="mask7_473_149" style="mask-type:luminance" maskUnits="userSpaceOnUse" x="923" y="441" width="1120" height="712">
<path d="M2042.12 441.853H923.907V1152.89H2042.12V441.853Z" fill="white"/>
</mask>
<g mask="url(#mask7_473_149)">
<path d="M1727.73 953.904L1764.37 971.147C1766.42 972.109 1767.3 974.561 1766.34 976.606C1765.37 978.66 1762.92 979.535 1760.88 978.573L1724.23 961.33C1722.18 960.368 1721.3 957.916 1722.27 955.871C1723.23 953.826 1725.68 952.942 1727.73 953.904Z" fill="#EDF3FF"/>
<path d="M1709.74 1083.69L1703.19 1043.72C1702.83 1041.48 1704.35 1039.37 1706.58 1039.01C1708.82 1038.64 1710.93 1040.16 1711.3 1042.39L1717.84 1082.37C1718.2 1084.6 1716.68 1086.72 1714.45 1087.08C1712.21 1087.45 1710.1 1085.94 1709.74 1083.69Z" fill="#EDF3FF"/>
</g>
<mask id="mask8_473_149" style="mask-type:luminance" maskUnits="userSpaceOnUse" x="923" y="441" width="1120" height="712">
<path d="M2042.12 441.853H923.907V1152.89H2042.12V441.853Z" fill="white"/>
</mask>
<g mask="url(#mask8_473_149)">
<path d="M1007.61 990.207L1044.1 972.634C1046.14 971.646 1048.59 972.513 1049.57 974.549C1050.56 976.594 1049.69 979.046 1047.66 980.025L1011.17 997.598C1009.12 998.586 1006.67 997.728 1005.68 995.683C1004.71 993.638 1005.56 991.186 1007.61 990.207Z" fill="#EDF3FF"/>
<path d="M1067.15 833.691L1071.3 873.975C1071.53 876.228 1069.9 878.247 1067.63 878.481C1065.38 878.715 1063.36 877.077 1063.13 874.816L1058.98 834.532C1058.74 832.279 1060.38 830.26 1062.64 830.026C1064.9 829.792 1066.91 831.43 1067.15 833.691Z" fill="#EDF3FF"/>
<path d="M1124.36 923.193L1130.78 883.204C1131.13 880.969 1133.25 879.444 1135.48 879.799C1137.72 880.154 1139.24 882.269 1138.89 884.504L1132.47 924.493C1132.11 926.729 1130 928.254 1127.76 927.898C1125.52 927.535 1123.99 925.429 1124.36 923.193Z" fill="#EDF3FF"/>
<path d="M1212.06 1040.2L1176.23 1021.31C1174.23 1020.26 1173.46 1017.77 1174.52 1015.77C1175.57 1013.77 1178.06 1013 1180.06 1014.05L1215.89 1032.93C1217.89 1033.99 1218.66 1036.48 1217.61 1038.48C1216.55 1040.48 1214.07 1041.25 1212.06 1040.2Z" fill="#EDF3FF"/>
<path d="M1100.32 990.789L1078.91 1025.16C1077.71 1027.09 1075.17 1027.68 1073.25 1026.48C1071.33 1025.28 1070.74 1022.75 1071.93 1020.82L1093.34 986.448C1094.54 984.524 1097.08 983.935 1099 985.131C1100.93 986.335 1101.52 988.865 1100.32 990.789Z" fill="#EDF3FF"/>
<path d="M966.02 936.779L950.622 974.237C949.764 976.334 947.364 977.339 945.267 976.473C943.17 975.615 942.165 973.215 943.032 971.118L958.429 933.659C959.287 931.562 961.687 930.557 963.784 931.424C965.881 932.29 966.878 934.682 966.02 936.779Z" fill="#EDF3FF"/>
<path d="M957.847 834.272L923.299 813.138C921.367 811.951 920.761 809.43 921.939 807.497C923.126 805.565 925.648 804.959 927.58 806.137L962.127 827.271C964.06 828.458 964.666 830.98 963.488 832.912C962.309 834.844 959.779 835.459 957.847 834.272Z" fill="#EDF3FF"/>
<path d="M1185.3 949.524L1148.26 965.893C1146.19 966.811 1143.76 965.867 1142.84 963.796C1141.93 961.725 1142.87 959.299 1144.94 958.38L1181.98 942.012C1184.06 941.093 1186.48 942.038 1187.4 944.109C1188.32 946.18 1187.38 948.606 1185.3 949.524Z" fill="#EDF3FF"/>
<path d="M1130.84 1107.78L1124.3 1067.81C1123.93 1065.58 1125.45 1063.46 1127.68 1063.1C1129.92 1062.73 1132.03 1064.25 1132.4 1066.49L1138.94 1106.46C1139.3 1108.69 1137.79 1110.81 1135.55 1111.17C1133.31 1111.54 1131.2 1110.02 1130.84 1107.78Z" fill="#EDF3FF"/>
<path d="M1052.72 1054.26H1012.22C1009.95 1054.26 1008.11 1052.42 1008.11 1050.15C1008.11 1047.88 1009.95 1046.04 1012.22 1046.04H1052.72C1054.99 1046.04 1056.83 1047.88 1056.83 1050.15C1056.83 1052.42 1054.99 1054.26 1052.72 1054.26Z" fill="#EDF3FF"/>
<path d="M918.406 1064.22L956.272 1078.6C958.395 1079.4 959.461 1081.77 958.655 1083.89C957.849 1086.02 955.484 1087.08 953.361 1086.28L915.495 1071.9C913.372 1071.09 912.306 1068.73 913.112 1066.61C913.918 1064.48 916.292 1063.42 918.406 1064.22Z" fill="#EDF3FF"/>
<path d="M960.428 878.924L996.804 896.731C998.84 897.727 999.681 900.188 998.684 902.225C997.688 904.261 995.227 905.101 993.191 904.105L956.815 886.298C954.779 885.302 953.938 882.841 954.935 880.805C955.94 878.768 958.392 877.928 960.428 878.924Z" fill="#EDF3FF"/>
<path d="M1247.04 1072.07L1209.88 1088.19C1207.8 1089.09 1205.39 1088.14 1204.48 1086.06C1203.58 1083.98 1204.54 1081.56 1206.62 1080.66L1243.77 1064.54C1245.85 1063.64 1248.27 1064.6 1249.17 1066.68C1250.07 1068.76 1249.12 1071.17 1247.04 1072.07Z" fill="#EDF3FF"/>
</g>
<mask id="mask9_473_149" style="mask-type:luminance" maskUnits="userSpaceOnUse" x="923" y="441" width="1120" height="712">
<path d="M2042.12 441.853H923.907V1152.89H2042.12V441.853Z" fill="white"/>
</mask>
<g mask="url(#mask9_473_149)">
<path d="M1729.79 528.797L1722.01 568.543C1721.58 570.77 1719.42 572.217 1717.2 571.784C1714.97 571.35 1713.52 569.193 1713.96 566.966L1721.73 527.22C1722.16 524.993 1724.32 523.546 1726.55 523.979C1728.77 524.421 1730.23 526.57 1729.79 528.797Z" fill="#EDF3FF"/>
<path d="M1710.41 456.888L1675.58 477.545C1673.63 478.698 1671.11 478.057 1669.95 476.107C1668.8 474.157 1669.44 471.636 1671.39 470.483L1706.23 449.826C1708.17 448.674 1710.7 449.315 1711.85 451.264C1713.01 453.214 1712.36 455.736 1710.41 456.888Z" fill="#EDF3FF"/>
</g>
<mask id="mask10_473_149" style="mask-type:luminance" maskUnits="userSpaceOnUse" x="923" y="441" width="1120" height="712">
<path d="M2042.12 441.853H923.907V1152.89H2042.12V441.853Z" fill="white"/>
</mask>
<g mask="url(#mask10_473_149)">
<path d="M1291.87 602.538H1251.37C1249.1 602.538 1247.26 600.701 1247.26 598.43C1247.26 596.16 1249.1 594.323 1251.37 594.323H1291.87C1294.14 594.323 1295.97 596.16 1295.97 598.43C1295.97 600.701 1294.14 602.538 1291.87 602.538Z" fill="#EDF3FF"/>
<path d="M1277.19 744.447L1317.66 745.885C1319.93 745.963 1321.7 747.869 1321.62 750.131C1321.54 752.401 1319.64 754.169 1317.38 754.091L1276.9 752.653C1274.63 752.575 1272.86 750.668 1272.94 748.407C1273.02 746.145 1274.92 744.369 1277.19 744.447Z" fill="#EDF3FF"/>
<path d="M1423.09 996.145L1463.41 999.992C1465.66 1000.21 1467.33 1002.21 1467.11 1004.47C1466.89 1006.73 1464.89 1008.39 1462.63 1008.17L1422.31 1004.32C1420.06 1004.11 1418.39 1002.11 1418.61 999.845C1418.83 997.584 1420.83 995.929 1423.09 996.145Z" fill="#EDF3FF"/>
<path d="M1239.11 903.185L1224.44 865.441C1223.62 863.326 1224.67 860.952 1226.78 860.129C1228.9 859.306 1231.27 860.354 1232.09 862.469L1246.76 900.213C1247.59 902.327 1246.54 904.702 1244.42 905.525C1242.31 906.348 1239.93 905.3 1239.11 903.185Z" fill="#EDF3FF"/>
<path d="M1566.71 634.684L1603.2 617.111C1605.25 616.123 1607.7 616.99 1608.68 619.026C1609.66 621.071 1608.81 623.523 1606.76 624.503L1570.27 642.075C1568.23 643.063 1565.78 642.205 1564.8 640.16C1563.82 638.124 1564.68 635.672 1566.71 634.684Z" fill="#EDF3FF"/>
<path d="M1626.25 478.17L1630.4 518.453C1630.63 520.706 1629 522.725 1626.73 522.959C1624.48 523.193 1622.46 521.555 1622.23 519.294L1618.08 479.01C1617.84 476.757 1619.48 474.738 1621.74 474.504C1624 474.279 1626.01 475.917 1626.25 478.17Z" fill="#EDF3FF"/>
<path d="M1344.83 513.886L1364.18 549.464C1365.27 551.457 1364.53 553.953 1362.54 555.036C1360.55 556.119 1358.05 555.382 1356.97 553.39L1337.61 517.811C1336.53 515.818 1337.26 513.323 1339.26 512.239C1341.25 511.156 1343.74 511.902 1344.83 513.886Z" fill="#EDF3FF"/>
<path d="M1683.46 567.671L1689.88 527.682C1690.23 525.446 1692.35 523.921 1694.58 524.276C1696.82 524.631 1698.34 526.746 1697.99 528.981L1691.57 568.97C1691.21 571.206 1689.1 572.731 1686.86 572.376C1684.62 572.02 1683.1 569.915 1683.46 567.671Z" fill="#EDF3FF"/>
<path d="M1427.47 582.47L1451.66 549.985C1453.01 548.165 1455.58 547.793 1457.4 549.145C1459.22 550.496 1459.6 553.07 1458.25 554.889L1434.05 587.375C1432.7 589.194 1430.13 589.567 1428.31 588.215C1426.5 586.855 1426.12 584.281 1427.47 582.47Z" fill="#EDF3FF"/>
<path d="M1647.38 799.91L1611.55 781.029C1609.55 779.972 1608.78 777.485 1609.84 775.484C1610.89 773.482 1613.38 772.711 1615.38 773.768L1651.21 792.649C1653.21 793.706 1653.99 796.193 1652.93 798.195C1651.87 800.196 1649.39 800.967 1647.38 799.91Z" fill="#EDF3FF"/>
<path d="M1555.77 1147.32L1570.19 1109.48C1571 1107.35 1573.37 1106.3 1575.5 1107.1C1577.62 1107.91 1578.68 1110.28 1577.87 1112.4L1563.44 1150.24C1562.64 1152.36 1560.26 1153.42 1558.15 1152.61C1556.03 1151.81 1554.96 1149.44 1555.77 1147.32Z" fill="#EDF3FF"/>
<path d="M1601.12 1030.76L1629.05 1001.43C1630.61 999.79 1633.21 999.721 1634.85 1001.29C1636.49 1002.85 1636.56 1005.45 1634.99 1007.09L1607.07 1036.43C1605.51 1038.06 1602.91 1038.13 1601.26 1036.56C1599.62 1035 1599.56 1032.4 1601.12 1030.76Z" fill="#EDF3FF"/>
<path d="M1392.88 1057.32L1372.82 1022.14C1371.69 1020.17 1372.38 1017.66 1374.35 1016.54C1376.32 1015.42 1378.83 1016.11 1379.95 1018.08L1400.01 1053.26C1401.13 1055.22 1400.44 1057.74 1398.47 1058.85C1396.51 1059.98 1393.99 1059.29 1392.88 1057.32Z" fill="#EDF3FF"/>
<path d="M1245.5 1018.28L1276.19 991.856C1277.91 990.375 1280.5 990.574 1281.98 992.29C1283.46 994.005 1283.26 996.596 1281.55 998.078L1250.85 1024.51C1249.14 1025.99 1246.55 1025.79 1245.07 1024.07C1243.58 1022.36 1243.78 1019.77 1245.5 1018.28Z" fill="#EDF3FF"/>
<path d="M1659.43 635.274L1638.02 669.648C1636.82 671.571 1634.28 672.161 1632.36 670.965C1630.43 669.769 1629.84 667.23 1631.04 665.307L1652.45 630.933C1653.65 629.009 1656.19 628.42 1658.11 629.615C1660.03 630.82 1660.62 633.35 1659.43 635.274Z" fill="#EDF3FF"/>
<path d="M1525.12 581.266L1509.72 618.725C1508.86 620.822 1506.46 621.827 1504.37 620.96C1502.27 620.102 1501.27 617.702 1502.13 615.605L1517.53 578.147C1518.39 576.05 1520.79 575.044 1522.88 575.911C1524.98 576.769 1525.99 579.169 1525.12 581.266Z" fill="#EDF3FF"/>
<path d="M1227.6 785.619L1192.2 765.949C1190.22 764.849 1189.51 762.345 1190.61 760.369C1191.71 758.385 1194.21 757.674 1196.19 758.775L1231.58 778.444C1233.57 779.545 1234.28 782.049 1233.18 784.024C1232.08 786.009 1229.58 786.719 1227.6 785.619Z" fill="#EDF3FF"/>
<path d="M1707.41 953.019L1744.4 969.517C1746.47 970.444 1747.4 972.871 1746.48 974.942C1745.55 977.013 1743.12 977.94 1741.05 977.021L1704.06 960.523C1701.99 959.596 1701.06 957.17 1701.98 955.099C1702.91 953.028 1705.34 952.092 1707.41 953.019Z" fill="#EDF3FF"/>
<path d="M1516.95 478.757L1482.4 457.623C1480.47 456.436 1479.87 453.915 1481.04 451.982C1482.23 450.05 1484.75 449.443 1486.68 450.622L1521.23 471.756C1523.16 472.943 1523.77 475.465 1522.59 477.397C1521.41 479.329 1518.89 479.936 1516.95 478.757Z" fill="#EDF3FF"/>
<path d="M1170.68 884.323L1162.91 924.069C1162.48 926.296 1160.32 927.743 1158.09 927.31C1155.87 926.877 1154.42 924.719 1154.85 922.492L1162.63 882.746C1163.06 880.519 1165.22 879.072 1167.44 879.505C1169.67 879.938 1171.12 882.096 1170.68 884.323Z" fill="#EDF3FF"/>
<path d="M1168.63 598.387L1205.27 615.631C1207.32 616.592 1208.2 619.045 1207.24 621.09C1206.27 623.143 1203.82 624.018 1201.78 623.056L1165.13 605.813C1163.08 604.851 1162.2 602.399 1163.17 600.354C1164.13 598.301 1166.57 597.425 1168.63 598.387Z" fill="#EDF3FF"/>
<path d="M1493.23 1109.49L1481.42 1148.23C1480.76 1150.4 1478.47 1151.62 1476.3 1150.96C1474.13 1150.3 1472.91 1148.01 1473.57 1145.84L1485.38 1107.1C1486.04 1104.93 1488.34 1103.71 1490.5 1104.37C1492.67 1105.03 1493.89 1107.32 1493.23 1109.49Z" fill="#EDF3FF"/>
<path d="M1182.74 958.718L1204.31 924.439C1205.51 922.524 1208.05 921.944 1209.96 923.148C1211.88 924.353 1212.46 926.892 1211.26 928.807L1189.69 963.085C1188.48 965 1185.94 965.581 1184.03 964.376C1182.11 963.172 1181.53 960.642 1182.74 958.718Z" fill="#EDF3FF"/>
<path d="M1658.66 939.886L1621.19 955.258C1619.09 956.115 1616.69 955.119 1615.83 953.013C1614.98 950.916 1615.97 948.516 1618.08 947.658L1655.55 932.287C1657.64 931.429 1660.04 932.425 1660.9 934.531C1661.76 936.628 1660.75 939.028 1658.66 939.886Z" fill="#EDF3FF"/>
<path d="M1231.91 683.606L1269.78 697.981C1271.9 698.787 1272.97 701.152 1272.16 703.275C1271.36 705.398 1268.99 706.464 1266.87 705.658L1229 691.283C1226.88 690.477 1225.81 688.112 1226.62 685.989C1227.42 683.866 1229.79 682.8 1231.91 683.606Z" fill="#EDF3FF"/>
<path d="M1300.76 1023.99L1320.18 988.443C1321.27 986.45 1323.76 985.723 1325.75 986.806C1327.75 987.889 1328.48 990.384 1327.39 992.377L1307.97 1027.92C1306.89 1029.91 1304.4 1030.64 1302.4 1029.56C1300.41 1028.47 1299.68 1025.98 1300.76 1023.99Z" fill="#EDF3FF"/>
<path d="M1151.31 812.406L1116.48 833.064C1114.53 834.216 1112.01 833.575 1110.86 831.625C1109.7 829.676 1110.35 827.154 1112.3 826.002L1147.13 805.344C1149.08 804.192 1151.6 804.833 1152.75 806.783C1153.9 808.732 1153.26 811.254 1151.31 812.406Z" fill="#EDF3FF"/>
<path d="M1291.02 842.942L1301.58 803.846C1302.17 801.654 1304.42 800.363 1306.61 800.952C1308.81 801.541 1310.1 803.794 1309.51 805.986L1298.95 845.083C1298.36 847.275 1296.1 848.566 1293.91 847.977C1291.72 847.379 1290.43 845.126 1291.02 842.942Z" fill="#EDF3FF"/>
<path d="M1393.71 636.861L1356.66 653.229C1354.59 654.147 1352.17 653.203 1351.25 651.132C1350.33 649.061 1351.27 646.635 1353.35 645.716L1390.39 629.348C1392.46 628.43 1394.89 629.374 1395.8 631.445C1396.72 633.516 1395.79 635.942 1393.71 636.861Z" fill="#EDF3FF"/>
<path d="M1744.41 594.002L1707.37 610.37C1705.3 611.288 1702.87 610.344 1701.95 608.273C1701.04 606.202 1701.98 603.776 1704.05 602.857L1741.09 586.489C1743.17 585.571 1745.59 586.515 1746.51 588.586C1747.42 590.665 1746.48 593.092 1744.41 594.002Z" fill="#EDF3FF"/>
<path d="M1150.63 728.171L1144.09 688.199C1143.72 685.964 1145.24 683.85 1147.47 683.486C1149.71 683.122 1151.82 684.638 1152.19 686.874L1158.73 726.845C1159.09 729.081 1157.58 731.195 1155.34 731.559C1153.11 731.932 1150.99 730.407 1150.63 728.171Z" fill="#EDF3FF"/>
<path d="M1689.94 752.263L1683.4 712.291C1683.03 710.056 1684.55 707.942 1686.78 707.578C1689.02 707.214 1691.13 708.73 1691.5 710.966L1698.04 750.937C1698.4 753.173 1696.89 755.287 1694.65 755.651C1692.42 756.024 1690.3 754.507 1689.94 752.263Z" fill="#EDF3FF"/>
<path d="M1373.29 1097.58L1412.91 1105.93C1415.13 1106.4 1416.55 1108.57 1416.09 1110.79C1415.62 1113.01 1413.44 1114.43 1411.22 1113.96L1371.6 1105.61C1369.38 1105.14 1367.96 1102.97 1368.43 1100.75C1368.89 1098.53 1371.07 1097.11 1373.29 1097.58Z" fill="#EDF3FF"/>
<path d="M1320.73 909.931L1357.11 927.737C1359.14 928.734 1359.98 931.195 1358.99 933.231C1357.99 935.267 1355.53 936.108 1353.49 935.111L1317.12 917.305C1315.08 916.308 1314.24 913.847 1315.24 911.811C1316.24 909.783 1318.69 908.934 1320.73 909.931Z" fill="#EDF3FF"/>
<path d="M1611.83 698.735H1571.33C1569.06 698.735 1567.22 696.898 1567.22 694.628C1567.22 692.357 1569.06 690.521 1571.33 690.521H1611.83C1614.1 690.521 1615.94 692.357 1615.94 694.628C1615.94 696.898 1614.09 698.735 1611.83 698.735Z" fill="#EDF3FF"/>
<path d="M1522.79 769.538L1563.26 770.977C1565.53 771.055 1567.3 772.961 1567.22 775.223C1567.15 777.493 1565.24 779.261 1562.98 779.183L1522.5 777.744C1520.23 777.666 1518.47 775.76 1518.54 773.498C1518.62 771.228 1520.52 769.461 1522.79 769.538Z" fill="#EDF3FF"/>
<path d="M1484.72 928.29L1470.05 890.545C1469.22 888.431 1470.27 886.057 1472.39 885.234C1474.5 884.41 1476.87 885.459 1477.7 887.573L1492.37 925.318C1493.19 927.432 1492.14 929.806 1490.03 930.63C1487.91 931.444 1485.54 930.404 1484.72 928.29Z" fill="#EDF3FF"/>
<path d="M1473.2 810.713L1437.8 791.043C1435.82 789.943 1435.11 787.439 1436.21 785.463C1437.31 783.479 1439.81 782.768 1441.79 783.869L1477.18 803.538C1479.17 804.639 1479.88 807.143 1478.78 809.119C1477.68 811.103 1475.18 811.813 1473.2 810.713Z" fill="#EDF3FF"/>
<path d="M1416.29 909.417L1408.51 949.163C1408.08 951.39 1405.92 952.837 1403.7 952.404C1401.47 951.971 1400.02 949.813 1400.46 947.586L1408.23 907.84C1408.66 905.613 1410.82 904.166 1413.05 904.599C1415.27 905.033 1416.72 907.19 1416.29 909.417Z" fill="#EDF3FF"/>
<path d="M1414.23 623.488L1450.87 640.731C1452.92 641.693 1453.8 644.145 1452.84 646.19C1451.87 648.244 1449.42 649.119 1447.38 648.157L1410.73 630.914C1408.68 629.952 1407.8 627.5 1408.77 625.455C1409.73 623.401 1412.17 622.517 1414.23 623.488Z" fill="#EDF3FF"/>
<path d="M1523.21 979.967L1544.78 945.689C1545.99 943.774 1548.52 943.193 1550.44 944.398C1552.35 945.602 1552.94 948.141 1551.73 950.056L1530.16 984.335C1528.96 986.25 1526.42 986.83 1524.51 985.626C1522.58 984.421 1522.01 981.891 1523.21 979.967Z" fill="#EDF3FF"/>
<path d="M1477.51 708.71L1515.38 723.086C1517.5 723.892 1518.57 726.257 1517.76 728.38C1516.96 730.503 1514.59 731.569 1512.47 730.763L1474.6 716.388C1472.48 715.582 1471.41 713.216 1472.22 711.093C1473.03 708.97 1475.39 707.905 1477.51 708.71Z" fill="#EDF3FF"/>
<path d="M1396.91 837.508L1362.08 858.165C1360.13 859.318 1357.61 858.677 1356.46 856.727C1355.3 854.777 1355.95 852.256 1357.9 851.104L1392.73 830.446C1394.68 829.294 1397.2 829.935 1398.35 831.885C1399.5 833.825 1398.86 836.347 1396.91 837.508Z" fill="#EDF3FF"/>
<path d="M1536.62 868.031L1547.18 828.935C1547.77 826.743 1550.02 825.452 1552.22 826.041C1554.41 826.63 1555.7 828.883 1555.11 831.075L1544.55 870.172C1543.96 872.364 1541.7 873.655 1539.51 873.066C1537.32 872.477 1536.03 870.224 1536.62 868.031Z" fill="#EDF3FF"/>
<path d="M1396.23 753.276L1389.69 713.304C1389.32 711.068 1390.84 708.954 1393.07 708.59C1395.31 708.226 1397.42 709.743 1397.79 711.978L1404.33 751.95C1404.69 754.185 1403.18 756.3 1400.94 756.664C1398.71 757.028 1396.59 755.511 1396.23 753.276Z" fill="#EDF3FF"/>
<path d="M1592.7 872.36L1629.08 890.166C1631.12 891.163 1631.96 893.624 1630.96 895.66C1629.96 897.696 1627.5 898.537 1625.47 897.54L1589.09 879.734C1587.06 878.737 1586.21 876.276 1587.21 874.24C1588.21 872.204 1590.67 871.363 1592.7 872.36Z" fill="#EDF3FF"/>
<path d="M1519.54 523.4L1555.91 541.207C1557.95 542.203 1558.79 544.664 1557.79 546.7C1556.8 548.737 1554.33 549.577 1552.3 548.581L1515.92 530.774C1513.89 529.778 1513.05 527.317 1514.04 525.28C1515.04 523.253 1517.5 522.404 1519.54 523.4Z" fill="#EDF3FF"/>
<path d="M1685.55 1048.06L1721.93 1065.86C1723.97 1066.86 1724.81 1069.32 1723.81 1071.36C1722.81 1073.39 1720.35 1074.23 1718.32 1073.24L1681.94 1055.43C1679.9 1054.43 1679.06 1051.97 1680.06 1049.94C1681.06 1047.9 1683.52 1047.05 1685.55 1048.06Z" fill="#EDF3FF"/>
<path d="M1524.01 1080.19L1529.29 1040.04C1529.59 1037.79 1531.65 1036.21 1533.9 1036.5C1536.15 1036.79 1537.73 1038.86 1537.44 1041.11L1532.15 1081.26C1531.86 1083.51 1529.8 1085.09 1527.54 1084.8C1525.29 1084.5 1523.71 1082.43 1524.01 1080.19Z" fill="#EDF3FF"/>
<path d="M1197 1056.38L1198.52 1015.91C1198.61 1013.65 1200.51 1011.87 1202.77 1011.96C1205.03 1012.05 1206.81 1013.95 1206.72 1016.21L1205.21 1056.69C1205.12 1058.95 1203.21 1060.73 1200.95 1060.64C1198.69 1060.55 1196.92 1058.65 1197 1056.38Z" fill="#EDF3FF"/>
<path d="M1705.21 893.031L1690.99 855.113C1690.19 852.99 1691.26 850.624 1693.39 849.827C1695.51 849.03 1697.87 850.104 1698.67 852.227L1712.89 890.145C1713.69 892.268 1712.61 894.634 1710.49 895.431C1708.37 896.228 1706 895.154 1705.21 893.031Z" fill="#EDF3FF"/>
<path d="M1280.08 1069.47L1296.91 1106.31C1297.85 1108.37 1296.94 1110.81 1294.88 1111.75C1292.82 1112.7 1290.38 1111.79 1289.44 1109.72L1272.61 1072.88C1271.67 1070.82 1272.58 1068.38 1274.64 1067.44C1276.7 1066.49 1279.14 1067.4 1280.08 1069.47Z" fill="#EDF3FF"/>
<path d="M1399.53 473.187L1426.75 443.197C1428.27 441.516 1430.86 441.395 1432.55 442.911C1434.23 444.436 1434.35 447.027 1432.83 448.708L1405.61 478.698C1404.09 480.379 1401.5 480.5 1399.82 478.984C1398.14 477.467 1398.01 474.868 1399.53 473.187Z" fill="#EDF3FF"/>
<path d="M1656.59 1128.89L1625.69 1102.7C1623.96 1101.24 1623.75 1098.64 1625.22 1096.91C1626.68 1095.18 1629.27 1094.97 1631 1096.43L1661.9 1122.62C1663.64 1124.08 1663.84 1126.68 1662.38 1128.41C1660.91 1130.14 1658.32 1130.35 1656.59 1128.89Z" fill="#EDF3FF"/>
</g>
<mask id="mask11_473_149" style="mask-type:luminance" maskUnits="userSpaceOnUse" x="923" y="441" width="1120" height="712">
<path d="M2042.12 441.853H923.907V1152.89H2042.12V441.853Z" fill="white"/>
</mask>
<g mask="url(#mask11_473_149)">
<path d="M1088.28 444.395L1052.45 425.514C1050.45 424.457 1049.68 421.97 1050.74 419.968C1051.79 417.967 1054.28 417.195 1056.28 418.253L1092.11 437.134C1094.11 438.191 1094.89 440.678 1093.83 442.679C1092.77 444.681 1090.28 445.452 1088.28 444.395Z" fill="#EDF3FF"/>
<path d="M996.667 791.8L1011.09 753.96C1011.9 751.837 1014.27 750.78 1016.39 751.586C1018.51 752.392 1019.57 754.766 1018.76 756.881L1004.34 794.721C1003.53 796.843 1001.16 797.901 999.033 797.095C996.919 796.289 995.853 793.923 996.667 791.8Z" fill="#EDF3FF"/>
<path d="M1195.99 461.358L1195.13 420.867C1195.08 418.596 1196.88 416.725 1199.15 416.673C1201.42 416.621 1203.29 418.423 1203.35 420.693L1204.2 461.185C1204.26 463.455 1202.45 465.327 1200.18 465.379C1197.91 465.422 1196.04 463.628 1195.99 461.358Z" fill="#EDF3FF"/>
<path d="M1042.02 675.238L1069.95 645.907C1071.51 644.27 1074.11 644.2 1075.75 645.769C1077.4 647.337 1077.46 649.928 1075.89 651.574L1047.96 680.905C1046.4 682.543 1043.81 682.612 1042.16 681.044C1040.52 679.484 1040.45 676.885 1042.02 675.238Z" fill="#EDF3FF"/>
<path d="M1148.31 597.5L1185.3 613.998C1187.37 614.925 1188.29 617.351 1187.38 619.422C1186.45 621.493 1184.02 622.42 1181.95 621.502L1144.96 605.004C1142.89 604.077 1141.96 601.65 1142.88 599.58C1143.81 597.5 1146.23 596.573 1148.31 597.5Z" fill="#EDF3FF"/>
<path d="M934.132 753.967L922.321 792.708C921.663 794.874 919.366 796.096 917.2 795.438C915.034 794.779 913.812 792.483 914.471 790.317L926.281 751.575C926.94 749.409 929.236 748.187 931.402 748.846C933.568 749.504 934.79 751.801 934.132 753.967Z" fill="#EDF3FF"/>
<path d="M1099.55 584.368L1062.09 599.74C1059.99 600.598 1057.59 599.601 1056.73 597.496C1055.87 595.399 1056.87 592.999 1058.98 592.141L1096.44 576.769C1098.54 575.911 1100.94 576.908 1101.8 579.013C1102.66 581.11 1101.65 583.502 1099.55 584.368Z" fill="#EDF3FF"/>
<path d="M1255.25 638.975L1215.56 630.917C1213.34 630.466 1211.91 628.3 1212.36 626.073C1212.81 623.855 1214.97 622.416 1217.2 622.867L1256.89 630.925C1259.1 631.376 1260.54 633.542 1260.09 635.769C1259.63 637.996 1257.47 639.426 1255.25 638.975Z" fill="#EDF3FF"/>
<path d="M1252.49 442.688L1291.4 431.475C1293.58 430.851 1295.85 432.108 1296.48 434.283C1297.1 436.458 1295.85 438.736 1293.67 439.36L1254.76 450.573C1252.58 451.197 1250.3 449.94 1249.68 447.765C1249.05 445.59 1250.3 443.32 1252.49 442.688Z" fill="#EDF3FF"/>
<path d="M1247.01 522.881L1209.96 539.249C1207.89 540.167 1205.47 539.223 1204.55 537.152C1203.63 535.081 1204.57 532.655 1206.64 531.736L1243.69 515.368C1245.76 514.449 1248.18 515.394 1249.1 517.465C1250.02 519.536 1249.08 521.962 1247.01 522.881Z" fill="#EDF3FF"/>
<path d="M925.608 572.767L910.938 535.022C910.115 532.908 911.163 530.534 913.278 529.71C915.392 528.887 917.766 529.936 918.589 532.05L933.259 569.795C934.082 571.909 933.034 574.283 930.92 575.106C928.814 575.93 926.431 574.881 925.608 572.767Z" fill="#EDF3FF"/>
<path d="M964.113 624.452L985.68 590.173C986.885 588.258 989.423 587.678 991.338 588.882C993.253 590.087 993.834 592.625 992.63 594.54L971.062 628.819C969.858 630.734 967.319 631.315 965.404 630.11C963.48 628.906 962.9 626.367 964.113 624.452Z" fill="#EDF3FF"/>
<path d="M977.508 512.516L988.07 473.42C988.659 471.227 990.912 469.936 993.105 470.526C995.297 471.115 996.588 473.368 995.999 475.56L985.436 514.656C984.847 516.849 982.594 518.14 980.402 517.551C978.218 516.953 976.918 514.7 977.508 512.516Z" fill="#EDF3FF"/>
<path d="M1033.61 516.83L1069.98 534.637C1072.02 535.633 1072.86 538.094 1071.86 540.13C1070.86 542.167 1068.4 543.007 1066.37 542.01L1029.99 524.204C1027.96 523.208 1027.12 520.747 1028.11 518.71C1029.11 516.683 1031.57 515.834 1033.61 516.83Z" fill="#EDF3FF"/>
<path d="M1126.45 692.533L1162.83 710.34C1164.87 711.336 1165.71 713.797 1164.71 715.834C1163.71 717.87 1161.25 718.71 1159.22 717.714L1122.84 699.907C1120.8 698.911 1119.96 696.45 1120.96 694.414C1121.96 692.386 1124.42 691.537 1126.45 692.533Z" fill="#EDF3FF"/>
<path d="M964.903 724.663L970.188 684.51C970.483 682.265 972.545 680.68 974.798 680.974C977.042 681.269 978.628 683.331 978.333 685.584L973.048 725.738C972.753 727.982 970.691 729.568 968.438 729.273C966.185 728.978 964.608 726.916 964.903 724.663Z" fill="#EDF3FF"/>
<path d="M1146.09 537.515L1131.87 499.597C1131.08 497.474 1132.15 495.109 1134.27 494.312C1136.4 493.514 1138.76 494.589 1139.56 496.712L1153.78 534.63C1154.58 536.753 1153.5 539.118 1151.38 539.915C1149.26 540.713 1146.89 539.638 1146.09 537.515Z" fill="#EDF3FF"/>
<path d="M1097.48 773.37L1066.58 747.184C1064.85 745.72 1064.64 743.129 1066.11 741.396C1067.57 739.663 1070.16 739.455 1071.89 740.919L1102.79 767.105C1104.53 768.569 1104.73 771.16 1103.27 772.893C1101.81 774.618 1099.22 774.834 1097.48 773.37Z" fill="#EDF3FF"/>
</g>
</g>
<mask id="mask12_473_149" style="mask-type:luminance" maskUnits="userSpaceOnUse" x="-2" y="-583" width="1733" height="1733">
<path d="M1731 -583H-2V1150H1731V-583Z" fill="white"/>
</mask>
<g mask="url(#mask12_473_149)">
<mask id="mask13_473_149" style="mask-type:luminance" maskUnits="userSpaceOnUse" x="-195" y="-270" width="1119" height="712">
<path d="M923.907 -269.188H-194.303V441.844H923.907V-269.188Z" fill="white"/>
</mask>
<g mask="url(#mask13_473_149)">
<path d="M732.762 247.021H692.262C689.992 247.021 688.155 245.184 688.155 242.914C688.155 240.644 689.992 238.807 692.262 238.807H732.762C735.032 238.807 736.869 240.644 736.869 242.914C736.869 245.184 735.032 247.021 732.762 247.021Z" fill="#EDF3FF"/>
<path d="M718.078 388.924L758.552 390.362C760.814 390.44 762.59 392.347 762.512 394.608C762.434 396.879 760.528 398.646 758.266 398.568L717.792 397.13C715.522 397.052 713.754 395.146 713.832 392.884C713.91 390.614 715.816 388.838 718.078 388.924Z" fill="#EDF3FF"/>
<path d="M785.727 158.367L805.085 193.945C806.168 195.938 805.431 198.434 803.439 199.517C801.446 200.6 798.95 199.863 797.867 197.871L778.509 162.292C777.426 160.299 778.163 157.804 780.156 156.72C782.149 155.637 784.644 156.374 785.727 158.367Z" fill="#EDF3FF"/>
<path d="M868.365 226.941L892.557 194.456C893.909 192.636 896.482 192.263 898.302 193.615C900.122 194.967 900.494 197.54 899.143 199.36L874.95 231.845C873.598 233.665 871.025 234.037 869.205 232.685C867.385 231.334 867.013 228.76 868.365 226.941Z" fill="#EDF3FF"/>
<path d="M668.485 430.101L633.089 410.431C631.104 409.331 630.394 406.827 631.494 404.851C632.595 402.867 635.099 402.156 637.075 403.256L672.471 422.926C674.455 424.027 675.166 426.531 674.065 428.506C672.974 430.491 670.469 431.201 668.485 430.101Z" fill="#EDF3FF"/>
<path d="M957.844 123.238L923.297 102.104C921.365 100.917 920.758 98.3953 921.937 96.463C923.115 94.5307 925.645 93.9242 927.578 95.1026L962.125 116.237C964.057 117.424 964.664 119.945 963.485 121.877C962.307 123.81 959.777 124.416 957.844 123.238Z" fill="#EDF3FF"/>
<path d="M609.515 242.869L646.16 260.113C648.213 261.075 649.088 263.527 648.127 265.572C647.165 267.625 644.713 268.501 642.668 267.539L606.023 250.295C603.97 249.334 603.095 246.881 604.056 244.836C605.018 242.783 607.47 241.908 609.515 242.869Z" fill="#EDF3FF"/>
<path d="M672.806 328.089L710.672 342.465C712.795 343.27 713.861 345.636 713.055 347.759C712.249 349.882 709.884 350.948 707.761 350.142L669.895 335.766C667.772 334.961 666.706 332.595 667.512 330.472C668.317 328.349 670.692 327.283 672.806 328.089Z" fill="#EDF3FF"/>
<path d="M834.606 281.341L797.564 297.71C795.493 298.628 793.066 297.684 792.148 295.613C791.229 293.542 792.174 291.115 794.245 290.197L831.288 273.829C833.359 272.91 835.785 273.855 836.703 275.926C837.622 277.997 836.677 280.423 834.606 281.341Z" fill="#EDF3FF"/>
<path d="M591.526 372.652L584.984 332.68C584.62 330.445 586.136 328.33 588.372 327.966C590.607 327.602 592.721 329.119 593.085 331.354L599.627 371.326C599.991 373.562 598.475 375.676 596.239 376.04C593.995 376.404 591.89 374.887 591.526 372.652Z" fill="#EDF3FF"/>
<path d="M914.096 455.195L878.699 435.526C876.715 434.425 876.004 431.921 877.105 429.945C878.205 427.961 880.709 427.251 882.685 428.351L918.081 448.02C920.066 449.121 920.776 451.625 919.676 453.601C918.575 455.585 916.071 456.296 914.096 455.195Z" fill="#EDF3FF"/>
<path d="M855.126 267.963L891.77 285.207C893.824 286.169 894.699 288.621 893.737 290.666C892.775 292.719 890.323 293.595 888.278 292.633L851.634 275.389C849.58 274.428 848.705 271.975 849.667 269.93C850.62 267.885 853.072 267.002 855.126 267.963Z" fill="#EDF3FF"/>
<path d="M918.401 353.182L956.267 367.558C958.39 368.363 959.456 370.729 958.65 372.852C957.844 374.975 955.479 376.041 953.356 375.235L915.49 360.859C913.367 360.054 912.301 357.688 913.107 355.565C913.913 353.442 916.287 352.376 918.401 353.182Z" fill="#EDF3FF"/>
<path d="M837.126 397.745L830.584 357.773C830.22 355.537 831.736 353.423 833.972 353.059C836.207 352.695 838.322 354.212 838.686 356.447L845.228 396.419C845.592 398.654 844.075 400.769 841.84 401.133C839.604 401.505 837.49 399.989 837.126 397.745Z" fill="#EDF3FF"/>
<path d="M840.43 117.666L867.646 87.6767C869.172 85.9957 871.762 85.8744 873.443 87.3907C875.124 88.9158 875.246 91.5066 873.729 93.1876L846.513 123.177C844.987 124.858 842.397 124.98 840.716 123.463C839.026 121.947 838.905 119.347 840.43 117.666Z" fill="#EDF3FF"/>
</g>
<mask id="mask14_473_149" style="mask-type:luminance" maskUnits="userSpaceOnUse" x="-195" y="-270" width="1119" height="712">
<path d="M923.907 -269.188H-194.303V441.844H923.907V-269.188Z" fill="white"/>
</mask>
<g mask="url(#mask14_473_149)">
<path d="M6.14499 212.152L12.5658 172.164C12.921 169.928 15.0353 168.403 17.2709 168.758C19.5064 169.113 21.0315 171.228 20.6762 173.463L14.2554 213.452C13.9002 215.688 11.7859 217.213 9.55034 216.858C7.3061 216.502 5.78106 214.397 6.14499 212.152Z" fill="#EDF3FF"/>
<path d="M93.852 329.156L58.0222 310.275C56.0206 309.217 55.2494 306.731 56.3065 304.729C57.3637 302.727 59.8505 301.956 61.8521 303.013L97.6819 321.894C99.6835 322.952 100.455 325.438 99.3976 327.44C98.3404 329.442 95.8623 330.213 93.852 329.156Z" fill="#EDF3FF"/>
<path d="M77.7798 461.358L76.922 420.867C76.87 418.596 78.6723 416.725 80.9426 416.673C83.2128 416.621 85.0844 418.423 85.1364 420.693L85.9943 461.185C86.0462 463.455 84.2439 465.327 81.9737 465.379C79.7035 465.422 77.8318 463.628 77.7798 461.358Z" fill="#EDF3FF"/>
<path d="M134.276 442.685L173.19 431.472C175.365 430.848 177.644 432.105 178.268 434.28C178.892 436.455 177.635 438.733 175.46 439.357L136.546 450.57C134.371 451.194 132.092 449.937 131.468 447.762C130.836 445.587 132.092 443.317 134.276 442.685Z" fill="#EDF3FF"/>
<path d="M67.093 238.487L30.0501 254.856C27.9792 255.774 25.553 254.83 24.6345 252.759C23.716 250.688 24.6605 248.262 26.7314 247.343L63.7743 230.975C65.8452 230.056 68.2714 231.001 69.1899 233.072C70.1084 235.151 69.1726 237.569 67.093 238.487Z" fill="#EDF3FF"/>
<path d="M12.6285 396.742L6.0864 356.771C5.72247 354.535 7.23885 352.421 9.47442 352.057C11.71 351.693 13.8242 353.21 14.1882 355.445L20.7303 395.417C21.0942 397.652 19.5778 399.767 17.3422 400.131C15.1067 400.494 12.9924 398.978 12.6285 396.742Z" fill="#EDF3FF"/>
<path d="M128.833 361.033L91.678 377.15C89.5984 378.051 87.1808 377.098 86.2797 375.019C85.3785 372.939 86.3317 370.522 88.4113 369.62L125.567 353.504C127.646 352.602 130.064 353.556 130.965 355.635C131.866 357.715 130.913 360.132 128.833 361.033Z" fill="#EDF3FF"/>
</g>
<mask id="mask15_473_149" style="mask-type:luminance" maskUnits="userSpaceOnUse" x="-195" y="-270" width="1119" height="712">
<path d="M923.907 -269.188H-194.303V441.844H923.907V-269.188Z" fill="white"/>
</mask>
<g mask="url(#mask15_473_149)">
<path d="M934.129 42.931L922.318 81.6722C921.66 83.8384 919.364 85.0602 917.197 84.4016C915.031 83.7431 913.809 81.4469 914.468 79.2806L926.278 40.5394C926.937 38.3732 929.233 37.1514 931.399 37.81C933.566 38.4685 934.787 40.7647 934.129 42.931Z" fill="#EDF3FF"/>
<path d="M814.182 31.0164L853.807 39.3694C856.025 39.8373 857.446 42.0123 856.978 44.2305C856.51 46.4487 854.335 47.8698 852.117 47.4019L812.492 39.0488C810.274 38.5809 808.853 36.406 809.321 34.1878C809.788 31.9695 811.963 30.5485 814.182 31.0164Z" fill="#EDF3FF"/>
<path d="M720.969 2.9089L737.796 39.7525C738.741 41.8148 737.831 44.2496 735.769 45.1941C733.707 46.1386 731.272 45.2288 730.327 43.1665L713.5 6.32291C712.555 4.26064 713.465 1.8258 715.527 0.881315C717.598 -0.0545048 720.033 0.846626 720.969 2.9089Z" fill="#EDF3FF"/>
</g>
<mask id="mask16_473_149" style="mask-type:luminance" maskUnits="userSpaceOnUse" x="-195" y="-270" width="1119" height="712">
<path d="M923.907 -269.188H-194.303V441.844H923.907V-269.188Z" fill="white"/>
</mask>
<g mask="url(#mask16_473_149)">
<path d="M158.98 33.4043L199.454 34.8427C201.725 34.9207 203.492 36.827 203.414 39.0886C203.336 41.3588 201.43 43.1265 199.169 43.0485L158.694 41.6101C156.424 41.5321 154.656 39.6258 154.734 37.3642C154.812 35.1027 156.71 33.3263 158.98 33.4043Z" fill="#EDF3FF"/>
<path d="M304.878 285.105L345.196 288.953C347.449 289.169 349.113 291.171 348.896 293.432C348.68 295.685 346.678 297.349 344.416 297.132L304.098 293.285C301.845 293.068 300.181 291.067 300.398 288.805C300.615 286.552 302.616 284.897 304.878 285.105Z" fill="#EDF3FF"/>
<path d="M120.903 192.156L106.233 154.411C105.41 152.297 106.458 149.923 108.572 149.1C110.687 148.276 113.061 149.325 113.884 151.439L128.554 189.184C129.377 191.298 128.329 193.672 126.214 194.496C124.1 195.319 121.717 194.27 120.903 192.156Z" fill="#EDF3FF"/>
<path d="M529.173 88.8717L493.343 69.9907C491.341 68.9335 490.57 66.4466 491.627 64.445C492.684 62.4434 495.171 61.6722 497.173 62.7294L533.003 81.6104C535.004 82.6675 535.775 85.1544 534.718 87.156C533.661 89.1663 531.183 89.9288 529.173 88.8717Z" fill="#EDF3FF"/>
<path d="M437.563 436.285L451.99 398.445C452.796 396.322 455.17 395.265 457.284 396.071C459.407 396.876 460.464 399.251 459.658 401.365L445.231 439.205C444.425 441.328 442.051 442.385 439.937 441.579C437.822 440.773 436.757 438.399 437.563 436.285Z" fill="#EDF3FF"/>
<path d="M636.887 105.844L636.029 65.3524C635.977 63.0822 637.78 61.2106 640.05 61.1586C642.32 61.1066 644.192 62.9089 644.244 65.1791L645.102 105.671C645.154 107.941 643.351 109.813 641.081 109.864C638.811 109.908 636.931 108.114 636.887 105.844Z" fill="#EDF3FF"/>
<path d="M482.912 319.724L510.839 290.393C512.399 288.756 514.999 288.686 516.645 290.255C518.283 291.814 518.352 294.414 516.784 296.06L488.856 325.391C487.297 327.029 484.697 327.098 483.051 325.53C481.413 323.97 481.352 321.371 482.912 319.724Z" fill="#EDF3FF"/>
<path d="M274.664 346.288L254.604 311.108C253.478 309.141 254.171 306.629 256.138 305.511C258.105 304.384 260.618 305.078 261.735 307.045L281.795 342.224C282.921 344.191 282.228 346.704 280.261 347.822C278.294 348.94 275.781 348.255 274.664 346.288Z" fill="#EDF3FF"/>
<path d="M127.289 307.254L157.981 280.826C159.696 279.344 162.287 279.543 163.769 281.259C165.251 282.975 165.051 285.565 163.336 287.047L132.644 313.475C130.928 314.957 128.338 314.758 126.856 313.042C125.374 311.326 125.574 308.736 127.289 307.254Z" fill="#EDF3FF"/>
<path d="M109.386 74.5892L73.989 54.9196C72.0047 53.8192 71.2942 51.315 72.3947 49.3394C73.4951 47.3551 75.9993 46.6445 77.9749 47.745L113.371 67.4146C115.356 68.515 116.066 71.0192 114.966 72.9948C113.865 74.9704 111.37 75.6897 109.386 74.5892Z" fill="#EDF3FF"/>
<path d="M589.198 241.978L626.189 258.476C628.259 259.404 629.187 261.83 628.268 263.901C627.341 265.972 624.915 266.899 622.844 265.98L585.853 249.482C583.782 248.555 582.855 246.129 583.773 244.058C584.701 241.987 587.127 241.06 589.198 241.978Z" fill="#EDF3FF"/>
<path d="M52.4769 173.285L44.7044 213.032C44.2712 215.259 42.1136 216.706 39.8867 216.273C37.6598 215.839 36.2127 213.682 36.646 211.455L44.4185 171.708C44.8517 169.482 47.0093 168.035 49.2362 168.468C51.4631 168.901 52.9102 171.059 52.4769 173.285Z" fill="#EDF3FF"/>
<path d="M375.024 398.452L363.213 437.193C362.555 439.359 360.259 440.581 358.092 439.922C355.926 439.264 354.704 436.968 355.363 434.801L367.173 396.06C367.832 393.894 370.128 392.672 372.294 393.331C374.461 393.989 375.682 396.286 375.024 398.452Z" fill="#EDF3FF"/>
<path d="M64.5424 247.689L86.1096 213.41C87.314 211.495 89.8529 210.914 91.7679 212.119C93.6828 213.323 94.2634 215.862 93.0589 217.777L71.4918 252.056C70.2873 253.971 67.7485 254.551 65.8335 253.347C63.9099 252.142 63.3293 249.604 64.5424 247.689Z" fill="#EDF3FF"/>
<path d="M540.444 228.855L502.977 244.227C500.88 245.085 498.48 244.088 497.622 241.983C496.764 239.886 497.761 237.485 499.866 236.628L537.334 221.256C539.431 220.398 541.831 221.394 542.689 223.5C543.547 225.588 542.541 227.989 540.444 228.855Z" fill="#EDF3FF"/>
<path d="M182.555 312.956L201.973 277.412C203.056 275.419 205.551 274.692 207.544 275.775C209.537 276.858 210.265 279.353 209.182 281.346L189.764 316.89C188.681 318.883 186.185 319.611 184.192 318.528C182.199 317.436 181.471 314.941 182.555 312.956Z" fill="#EDF3FF"/>
<path d="M33.1021 101.374L-1.73987 122.022C-3.68949 123.175 -6.21101 122.534 -7.36345 120.584C-8.5159 118.634 -7.87469 116.113 -5.92506 114.96L28.9082 94.3031C30.8579 93.1506 33.3794 93.7918 34.5318 95.7414C35.6929 97.6997 35.0517 100.213 33.1021 101.374Z" fill="#EDF3FF"/>
<path d="M172.808 131.901L183.371 92.8046C183.96 90.6124 186.213 89.3213 188.405 89.9106C190.598 90.4998 191.889 92.7527 191.299 94.9449L180.737 134.041C180.148 136.234 177.895 137.525 175.702 136.935C173.51 136.346 172.219 134.093 172.808 131.901Z" fill="#EDF3FF"/>
<path d="M696.138 283.461L656.453 275.403C654.234 274.952 652.796 272.786 653.247 270.559C653.697 268.341 655.863 266.903 658.09 267.353L697.776 275.412C699.994 275.862 701.433 278.028 700.982 280.255C700.532 282.474 698.365 283.912 696.138 283.461Z" fill="#EDF3FF"/>
<path d="M693.377 87.172L732.292 75.9595C734.466 75.3356 736.745 76.592 737.369 78.767C737.993 80.9419 736.737 83.2208 734.562 83.8447L695.647 95.0572C693.472 95.6811 691.193 94.4247 690.57 92.2498C689.946 90.0748 691.202 87.8046 693.377 87.172Z" fill="#EDF3FF"/>
<path d="M687.906 167.365L650.863 183.733C648.792 184.652 646.366 183.707 645.448 181.636C644.529 179.565 645.474 177.139 647.545 176.221L684.588 159.853C686.658 158.934 689.085 159.879 690.003 161.949C690.913 164.02 689.977 166.447 687.906 167.365Z" fill="#EDF3FF"/>
<path d="M32.418 17.1387L25.876 -22.8329C25.512 -25.0685 27.0284 -27.1827 29.264 -27.5467C31.4995 -27.9106 33.6138 -26.3942 33.9777 -24.1587L40.5198 15.813C40.8837 18.0486 39.3674 20.1628 37.1318 20.5267C34.8962 20.8907 32.782 19.3743 32.418 17.1387Z" fill="#EDF3FF"/>
<path d="M571.728 41.2257L565.186 1.25402C564.822 -0.981548 566.339 -3.09581 568.574 -3.45974C570.81 -3.82367 572.924 -2.30732 573.288 -0.0717485L579.83 39.8999C580.194 42.1355 578.678 44.2497 576.442 44.6137C574.207 44.9776 572.092 43.4612 571.728 41.2257Z" fill="#EDF3FF"/>
<path d="M255.082 386.538L294.707 394.891C296.925 395.359 298.346 397.534 297.878 399.752C297.411 401.97 295.236 403.391 293.017 402.924L253.392 394.571C251.174 394.103 249.753 391.928 250.221 389.709C250.68 387.491 252.864 386.07 255.082 386.538Z" fill="#EDF3FF"/>
<path d="M202.52 198.896L238.895 216.703C240.932 217.699 241.772 220.16 240.776 222.196C239.779 224.233 237.318 225.073 235.282 224.077L198.906 206.27C196.87 205.274 196.03 202.813 197.026 200.777C198.031 198.74 200.483 197.9 202.52 198.896Z" fill="#EDF3FF"/>
<path d="M404.58 58.5069L445.055 59.9453C447.325 60.0233 449.092 61.9296 449.014 64.1912C448.936 66.4614 447.03 68.229 444.769 68.151L404.294 66.7127C402.024 66.6347 400.257 64.7284 400.335 62.4668C400.413 60.1966 402.31 58.4203 404.58 58.5069Z" fill="#EDF3FF"/>
<path d="M366.505 217.25L351.835 179.506C351.012 177.391 352.061 175.017 354.175 174.194C356.289 173.371 358.663 174.419 359.487 176.533L374.156 214.278C374.98 216.392 373.931 218.767 371.817 219.59C369.703 220.413 367.328 219.365 366.505 217.25Z" fill="#EDF3FF"/>
<path d="M354.993 99.6834L319.596 80.0138C317.612 78.9134 316.902 76.4092 318.002 74.4336C319.103 72.4493 321.607 71.7388 323.582 72.8393L358.979 92.5088C360.963 93.6093 361.674 96.1135 360.573 98.0891C359.473 100.073 356.977 100.784 354.993 99.6834Z" fill="#EDF3FF"/>
<path d="M298.08 198.377L290.307 238.124C289.874 240.351 287.716 241.798 285.489 241.364C283.263 240.931 281.816 238.774 282.249 236.547L290.021 196.8C290.455 194.573 292.612 193.126 294.839 193.56C297.066 194.001 298.513 196.159 298.08 198.377Z" fill="#EDF3FF"/>
<path d="M405.004 268.937L426.571 234.658C427.776 232.743 430.315 232.162 432.23 233.367C434.145 234.571 434.725 237.11 433.521 239.025L411.954 273.304C410.749 275.219 408.21 275.799 406.295 274.595C404.372 273.39 403.8 270.852 405.004 268.937Z" fill="#EDF3FF"/>
<path d="M359.306 -2.32941L397.173 12.0458C399.295 12.8516 400.361 15.2172 399.555 17.3401C398.75 19.4631 396.384 20.5289 394.261 19.723L356.395 5.34777C354.272 4.54192 353.206 2.17639 354.012 0.0534644C354.818 -2.06946 357.184 -3.13526 359.306 -2.32941Z" fill="#EDF3FF"/>
<path d="M278.704 126.467L243.87 147.125C241.921 148.277 239.399 147.636 238.247 145.686C237.094 143.737 237.735 141.215 239.685 140.063L274.518 119.405C276.468 118.253 278.989 118.894 280.142 120.844C281.294 122.793 280.653 125.315 278.704 126.467Z" fill="#EDF3FF"/>
<path d="M418.408 157.001L428.971 117.904C429.56 115.712 431.813 114.421 434.005 115.01C436.197 115.599 437.488 117.852 436.899 120.045L426.337 159.141C425.747 161.333 423.494 162.624 421.302 162.035C419.11 161.437 417.819 159.184 418.408 157.001Z" fill="#EDF3FF"/>
<path d="M278.018 42.2342L271.476 2.26257C271.112 0.0269954 272.628 -2.08727 274.864 -2.4512C277.1 -2.81513 279.214 -1.29872 279.578 0.936848L286.12 40.9085C286.484 43.1441 284.967 45.2583 282.732 45.6222C280.496 45.9861 278.391 44.4698 278.018 42.2342Z" fill="#EDF3FF"/>
<path d="M474.497 161.32L510.873 179.126C512.909 180.123 513.75 182.584 512.753 184.62C511.757 186.656 509.296 187.497 507.26 186.5L470.884 168.694C468.848 167.697 468.007 165.236 469.004 163.2C470 161.164 472.461 160.323 474.497 161.32Z" fill="#EDF3FF"/>
<path d="M567.341 337.02L603.716 354.826C605.752 355.823 606.593 358.283 605.597 360.32C604.6 362.356 602.139 363.196 600.103 362.2L563.727 344.393C561.691 343.397 560.85 340.936 561.847 338.9C562.843 336.864 565.304 336.023 567.341 337.02Z" fill="#EDF3FF"/>
<path d="M405.804 369.148L411.09 328.994C411.385 326.75 413.447 325.164 415.7 325.459C417.944 325.753 419.53 327.816 419.235 330.069L413.949 370.222C413.655 372.466 411.592 374.052 409.34 373.758C407.087 373.463 405.501 371.401 405.804 369.148Z" fill="#EDF3FF"/>
<path d="M78.7945 345.353L80.3109 304.879C80.3975 302.618 82.3038 300.841 84.5654 300.928C86.8269 301.014 88.6033 302.921 88.5166 305.182L87.0002 345.657C86.9136 347.918 85.0073 349.695 82.7457 349.608C80.4842 349.521 78.7165 347.615 78.7945 345.353Z" fill="#EDF3FF"/>
<path d="M586.995 182L572.776 144.082C571.979 141.959 573.053 139.593 575.176 138.796C577.299 137.999 579.665 139.073 580.462 141.196L594.681 179.114C595.478 181.237 594.404 183.603 592.281 184.4C590.158 185.197 587.792 184.123 586.995 182Z" fill="#EDF3FF"/>
<path d="M161.872 358.438L178.699 395.282C179.644 397.344 178.734 399.779 176.671 400.724C174.609 401.668 172.174 400.758 171.23 398.696L154.402 361.852C153.458 359.79 154.368 357.355 156.43 356.411C158.492 355.466 160.927 356.376 161.872 358.438Z" fill="#EDF3FF"/>
<path d="M538.385 417.855L507.485 391.669C505.752 390.205 505.544 387.614 507.009 385.881C508.473 384.148 511.064 383.94 512.797 385.404L543.696 411.59C545.429 413.054 545.637 415.645 544.173 417.378C542.7 419.102 540.109 419.319 538.385 417.855Z" fill="#EDF3FF"/>
<path d="M687.934 5.52049L650.778 21.6374C648.698 22.5385 646.281 21.5854 645.38 19.5058C644.479 17.4262 645.432 15.0086 647.511 14.1075L684.667 -2.00939C686.746 -2.91055 689.164 -1.95738 690.065 0.122216C690.966 2.20182 690.013 4.61933 687.934 5.52049Z" fill="#EDF3FF"/>
</g>
<mask id="mask17_473_149" style="mask-type:luminance" maskUnits="userSpaceOnUse" x="-195" y="-270" width="1119" height="712">
<path d="M923.907 -269.188H-194.303V441.844H923.907V-269.188Z" fill="white"/>
</mask>
<g mask="url(#mask17_473_149)">
<path d="M8.23801 -18.4997L44.6137 -0.693132C46.65 0.303341 47.4905 2.76417 46.494 4.80045C45.4975 6.83672 43.0367 7.67727 41.0004 6.68079L4.6247 -11.1258C2.58843 -12.1223 1.74792 -14.5831 2.7444 -16.6194C3.74087 -18.6557 6.20173 -19.4962 8.23801 -18.4997Z" fill="#EDF3FF"/>
</g>
</g>
<mask id="mask18_473_149" style="mask-type:luminance" maskUnits="userSpaceOnUse" x="-2" y="-583" width="1733" height="1733">
<path d="M1731 -583H-2V1150H1731V-583Z" fill="white"/>
</mask>
<g mask="url(#mask18_473_149)">
<mask id="mask19_473_149" style="mask-type:luminance" maskUnits="userSpaceOnUse" x="-195" y="441" width="1119" height="712">
<path d="M923.907 441.853H-194.303V1152.89H923.907V441.853Z" fill="white"/>
</mask>
<g mask="url(#mask19_473_149)">
<path d="M732.762 958.06H692.262C689.992 958.06 688.155 956.224 688.155 953.953C688.155 951.683 689.992 949.846 692.262 949.846H732.762C735.032 949.846 736.869 951.683 736.869 953.953C736.869 956.215 735.032 958.06 732.762 958.06Z" fill="#EDF3FF"/>
<path d="M718.078 1099.96L758.552 1101.4C760.814 1101.48 762.59 1103.38 762.512 1105.65C762.434 1107.92 760.528 1109.68 758.266 1109.61L717.792 1108.17C715.522 1108.09 713.754 1106.18 713.832 1103.92C713.91 1101.65 715.816 1099.88 718.078 1099.96Z" fill="#EDF3FF"/>
<path d="M785.727 869.413L805.085 904.991C806.168 906.984 805.431 909.48 803.439 910.563C801.446 911.646 798.95 910.91 797.867 908.917L778.509 873.338C777.426 871.345 778.163 868.85 780.156 867.766C782.149 866.683 784.644 867.42 785.727 869.413Z" fill="#EDF3FF"/>
<path d="M868.365 937.985L892.557 905.5C893.909 903.681 896.482 903.308 898.302 904.66C900.122 906.012 900.494 908.585 899.143 910.405L874.95 942.89C873.598 944.709 871.025 945.082 869.205 943.73C867.385 942.379 867.013 939.805 868.365 937.985Z" fill="#EDF3FF"/>
<path d="M668.485 1141.14L633.089 1121.47C631.104 1120.37 630.394 1117.86 631.494 1115.89C632.595 1113.9 635.099 1113.19 637.075 1114.29L672.471 1133.96C674.455 1135.06 675.166 1137.57 674.065 1139.54C672.974 1141.53 670.469 1142.24 668.485 1141.14Z" fill="#EDF3FF"/>
<path d="M957.844 834.275L923.297 813.141C921.365 811.954 920.758 809.432 921.937 807.5C923.115 805.568 925.645 804.961 927.578 806.14L962.125 827.274C964.057 828.461 964.664 830.982 963.485 832.915C962.307 834.847 959.777 835.462 957.844 834.275Z" fill="#EDF3FF"/>
<path d="M609.515 953.904L646.16 971.147C648.213 972.109 649.088 974.561 648.127 976.606C647.165 978.66 644.713 979.535 642.668 978.573L606.023 961.33C603.97 960.368 603.095 957.916 604.056 955.871C605.018 953.826 607.47 952.942 609.515 953.904Z" fill="#EDF3FF"/>
<path d="M672.806 1039.12L710.672 1053.5C712.795 1054.31 713.861 1056.67 713.055 1058.79C712.249 1060.92 709.884 1061.98 707.761 1061.18L669.895 1046.8C667.772 1046 666.706 1043.63 667.512 1041.51C668.317 1039.39 670.692 1038.33 672.806 1039.12Z" fill="#EDF3FF"/>
<path d="M834.606 992.376L797.564 1008.74C795.493 1009.66 793.066 1008.72 792.148 1006.65C791.229 1004.58 792.174 1002.15 794.245 1001.23L831.288 984.863C833.359 983.945 835.785 984.889 836.703 986.96C837.622 989.04 836.677 991.457 834.606 992.376Z" fill="#EDF3FF"/>
<path d="M591.526 1083.69L584.984 1043.72C584.62 1041.48 586.136 1039.37 588.372 1039.01C590.607 1038.64 592.721 1040.16 593.085 1042.39L599.627 1082.37C599.991 1084.6 598.475 1086.72 596.239 1087.08C593.995 1087.45 591.89 1085.94 591.526 1083.69Z" fill="#EDF3FF"/>
<path d="M855.126 979.006L891.77 996.249C893.824 997.211 894.699 999.663 893.737 1001.71C892.775 1003.76 890.323 1004.64 888.278 1003.67L851.634 986.431C849.58 985.47 848.705 983.018 849.667 980.973C850.62 978.919 853.072 978.035 855.126 979.006Z" fill="#EDF3FF"/>
<path d="M918.401 1064.23L956.267 1078.6C958.39 1079.41 959.456 1081.77 958.65 1083.9C957.844 1086.02 955.479 1087.08 953.356 1086.28L915.49 1071.9C913.367 1071.1 912.301 1068.73 913.107 1066.61C913.913 1064.49 916.287 1063.42 918.401 1064.23Z" fill="#EDF3FF"/>
<path d="M837.126 1108.79L830.584 1068.82C830.22 1066.58 831.736 1064.47 833.972 1064.11C836.207 1063.74 838.322 1065.26 838.686 1067.49L845.228 1107.46C845.592 1109.7 844.075 1111.81 841.84 1112.18C839.604 1112.54 837.49 1111.03 837.126 1108.79Z" fill="#EDF3FF"/>
<path d="M840.43 828.712L867.646 798.723C869.172 797.042 871.762 796.92 873.443 798.437C875.124 799.962 875.246 802.561 873.729 804.233L846.513 834.223C844.987 835.904 842.397 836.025 840.716 834.509C839.026 832.984 838.905 830.384 840.43 828.712Z" fill="#EDF3FF"/>
</g>
<mask id="mask20_473_149" style="mask-type:luminance" maskUnits="userSpaceOnUse" x="-195" y="441" width="1119" height="712">
<path d="M923.907 441.853H-194.303V1152.89H923.907V441.853Z" fill="white"/>
</mask>
<g mask="url(#mask20_473_149)">
<path d="M6.14499 923.193L12.5658 883.204C12.921 880.969 15.0353 879.444 17.2709 879.799C19.5064 880.154 21.0315 882.269 20.6762 884.504L14.2554 924.493C13.9002 926.729 11.7859 928.254 9.55034 927.898C7.3061 927.535 5.78106 925.429 6.14499 923.193Z" fill="#EDF3FF"/>
<path d="M93.852 1040.2L58.0222 1021.31C56.0206 1020.26 55.2494 1017.77 56.3065 1015.77C57.3637 1013.77 59.8505 1013 61.8521 1014.05L97.6819 1032.93C99.6835 1033.99 100.455 1036.48 99.3976 1038.48C98.3404 1040.48 95.8623 1041.25 93.852 1040.2Z" fill="#EDF3FF"/>
<path d="M67.093 949.524L30.0501 965.893C27.9792 966.811 25.553 965.867 24.6345 963.796C23.716 961.725 24.6605 959.299 26.7314 958.38L63.7743 942.012C65.8452 941.093 68.2714 942.038 69.1899 944.109C70.1084 946.18 69.1726 948.606 67.093 949.524Z" fill="#EDF3FF"/>
<path d="M12.6285 1107.78L6.0864 1067.81C5.72247 1065.58 7.23885 1063.46 9.47442 1063.1C11.71 1062.73 13.8242 1064.25 14.1882 1066.49L20.7303 1106.46C21.0942 1108.69 19.5778 1110.81 17.3422 1111.17C15.1067 1111.54 12.9924 1110.02 12.6285 1107.78Z" fill="#EDF3FF"/>
<path d="M128.833 1072.07L91.678 1088.19C89.5984 1089.09 87.1808 1088.14 86.2797 1086.06C85.3785 1083.98 86.3317 1081.56 88.4113 1080.66L125.567 1064.54C127.646 1063.64 130.064 1064.6 130.965 1066.68C131.866 1068.76 130.913 1071.17 128.833 1072.07Z" fill="#EDF3FF"/>
</g>
<mask id="mask21_473_149" style="mask-type:luminance" maskUnits="userSpaceOnUse" x="-195" y="441" width="1119" height="712">
<path d="M923.907 441.853H-194.303V1152.89H923.907V441.853Z" fill="white"/>
</mask>
<g mask="url(#mask21_473_149)">
<path d="M863.98 640.629L904.299 644.476C906.551 644.693 908.215 646.695 907.998 648.956C907.782 651.209 905.78 652.873 903.519 652.656L863.2 648.809C860.947 648.592 859.284 646.591 859.5 644.329C859.717 642.068 861.727 640.413 863.98 640.629Z" fill="#EDF3FF"/>
<path d="M680.005 547.67L665.335 509.925C664.512 507.811 665.561 505.436 667.675 504.613C669.789 503.79 672.163 504.839 672.987 506.953L687.656 544.697C688.48 546.812 687.431 549.186 685.317 550.009C683.211 550.832 680.828 549.784 680.005 547.67Z" fill="#EDF3FF"/>
<path d="M833.763 701.805L813.704 666.625C812.578 664.658 813.271 662.145 815.238 661.027C817.205 659.901 819.717 660.594 820.835 662.561L840.895 697.741C842.021 699.708 841.328 702.221 839.361 703.339C837.394 704.456 834.89 703.772 833.763 701.805Z" fill="#EDF3FF"/>
<path d="M686.397 662.769L717.088 636.341C718.804 634.859 721.395 635.058 722.877 636.774C724.358 638.489 724.159 641.08 722.443 642.562L691.752 668.99C690.036 670.472 687.446 670.273 685.964 668.557C684.482 666.841 684.673 664.251 686.397 662.769Z" fill="#EDF3FF"/>
<path d="M611.575 528.797L603.802 568.543C603.369 570.77 601.211 572.217 598.984 571.784C596.757 571.35 595.31 569.193 595.744 566.966L603.516 527.22C603.949 524.993 606.107 523.546 608.334 523.979C610.561 524.421 612.016 526.57 611.575 528.797Z" fill="#EDF3FF"/>
<path d="M934.129 753.966L922.319 792.708C921.66 794.874 919.364 796.096 917.198 795.437C915.032 794.779 913.81 792.482 914.468 790.316L926.279 751.575C926.937 749.409 929.234 748.187 931.4 748.845C933.566 749.504 934.788 751.8 934.129 753.966Z" fill="#EDF3FF"/>
<path d="M623.638 603.202L645.206 568.924C646.41 567.009 648.949 566.428 650.864 567.632C652.779 568.837 653.359 571.376 652.155 573.291L630.588 607.569C629.383 609.484 626.844 610.065 624.93 608.86C623.006 607.656 622.434 605.117 623.638 603.202Z" fill="#EDF3FF"/>
<path d="M741.664 668.471L761.082 632.928C762.165 630.935 764.661 630.207 766.653 631.29C768.646 632.373 769.374 634.869 768.291 636.862L748.873 672.405C747.79 674.398 745.294 675.126 743.301 674.043C741.308 672.951 740.572 670.456 741.664 668.471Z" fill="#EDF3FF"/>
<path d="M592.201 456.888L557.368 477.545C555.418 478.698 552.896 478.057 551.744 476.107C550.592 474.157 551.233 471.636 553.182 470.483L588.016 449.826C589.965 448.674 592.487 449.315 593.639 451.264C594.8 453.214 594.15 455.736 592.201 456.888Z" fill="#EDF3FF"/>
<path d="M731.908 487.416L742.47 448.32C743.059 446.128 745.312 444.836 747.505 445.426C749.697 446.015 750.988 448.268 750.399 450.46L739.836 489.557C739.247 491.749 736.994 493.04 734.802 492.451C732.618 491.861 731.318 489.609 731.908 487.416Z" fill="#EDF3FF"/>
<path d="M814.182 742.061L853.807 750.414C856.025 750.882 857.446 753.057 856.978 755.275C856.51 757.494 854.335 758.915 852.117 758.447L812.492 750.094C810.274 749.626 808.853 747.451 809.321 745.233C809.788 743.006 811.963 741.593 814.182 742.061Z" fill="#EDF3FF"/>
<path d="M761.625 554.411L798 572.218C800.037 573.214 800.877 575.675 799.881 577.711C798.884 579.748 796.423 580.588 794.387 579.592L758.011 561.785C755.975 560.789 755.135 558.328 756.131 556.291C757.128 554.255 759.588 553.415 761.625 554.411Z" fill="#EDF3FF"/>
<path d="M925.603 572.766L910.933 535.022C910.109 532.907 911.158 530.533 913.272 529.71C915.386 528.887 917.761 529.935 918.584 532.049L933.254 569.794C934.077 571.909 933.028 574.283 930.914 575.106C928.809 575.929 926.426 574.881 925.603 572.766Z" fill="#EDF3FF"/>
<path d="M914.096 455.197L878.699 435.527C876.715 434.427 876.004 431.923 877.105 429.947C878.205 427.963 880.709 427.252 882.685 428.353L918.081 448.022C920.066 449.123 920.776 451.627 919.676 453.603C918.575 455.587 916.071 456.298 914.096 455.197Z" fill="#EDF3FF"/>
<path d="M857.187 553.901L849.415 593.648C848.982 595.875 846.824 597.322 844.597 596.888C842.37 596.455 840.923 594.297 841.356 592.071L849.129 552.324C849.562 550.097 851.72 548.65 853.947 549.083C856.165 549.517 857.621 551.674 857.187 553.901Z" fill="#EDF3FF"/>
<path d="M837.803 481.982L802.97 502.64C801.02 503.792 798.499 503.151 797.347 501.201C796.194 499.252 796.835 496.73 798.785 495.578L833.618 474.92C835.568 473.768 838.089 474.409 839.242 476.359C840.403 478.308 839.762 480.83 837.803 481.982Z" fill="#EDF3FF"/>
<path d="M637.9 700.868L639.416 660.394C639.503 658.133 641.409 656.356 643.671 656.443C645.933 656.53 647.709 658.436 647.622 660.698L646.106 701.172C646.019 703.433 644.113 705.21 641.851 705.123C639.581 705.036 637.813 703.13 637.9 700.868Z" fill="#EDF3FF"/>
<path d="M720.969 713.95L737.796 750.794C738.741 752.856 737.831 755.291 735.769 756.236C733.707 757.18 731.272 756.27 730.327 754.208L713.5 717.364C712.555 715.302 713.465 712.867 715.527 711.923C717.598 710.978 720.033 711.888 720.969 713.95Z" fill="#EDF3FF"/>
</g>
<mask id="mask22_473_149" style="mask-type:luminance" maskUnits="userSpaceOnUse" x="-195" y="441" width="1119" height="712">
<path d="M923.907 441.853H-194.303V1152.89H923.907V441.853Z" fill="white"/>
</mask>
<g mask="url(#mask22_473_149)">
<path d="M173.655 602.538H133.155C130.884 602.538 129.047 600.701 129.047 598.43C129.047 596.16 130.884 594.323 133.155 594.323H173.655C175.925 594.323 177.762 596.16 177.762 598.43C177.762 600.701 175.925 602.538 173.655 602.538Z" fill="#EDF3FF"/>
<path d="M158.978 744.447L199.452 745.885C201.723 745.963 203.49 747.869 203.412 750.131C203.334 752.401 201.428 754.169 199.166 754.091L158.692 752.653C156.422 752.575 154.654 750.668 154.732 748.407C154.81 746.136 156.708 744.369 158.978 744.447Z" fill="#EDF3FF"/>
<path d="M304.876 996.145L345.194 999.992C347.447 1000.21 349.111 1002.21 348.894 1004.47C348.677 1006.73 346.676 1008.39 344.414 1008.17L304.096 1004.32C301.843 1004.11 300.179 1002.11 300.396 999.845C300.613 997.584 302.614 995.929 304.876 996.145Z" fill="#EDF3FF"/>
<path d="M120.9 903.185L106.23 865.441C105.407 863.326 106.456 860.952 108.57 860.129C110.684 859.306 113.059 860.354 113.882 862.469L128.552 900.213C129.375 902.327 128.326 904.702 126.212 905.525C124.098 906.348 121.715 905.3 120.9 903.185Z" fill="#EDF3FF"/>
<path d="M448.497 634.684L484.985 617.111C487.03 616.123 489.483 616.99 490.462 619.026C491.45 621.071 490.583 623.523 488.547 624.503L452.058 642.075C450.013 643.063 447.561 642.205 446.582 640.16C445.603 638.124 446.461 635.672 448.497 634.684Z" fill="#EDF3FF"/>
<path d="M508.036 478.17L512.187 518.453C512.421 520.706 510.783 522.725 508.521 522.959C506.268 523.193 504.249 521.555 504.016 519.294L499.865 479.01C499.631 476.757 501.269 474.738 503.53 474.504C505.792 474.279 507.802 475.917 508.036 478.17Z" fill="#EDF3FF"/>
<path d="M226.615 513.887L245.972 549.466C247.055 551.459 246.319 553.954 244.326 555.037C242.333 556.12 239.837 555.384 238.754 553.391L219.397 517.812C218.314 515.819 219.05 513.324 221.043 512.241C223.036 511.166 225.532 511.903 226.615 513.887Z" fill="#EDF3FF"/>
<path d="M565.245 567.671L571.666 527.682C572.021 525.446 574.136 523.921 576.371 524.276C578.607 524.631 580.132 526.746 579.777 528.981L573.356 568.97C573.001 571.206 570.886 572.731 568.651 572.376C566.407 572.02 564.89 569.915 565.245 567.671Z" fill="#EDF3FF"/>
<path d="M309.252 582.47L333.445 549.985C334.797 548.165 337.37 547.793 339.19 549.145C341.01 550.496 341.382 553.07 340.03 554.889L315.838 587.375C314.486 589.194 311.913 589.567 310.093 588.215C308.282 586.855 307.901 584.281 309.252 582.47Z" fill="#EDF3FF"/>
<path d="M652.962 684.672L617.133 665.791C615.131 664.734 614.36 662.247 615.417 660.246C616.474 658.244 618.961 657.473 620.962 658.53L656.792 677.411C658.794 678.468 659.565 680.955 658.508 682.956C657.451 684.967 654.964 685.729 652.962 684.672Z" fill="#EDF3FF"/>
<path d="M529.17 799.91L493.341 781.029C491.339 779.972 490.568 777.485 491.625 775.484C492.682 773.482 495.169 772.711 497.171 773.768L533 792.649C535.002 793.706 535.773 796.193 534.716 798.195C533.659 800.196 531.181 800.967 529.17 799.91Z" fill="#EDF3FF"/>
<path d="M437.558 1147.32L451.985 1109.48C452.791 1107.35 455.165 1106.3 457.279 1107.1C459.402 1107.91 460.459 1110.28 459.653 1112.4L445.226 1150.24C444.42 1152.36 442.046 1153.42 439.932 1152.61C437.818 1151.81 436.752 1149.44 437.558 1147.32Z" fill="#EDF3FF"/>
<path d="M636.885 816.874L636.027 776.382C635.975 774.112 637.777 772.24 640.047 772.188C642.318 772.136 644.189 773.938 644.241 776.209L645.099 816.7C645.151 818.97 643.349 820.842 641.079 820.894C638.808 820.946 636.928 819.144 636.885 816.874Z" fill="#EDF3FF"/>
<path d="M482.907 1030.76L510.834 1001.43C512.394 999.79 514.994 999.721 516.64 1001.29C518.278 1002.85 518.347 1005.45 516.779 1007.09L488.851 1036.43C487.292 1038.06 484.692 1038.13 483.046 1036.56C481.408 1035 481.348 1032.4 482.907 1030.76Z" fill="#EDF3FF"/>
<path d="M274.664 1057.32L254.604 1022.14C253.478 1020.17 254.171 1017.66 256.138 1016.54C258.105 1015.42 260.618 1016.11 261.736 1018.08L281.795 1053.26C282.922 1055.22 282.228 1057.74 280.261 1058.85C278.294 1059.98 275.782 1059.29 274.664 1057.32Z" fill="#EDF3FF"/>
<path d="M127.287 1018.28L157.978 991.856C159.694 990.375 162.285 990.574 163.767 992.29C165.248 994.005 165.049 996.596 163.333 998.078L132.642 1024.51C130.926 1025.99 128.335 1025.79 126.854 1024.07C125.372 1022.36 125.571 1019.77 127.287 1018.28Z" fill="#EDF3FF"/>
<path d="M541.214 635.274L519.803 669.648C518.607 671.571 516.068 672.161 514.144 670.965C512.221 669.769 511.632 667.23 512.827 665.307L534.239 630.933C535.434 629.009 537.973 628.42 539.897 629.615C541.82 630.82 542.41 633.35 541.214 635.274Z" fill="#EDF3FF"/>
<path d="M406.907 581.266L391.51 618.725C390.652 620.822 388.252 621.827 386.155 620.96C384.058 620.102 383.053 617.702 383.919 615.605L399.317 578.147C400.175 576.05 402.575 575.044 404.672 575.911C406.769 576.769 407.774 579.169 406.907 581.266Z" fill="#EDF3FF"/>
<path d="M109.383 785.619L73.9866 765.949C72.0023 764.849 71.2918 762.345 72.3922 760.369C73.4927 758.385 75.9969 757.674 77.9725 758.775L113.369 778.444C115.353 779.545 116.064 782.049 114.963 784.024C113.863 786.009 111.367 786.719 109.383 785.619Z" fill="#EDF3FF"/>
<path d="M589.193 953.019L626.184 969.517C628.255 970.444 629.182 972.871 628.263 974.942C627.336 977.013 624.91 977.94 622.839 977.021L585.848 960.523C583.777 959.596 582.85 957.17 583.769 955.099C584.696 953.028 587.122 952.092 589.193 953.019Z" fill="#EDF3FF"/>
<path d="M398.737 478.757L364.19 457.623C362.257 456.436 361.651 453.915 362.829 451.982C364.016 450.05 366.538 449.443 368.47 450.622L403.017 471.756C404.95 472.943 405.556 475.465 404.378 477.397C403.199 479.329 400.678 479.936 398.737 478.757Z" fill="#EDF3FF"/>
<path d="M52.4723 884.323L44.6998 924.069C44.2665 926.296 42.109 927.743 39.8821 927.31C37.6551 926.877 36.2081 924.719 36.6413 922.492L44.4138 882.746C44.8471 880.519 47.0047 879.072 49.2316 879.505C51.4585 879.938 52.9055 882.096 52.4723 884.323Z" fill="#EDF3FF"/>
<path d="M50.4131 598.387L87.0574 615.631C89.111 616.592 89.9862 619.045 89.0243 621.09C88.0625 623.143 85.6103 624.018 83.5654 623.056L46.9211 605.813C44.8675 604.851 43.9923 602.399 44.9541 600.354C45.916 598.301 48.3595 597.425 50.4131 598.387Z" fill="#EDF3FF"/>
<path d="M375.022 1109.49L363.211 1148.23C362.553 1150.4 360.257 1151.62 358.09 1150.96C355.924 1150.3 354.702 1148.01 355.361 1145.84L367.171 1107.1C367.83 1104.93 370.126 1103.71 372.292 1104.37C374.459 1105.03 375.68 1107.32 375.022 1109.49Z" fill="#EDF3FF"/>
<path d="M64.5375 958.718L86.1047 924.439C87.3092 922.524 89.848 921.944 91.763 923.148C93.6779 924.353 94.2585 926.892 93.0541 928.807L71.4869 963.085C70.2824 965 67.7436 965.581 65.8286 964.376C63.905 963.172 63.3244 960.642 64.5375 958.718Z" fill="#EDF3FF"/>
<path d="M540.442 939.886L502.975 955.258C500.878 956.115 498.477 955.119 497.62 953.013C496.762 950.916 497.758 948.516 499.864 947.658L537.331 932.287C539.428 931.429 541.828 932.425 542.686 934.531C543.544 936.628 542.539 939.028 540.442 939.886Z" fill="#EDF3FF"/>
<path d="M113.701 683.606L151.568 697.981C153.69 698.787 154.756 701.152 153.95 703.275C153.145 705.398 150.779 706.464 148.656 705.658L110.79 691.283C108.667 690.477 107.601 688.112 108.407 685.989C109.213 683.866 111.579 682.8 113.701 683.606Z" fill="#EDF3FF"/>
<path d="M182.55 1023.99L201.968 988.443C203.051 986.45 205.547 985.723 207.539 986.806C209.532 987.889 210.26 990.384 209.177 992.377L189.759 1027.92C188.676 1029.91 186.18 1030.64 184.187 1029.56C182.194 1028.47 181.467 1025.98 182.55 1023.99Z" fill="#EDF3FF"/>
<path d="M33.0988 812.406L-1.7345 833.064C-3.68412 834.216 -6.20564 833.575 -7.35808 831.625C-8.51053 829.676 -7.86932 827.154 -5.91969 826.002L28.9136 805.344C30.8632 804.192 33.3847 804.833 34.5372 806.783C35.6896 808.732 35.0484 811.254 33.0988 812.406Z" fill="#EDF3FF"/>
<path d="M172.806 842.942L183.368 803.846C183.958 801.654 186.211 800.363 188.403 800.952C190.595 801.541 191.886 803.794 191.297 805.986L180.734 845.083C180.145 847.275 177.892 848.566 175.7 847.977C173.508 847.379 172.217 845.126 172.806 842.942Z" fill="#EDF3FF"/>
<path d="M696.134 994.491L656.448 986.432C654.23 985.982 652.792 983.815 653.242 981.589C653.693 979.37 655.859 977.932 658.086 978.382L697.772 986.441C699.99 986.891 701.428 989.058 700.978 991.285C700.527 993.511 698.361 994.941 696.134 994.491Z" fill="#EDF3FF"/>
<path d="M693.372 798.213L732.287 787.001C734.462 786.377 736.741 787.633 737.364 789.808C737.988 791.983 736.732 794.262 734.557 794.886L695.642 806.098C693.467 806.722 691.189 805.466 690.565 803.291C689.941 801.116 691.197 798.837 693.372 798.213Z" fill="#EDF3FF"/>
<path d="M275.494 636.861L238.451 653.229C236.38 654.147 233.954 653.203 233.036 651.132C232.117 649.061 233.062 646.635 235.133 645.716L272.175 629.348C274.246 628.43 276.673 629.374 277.591 631.445C278.51 633.516 277.574 635.942 275.494 636.861Z" fill="#EDF3FF"/>
<path d="M626.201 594.002L589.158 610.37C587.087 611.288 584.661 610.344 583.742 608.273C582.824 606.202 583.768 603.776 585.839 602.857L622.882 586.489C624.953 585.571 627.379 586.515 628.298 588.586C629.207 590.665 628.272 593.092 626.201 594.002Z" fill="#EDF3FF"/>
<path d="M687.901 878.396L650.858 894.764C648.788 895.683 646.361 894.738 645.443 892.667C644.524 890.596 645.469 888.17 647.54 887.252L684.583 870.883C686.654 869.965 689.08 870.909 689.998 872.98C690.908 875.06 689.972 877.486 687.901 878.396Z" fill="#EDF3FF"/>
<path d="M32.4158 728.171L25.8738 688.199C25.5098 685.964 27.0262 683.85 29.2618 683.486C31.4973 683.122 33.6116 684.638 33.9755 686.874L40.5176 726.845C40.8815 729.081 39.3652 731.195 37.1296 731.559C34.894 731.932 32.7798 730.407 32.4158 728.171Z" fill="#EDF3FF"/>
<path d="M571.723 752.263L565.181 712.291C564.817 710.056 566.334 707.942 568.569 707.578C570.805 707.214 572.919 708.73 573.283 710.966L579.825 750.937C580.189 753.173 578.673 755.287 576.437 755.651C574.202 756.024 572.087 754.507 571.723 752.263Z" fill="#EDF3FF"/>
<path d="M255.077 1097.58L294.702 1105.93C296.92 1106.4 298.341 1108.57 297.874 1110.79C297.406 1113.01 295.231 1114.43 293.013 1113.96L253.387 1105.61C251.169 1105.14 249.748 1102.97 250.216 1100.75C250.675 1098.53 252.859 1097.11 255.077 1097.58Z" fill="#EDF3FF"/>
<path d="M202.518 909.931L238.893 927.737C240.93 928.734 241.77 931.195 240.774 933.231C239.777 935.267 237.316 936.108 235.28 935.111L198.904 917.305C196.868 916.308 196.027 913.847 197.024 911.811C198.029 909.783 200.481 908.934 202.518 909.931Z" fill="#EDF3FF"/>
<path d="M493.618 698.735H453.117C450.847 698.735 449.01 696.898 449.01 694.628C449.01 692.357 450.847 690.521 453.117 690.521H493.618C495.888 690.521 497.725 692.357 497.725 694.628C497.725 696.898 495.879 698.735 493.618 698.735Z" fill="#EDF3FF"/>
<path d="M404.578 769.538L445.052 770.977C447.322 771.055 449.09 772.961 449.012 775.223C448.934 777.493 447.028 779.261 444.766 779.183L404.292 777.744C402.022 777.666 400.254 775.76 400.332 773.498C400.41 771.228 402.308 769.461 404.578 769.538Z" fill="#EDF3FF"/>
<path d="M366.503 928.29L351.833 890.545C351.01 888.431 352.058 886.057 354.173 885.234C356.287 884.41 358.661 885.459 359.484 887.573L374.154 925.318C374.977 927.432 373.929 929.806 371.815 930.63C369.7 931.444 367.326 930.404 366.503 928.29Z" fill="#EDF3FF"/>
<path d="M354.988 810.713L319.592 791.043C317.607 789.943 316.897 787.439 317.997 785.463C319.098 783.479 321.602 782.768 323.577 783.869L358.974 803.538C360.958 804.639 361.669 807.143 360.568 809.119C359.468 811.103 356.972 811.813 354.988 810.713Z" fill="#EDF3FF"/>
<path d="M298.075 909.417L290.302 949.163C289.869 951.39 287.711 952.837 285.485 952.404C283.258 951.971 281.811 949.813 282.244 947.586L290.016 907.84C290.45 905.613 292.607 904.166 294.834 904.599C297.061 905.033 298.508 907.19 298.075 909.417Z" fill="#EDF3FF"/>
<path d="M296.011 623.488L332.655 640.731C334.708 641.693 335.584 644.145 334.622 646.19C333.66 648.244 331.208 649.119 329.163 648.157L292.519 630.914C290.465 629.952 289.59 627.5 290.552 625.455C291.513 623.401 293.957 622.517 296.011 623.488Z" fill="#EDF3FF"/>
<path d="M404.999 979.967L426.566 945.689C427.771 943.774 430.31 943.193 432.225 944.398C434.14 945.602 434.72 948.141 433.516 950.056L411.949 984.335C410.744 986.25 408.205 986.83 406.29 985.626C404.367 984.421 403.795 981.891 404.999 979.967Z" fill="#EDF3FF"/>
<path d="M359.304 708.71L397.17 723.086C399.293 723.892 400.359 726.257 399.553 728.38C398.747 730.503 396.382 731.569 394.259 730.763L356.393 716.388C354.27 715.582 353.204 713.216 354.01 711.093C354.816 708.97 357.181 707.905 359.304 708.71Z" fill="#EDF3FF"/>
<path d="M278.699 837.508L243.865 858.165C241.916 859.318 239.394 858.677 238.242 856.727C237.089 854.777 237.731 852.256 239.68 851.104L274.513 830.446C276.463 829.294 278.985 829.935 280.137 831.885C281.289 833.825 280.648 836.347 278.699 837.508Z" fill="#EDF3FF"/>
<path d="M418.403 868.031L428.966 828.935C429.555 826.743 431.808 825.452 434 826.041C436.192 826.63 437.484 828.883 436.894 831.075L426.332 870.172C425.742 872.364 423.49 873.655 421.297 873.066C419.105 872.477 417.814 870.224 418.403 868.031Z" fill="#EDF3FF"/>
<path d="M278.016 753.276L271.474 713.304C271.11 711.068 272.626 708.954 274.862 708.59C277.097 708.226 279.211 709.743 279.575 711.978L286.117 751.95C286.481 754.185 284.965 756.3 282.729 756.664C280.494 757.028 278.388 755.511 278.016 753.276Z" fill="#EDF3FF"/>
<path d="M474.495 872.36L510.871 890.166C512.907 891.163 513.748 893.624 512.751 895.66C511.755 897.696 509.294 898.537 507.258 897.54L470.882 879.734C468.846 878.737 468.005 876.276 469.002 874.24C469.998 872.204 472.459 871.363 474.495 872.36Z" fill="#EDF3FF"/>
<path d="M401.324 523.4L437.7 541.207C439.736 542.203 440.576 544.664 439.58 546.7C438.583 548.737 436.123 549.577 434.086 548.581L397.711 530.774C395.674 529.778 394.834 527.317 395.83 525.28C396.827 523.253 399.288 522.404 401.324 523.4Z" fill="#EDF3FF"/>
<path d="M567.339 1048.06L603.714 1065.86C605.751 1066.86 606.591 1069.32 605.595 1071.36C604.598 1073.39 602.137 1074.23 600.101 1073.24L563.725 1055.43C561.689 1054.43 560.849 1051.97 561.845 1049.94C562.841 1047.9 565.302 1047.05 567.339 1048.06Z" fill="#EDF3FF"/>
<path d="M405.799 1080.19L411.085 1040.04C411.38 1037.79 413.442 1036.21 415.695 1036.5C417.939 1036.79 419.525 1038.86 419.23 1041.11L413.944 1081.26C413.65 1083.51 411.588 1085.09 409.335 1084.8C407.082 1084.5 405.496 1082.43 405.799 1080.19Z" fill="#EDF3FF"/>
<path d="M78.7923 1056.38L80.3087 1015.91C80.3953 1013.65 82.3016 1011.87 84.5632 1011.96C86.8247 1012.05 88.6011 1013.95 88.5144 1016.21L86.998 1056.69C86.9114 1058.95 85.0051 1060.73 82.7435 1060.64C80.482 1060.55 78.7143 1058.65 78.7923 1056.38Z" fill="#EDF3FF"/>
<path d="M586.993 893.031L572.774 855.113C571.977 852.99 573.051 850.624 575.174 849.827C577.297 849.03 579.663 850.104 580.46 852.227L594.679 890.145C595.476 892.268 594.402 894.634 592.279 895.431C590.156 896.228 587.79 895.154 586.993 893.031Z" fill="#EDF3FF"/>
<path d="M161.869 1069.47L178.697 1106.31C179.641 1108.37 178.731 1110.81 176.669 1111.75C174.607 1112.7 172.172 1111.79 171.227 1109.72L154.4 1072.88C153.455 1070.82 154.365 1068.38 156.428 1067.44C158.49 1066.49 160.925 1067.4 161.869 1069.47Z" fill="#EDF3FF"/>
<path d="M281.319 473.187L308.536 443.197C310.061 441.516 312.652 441.395 314.333 442.911C316.014 444.436 316.135 447.027 314.619 448.708L287.402 478.698C285.877 480.379 283.286 480.5 281.605 478.984C279.924 477.467 279.794 474.868 281.319 473.187Z" fill="#EDF3FF"/>
<path d="M538.383 1128.89L507.483 1102.7C505.75 1101.24 505.542 1098.64 507.007 1096.91C508.471 1095.18 511.062 1094.97 512.795 1096.43L543.694 1122.62C545.427 1124.08 545.635 1126.68 544.171 1128.41C542.698 1130.14 540.107 1130.35 538.383 1128.89Z" fill="#EDF3FF"/>
<path d="M687.931 716.552L650.776 732.668C648.696 733.57 646.278 732.616 645.377 730.537C644.476 728.457 645.429 726.04 647.509 725.139L684.664 709.022C686.744 708.12 689.162 709.074 690.063 711.153C690.964 713.233 690.011 715.65 687.931 716.552Z" fill="#EDF3FF"/>
</g>
<mask id="mask23_473_149" style="mask-type:luminance" maskUnits="userSpaceOnUse" x="-195" y="441" width="1119" height="712">
<path d="M923.907 441.853H-194.303V1152.89H923.907V441.853Z" fill="white"/>
</mask>
<g mask="url(#mask23_473_149)">
<path d="M77.7793 461.358L76.9215 420.867C76.8695 418.596 78.6718 416.725 80.9421 416.673C83.2123 416.621 85.0839 418.423 85.1359 420.693L85.9938 461.185C86.0458 463.455 84.2434 465.327 81.9732 465.379C79.703 465.422 77.8313 463.628 77.7793 461.358Z" fill="#EDF3FF"/>
<path d="M30.0949 597.5L67.0858 613.998C69.1568 614.925 70.0839 617.351 69.1654 619.422C68.2383 621.493 65.8121 622.42 63.7411 621.502L26.7502 605.004C24.6793 604.077 23.7522 601.65 24.6706 599.58C25.5978 597.5 28.024 596.573 30.0949 597.5Z" fill="#EDF3FF"/>
<path d="M137.036 638.975L97.3502 630.917C95.1319 630.466 93.6935 628.3 94.1441 626.073C94.5947 623.855 96.761 622.416 98.9879 622.867L138.674 630.925C140.892 631.376 142.33 633.542 141.88 635.769C141.42 637.996 139.254 639.426 137.036 638.975Z" fill="#EDF3FF"/>
<path d="M134.275 442.688L173.19 431.475C175.365 430.851 177.644 432.108 178.268 434.283C178.891 436.458 177.635 438.736 175.46 439.36L136.546 450.573C134.371 451.197 132.092 449.94 131.468 447.765C130.835 445.59 132.092 443.32 134.275 442.688Z" fill="#EDF3FF"/>
<path d="M128.801 522.881L91.7581 539.249C89.6872 540.167 87.261 539.223 86.3425 537.152C85.424 535.081 86.3685 532.655 88.4395 531.736L125.482 515.368C127.553 514.449 129.979 515.394 130.898 517.465C131.816 519.536 130.881 521.962 128.801 522.881Z" fill="#EDF3FF"/>
<path d="M8.23801 692.533L44.6137 710.34C46.65 711.336 47.4905 713.797 46.494 715.834C45.4975 717.87 43.0367 718.71 41.0004 717.714L4.6247 699.907C2.58843 698.911 1.74792 696.45 2.7444 694.414C3.74087 692.386 6.20173 691.537 8.23801 692.533Z" fill="#EDF3FF"/>
<path d="M27.8824 537.515L13.6631 499.597C12.8659 497.474 13.9404 495.109 16.0633 494.312C18.1863 493.514 20.5518 494.589 21.349 496.712L35.5682 534.63C36.3654 536.753 35.291 539.118 33.168 539.915C31.0451 540.713 28.6796 539.638 27.8824 537.515Z" fill="#EDF3FF"/>
</g>
</g>
</g>
</g>
<defs>
<clipPath id="clip0_473_149">
<rect width="1728" height="1117" fill="white"/>
</clipPath>
<clipPath id="clip1_473_149">
<rect width="1733" height="1733" fill="white" transform="translate(-2 -583)"/>
</clipPath>
</defs>
</svg>
