<svg width="605" height="384" viewBox="0 0 605 384" fill="none" xmlns="http://www.w3.org/2000/svg">
<rect x="226.723" y="62.393" width="197.214" height="197.214" rx="98.6068" stroke="url(#paint0_linear_640_6905)" stroke-width="0.991023"/>
<rect x="242.579" y="78.2494" width="165.501" height="165.501" rx="82.7504" stroke="url(#paint1_linear_640_6905)" stroke-width="0.991023"/>
<rect x="258.436" y="94.1059" width="133.788" height="133.788" rx="66.8941" stroke="url(#paint2_linear_640_6905)" stroke-width="0.991023"/>
<rect x="274.292" y="109.962" width="102.075" height="102.075" rx="51.0377" stroke="url(#paint3_linear_640_6905)" stroke-width="0.991023"/>
<rect x="290.149" y="125.819" width="70.3627" height="70.3627" rx="35.1813" fill="url(#paint4_linear_640_6905)"/>
<rect x="290.149" y="125.819" width="70.3627" height="70.3627" rx="35.1813" stroke="url(#paint5_linear_640_6905)" stroke-width="0.991023"/>
<rect x="214.713" y="169.982" width="222.149" height="62.5209" rx="12.6372" transform="rotate(3 214.713 169.982)" fill="white"/>
<rect x="214.713" y="169.982" width="222.149" height="62.5209" rx="12.6372" transform="rotate(3 214.713 169.982)" stroke="#F8F9FC" stroke-width="1.33023"/>
<rect x="229.189" y="186.059" width="31.9256" height="31.9256" rx="15.9628" transform="rotate(3 229.189 186.059)" fill="#F2F4F7" fill-opacity="0.8"/>
<path d="M247.728 194.904L247.721 194.903C247.726 194.904 247.73 194.904 247.735 194.906C247.733 194.906 247.73 194.906 247.728 194.904ZM247.666 194.908C247.666 194.908 247.669 194.905 247.671 194.906L247.664 194.905C247.664 194.905 247.664 194.905 247.666 194.908Z" fill="#C9CBCF"/>
<path d="M242.844 209.715C236.958 207.051 238.632 207.961 238.451 207.962C237.935 207.966 237.03 209.671 237.03 209.671L236.945 209.574C237.454 208.541 238.234 207.202 238.265 207.189C238.27 207.182 238.277 207.178 238.282 207.173C238.22 207.157 238.064 207.026 238.035 207.003C237.253 206.369 236.471 205.578 235.507 204.599C235.421 204.514 235.342 204.382 235.249 204.298C235.718 204.628 233.561 203.11 239.807 207.507L242.844 209.715Z" fill="#C9CBCF"/>
<path d="M247.063 202.683C247.029 202.547 246.599 200.977 246.591 200.952C246.473 200.915 246.363 200.836 246.286 200.699C245.968 200.132 245.955 200.051 245.532 199.658C245.472 199.664 245.449 199.69 245.395 199.708C245.29 199.743 245.162 199.674 245.132 199.567C245.118 199.515 245.107 199.499 245.021 199.528C244.729 199.628 244.58 199.208 243.918 199.246C243.866 199.249 243.816 199.261 243.766 199.278C243.734 199.345 243.692 199.409 243.64 199.459C242.451 200.6 242.009 201.121 242.596 203.447L242.945 203.597L247.341 206.359C247.479 206.346 247.603 206.291 247.711 206.211C246.98 204.472 247.269 203.92 247.063 202.683Z" fill="#9A9DA3"/>
<path d="M256.642 197.156C256.625 197.16 256.604 197.163 256.584 197.165C252.149 197.404 252.498 197.432 252.392 197.368C252.117 197.198 249.997 196.054 247.717 194.904L247.669 194.906C247.667 194.906 247.664 194.908 247.664 194.908C247.599 194.93 247.628 194.955 247.441 195.583C247.434 195.606 246.834 197.739 246.872 197.604L246.84 197.714C246.918 197.914 247.043 197.955 247.123 197.926C247.178 197.908 247.22 197.854 247.266 197.829C247.333 197.782 247.434 197.754 247.51 197.811C247.629 197.9 247.621 198.143 247.645 198.267C247.661 198.36 247.715 198.475 247.809 198.492C247.968 198.513 247.99 198.392 248.431 198.638C248.567 198.717 248.699 198.79 248.837 198.778C248.949 198.769 248.982 199.083 248.371 198.742C247.953 198.505 247.968 198.644 247.786 198.607C247.633 198.58 247.553 198.423 247.53 198.289C247.504 198.147 247.513 198.042 247.465 197.944C247.456 197.924 247.447 197.912 247.44 197.907C247.415 197.886 247.367 197.903 247.332 197.927C247.287 197.954 247.243 198.011 247.163 198.037C247.055 198.076 246.91 198.045 246.793 197.885L246.49 198.957C247.227 199.362 247.879 199.906 248.635 200.281C248.7 200.313 248.661 200.419 248.582 200.388C247.837 200.018 247.18 199.473 246.457 199.074L246.238 199.854L246.864 200.431C247.194 200.565 247.516 200.724 247.82 200.909C247.885 200.951 247.829 201.05 247.758 201.01C247.555 200.888 247.347 200.774 247.131 200.678L249.176 202.56L251.039 204.275L254.386 203.705C254.448 203.694 254.501 203.649 254.52 203.591L256.643 197.308C256.66 197.257 256.661 197.204 256.642 197.156ZM252.608 202.906C252.542 203.202 252.331 203.436 252.134 203.425C251.937 203.415 251.831 203.165 251.897 202.869C251.962 202.573 252.172 202.341 252.368 202.352C252.565 202.362 252.673 202.61 252.608 202.906ZM253.135 200.691C253.072 200.987 252.858 201.218 252.661 201.207C252.467 201.197 252.361 200.949 252.424 200.653C252.489 200.357 252.701 200.126 252.895 200.136C253.092 200.147 253.2 200.395 253.135 200.691Z" fill="#ECEEF3"/>
<path d="M247.727 194.905L247.664 194.906C247.683 194.897 247.706 194.896 247.727 194.905Z" fill="#C9CBCF"/>
<path d="M252.509 197.444L252.521 197.416C252.53 197.429 252.523 197.458 252.509 197.444Z" fill="#C9CBCF"/>
<path d="M247.644 195.685C247.495 196.391 247.347 197.149 246.839 197.682C246.838 197.684 246.837 197.687 246.836 197.689C246.842 197.719 246.887 197.822 246.945 197.875C246.99 197.918 247.064 197.948 247.127 197.925C247.182 197.908 247.224 197.854 247.27 197.828C247.337 197.782 247.438 197.754 247.514 197.81C247.634 197.9 247.627 198.155 247.649 198.266C247.665 198.36 247.719 198.474 247.813 198.491C247.969 198.512 248.001 198.395 248.435 198.638C248.571 198.716 248.703 198.79 248.841 198.778C248.953 198.769 248.986 199.082 248.375 198.741C247.957 198.504 247.972 198.643 247.79 198.606C247.637 198.579 247.558 198.423 247.534 198.289C247.508 198.146 247.517 198.041 247.469 197.943C247.46 197.924 247.451 197.911 247.444 197.906C247.419 197.886 247.371 197.902 247.336 197.927C247.291 197.954 247.247 198.011 247.167 198.037C247.07 198.072 246.953 198.042 246.866 197.964C246.797 197.9 246.779 197.852 246.747 197.791C246.731 197.806 246.711 197.821 246.67 197.838C246.253 198.184 245.671 198.391 245.137 198.33C245.121 198.539 245.098 198.92 245.085 199.165C245.082 199.234 245.112 199.561 244.985 199.488C244.962 199.476 243.187 197.707 243.165 197.684C242.403 196.931 242.267 196.567 241.847 196.451C240.032 195.947 238.31 197.127 237.863 198.697C237.519 199.905 237.945 201.296 238.908 202.099C239.523 202.614 240.341 202.921 240.761 203.601C240.917 203.854 240.99 204.185 240.918 204.46C240.944 204.461 242.039 205.105 243.154 205.967C243.216 206.017 243.139 206.11 243.08 206.06C242.384 205.52 241.642 205.018 240.879 204.569C240.683 205.03 240.093 205.045 239.651 204.747C239.447 204.608 239.278 204.428 239.107 204.253C238.047 204.715 236.531 204.504 235.571 203.932C235.445 204.035 235.327 204.15 235.223 204.275C235.371 204.399 235.399 204.488 235.51 204.599C236.413 205.515 237.235 206.351 238.038 207.003C238.063 207.023 238.223 207.157 238.286 207.173C238.281 207.177 238.274 207.182 238.269 207.189C238.251 207.196 238.198 207.294 238.178 207.329C238.319 207.333 238.467 207.299 238.501 207.284L238.505 207.208C238.57 206.383 239.347 205.644 240.202 205.667C241.4 205.7 242.18 206.891 243.005 207.537C243.457 207.891 244.015 208.162 244.586 208.107C245.159 208.053 245.713 207.586 245.71 207.011C245.703 205.883 243.888 205.427 242.893 203.503C242.451 202.649 242.316 201.587 242.746 200.725C243.177 199.864 244.26 199.315 245.154 199.668C245.725 199.893 246.129 200.425 246.344 200.997C246.616 201.734 246.621 202.4 246.826 204.947C246.869 205.487 246.98 206.129 247.477 206.343C247.91 206.527 248.43 206.255 248.679 205.855C248.928 205.454 248.975 204.965 249.014 204.497C249.069 203.851 249.125 203.205 249.18 202.559C249.405 199.908 249.404 199.321 249.738 198.666C250.003 198.14 250.539 197.705 251.127 197.738C249.912 197.11 249.305 196.58 247.644 195.685ZM241.538 201.071C241.501 201.069 241.631 201.149 239.672 199.671C239.606 199.627 239.683 199.528 239.744 199.577L241.577 200.966C241.625 200.998 241.597 201.074 241.538 201.071ZM243.143 199.781C243.103 199.779 243.271 199.904 240.364 197.347C240.305 197.299 240.383 197.204 240.443 197.259L243.186 199.679C243.225 199.71 243.205 199.785 243.143 199.781ZM247.762 201.009C247.559 200.887 247.351 200.774 247.135 200.677C246.788 200.511 246.579 200.468 246.416 200.338C246.358 200.284 246.433 200.196 246.493 200.244C246.684 200.403 247.059 200.443 247.824 200.908C247.889 200.951 247.833 201.05 247.762 201.009ZM248.586 200.387C247.841 200.017 247.184 199.473 246.461 199.074C245.881 198.748 245.745 198.789 245.787 198.694C245.799 198.663 245.833 198.649 245.863 198.66C246.871 199.044 247.678 199.804 248.639 200.281C248.704 200.312 248.665 200.419 248.586 200.387Z" fill="#DFE3EC"/>
<path d="M242.843 209.715C237.982 207.008 238.293 207.165 238.263 207.189C238.236 207.201 236.587 209.884 235.776 212.386C235.75 212.49 235.82 212.57 235.902 212.578L240.781 213.097C240.838 213.103 240.892 213.077 240.92 213.031L242.894 209.92C242.938 209.848 242.914 209.757 242.843 209.715ZM238.905 209.038C238.846 209.268 238.608 209.446 238.371 209.433C238.134 209.421 237.99 209.223 238.048 208.993C238.107 208.759 238.345 208.583 238.582 208.596C238.819 208.608 238.963 208.804 238.905 209.038ZM240.374 209.759C240.317 209.989 240.077 210.166 239.84 210.154C239.605 210.142 239.461 209.944 239.519 209.714C239.576 209.482 239.816 209.307 240.05 209.319C240.287 209.332 240.434 209.527 240.374 209.759ZM241.814 210.431C241.755 210.661 241.517 210.838 241.28 210.826C241.043 210.813 240.899 210.616 240.957 210.386C241.016 210.154 241.254 209.979 241.49 209.991C241.727 210.003 241.872 210.199 241.814 210.431Z" fill="#DFE3EC"/>
<path d="M238.299 207.163C238.298 207.171 238.292 207.173 238.285 207.172C238.289 207.168 238.294 207.165 238.299 207.163Z" fill="#C9CBCF"/>
<path d="M251.013 204.31C251.01 204.31 251.007 204.31 251.004 204.309C250.972 204.302 250.952 204.271 250.958 204.239L252.381 197.388C252.396 197.313 252.513 197.334 252.497 197.412L251.075 204.263C251.069 204.292 251.042 204.312 251.013 204.31Z" fill="#9A9DA3"/>
<path d="M252.364 197.418C251.926 197.148 248.289 195.235 247.712 194.961C247.642 194.933 247.667 194.846 247.728 194.845L251.562 194.77C251.614 194.769 251.662 194.78 251.705 194.801L256.543 196.964C256.619 196.997 256.677 197.06 256.702 197.138C256.712 197.171 256.692 197.206 256.658 197.213C256.639 197.218 256.614 197.222 256.592 197.223C252.122 197.478 252.466 197.48 252.364 197.418ZM247.975 194.958C248.941 195.445 252.024 197.069 252.426 197.317C252.499 197.361 252.256 197.343 256.547 197.107C256.507 197.067 256.821 197.222 251.654 194.908C251.626 194.894 251.6 194.889 251.564 194.888L247.975 194.958Z" fill="#9A9DA3"/>
<path d="M235.653 212.511C235.029 212.1 233.745 210.564 233.27 209.99C232.905 209.552 233.395 208.841 233.523 208.289C233.576 208.057 233.684 207.843 233.761 207.619C234.351 205.907 234.204 206.49 234.75 204.983C235.188 203.778 235.232 204.246 235.546 204.557C236.404 205.42 237.225 206.272 238.07 206.957C238.093 206.974 238.238 207.099 238.295 207.116C238.342 207.131 238.361 207.195 238.298 207.237C238.039 207.645 237.419 208.743 236.996 209.6C236.321 210.962 235.834 212.325 235.829 212.427C235.828 212.437 235.829 212.445 235.831 212.453C235.835 212.459 235.84 212.47 235.843 212.481C235.864 212.513 235.848 212.557 235.812 212.569C235.753 212.594 235.708 212.555 235.653 212.511ZM235.186 204.326C235.033 204.467 234.619 205.733 234.161 206.828C234.006 207.2 233.959 207.453 233.78 207.903C233.566 208.438 233.71 208.205 233.47 208.817C233.331 209.175 233.134 209.641 233.362 209.914C233.793 210.437 235.138 212.044 235.711 212.407C235.711 212.407 235.711 212.407 235.711 212.407C235.729 212.272 236.188 210.962 236.889 209.548C237.323 208.667 237.991 207.496 238.185 207.191C238.126 207.156 238.066 207.106 237.996 207.05C237.277 206.467 236.609 205.796 235.963 205.146C235.416 204.585 235.484 204.682 235.343 204.499C235.204 204.319 235.209 204.35 235.186 204.326Z" fill="#9A9DA3"/>
<path d="M242.794 209.777L238.279 207.237L238.298 207.204L238.29 207.187L238.296 207.126C238.352 207.122 238.105 207.012 242.853 209.674C242.92 209.712 242.863 209.815 242.794 209.777Z" fill="#9A9DA3"/>
<path d="M245.193 199.767L245.144 199.732L242.098 196.66C242.042 196.605 242.127 196.521 242.182 196.577L245.26 199.669C245.325 199.714 245.258 199.811 245.193 199.767Z" fill="#9A9DA3"/>
<path d="M247.674 194.906L247.68 194.906C247.677 194.906 247.677 194.906 247.674 194.909C247.674 194.906 247.674 194.906 247.674 194.906Z" fill="#C9CBCF"/>
<path d="M247.734 194.907L247.675 194.906C247.682 194.906 247.722 194.904 247.729 194.904C247.732 194.904 247.732 194.907 247.734 194.907Z" fill="#C9CBCF"/>
<path d="M252.529 197.445C252.526 197.448 252.524 197.448 252.519 197.445L252.524 197.433L252.53 197.417C252.537 197.427 252.536 197.443 252.529 197.445Z" fill="#C9CBCF"/>
<path d="M235.883 204.743C235.686 204.67 235.426 204.556 235.203 204.429C235.205 204.405 235.213 204.247 235.212 204.271C235.253 204.3 235.914 204.765 235.883 204.743Z" fill="#C9CBCF"/>
<path d="M247.734 194.907L247.674 194.906C247.674 194.906 247.677 194.904 247.679 194.904C247.694 194.898 247.708 194.898 247.724 194.904C247.727 194.904 247.727 194.904 247.729 194.904C247.731 194.904 247.731 194.907 247.734 194.907Z" fill="#C9CBCF"/>
<path d="M252.53 197.447C252.527 197.449 252.525 197.449 252.52 197.446L252.525 197.434C252.528 197.439 252.53 197.442 252.53 197.447Z" fill="#C9CBCF"/>
<path d="M247.734 194.907L247.674 194.906C247.674 194.906 247.677 194.904 247.679 194.904C247.694 194.898 247.708 194.898 247.724 194.904C247.727 194.904 247.727 194.904 247.729 194.904C247.731 194.904 247.731 194.907 247.734 194.907Z" fill="#C9CBCF"/>
<path d="M252.529 197.445C252.526 197.448 252.524 197.448 252.519 197.445L252.524 197.433L252.53 197.417C252.537 197.427 252.536 197.443 252.529 197.445Z" fill="#C9CBCF"/>
<path d="M238.487 207.347C238.423 207.326 238.517 207.369 238.299 207.247C238.272 207.254 238.245 207.239 238.233 207.211C238.21 207.156 238.282 207.101 238.34 207.134C238.488 207.228 238.551 207.234 238.548 207.291C238.547 207.323 238.52 207.349 238.487 207.347Z" fill="#9A9DA3"/>
<path d="M239.526 212.051L238.542 211.77C238.467 211.749 238.5 211.635 238.575 211.656L239.558 211.937C239.633 211.959 239.601 212.074 239.526 212.051Z" fill="#9A9DA3"/>
<path d="M235.398 201.745C235.499 201.783 235.594 201.826 235.689 201.872C235.666 201.906 235.645 201.943 235.628 201.983C235.626 201.985 235.626 201.987 235.626 201.99L235.341 201.887L235.398 201.745Z" fill="#9A9DA3"/>
<path d="M238.664 202.638C238.674 202.768 238.644 202.866 238.409 203.164C238.268 203.121 238.131 203.071 237.998 203.014C238.068 202.956 238.133 202.898 238.195 202.837C238.253 202.783 238.308 202.724 238.315 202.641C238.323 202.525 238.214 202.394 238.076 202.351C237.735 202.246 237.588 202.606 237.483 202.69C237.056 203.075 235.968 202.911 235.736 202.345C235.641 202.103 235.776 201.914 235.96 201.734C236.243 201.859 236.14 201.796 236.435 201.932C235.982 202.29 236.508 202.9 237.151 202.549C237.397 202.412 237.45 202.183 237.705 202.091C238.063 201.972 238.627 202.236 238.664 202.638Z" fill="#9A9DA3"/>
<path d="M238.699 202.968C238.697 202.967 238.694 202.97 238.692 202.967C238.705 202.942 238.721 202.914 238.732 202.886L239.057 202.989L239.028 203.085C238.921 203.041 238.811 203.002 238.699 202.968Z" fill="#9A9DA3"/>
<path d="M239.548 202.606C239.544 202.592 239.547 202.575 239.555 202.561C239.04 202.23 238.613 201.936 238.255 201.341C238.238 201.349 238.216 201.351 238.198 201.343C237.852 201.184 237.501 201.078 237.159 201.027C236.495 200.928 235.704 201.015 235.22 201.491C234.984 201.725 234.902 201.925 234.933 202.203C235.002 202.826 235.505 203.284 236.063 203.581C237.37 204.274 238.758 204.018 239.292 203.496C239.535 203.254 239.628 202.931 239.548 202.606ZM238.665 203.08C238.651 203.077 238.642 203.067 238.635 203.057C238.602 203.105 238.564 203.153 238.526 203.201C238.476 203.256 238.469 203.296 238.423 203.293C238.399 203.292 238.107 203.198 237.855 203.08C237.819 203.065 237.806 203.014 237.843 202.98C237.906 202.933 238.183 202.716 238.192 202.632C238.194 202.585 238.135 202.494 238.037 202.463C237.788 202.391 237.685 202.664 237.557 202.78C236.939 203.325 235.472 202.873 235.589 202.104C235.086 201.914 235.159 202.024 235.309 201.647C235.32 201.619 235.352 201.604 235.382 201.615C235.51 201.66 235.636 201.714 235.756 201.773C235.802 201.718 235.855 201.666 235.905 201.619C235.949 201.572 235.987 201.631 236.253 201.725C236.394 201.777 236.699 201.894 236.573 201.975C236.489 202.028 236.429 202.086 236.4 202.146C236.274 202.368 236.643 202.696 237.09 202.444C237.321 202.314 237.368 202.081 237.661 201.98C238.129 201.816 238.856 202.206 238.769 202.774C239.126 202.891 239.141 202.891 239.166 202.914C239.177 202.926 239.19 202.948 239.181 202.984C239.068 203.333 239.189 203.243 238.665 203.08ZM240.29 203.077C240.102 202.915 239.89 202.776 239.677 202.637C239.773 203.154 239.504 203.684 238.743 203.954C237.148 204.529 234.954 203.534 234.816 202.215C234.783 201.9 234.876 201.665 235.136 201.405C235.852 200.697 237.184 200.762 238.174 201.203C238.109 201.093 238.055 200.979 238.007 200.864C236.796 200.432 235.716 200.56 234.843 201.065C234.343 201.354 233.962 201.743 233.868 202.211C233.766 202.707 234.052 203.601 234.657 204.075C236.014 205.138 238.704 205.683 239.911 204.155C240.158 203.843 240.308 203.463 240.29 203.077Z" fill="#9A9DA3"/>
<path d="M234.371 202.503C234.261 202.012 234.375 201.558 234.618 201.126L234.675 201.144L234.727 201.174C234.714 201.197 234.706 201.211 234.697 201.223C234.117 202.265 234.626 203.326 235.601 203.882C236.621 204.489 238.22 204.671 239.267 204.114C239.337 204.077 239.392 204.182 239.323 204.219C237.741 205.06 234.779 204.331 234.371 202.503Z" fill="#9A9DA3"/>
<path d="M233.821 202.695C233.981 202.583 234.172 202.496 234.392 202.436C234.469 202.416 234.498 202.53 234.423 202.55C234.217 202.607 234.038 202.688 233.89 202.792C233.826 202.837 233.757 202.741 233.821 202.695Z" fill="#9A9DA3"/>
<path d="M234.375 203.635L234.864 203.327C234.93 203.285 234.994 203.385 234.927 203.427L234.438 203.735C234.372 203.777 234.308 203.677 234.375 203.635Z" fill="#9A9DA3"/>
<path d="M235.512 204.475L235.761 204.028C235.8 203.96 235.903 204.018 235.865 204.086L235.616 204.533C235.578 204.601 235.474 204.544 235.512 204.475Z" fill="#9A9DA3"/>
<path d="M237.056 204.937L237.065 204.499C237.066 204.466 237.093 204.44 237.126 204.441C237.154 204.443 237.184 204.468 237.184 204.501L237.175 204.94C237.173 205.018 237.055 205.016 237.056 204.937Z" fill="#9A9DA3"/>
<path d="M238.338 205.011C238.297 204.843 238.259 204.717 238.222 204.561C238.203 204.484 238.319 204.457 238.337 204.533C238.378 204.702 238.416 204.828 238.453 204.983C238.472 205.06 238.357 205.087 238.338 205.011Z" fill="#9A9DA3"/>
<path d="M245.578 195.015C245.609 195.102 245.601 195.208 245.553 195.31C245.374 195.677 245.109 195.449 244.917 195.439C244.891 195.435 244.867 195.431 244.853 195.423C244.837 195.41 244.939 194.75 244.942 194.729C244.945 194.708 244.948 194.699 244.948 194.699L244.951 194.701C245.142 194.721 245.514 194.832 245.578 195.015Z" fill="#9A9DA3"/>
<path d="M245.489 196.054C245.46 195.885 245.36 195.84 245.195 195.806C245.044 195.774 244.913 195.746 244.809 195.738C244.809 195.745 244.808 195.755 244.806 195.762C244.705 196.432 244.73 196.424 244.704 196.481C244.703 196.486 244.701 196.49 244.701 196.495C244.749 196.523 245.072 196.588 245.186 196.575C245.409 196.55 245.529 196.269 245.489 196.054ZM245.489 196.054C245.46 195.885 245.36 195.84 245.195 195.806C245.044 195.774 244.913 195.746 244.809 195.738C244.809 195.745 244.808 195.755 244.806 195.762C244.705 196.432 244.73 196.424 244.704 196.481C244.703 196.486 244.701 196.49 244.701 196.495C244.749 196.523 245.072 196.588 245.186 196.575C245.409 196.55 245.529 196.269 245.489 196.054ZM245.632 195.684C245.921 195.647 246.004 195.135 245.859 194.84C245.807 194.744 245.694 194.63 245.634 194.6C245.499 194.511 245.497 194.478 245.53 194.364C245.541 194.341 245.539 194.332 245.564 194.209C245.539 194.189 245.492 194.184 245.433 194.181C245.389 194.184 245.392 194.181 245.39 194.224C245.386 194.41 245.392 194.442 245.351 194.476C245.32 194.501 245.286 194.496 245.214 194.49C245.122 194.486 245.042 194.41 245.086 194.308C245.105 194.259 245.113 194.21 245.116 194.153C245.078 194.144 245.04 194.142 245.004 194.144C244.963 194.291 245.018 194.351 244.979 194.393C244.935 194.432 244.908 194.396 244.538 194.329C244.537 194.338 244.502 194.52 244.502 194.529C244.504 194.529 244.509 194.532 244.518 194.532C244.584 194.561 244.703 194.557 244.686 194.639C244.573 195.206 244.533 195.827 244.385 196.405C244.379 196.424 244.366 196.437 244.349 196.446C244.297 196.465 244.284 196.412 244.217 196.42C244.209 196.484 244.203 196.555 244.202 196.626C244.283 196.666 244.365 196.694 244.449 196.715C244.459 196.715 244.475 196.721 244.48 196.716C244.516 196.705 244.562 196.729 244.56 196.778L244.541 197.05C244.566 197.061 244.592 197.069 244.618 197.075L244.656 196.887C244.659 196.873 244.665 196.85 244.661 196.84C244.644 196.796 244.682 196.747 244.732 196.76C244.998 196.833 244.958 196.716 244.906 197.155C244.955 197.171 245.005 197.172 245.053 197.153C245.056 197.129 245.058 197.093 245.075 197.007C245.085 196.983 245.076 196.918 245.101 196.877C245.144 196.814 245.235 196.85 245.37 196.818C245.767 196.727 245.913 196.091 245.596 195.784C245.563 195.753 245.579 195.686 245.632 195.684ZM245.108 196.697C245.039 196.693 244.969 196.679 244.903 196.667C244.792 196.65 244.561 196.614 244.583 196.477C244.586 196.468 244.589 196.456 244.592 196.442C244.609 196.411 244.601 196.311 244.687 195.751C244.714 195.569 244.785 195.599 245.218 195.691C245.312 195.71 245.472 195.742 245.555 195.884C245.718 196.169 245.542 196.72 245.108 196.697ZM245.323 195.634C245.19 195.657 245.041 195.582 244.94 195.562C244.889 195.549 244.838 195.561 244.783 195.52C244.716 195.469 244.728 195.389 244.735 195.335C244.755 195.185 244.789 194.921 244.823 194.712C244.83 194.668 244.844 194.576 244.96 194.584C245.206 194.608 245.604 194.741 245.688 194.974C245.783 195.241 245.595 195.604 245.323 195.634ZM245.195 195.806C245.044 195.774 244.913 195.746 244.809 195.738C244.809 195.745 244.808 195.755 244.806 195.762C244.705 196.432 244.73 196.424 244.704 196.481C244.703 196.486 244.701 196.49 244.701 196.495C244.749 196.523 245.072 196.588 245.186 196.575C245.409 196.55 245.529 196.269 245.489 196.054C245.46 195.885 245.36 195.84 245.195 195.806Z" fill="#9A9DA3"/>
<path d="M247.732 194.645C247.54 193.951 246.808 193.273 246.293 193.087C245.412 192.769 244.042 193.285 243.495 194.425C242.794 195.888 243.336 198.659 245.547 198.558C246.236 198.525 246.802 198.061 247.347 197.548C247.437 197.462 247.462 197.337 247.511 197.226C247.865 196.448 247.955 195.46 247.732 194.645ZM244.953 197.881C244.467 197.855 244.008 197.548 243.756 197.062C243.467 196.501 243.372 195.579 243.632 194.846C244.171 193.333 245.904 193.07 246.585 194.621C247.24 196.136 246.222 197.947 244.953 197.881ZM245.826 193.878C245.569 193.705 245.341 193.66 245.012 193.711C243.691 193.918 243.256 195.829 243.861 197.008C244.135 197.536 244.67 197.833 245.2 197.749C245.725 197.665 246.226 197.211 246.479 196.597C246.858 195.675 246.675 194.44 245.826 193.878ZM245.743 195.772C246.048 196.184 245.84 196.833 245.397 196.932C245.339 196.946 245.295 196.948 245.199 196.955C245.197 196.979 245.199 196.999 245.19 197.033C245.161 197.162 245.188 197.231 245.095 197.263C245.006 197.297 244.913 197.29 244.839 197.255C244.741 197.208 244.8 197.124 244.819 196.902C244.805 196.899 244.791 196.896 244.777 196.893C244.774 196.899 244.774 196.904 244.773 196.911C244.723 197.147 244.729 197.168 244.692 197.195C244.677 197.201 244.653 197.204 244.639 197.201C244.581 197.189 244.525 197.172 244.471 197.15C244.462 197.147 244.434 197.134 244.424 197.102C244.414 197.075 244.418 197.078 244.435 196.832C244.431 196.829 244.426 196.829 244.421 196.829C244.356 196.812 244.136 196.745 244.098 196.695C244.08 196.668 244.082 196.64 244.083 196.626C244.084 196.581 244.092 196.376 244.119 196.34C244.147 196.29 244.243 196.295 244.285 196.306C244.41 195.795 244.463 195.174 244.558 194.669L244.483 194.646C244.462 194.64 244.409 194.623 244.39 194.565C244.378 194.527 244.385 194.505 244.424 194.291C244.437 194.217 244.489 194.193 244.533 194.207L244.869 194.274C244.868 194.205 244.879 194.134 244.901 194.069C244.909 194.048 244.929 194.033 244.951 194.029C245.076 194.014 245.257 194.021 245.234 194.151C245.23 194.219 245.222 194.286 245.193 194.353C245.191 194.377 245.244 194.37 245.268 194.373C245.272 194.225 245.266 194.18 245.287 194.137C245.353 193.997 245.719 194.061 245.681 194.231L245.656 194.358C245.62 194.497 245.607 194.427 245.751 194.534C245.923 194.69 246.01 194.805 246.038 195.048C246.078 195.323 245.993 195.66 245.743 195.772Z" fill="#9A9DA3"/>
<path d="M245.802 198.053C246.84 197.544 247.345 196.16 247.116 195.068C246.885 193.975 246.043 193.27 244.929 193.18C244.851 193.176 244.856 193.058 244.934 193.061C244.941 193.061 244.986 193.065 244.988 193.066C246.157 193.173 247.001 193.948 247.232 195.044C247.47 196.18 246.947 197.625 245.854 198.16C245.783 198.195 245.731 198.088 245.802 198.053Z" fill="#9A9DA3"/>
<path d="M246.299 193.584C246.452 193.453 246.619 193.356 246.795 193.297C246.869 193.273 246.907 193.385 246.833 193.41C246.671 193.464 246.518 193.553 246.377 193.674C246.317 193.725 246.24 193.635 246.299 193.584Z" fill="#9A9DA3"/>
<path d="M246.949 194.397L247.453 194.199C247.525 194.17 247.57 194.28 247.496 194.309L246.992 194.508C246.919 194.537 246.875 194.427 246.949 194.397Z" fill="#9A9DA3"/>
<path d="M247.748 195.598C247.657 195.589 247.183 195.544 247.212 195.547C247.136 195.54 247.143 195.425 247.224 195.429L247.757 195.48C247.834 195.487 247.824 195.602 247.748 195.598Z" fill="#9A9DA3"/>
<path d="M247.469 196.96L247.047 196.737C246.977 196.7 247.034 196.595 247.103 196.632L247.525 196.856C247.594 196.893 247.538 196.997 247.469 196.96Z" fill="#9A9DA3"/>
<path d="M246.59 197.608C246.53 197.558 246.605 197.467 246.666 197.517C246.804 197.632 246.915 197.732 247.045 197.839C247.07 197.86 247.074 197.897 247.053 197.922C246.995 197.992 246.956 197.911 246.59 197.608Z" fill="#9A9DA3"/>
<path d="M237.249 198.459C237.22 196.812 238.731 195.232 241.15 195.234C241.225 195.228 241.231 195.353 241.15 195.353C238.811 195.351 237.34 196.869 237.368 198.457C237.369 198.536 237.25 198.538 237.249 198.459Z" fill="#9A9DA3"/>
<path d="M236.826 196.309C237.013 195.685 237.412 195.137 237.949 194.767C238.014 194.723 238.08 194.82 238.016 194.865C237.501 195.219 237.119 195.744 236.94 196.343C236.917 196.419 236.804 196.385 236.826 196.309Z" fill="#9A9DA3"/>
<path d="M243.097 208.52C243.028 208.48 243.089 208.377 243.156 208.417C243.857 208.826 244.634 209.268 245.457 209.103C245.877 209.019 246.229 208.768 246.397 208.432C246.579 208.069 246.514 207.602 246.246 207.345C246.2 207.301 246.246 207.225 246.307 207.246C247.157 207.532 247.866 207.883 248.475 207.656C248.762 207.549 249.015 207.304 249.17 206.986C249.3 206.715 249.367 206.395 249.373 206.006C249.375 205.927 249.493 205.93 249.492 206.008C249.475 207.02 249.027 207.577 248.517 207.767C247.873 208.007 247.152 207.656 246.465 207.428C246.886 208.095 246.451 209.025 245.48 209.22C244.615 209.393 243.806 208.934 243.097 208.52Z" fill="#9A9DA3"/>
<path d="M245.891 210.029C245.828 209.981 245.901 209.887 245.963 209.935C246.303 210.198 246.886 210.012 247.09 209.357C247.113 209.282 247.227 209.317 247.203 209.392C246.963 210.162 246.265 210.319 245.891 210.029Z" fill="#9A9DA3"/>
<path d="M248.673 193.959C248.663 193.741 248.506 193.526 248.299 193.448C248.246 193.428 248.25 193.35 248.306 193.335C248.444 193.3 248.488 193.246 248.57 193.114C248.628 193.021 248.667 192.918 248.686 192.812C248.682 192.762 248.687 192.713 248.701 192.666C248.721 192.6 248.819 192.615 248.817 192.684C248.816 192.728 248.812 192.773 248.805 192.816C248.832 193.048 249.048 193.183 249.243 193.3C249.284 193.324 249.281 193.384 249.239 193.404C249.022 193.511 248.854 193.723 248.79 193.971C248.773 194.037 248.676 194.027 248.673 193.959ZM248.466 193.401C248.591 193.483 248.692 193.608 248.746 193.747C248.826 193.584 248.948 193.445 249.096 193.349C248.958 193.263 248.827 193.164 248.749 193.021C248.7 193.146 248.592 193.331 248.466 193.401Z" fill="#9A9DA3"/>
<path d="M234.773 200.263C234.763 200.03 234.596 199.801 234.375 199.718C234.321 199.698 234.325 199.62 234.381 199.605C234.529 199.567 234.576 199.51 234.664 199.369C234.725 199.27 234.767 199.16 234.787 199.047C234.783 198.994 234.789 198.942 234.803 198.893C234.822 198.828 234.921 198.841 234.919 198.911C234.918 198.958 234.914 199.005 234.907 199.051C234.935 199.298 235.164 199.442 235.373 199.567C235.413 199.591 235.411 199.651 235.369 199.671C235.137 199.785 234.958 200.011 234.89 200.275C234.873 200.341 234.777 200.331 234.773 200.263ZM234.543 199.671C234.681 199.759 234.79 199.895 234.848 200.048C234.933 199.87 235.065 199.719 235.225 199.616C235.073 199.522 234.933 199.417 234.85 199.26C234.798 199.395 234.681 199.598 234.543 199.671Z" fill="#9A9DA3"/>
<path d="M242.834 194.013C242.481 193.915 242.117 193.85 241.752 193.82C241.677 193.813 241.68 193.699 241.762 193.701C242.134 193.733 242.505 193.799 242.866 193.898C242.94 193.919 242.911 194.034 242.834 194.013Z" fill="#9A9DA3"/>
<path d="M242.903 193.463L242.712 193.295C242.653 193.243 242.732 193.155 242.79 193.206L242.981 193.373C243.04 193.425 242.962 193.514 242.903 193.463Z" fill="#9A9DA3"/>
<path d="M243.399 193.318C243.208 193.148 243.103 192.895 243.118 192.64C243.12 192.607 243.148 192.582 243.18 192.584C243.18 192.584 243.181 192.584 243.181 192.584C243.213 192.586 243.238 192.614 243.236 192.647C243.224 192.863 243.316 193.086 243.478 193.229C243.537 193.281 243.457 193.369 243.399 193.318Z" fill="#9A9DA3"/>
<path d="M254.548 202.166C255.759 197.614 255.342 199.184 255.432 198.844C255.452 198.769 255.567 198.799 255.546 198.875C255.456 199.215 255.873 197.646 254.663 202.195C254.645 202.271 254.529 202.242 254.548 202.166Z" fill="#9A9DA3"/>
<path d="M254.424 200.473L254.65 199.697C254.671 199.621 254.786 199.655 254.764 199.73L254.538 200.506C254.516 200.582 254.402 200.548 254.424 200.473Z" fill="#9A9DA3"/>
<rect x="271.524" y="191.608" width="33.2558" height="7.9814" rx="2.66047" transform="rotate(3 271.524 191.608)" fill="#ECEEF3"/>
<rect x="314.033" y="193.836" width="101.098" height="7.9814" rx="2.66047" transform="rotate(3 314.033 193.836)" fill="#ECEEF3"/>
<rect x="270.619" y="208.877" width="126.372" height="7.9814" rx="2.66047" transform="rotate(3 270.619 208.877)" fill="#ECEEF3"/>
<rect x="214.713" y="75.8987" width="222.149" height="62.5209" rx="12.6372" transform="rotate(3 214.713 75.8987)" fill="white"/>
<rect x="214.713" y="75.8987" width="222.149" height="62.5209" rx="12.6372" transform="rotate(3 214.713 75.8987)" stroke="#F8F9FC" stroke-width="1.33023"/>
<rect x="229.189" y="91.9761" width="31.9256" height="31.9256" rx="15.9628" transform="rotate(3 229.189 91.9761)" fill="#F2F4F7" fill-opacity="0.8"/>
<path d="M247.728 100.821L247.721 100.82C247.726 100.821 247.73 100.821 247.735 100.823C247.733 100.823 247.73 100.823 247.728 100.821ZM247.666 100.825C247.666 100.825 247.669 100.822 247.671 100.823L247.664 100.822C247.664 100.822 247.664 100.822 247.666 100.825Z" fill="#C9CBCF"/>
<path d="M242.844 115.632C236.958 112.968 238.632 113.878 238.451 113.879C237.935 113.883 237.03 115.588 237.03 115.588L236.945 115.491C237.454 114.458 238.234 113.119 238.265 113.106C238.27 113.099 238.277 113.095 238.282 113.09C238.22 113.074 238.064 112.943 238.035 112.92C237.253 112.286 236.471 111.495 235.507 110.516C235.421 110.431 235.342 110.299 235.249 110.215C235.718 110.545 233.561 109.027 239.807 113.424L242.844 115.632Z" fill="#C9CBCF"/>
<path d="M247.063 108.6C247.029 108.464 246.599 106.894 246.591 106.869C246.473 106.832 246.363 106.753 246.286 106.616C245.968 106.049 245.955 105.968 245.532 105.575C245.472 105.581 245.449 105.607 245.395 105.625C245.29 105.66 245.162 105.591 245.132 105.484C245.118 105.432 245.107 105.416 245.021 105.445C244.729 105.545 244.58 105.125 243.918 105.163C243.866 105.166 243.816 105.178 243.766 105.195C243.734 105.262 243.692 105.326 243.64 105.376C242.451 106.517 242.009 107.038 242.596 109.364L242.945 109.514L247.341 112.276C247.479 112.263 247.603 112.208 247.711 112.128C246.98 110.389 247.269 109.837 247.063 108.6Z" fill="#9A9DA3"/>
<path d="M256.642 103.073C256.625 103.077 256.604 103.08 256.584 103.082C252.149 103.321 252.498 103.349 252.392 103.285C252.117 103.115 249.997 101.971 247.717 100.821L247.669 100.823C247.667 100.823 247.664 100.825 247.664 100.825C247.599 100.847 247.628 100.872 247.441 101.5C247.434 101.523 246.834 103.656 246.872 103.521L246.84 103.631C246.918 103.831 247.043 103.872 247.123 103.843C247.178 103.825 247.22 103.771 247.266 103.746C247.333 103.699 247.434 103.671 247.51 103.728C247.629 103.817 247.621 104.06 247.645 104.184C247.661 104.277 247.715 104.392 247.809 104.409C247.968 104.43 247.99 104.309 248.431 104.555C248.567 104.634 248.699 104.707 248.837 104.695C248.949 104.686 248.982 105 248.371 104.659C247.953 104.422 247.968 104.561 247.786 104.524C247.633 104.497 247.553 104.34 247.53 104.206C247.504 104.064 247.513 103.959 247.465 103.861C247.456 103.841 247.447 103.829 247.44 103.824C247.415 103.803 247.367 103.82 247.332 103.844C247.287 103.871 247.243 103.928 247.163 103.954C247.055 103.993 246.91 103.962 246.793 103.802L246.49 104.874C247.227 105.279 247.879 105.823 248.635 106.198C248.7 106.229 248.661 106.336 248.582 106.305C247.837 105.935 247.18 105.39 246.457 104.991L246.238 105.771L246.864 106.348C247.194 106.481 247.516 106.641 247.82 106.826C247.885 106.868 247.829 106.967 247.758 106.927C247.555 106.805 247.347 106.691 247.131 106.595L249.176 108.477L251.039 110.192L254.386 109.622C254.448 109.611 254.501 109.566 254.52 109.508L256.643 103.225C256.66 103.174 256.661 103.121 256.642 103.073ZM252.608 108.823C252.542 109.119 252.331 109.353 252.134 109.342C251.937 109.332 251.831 109.082 251.897 108.786C251.962 108.49 252.172 108.258 252.368 108.269C252.565 108.279 252.673 108.527 252.608 108.823ZM253.135 106.608C253.072 106.904 252.858 107.135 252.661 107.124C252.467 107.114 252.361 106.866 252.424 106.57C252.489 106.274 252.701 106.043 252.895 106.053C253.092 106.064 253.2 106.312 253.135 106.608Z" fill="#ECEEF3"/>
<path d="M247.727 100.822L247.664 100.823C247.683 100.814 247.706 100.813 247.727 100.822Z" fill="#C9CBCF"/>
<path d="M252.509 103.361L252.521 103.333C252.53 103.346 252.523 103.375 252.509 103.361Z" fill="#C9CBCF"/>
<path d="M247.644 101.602C247.495 102.308 247.347 103.066 246.839 103.599C246.838 103.601 246.837 103.604 246.836 103.606C246.842 103.636 246.887 103.739 246.945 103.792C246.99 103.835 247.064 103.865 247.127 103.842C247.182 103.825 247.224 103.771 247.27 103.745C247.337 103.699 247.438 103.671 247.514 103.727C247.634 103.817 247.627 104.072 247.649 104.183C247.665 104.277 247.719 104.391 247.813 104.408C247.969 104.429 248.001 104.312 248.435 104.555C248.571 104.633 248.703 104.707 248.841 104.695C248.953 104.686 248.986 104.999 248.375 104.658C247.957 104.421 247.972 104.56 247.79 104.523C247.637 104.496 247.558 104.34 247.534 104.206C247.508 104.063 247.517 103.958 247.469 103.86C247.46 103.841 247.451 103.828 247.444 103.823C247.419 103.803 247.371 103.819 247.336 103.844C247.291 103.871 247.247 103.928 247.167 103.954C247.07 103.989 246.953 103.959 246.866 103.881C246.797 103.817 246.779 103.769 246.747 103.708C246.731 103.723 246.711 103.738 246.67 103.755C246.253 104.101 245.671 104.308 245.137 104.247C245.121 104.456 245.098 104.837 245.085 105.082C245.082 105.151 245.112 105.478 244.985 105.405C244.962 105.393 243.187 103.624 243.165 103.601C242.403 102.848 242.267 102.484 241.847 102.368C240.032 101.864 238.31 103.044 237.863 104.614C237.519 105.822 237.945 107.213 238.908 108.016C239.523 108.531 240.341 108.838 240.761 109.518C240.917 109.771 240.99 110.102 240.918 110.377C240.944 110.378 242.039 111.022 243.154 111.884C243.216 111.934 243.139 112.027 243.08 111.977C242.384 111.437 241.642 110.935 240.879 110.486C240.683 110.947 240.093 110.962 239.651 110.664C239.447 110.525 239.278 110.345 239.107 110.17C238.047 110.632 236.531 110.421 235.571 109.849C235.445 109.952 235.327 110.067 235.223 110.192C235.371 110.316 235.399 110.405 235.51 110.516C236.413 111.432 237.235 112.268 238.038 112.92C238.063 112.94 238.223 113.074 238.286 113.09C238.281 113.094 238.274 113.099 238.269 113.106C238.251 113.113 238.198 113.211 238.178 113.246C238.319 113.25 238.467 113.216 238.501 113.201L238.505 113.125C238.57 112.3 239.347 111.561 240.202 111.584C241.4 111.617 242.18 112.808 243.005 113.454C243.457 113.808 244.015 114.079 244.586 114.024C245.159 113.97 245.713 113.503 245.71 112.928C245.703 111.8 243.888 111.344 242.893 109.42C242.451 108.566 242.316 107.504 242.746 106.642C243.177 105.781 244.26 105.232 245.154 105.585C245.725 105.81 246.129 106.342 246.344 106.914C246.616 107.651 246.621 108.317 246.826 110.864C246.869 111.404 246.98 112.046 247.477 112.26C247.91 112.444 248.43 112.172 248.679 111.772C248.928 111.371 248.975 110.882 249.014 110.414C249.069 109.768 249.125 109.122 249.18 108.476C249.405 105.825 249.404 105.238 249.738 104.583C250.003 104.057 250.539 103.622 251.127 103.655C249.912 103.027 249.305 102.497 247.644 101.602ZM241.538 106.988C241.501 106.986 241.631 107.066 239.672 105.588C239.606 105.544 239.683 105.445 239.744 105.494L241.577 106.883C241.625 106.915 241.597 106.991 241.538 106.988ZM243.143 105.698C243.103 105.696 243.271 105.821 240.364 103.264C240.305 103.216 240.383 103.121 240.443 103.176L243.186 105.596C243.225 105.627 243.205 105.702 243.143 105.698ZM247.762 106.926C247.559 106.804 247.351 106.691 247.135 106.594C246.788 106.428 246.579 106.385 246.416 106.255C246.358 106.201 246.433 106.113 246.493 106.161C246.684 106.32 247.059 106.36 247.824 106.825C247.889 106.868 247.833 106.967 247.762 106.926ZM248.586 106.304C247.841 105.934 247.184 105.39 246.461 104.991C245.881 104.665 245.745 104.706 245.787 104.611C245.799 104.58 245.833 104.566 245.863 104.577C246.871 104.961 247.678 105.721 248.639 106.198C248.704 106.229 248.665 106.336 248.586 106.304Z" fill="#DFE3EC"/>
<path d="M242.843 115.632C237.982 112.925 238.293 113.082 238.263 113.106C238.236 113.118 236.587 115.801 235.776 118.303C235.75 118.407 235.82 118.487 235.902 118.495L240.781 119.014C240.838 119.02 240.892 118.994 240.92 118.948L242.894 115.837C242.938 115.765 242.914 115.674 242.843 115.632ZM238.905 114.955C238.846 115.185 238.608 115.363 238.371 115.35C238.134 115.338 237.99 115.14 238.048 114.91C238.107 114.676 238.345 114.5 238.582 114.513C238.819 114.525 238.963 114.721 238.905 114.955ZM240.374 115.676C240.317 115.906 240.077 116.083 239.84 116.071C239.605 116.059 239.461 115.861 239.519 115.631C239.576 115.399 239.816 115.224 240.05 115.236C240.287 115.249 240.434 115.444 240.374 115.676ZM241.814 116.348C241.755 116.578 241.517 116.755 241.28 116.743C241.043 116.73 240.899 116.533 240.957 116.303C241.016 116.071 241.254 115.896 241.49 115.908C241.727 115.92 241.872 116.116 241.814 116.348Z" fill="#DFE3EC"/>
<path d="M238.299 113.08C238.298 113.088 238.292 113.09 238.285 113.089C238.289 113.085 238.294 113.082 238.299 113.08Z" fill="#C9CBCF"/>
<path d="M251.013 110.227C251.01 110.227 251.007 110.227 251.004 110.226C250.972 110.219 250.952 110.188 250.958 110.156L252.381 103.305C252.396 103.23 252.513 103.251 252.497 103.329L251.075 110.18C251.069 110.209 251.042 110.229 251.013 110.227Z" fill="#9A9DA3"/>
<path d="M252.364 103.335C251.926 103.065 248.289 101.152 247.712 100.878C247.642 100.85 247.667 100.763 247.728 100.761L251.562 100.687C251.614 100.686 251.662 100.697 251.705 100.718L256.543 102.881C256.619 102.914 256.677 102.977 256.702 103.055C256.712 103.088 256.692 103.123 256.658 103.13C256.639 103.135 256.614 103.139 256.592 103.14C252.122 103.395 252.466 103.397 252.364 103.335ZM247.975 100.875C248.941 101.362 252.024 102.986 252.426 103.234C252.499 103.278 252.256 103.26 256.547 103.024C256.507 102.984 256.821 103.139 251.654 100.825C251.626 100.811 251.6 100.806 251.564 100.805L247.975 100.875Z" fill="#9A9DA3"/>
<path d="M235.653 118.428C235.029 118.017 233.745 116.481 233.27 115.907C232.905 115.469 233.395 114.758 233.523 114.206C233.576 113.974 233.684 113.76 233.761 113.536C234.351 111.824 234.204 112.407 234.75 110.9C235.188 109.695 235.232 110.163 235.546 110.474C236.404 111.337 237.225 112.189 238.07 112.874C238.093 112.891 238.238 113.016 238.295 113.033C238.342 113.048 238.361 113.112 238.298 113.154C238.039 113.562 237.419 114.66 236.996 115.517C236.321 116.879 235.834 118.242 235.829 118.344C235.828 118.354 235.829 118.362 235.831 118.37C235.835 118.376 235.84 118.387 235.843 118.398C235.864 118.43 235.848 118.474 235.812 118.486C235.753 118.511 235.708 118.472 235.653 118.428ZM235.186 110.243C235.033 110.384 234.619 111.65 234.161 112.745C234.006 113.117 233.959 113.37 233.78 113.82C233.566 114.355 233.71 114.122 233.47 114.734C233.331 115.092 233.134 115.558 233.362 115.831C233.793 116.354 235.138 117.961 235.711 118.324C235.711 118.324 235.711 118.324 235.711 118.324C235.729 118.189 236.188 116.879 236.889 115.465C237.323 114.584 237.991 113.413 238.185 113.108C238.126 113.073 238.066 113.023 237.996 112.967C237.277 112.384 236.609 111.713 235.963 111.063C235.416 110.502 235.484 110.599 235.343 110.416C235.204 110.236 235.209 110.267 235.186 110.243Z" fill="#9A9DA3"/>
<path d="M242.794 115.694L238.279 113.154L238.298 113.121L238.29 113.104L238.296 113.043C238.352 113.039 238.105 112.929 242.853 115.591C242.92 115.629 242.863 115.732 242.794 115.694Z" fill="#9A9DA3"/>
<path d="M245.193 105.684L245.144 105.649L242.098 102.577C242.042 102.522 242.127 102.438 242.182 102.494L245.26 105.586C245.325 105.631 245.258 105.728 245.193 105.684Z" fill="#9A9DA3"/>
<path d="M247.674 100.823L247.68 100.823C247.677 100.823 247.677 100.823 247.674 100.826C247.674 100.823 247.674 100.823 247.674 100.823Z" fill="#C9CBCF"/>
<path d="M247.734 100.824L247.675 100.823C247.682 100.823 247.722 100.821 247.729 100.821C247.732 100.821 247.732 100.824 247.734 100.824Z" fill="#C9CBCF"/>
<path d="M252.529 103.362C252.526 103.365 252.524 103.365 252.519 103.362L252.524 103.35L252.53 103.334C252.537 103.344 252.536 103.36 252.529 103.362Z" fill="#C9CBCF"/>
<path d="M235.883 110.66C235.686 110.587 235.426 110.473 235.203 110.346C235.205 110.322 235.213 110.164 235.212 110.187C235.253 110.217 235.914 110.682 235.883 110.66Z" fill="#C9CBCF"/>
<path d="M247.734 100.824L247.674 100.823C247.674 100.823 247.677 100.821 247.679 100.821C247.694 100.814 247.708 100.815 247.724 100.821C247.727 100.821 247.727 100.821 247.729 100.821C247.731 100.821 247.731 100.824 247.734 100.824Z" fill="#C9CBCF"/>
<path d="M252.53 103.364C252.527 103.366 252.525 103.366 252.52 103.363L252.525 103.351C252.528 103.356 252.53 103.359 252.53 103.364Z" fill="#C9CBCF"/>
<path d="M247.734 100.824L247.674 100.823C247.674 100.823 247.677 100.821 247.679 100.821C247.694 100.814 247.708 100.815 247.724 100.821C247.727 100.821 247.727 100.821 247.729 100.821C247.731 100.821 247.731 100.824 247.734 100.824Z" fill="#C9CBCF"/>
<path d="M252.529 103.362C252.526 103.365 252.524 103.365 252.519 103.362L252.524 103.35L252.53 103.334C252.537 103.344 252.536 103.36 252.529 103.362Z" fill="#C9CBCF"/>
<path d="M238.487 113.264C238.423 113.243 238.517 113.286 238.299 113.164C238.272 113.171 238.245 113.156 238.233 113.128C238.21 113.073 238.282 113.018 238.34 113.051C238.488 113.145 238.551 113.151 238.548 113.208C238.547 113.24 238.52 113.266 238.487 113.264Z" fill="#9A9DA3"/>
<path d="M239.526 117.968L238.542 117.687C238.467 117.666 238.5 117.552 238.575 117.573L239.558 117.854C239.633 117.876 239.601 117.991 239.526 117.968Z" fill="#9A9DA3"/>
<path d="M235.398 107.662C235.499 107.7 235.594 107.743 235.689 107.789C235.666 107.823 235.645 107.86 235.628 107.9C235.626 107.902 235.626 107.904 235.626 107.907L235.341 107.804L235.398 107.662Z" fill="#9A9DA3"/>
<path d="M238.664 108.555C238.674 108.685 238.644 108.783 238.409 109.081C238.268 109.038 238.131 108.988 237.998 108.931C238.068 108.873 238.133 108.815 238.195 108.754C238.253 108.7 238.308 108.641 238.315 108.558C238.323 108.442 238.214 108.311 238.076 108.268C237.735 108.163 237.588 108.523 237.483 108.607C237.056 108.992 235.968 108.828 235.736 108.262C235.641 108.02 235.776 107.831 235.96 107.651C236.243 107.776 236.14 107.713 236.435 107.849C235.982 108.207 236.508 108.817 237.151 108.466C237.397 108.329 237.45 108.1 237.705 108.008C238.063 107.889 238.627 108.153 238.664 108.555Z" fill="#9A9DA3"/>
<path d="M238.699 108.885C238.697 108.884 238.694 108.887 238.692 108.884C238.705 108.859 238.721 108.831 238.732 108.803L239.057 108.906L239.028 109.002C238.921 108.958 238.811 108.919 238.699 108.885Z" fill="#9A9DA3"/>
<path d="M239.548 108.523C239.544 108.509 239.547 108.492 239.555 108.478C239.04 108.147 238.613 107.853 238.255 107.258C238.238 107.266 238.216 107.268 238.198 107.259C237.852 107.101 237.501 106.995 237.159 106.944C236.495 106.845 235.704 106.932 235.22 107.408C234.984 107.642 234.902 107.842 234.933 108.12C235.002 108.743 235.505 109.201 236.063 109.498C237.37 110.191 238.758 109.935 239.292 109.413C239.535 109.171 239.628 108.848 239.548 108.523ZM238.665 108.997C238.651 108.994 238.642 108.984 238.635 108.974C238.602 109.022 238.564 109.07 238.526 109.118C238.476 109.173 238.469 109.213 238.423 109.21C238.399 109.209 238.107 109.115 237.855 108.997C237.819 108.982 237.806 108.931 237.843 108.897C237.906 108.85 238.183 108.633 238.192 108.549C238.194 108.502 238.135 108.411 238.037 108.38C237.788 108.308 237.685 108.581 237.557 108.697C236.939 109.242 235.472 108.79 235.589 108.021C235.086 107.831 235.159 107.941 235.309 107.564C235.32 107.536 235.352 107.521 235.382 107.532C235.51 107.577 235.636 107.631 235.756 107.69C235.802 107.635 235.855 107.583 235.905 107.536C235.949 107.489 235.987 107.548 236.253 107.642C236.394 107.694 236.699 107.811 236.573 107.892C236.489 107.945 236.429 108.003 236.4 108.063C236.274 108.285 236.643 108.613 237.09 108.361C237.321 108.231 237.368 107.998 237.661 107.897C238.129 107.733 238.856 108.123 238.769 108.691C239.126 108.808 239.141 108.808 239.166 108.831C239.177 108.843 239.19 108.865 239.181 108.901C239.068 109.25 239.189 109.16 238.665 108.997ZM240.29 108.994C240.102 108.832 239.89 108.693 239.677 108.554C239.773 109.071 239.504 109.601 238.743 109.871C237.148 110.446 234.954 109.451 234.816 108.132C234.783 107.817 234.876 107.582 235.136 107.322C235.852 106.614 237.184 106.679 238.174 107.12C238.109 107.01 238.055 106.896 238.007 106.781C236.796 106.349 235.716 106.477 234.843 106.982C234.343 107.271 233.962 107.66 233.868 108.128C233.766 108.624 234.052 109.518 234.657 109.992C236.014 111.055 238.704 111.6 239.911 110.072C240.158 109.76 240.308 109.38 240.29 108.994Z" fill="#9A9DA3"/>
<path d="M234.371 108.42C234.261 107.929 234.375 107.475 234.618 107.043L234.675 107.061L234.727 107.091C234.714 107.114 234.706 107.128 234.697 107.14C234.117 108.182 234.626 109.243 235.601 109.799C236.621 110.406 238.22 110.588 239.267 110.031C239.337 109.994 239.392 110.099 239.323 110.136C237.741 110.977 234.779 110.248 234.371 108.42Z" fill="#9A9DA3"/>
<path d="M233.821 108.612C233.981 108.5 234.172 108.413 234.392 108.353C234.469 108.333 234.498 108.447 234.423 108.467C234.217 108.524 234.038 108.605 233.89 108.709C233.826 108.754 233.757 108.658 233.821 108.612Z" fill="#9A9DA3"/>
<path d="M234.375 109.552L234.864 109.244C234.93 109.202 234.994 109.302 234.927 109.344L234.438 109.652C234.372 109.694 234.308 109.594 234.375 109.552Z" fill="#9A9DA3"/>
<path d="M235.512 110.392L235.761 109.945C235.8 109.877 235.903 109.935 235.865 110.003L235.616 110.45C235.578 110.518 235.474 110.46 235.512 110.392Z" fill="#9A9DA3"/>
<path d="M237.056 110.854L237.065 110.416C237.066 110.383 237.093 110.357 237.126 110.358C237.154 110.36 237.184 110.385 237.184 110.418L237.175 110.857C237.173 110.935 237.055 110.933 237.056 110.854Z" fill="#9A9DA3"/>
<path d="M238.338 110.928C238.297 110.76 238.259 110.633 238.222 110.478C238.203 110.401 238.319 110.374 238.337 110.45C238.378 110.619 238.416 110.745 238.453 110.9C238.472 110.977 238.357 111.004 238.338 110.928Z" fill="#9A9DA3"/>
<path d="M245.578 100.932C245.609 101.019 245.601 101.125 245.553 101.227C245.374 101.594 245.109 101.366 244.917 101.356C244.891 101.352 244.867 101.348 244.853 101.34C244.837 101.327 244.939 100.667 244.942 100.646C244.945 100.625 244.948 100.616 244.948 100.616L244.951 100.618C245.142 100.638 245.514 100.749 245.578 100.932Z" fill="#9A9DA3"/>
<path d="M245.489 101.971C245.46 101.802 245.36 101.757 245.195 101.723C245.044 101.691 244.913 101.663 244.809 101.655C244.809 101.662 244.808 101.672 244.806 101.679C244.705 102.349 244.73 102.341 244.704 102.398C244.703 102.403 244.701 102.407 244.701 102.412C244.749 102.44 245.072 102.505 245.186 102.492C245.409 102.467 245.529 102.186 245.489 101.971ZM245.489 101.971C245.46 101.802 245.36 101.757 245.195 101.723C245.044 101.691 244.913 101.663 244.809 101.655C244.809 101.662 244.808 101.672 244.806 101.679C244.705 102.349 244.73 102.341 244.704 102.398C244.703 102.403 244.701 102.407 244.701 102.412C244.749 102.44 245.072 102.505 245.186 102.492C245.409 102.467 245.529 102.186 245.489 101.971ZM245.632 101.601C245.921 101.564 246.004 101.052 245.859 100.757C245.807 100.661 245.694 100.547 245.634 100.517C245.499 100.428 245.497 100.395 245.53 100.281C245.541 100.258 245.539 100.249 245.564 100.126C245.539 100.106 245.492 100.101 245.433 100.098C245.389 100.101 245.392 100.098 245.39 100.141C245.386 100.327 245.392 100.359 245.351 100.393C245.32 100.418 245.286 100.413 245.214 100.407C245.122 100.403 245.042 100.327 245.086 100.225C245.105 100.176 245.113 100.127 245.116 100.07C245.078 100.061 245.04 100.059 245.004 100.061C244.963 100.208 245.018 100.268 244.979 100.31C244.935 100.349 244.908 100.313 244.538 100.246C244.537 100.255 244.502 100.437 244.502 100.446C244.504 100.446 244.509 100.449 244.518 100.449C244.584 100.478 244.703 100.474 244.686 100.556C244.573 101.123 244.533 101.744 244.385 102.322C244.379 102.341 244.366 102.354 244.349 102.363C244.297 102.382 244.284 102.329 244.217 102.337C244.209 102.401 244.203 102.472 244.202 102.543C244.283 102.583 244.365 102.611 244.449 102.632C244.459 102.632 244.475 102.638 244.48 102.633C244.516 102.622 244.562 102.646 244.56 102.695L244.541 102.967C244.566 102.978 244.592 102.986 244.618 102.992L244.656 102.804C244.659 102.79 244.665 102.767 244.661 102.757C244.644 102.713 244.682 102.664 244.732 102.677C244.998 102.75 244.958 102.633 244.906 103.072C244.955 103.088 245.005 103.089 245.053 103.07C245.056 103.046 245.058 103.01 245.075 102.924C245.085 102.9 245.076 102.835 245.101 102.794C245.144 102.731 245.235 102.767 245.37 102.735C245.767 102.644 245.913 102.008 245.596 101.701C245.563 101.67 245.579 101.603 245.632 101.601ZM245.108 102.614C245.039 102.61 244.969 102.596 244.903 102.584C244.792 102.567 244.561 102.531 244.583 102.394C244.586 102.385 244.589 102.373 244.592 102.359C244.609 102.328 244.601 102.228 244.687 101.668C244.714 101.486 244.785 101.516 245.218 101.608C245.312 101.627 245.472 101.659 245.555 101.801C245.718 102.086 245.542 102.637 245.108 102.614ZM245.323 101.551C245.19 101.574 245.041 101.499 244.94 101.479C244.889 101.466 244.838 101.478 244.783 101.437C244.716 101.386 244.728 101.306 244.735 101.252C244.755 101.102 244.789 100.838 244.823 100.629C244.83 100.585 244.844 100.493 244.96 100.501C245.206 100.525 245.604 100.658 245.688 100.891C245.783 101.158 245.595 101.521 245.323 101.551ZM245.195 101.723C245.044 101.691 244.913 101.663 244.809 101.655C244.809 101.662 244.808 101.672 244.806 101.679C244.705 102.349 244.73 102.341 244.704 102.398C244.703 102.403 244.701 102.407 244.701 102.412C244.749 102.44 245.072 102.505 245.186 102.492C245.409 102.467 245.529 102.186 245.489 101.971C245.46 101.802 245.36 101.757 245.195 101.723Z" fill="#9A9DA3"/>
<path d="M247.732 100.562C247.54 99.8678 246.808 99.1902 246.293 99.004C245.412 98.6863 244.042 99.2025 243.495 100.342C242.794 101.805 243.336 104.576 245.547 104.475C246.236 104.442 246.802 103.978 247.347 103.465C247.437 103.379 247.462 103.254 247.511 103.143C247.865 102.365 247.955 101.377 247.732 100.562ZM244.953 103.798C244.467 103.772 244.008 103.465 243.756 102.979C243.467 102.418 243.372 101.496 243.632 100.763C244.171 99.2504 245.904 98.9873 246.585 100.538C247.24 102.053 246.222 103.864 244.953 103.798ZM245.826 99.7946C245.569 99.6219 245.341 99.5767 245.012 99.6284C243.691 99.835 243.256 101.746 243.861 102.925C244.135 103.453 244.67 103.75 245.2 103.666C245.725 103.582 246.226 103.128 246.479 102.514C246.858 101.592 246.675 100.357 245.826 99.7946ZM245.743 101.689C246.048 102.101 245.84 102.75 245.397 102.849C245.339 102.863 245.295 102.865 245.199 102.872C245.197 102.896 245.199 102.916 245.19 102.95C245.161 103.079 245.188 103.148 245.095 103.18C245.006 103.214 244.913 103.207 244.839 103.172C244.741 103.125 244.8 103.041 244.819 102.819C244.805 102.816 244.791 102.813 244.777 102.81C244.774 102.816 244.774 102.821 244.773 102.828C244.723 103.064 244.729 103.085 244.692 103.112C244.677 103.118 244.653 103.121 244.639 103.118C244.581 103.106 244.525 103.089 244.471 103.067C244.462 103.064 244.434 103.051 244.424 103.019C244.414 102.992 244.418 102.995 244.435 102.749C244.431 102.746 244.426 102.746 244.421 102.746C244.356 102.729 244.136 102.662 244.098 102.612C244.08 102.585 244.082 102.557 244.083 102.543C244.084 102.498 244.092 102.293 244.119 102.257C244.147 102.207 244.243 102.212 244.285 102.223C244.41 101.712 244.463 101.091 244.558 100.586L244.483 100.563C244.462 100.557 244.409 100.54 244.39 100.482C244.378 100.444 244.385 100.422 244.424 100.208C244.437 100.134 244.489 100.11 244.533 100.124L244.869 100.191C244.868 100.122 244.879 100.051 244.901 99.9861C244.909 99.9652 244.929 99.9496 244.951 99.9459C245.076 99.931 245.257 99.9384 245.234 100.068C245.23 100.136 245.222 100.203 245.193 100.27C245.191 100.294 245.244 100.287 245.268 100.29C245.272 100.142 245.266 100.097 245.287 100.054C245.353 99.9144 245.719 99.9783 245.681 100.148L245.656 100.275C245.62 100.414 245.607 100.344 245.751 100.451C245.923 100.607 246.01 100.722 246.038 100.965C246.078 101.24 245.993 101.577 245.743 101.689Z" fill="#9A9DA3"/>
<path d="M245.802 103.97C246.84 103.461 247.345 102.077 247.116 100.985C246.885 99.8919 246.043 99.187 244.929 99.0967C244.851 99.0926 244.856 98.9752 244.934 98.9782C244.941 98.9783 244.986 98.9823 244.988 98.9825C246.157 99.0897 247.001 99.8654 247.232 100.961C247.47 102.097 246.947 103.542 245.854 104.077C245.783 104.112 245.731 104.005 245.802 103.97Z" fill="#9A9DA3"/>
<path d="M246.299 99.5009C246.452 99.3695 246.619 99.2731 246.795 99.2144C246.869 99.1896 246.907 99.3023 246.833 99.3271C246.671 99.3808 246.518 99.4695 246.377 99.5908C246.317 99.6418 246.24 99.5523 246.299 99.5009Z" fill="#9A9DA3"/>
<path d="M246.949 100.314L247.453 100.116C247.525 100.087 247.57 100.197 247.496 100.226L246.992 100.425C246.919 100.454 246.875 100.343 246.949 100.314Z" fill="#9A9DA3"/>
<path d="M247.748 101.515C247.657 101.506 247.183 101.461 247.212 101.464C247.136 101.457 247.143 101.342 247.224 101.346L247.757 101.397C247.834 101.404 247.824 101.519 247.748 101.515Z" fill="#9A9DA3"/>
<path d="M247.469 102.877L247.047 102.654C246.977 102.617 247.034 102.512 247.103 102.549L247.525 102.773C247.594 102.81 247.538 102.914 247.469 102.877Z" fill="#9A9DA3"/>
<path d="M246.59 103.525C246.53 103.475 246.605 103.384 246.666 103.434C246.804 103.549 246.915 103.649 247.045 103.756C247.07 103.777 247.074 103.814 247.053 103.839C246.995 103.909 246.956 103.828 246.59 103.525Z" fill="#9A9DA3"/>
<path d="M237.249 104.376C237.22 102.729 238.731 101.149 241.15 101.151C241.225 101.145 241.231 101.27 241.15 101.27C238.811 101.268 237.34 102.786 237.368 104.374C237.369 104.453 237.25 104.455 237.249 104.376Z" fill="#9A9DA3"/>
<path d="M236.826 102.226C237.013 101.602 237.412 101.054 237.949 100.684C238.014 100.64 238.08 100.737 238.016 100.782C237.501 101.136 237.119 101.661 236.94 102.26C236.917 102.336 236.804 102.302 236.826 102.226Z" fill="#9A9DA3"/>
<path d="M243.097 114.437C243.028 114.397 243.089 114.294 243.156 114.334C243.857 114.743 244.634 115.185 245.457 115.02C245.877 114.936 246.229 114.685 246.397 114.349C246.579 113.986 246.514 113.519 246.246 113.262C246.2 113.218 246.246 113.142 246.307 113.163C247.157 113.449 247.866 113.8 248.475 113.573C248.762 113.466 249.015 113.221 249.17 112.903C249.3 112.632 249.367 112.312 249.373 111.923C249.375 111.844 249.493 111.847 249.492 111.925C249.475 112.937 249.027 113.494 248.517 113.684C247.873 113.924 247.152 113.573 246.465 113.345C246.886 114.012 246.451 114.942 245.48 115.137C244.615 115.31 243.806 114.851 243.097 114.437Z" fill="#9A9DA3"/>
<path d="M245.891 115.946C245.828 115.897 245.901 115.804 245.963 115.852C246.303 116.115 246.886 115.929 247.09 115.273C247.113 115.199 247.227 115.234 247.203 115.309C246.963 116.079 246.265 116.236 245.891 115.946Z" fill="#9A9DA3"/>
<path d="M248.673 99.8763C248.663 99.658 248.506 99.4431 248.299 99.3654C248.246 99.345 248.25 99.267 248.306 99.2525C248.444 99.2167 248.488 99.1633 248.57 99.0312C248.628 98.938 248.667 98.8354 248.686 98.7293C248.682 98.6792 248.687 98.6299 248.701 98.5831C248.721 98.5175 248.819 98.5325 248.817 98.6012C248.816 98.6454 248.812 98.6895 248.805 98.7331C248.832 98.9653 249.048 99.1002 249.243 99.2171C249.284 99.241 249.281 99.3007 249.239 99.3212C249.022 99.428 248.854 99.6402 248.79 99.8883C248.773 99.9544 248.676 99.9442 248.673 99.8763ZM248.466 99.3176C248.591 99.3996 248.692 99.5246 248.746 99.6645C248.826 99.5011 248.948 99.3618 249.096 99.2663C248.958 99.1804 248.827 99.0815 248.749 98.9382C248.7 99.0629 248.592 99.2479 248.466 99.3176Z" fill="#9A9DA3"/>
<path d="M234.773 106.18C234.763 105.947 234.596 105.718 234.375 105.635C234.321 105.615 234.325 105.537 234.381 105.522C234.529 105.484 234.576 105.427 234.664 105.286C234.725 105.187 234.767 105.077 234.787 104.964C234.783 104.911 234.789 104.859 234.803 104.81C234.822 104.745 234.921 104.758 234.919 104.828C234.918 104.875 234.914 104.922 234.907 104.968C234.935 105.215 235.164 105.359 235.373 105.484C235.413 105.508 235.411 105.568 235.369 105.588C235.137 105.702 234.958 105.928 234.89 106.192C234.873 106.258 234.777 106.248 234.773 106.18ZM234.543 105.588C234.681 105.676 234.79 105.812 234.848 105.965C234.933 105.787 235.065 105.636 235.225 105.533C235.073 105.439 234.933 105.334 234.85 105.177C234.798 105.312 234.681 105.515 234.543 105.588Z" fill="#9A9DA3"/>
<path d="M242.834 99.9295C242.481 99.8321 242.117 99.7673 241.752 99.7367C241.677 99.7304 241.68 99.6158 241.762 99.6184C242.134 99.6496 242.505 99.7159 242.866 99.8151C242.94 99.8358 242.911 99.9508 242.834 99.9295Z" fill="#9A9DA3"/>
<path d="M242.903 99.3796L242.712 99.2122C242.653 99.16 242.732 99.0717 242.79 99.1231L242.981 99.2904C243.04 99.3422 242.962 99.4312 242.903 99.3796Z" fill="#9A9DA3"/>
<path d="M243.399 99.2348C243.208 99.0654 243.103 98.812 243.118 98.5569C243.12 98.5243 243.148 98.4994 243.18 98.5012C243.18 98.5012 243.181 98.5012 243.181 98.5012C243.213 98.5031 243.238 98.5311 243.236 98.5638C243.224 98.7796 243.316 99.0028 243.478 99.1462C243.537 99.1984 243.457 99.2864 243.399 99.2348Z" fill="#9A9DA3"/>
<path d="M254.548 108.083C255.759 103.531 255.342 105.101 255.432 104.761C255.452 104.686 255.567 104.716 255.546 104.792C255.456 105.132 255.873 103.563 254.663 108.112C254.645 108.188 254.529 108.159 254.548 108.083Z" fill="#9A9DA3"/>
<path d="M254.424 106.39L254.65 105.614C254.671 105.538 254.786 105.572 254.764 105.647L254.538 106.423C254.516 106.499 254.402 106.465 254.424 106.39Z" fill="#9A9DA3"/>
<rect x="271.524" y="97.5249" width="33.2558" height="7.9814" rx="2.66047" transform="rotate(3 271.524 97.5249)" fill="#ECEEF3"/>
<rect x="314.033" y="99.7529" width="101.098" height="7.9814" rx="2.66047" transform="rotate(3 314.033 99.7529)" fill="#ECEEF3"/>
<rect x="270.619" y="114.794" width="126.372" height="7.9814" rx="2.66047" transform="rotate(3 270.619 114.794)" fill="#ECEEF3"/>
<g filter="url(#filter0_d_640_6905)">
<rect x="181.665" y="128.045" width="284.67" height="63.8512" rx="13.3023" fill="white" shape-rendering="crispEdges"/>
<rect x="182.33" y="128.711" width="283.34" height="62.5209" rx="12.6372" stroke="#ECEEF3" stroke-width="1.33023" shape-rendering="crispEdges"/>
<rect x="197.628" y="144.008" width="31.9256" height="31.9256" rx="15.9628" fill="#F2F4F7" fill-opacity="0.8"/>
<path d="M216.609 151.87H216.602C216.607 151.87 216.611 151.87 216.616 151.872C216.614 151.872 216.611 151.872 216.609 151.87ZM216.547 151.877C216.547 151.877 216.55 151.874 216.552 151.874H216.545C216.545 151.874 216.545 151.874 216.547 151.877Z" fill="#C9CBCF"/>
<path d="M212.511 166.916C206.493 164.565 208.213 165.386 208.032 165.396C207.517 165.426 206.702 167.177 206.702 167.177L206.612 167.085C207.067 166.026 207.776 164.649 207.806 164.634C207.81 164.627 207.818 164.622 207.822 164.617C207.759 164.605 207.596 164.481 207.566 164.46C206.752 163.868 205.93 163.119 204.916 162.192C204.825 162.111 204.74 161.983 204.643 161.905C205.128 162.21 202.895 160.806 209.362 164.871L212.511 166.916Z" fill="#C9CBCF"/>
<path d="M216.354 159.674C216.312 159.54 215.8 157.994 215.792 157.969C215.671 157.939 215.558 157.866 215.473 157.733C215.126 157.184 215.109 157.103 214.666 156.733C214.607 156.742 214.585 156.77 214.532 156.79C214.429 156.83 214.298 156.769 214.262 156.663C214.245 156.612 214.233 156.596 214.149 156.63C213.863 156.745 213.692 156.334 213.033 156.406C212.981 156.412 212.931 156.427 212.883 156.446C212.854 156.515 212.816 156.58 212.767 156.633C211.638 157.835 211.224 158.378 211.932 160.67L212.289 160.802L216.823 163.33C216.961 163.31 217.081 163.248 217.185 163.163C216.364 161.465 216.624 160.898 216.354 159.674Z" fill="#9A9DA3"/>
<path d="M225.628 153.653C225.612 153.657 225.59 153.662 225.571 153.664C221.154 154.135 221.504 154.145 221.395 154.087C221.112 153.931 218.934 152.9 216.597 151.871L216.55 151.875C216.547 151.875 216.545 151.878 216.545 151.878C216.481 151.903 216.512 151.927 216.357 152.563C216.352 152.587 215.864 154.748 215.895 154.611L215.869 154.723C215.957 154.919 216.085 154.953 216.163 154.92C216.216 154.899 216.256 154.843 216.301 154.815C216.365 154.765 216.464 154.732 216.543 154.784C216.667 154.867 216.671 155.111 216.702 155.233C216.723 155.325 216.782 155.437 216.877 155.449C217.037 155.462 217.052 155.34 217.506 155.563C217.646 155.634 217.781 155.7 217.919 155.681C218.03 155.666 218.079 155.978 217.451 155.67C217.022 155.455 217.044 155.593 216.861 155.565C216.706 155.546 216.618 155.394 216.588 155.261C216.555 155.121 216.558 155.015 216.505 154.92C216.495 154.901 216.486 154.889 216.479 154.884C216.452 154.865 216.405 154.884 216.372 154.91C216.328 154.94 216.287 154.999 216.208 155.029C216.103 155.074 215.957 155.05 215.831 154.896L215.584 155.983C216.341 156.348 217.021 156.858 217.795 157.193C217.862 157.221 217.829 157.329 217.748 157.302C216.985 156.971 216.3 156.462 215.558 156.101L215.38 156.891L216.035 157.435C216.372 157.551 216.702 157.694 217.015 157.862C217.082 157.901 217.031 158.003 216.958 157.966C216.749 157.855 216.535 157.753 216.315 157.667L218.455 159.44L220.406 161.056L223.718 160.311C223.78 160.297 223.83 160.249 223.846 160.19L225.638 153.804C225.652 153.752 225.649 153.7 225.628 153.653ZM221.9 159.606C221.851 159.905 221.651 160.149 221.454 160.149C221.257 160.149 221.139 159.905 221.189 159.606C221.238 159.307 221.435 159.065 221.632 159.065C221.829 159.065 221.95 159.307 221.9 159.606ZM222.311 157.366C222.263 157.665 222.062 157.907 221.865 157.907C221.67 157.907 221.552 157.665 221.599 157.366C221.649 157.067 221.848 156.825 222.043 156.825C222.24 156.825 222.361 157.067 222.311 157.366Z" fill="#ECEEF3"/>
<path d="M216.608 151.871L216.545 151.875C216.564 151.866 216.586 151.864 216.608 151.871Z" fill="#C9CBCF"/>
<path d="M221.518 154.157L221.528 154.129C221.537 154.141 221.532 154.17 221.518 154.157Z" fill="#C9CBCF"/>
<path d="M216.567 152.655C216.455 153.368 216.346 154.132 215.867 154.691C215.866 154.694 215.866 154.696 215.864 154.699C215.872 154.729 215.922 154.829 215.983 154.879C216.03 154.919 216.106 154.945 216.168 154.919C216.221 154.899 216.261 154.843 216.306 154.815C216.37 154.765 216.469 154.732 216.548 154.784C216.673 154.867 216.679 155.123 216.707 155.233C216.728 155.325 216.787 155.437 216.882 155.448C217.039 155.461 217.065 155.343 217.511 155.562C217.651 155.634 217.786 155.7 217.924 155.681C218.035 155.666 218.084 155.978 217.456 155.669C217.027 155.454 217.049 155.592 216.866 155.565C216.711 155.546 216.624 155.394 216.593 155.261C216.56 155.12 216.563 155.015 216.51 154.919C216.5 154.9 216.491 154.888 216.484 154.884C216.457 154.865 216.41 154.884 216.377 154.91C216.333 154.939 216.292 154.998 216.213 155.028C216.118 155.069 215.999 155.045 215.909 154.971C215.837 154.911 215.816 154.865 215.781 154.805C215.766 154.821 215.746 154.837 215.706 154.856C215.308 155.224 214.738 155.46 214.201 155.428C214.196 155.637 214.194 156.019 214.194 156.265C214.194 156.333 214.241 156.659 214.111 156.592C214.087 156.581 212.222 154.908 212.198 154.886C211.398 154.174 211.243 153.817 210.817 153.723C208.979 153.315 207.321 154.583 206.957 156.175C206.677 157.399 207.175 158.766 208.179 159.518C208.819 160 209.652 160.263 210.108 160.92C210.276 161.165 210.366 161.492 210.309 161.77C210.335 161.77 211.462 162.355 212.621 163.158C212.686 163.205 212.613 163.301 212.552 163.255C211.828 162.752 211.062 162.289 210.276 161.881C210.104 162.351 209.515 162.398 209.059 162.123C208.848 161.995 208.67 161.824 208.49 161.658C207.456 162.175 205.93 162.044 204.942 161.523C204.821 161.632 204.71 161.753 204.612 161.884C204.767 161.999 204.799 162.087 204.916 162.192C205.866 163.06 206.73 163.852 207.566 164.46C207.593 164.479 207.759 164.604 207.823 164.617C207.818 164.622 207.811 164.627 207.806 164.634C207.789 164.642 207.741 164.742 207.723 164.778C207.864 164.775 208.011 164.733 208.043 164.717V164.641C208.065 163.813 208.803 163.034 209.657 163.013C210.855 162.983 211.697 164.131 212.554 164.733C213.024 165.063 213.596 165.305 214.163 165.22C214.732 165.137 215.262 164.641 215.228 164.067C215.162 162.941 213.326 162.58 212.231 160.711C211.745 159.881 211.555 158.827 211.94 157.945C212.324 157.062 213.378 156.457 214.289 156.763C214.87 156.958 215.302 157.468 215.546 158.028C215.857 158.749 215.897 159.414 216.234 161.948C216.306 162.484 216.45 163.12 216.958 163.307C217.399 163.469 217.905 163.17 218.133 162.757C218.36 162.344 218.382 161.853 218.396 161.383C218.417 160.735 218.439 160.087 218.46 159.44C218.547 156.78 218.515 156.194 218.814 155.522C219.051 154.983 219.563 154.521 220.152 154.523C218.907 153.96 218.272 153.462 216.567 152.655ZM210.751 158.353C210.714 158.353 210.848 158.426 208.815 157.052C208.746 157.013 208.818 156.909 208.881 156.955L210.784 158.246C210.834 158.275 210.81 158.353 210.751 158.353ZM212.286 156.981C212.246 156.981 212.42 157.097 209.384 154.696C209.322 154.651 209.395 154.552 209.458 154.604L212.324 156.877C212.364 156.906 212.348 156.981 212.286 156.981ZM216.963 157.966C216.754 157.854 216.541 157.752 216.32 157.667C215.964 157.519 215.753 157.487 215.584 157.366C215.523 157.315 215.593 157.223 215.655 157.268C215.855 157.417 216.232 157.438 217.02 157.862C217.087 157.901 217.036 158.003 216.963 157.966ZM217.753 157.302C216.99 156.971 216.305 156.462 215.563 156.101C214.967 155.806 214.832 155.855 214.87 155.757C214.88 155.726 214.913 155.709 214.944 155.719C215.97 156.05 216.816 156.767 217.8 157.192C217.867 157.22 217.834 157.329 217.753 157.302Z" fill="#DFE3EC"/>
<path d="M212.506 166.917C207.511 164.468 207.829 164.608 207.801 164.634C207.775 164.648 206.268 167.413 205.59 169.954C205.569 170.059 205.643 170.135 205.725 170.139L210.625 170.403C210.682 170.405 210.734 170.377 210.76 170.329L212.568 167.119C212.608 167.045 212.58 166.955 212.506 166.917ZM208.539 166.447C208.492 166.68 208.264 166.87 208.026 166.87C207.789 166.87 207.635 166.68 207.68 166.447C207.727 166.21 207.955 166.022 208.193 166.022C208.43 166.022 208.584 166.21 208.539 166.447ZM210.043 167.09C209.998 167.323 209.768 167.513 209.531 167.513C209.296 167.513 209.142 167.323 209.187 167.09C209.232 166.855 209.462 166.668 209.697 166.668C209.934 166.668 210.091 166.855 210.043 167.09ZM211.517 167.686C211.469 167.918 211.242 168.108 211.004 168.108C210.767 168.108 210.613 167.918 210.658 167.686C210.705 167.451 210.933 167.263 211.17 167.263C211.408 167.263 211.562 167.451 211.517 167.686Z" fill="#DFE3EC"/>
<path d="M207.834 164.606C207.834 164.615 207.828 164.616 207.82 164.616C207.825 164.612 207.829 164.609 207.834 164.606Z" fill="#C9CBCF"/>
<path d="M220.383 161.092C220.38 161.092 220.377 161.092 220.374 161.091C220.341 161.086 220.319 161.056 220.324 161.024L221.386 154.108C221.397 154.032 221.515 154.047 221.503 154.126L220.441 161.042C220.437 161.071 220.412 161.092 220.383 161.092Z" fill="#9A9DA3"/>
<path d="M221.371 154.139C220.919 153.892 217.188 152.172 216.597 151.928C216.526 151.904 216.546 151.816 216.607 151.811L220.432 151.536C220.484 151.532 220.532 151.54 220.576 151.56L225.521 153.467C225.599 153.495 225.66 153.555 225.688 153.632C225.7 153.664 225.682 153.7 225.649 153.709C225.63 153.715 225.605 153.72 225.583 153.723C221.133 154.212 221.476 154.195 221.371 154.139ZM216.86 151.912C217.85 152.347 221.013 153.808 221.428 154.035C221.503 154.075 221.26 154.069 225.532 153.609C225.49 153.572 225.812 153.71 220.531 151.67C220.502 151.657 220.475 151.653 220.439 151.654L216.86 151.912Z" fill="#9A9DA3"/>
<path d="M205.474 170.085C204.829 169.707 203.466 168.241 202.962 167.692C202.575 167.273 203.026 166.538 203.125 165.98C203.166 165.746 203.263 165.526 203.328 165.298C203.827 163.558 203.712 164.148 204.178 162.614C204.552 161.388 204.621 161.853 204.951 162.148C205.852 162.964 206.717 163.772 207.597 164.412C207.62 164.427 207.772 164.545 207.83 164.559C207.877 164.571 207.9 164.635 207.839 164.679C207.601 165.101 207.04 166.229 206.662 167.108C206.06 168.503 205.644 169.89 205.644 169.991C205.644 170.002 205.645 170.009 205.648 170.018C205.652 170.024 205.658 170.034 205.662 170.045C205.684 170.076 205.671 170.121 205.635 170.134C205.578 170.162 205.531 170.126 205.474 170.085ZM204.579 161.936C204.434 162.084 204.086 163.37 203.686 164.488C203.551 164.867 203.517 165.123 203.362 165.581C203.176 166.126 203.307 165.886 203.1 166.51C202.98 166.875 202.807 167.35 203.049 167.612C203.507 168.111 204.934 169.646 205.526 169.978C205.526 169.978 205.526 169.978 205.526 169.978C205.537 169.842 205.927 168.51 206.553 167.061C206.941 166.159 207.546 164.954 207.723 164.64C207.662 164.608 207.601 164.562 207.528 164.509C206.779 163.964 206.077 163.329 205.398 162.714C204.822 162.182 204.895 162.275 204.744 162.1C204.596 161.928 204.603 161.958 204.579 161.936Z" fill="#9A9DA3"/>
<path d="M212.462 166.982L207.82 164.681L207.837 164.647L207.829 164.63L207.831 164.57C207.887 164.562 207.634 164.466 212.515 166.875C212.585 166.91 212.533 167.016 212.462 166.982Z" fill="#9A9DA3"/>
<path d="M214.336 156.859L214.286 156.828L211.083 153.919C211.025 153.866 211.104 153.779 211.162 153.831L214.398 156.758C214.465 156.8 214.403 156.9 214.336 156.859Z" fill="#9A9DA3"/>
<path d="M216.551 151.875H216.557C216.554 151.875 216.554 151.875 216.551 151.878C216.551 151.875 216.551 151.875 216.551 151.875Z" fill="#C9CBCF"/>
<path d="M216.612 151.872L216.553 151.875C216.56 151.874 216.6 151.87 216.607 151.87C216.61 151.87 216.61 151.872 216.612 151.872Z" fill="#C9CBCF"/>
<path d="M221.535 154.157C221.533 154.159 221.53 154.159 221.525 154.157L221.53 154.145L221.535 154.128C221.542 154.138 221.542 154.154 221.535 154.157Z" fill="#C9CBCF"/>
<path d="M205.295 162.316C205.095 162.253 204.829 162.152 204.6 162.038C204.6 162.014 204.6 161.855 204.6 161.879C204.643 161.906 205.327 162.336 205.295 162.316Z" fill="#C9CBCF"/>
<path d="M216.612 151.873L216.553 151.875C216.553 151.875 216.555 151.873 216.557 151.873C216.572 151.866 216.586 151.866 216.603 151.87C216.605 151.87 216.605 151.87 216.607 151.87C216.61 151.87 216.61 151.873 216.612 151.873Z" fill="#C9CBCF"/>
<path d="M221.535 154.158C221.533 154.16 221.53 154.16 221.525 154.158L221.53 154.146C221.533 154.15 221.535 154.153 221.535 154.158Z" fill="#C9CBCF"/>
<path d="M216.612 151.873L216.553 151.875C216.553 151.875 216.555 151.873 216.557 151.873C216.572 151.866 216.586 151.866 216.603 151.87C216.605 151.87 216.605 151.87 216.607 151.87C216.61 151.87 216.61 151.873 216.612 151.873Z" fill="#C9CBCF"/>
<path d="M221.535 154.157C221.533 154.159 221.53 154.159 221.525 154.157L221.53 154.145L221.535 154.128C221.542 154.138 221.542 154.154 221.535 154.157Z" fill="#C9CBCF"/>
<path d="M208.032 164.78C207.967 164.762 208.063 164.801 207.839 164.691C207.812 164.699 207.784 164.685 207.771 164.658C207.745 164.604 207.814 164.545 207.873 164.575C208.027 164.661 208.09 164.664 208.09 164.721C208.09 164.753 208.065 164.78 208.032 164.78Z" fill="#9A9DA3"/>
<path d="M209.315 169.424L208.318 169.194C208.242 169.177 208.268 169.062 208.345 169.079L209.341 169.308C209.417 169.325 209.391 169.442 209.315 169.424Z" fill="#9A9DA3"/>
<path d="M204.654 159.347C204.756 159.38 204.854 159.418 204.951 159.459C204.93 159.494 204.911 159.532 204.896 159.573C204.894 159.575 204.894 159.577 204.894 159.58L204.604 159.492L204.654 159.347Z" fill="#9A9DA3"/>
<path d="M207.961 160.068C207.978 160.197 207.953 160.296 207.733 160.606C207.591 160.571 207.451 160.528 207.316 160.478C207.382 160.417 207.444 160.355 207.503 160.291C207.558 160.234 207.61 160.172 207.612 160.089C207.615 159.973 207.498 159.847 207.358 159.812C207.012 159.725 206.885 160.091 206.784 160.182C206.377 160.589 205.283 160.481 205.021 159.928C204.914 159.692 205.039 159.496 205.213 159.306C205.503 159.417 205.396 159.359 205.698 159.479C205.264 159.861 205.822 160.442 206.445 160.058C206.683 159.908 206.725 159.677 206.974 159.572C207.326 159.434 207.902 159.668 207.961 160.068Z" fill="#9A9DA3"/>
<path d="M208.017 160.395C208.015 160.395 208.012 160.397 208.01 160.395C208.022 160.369 208.036 160.34 208.045 160.312L208.375 160.397L208.351 160.495C208.242 160.457 208.131 160.424 208.017 160.395Z" fill="#9A9DA3"/>
<path d="M208.841 159.99C208.836 159.976 208.838 159.959 208.846 159.945C208.314 159.641 207.872 159.369 207.484 158.794C207.467 158.803 207.446 158.806 207.427 158.799C207.073 158.659 206.717 158.571 206.373 158.538C205.704 158.474 204.919 158.602 204.461 159.102C204.237 159.349 204.166 159.553 204.211 159.828C204.313 160.447 204.839 160.878 205.412 161.145C206.753 161.769 208.126 161.441 208.632 160.891C208.862 160.638 208.938 160.31 208.841 159.99ZM207.984 160.509C207.97 160.507 207.96 160.498 207.953 160.488C207.923 160.538 207.887 160.588 207.851 160.638C207.805 160.695 207.799 160.735 207.754 160.735C207.73 160.735 207.433 160.656 207.175 160.552C207.139 160.538 207.122 160.488 207.158 160.452C207.219 160.402 207.483 160.171 207.488 160.087C207.488 160.04 207.424 159.952 207.325 159.926C207.073 159.867 206.984 160.145 206.862 160.267C206.273 160.845 204.784 160.47 204.862 159.696C204.349 159.532 204.428 159.638 204.558 159.254C204.567 159.226 204.598 159.209 204.629 159.219C204.76 159.257 204.888 159.304 205.011 159.356C205.054 159.299 205.104 159.245 205.151 159.195C205.193 159.146 205.234 159.203 205.505 159.283C205.649 159.326 205.959 159.428 205.837 159.515C205.756 159.572 205.699 159.634 205.673 159.696C205.559 159.923 205.945 160.232 206.378 159.957C206.602 159.815 206.637 159.579 206.924 159.463C207.382 159.275 208.129 159.626 208.072 160.199C208.435 160.296 208.45 160.295 208.475 160.317C208.487 160.329 208.501 160.35 208.494 160.386C208.4 160.741 208.516 160.645 207.984 160.509ZM209.607 160.422C209.41 160.27 209.192 160.142 208.971 160.014C209.095 160.526 208.853 161.068 208.108 161.378C206.545 162.035 204.302 161.157 204.095 159.847C204.045 159.534 204.126 159.295 204.373 159.022C205.051 158.277 206.384 158.272 207.396 158.661C207.325 158.554 207.265 158.443 207.211 158.331C205.979 157.963 204.908 158.147 204.062 158.697C203.578 159.012 203.217 159.42 203.148 159.893C203.072 160.393 203.405 161.271 204.033 161.712C205.445 162.703 208.159 163.107 209.285 161.518C209.515 161.193 209.645 160.806 209.607 160.422Z" fill="#9A9DA3"/>
<path d="M203.668 160.158C203.533 159.673 203.623 159.214 203.842 158.77L203.901 158.785L203.954 158.812C203.943 158.835 203.935 158.85 203.927 158.863C203.402 159.934 203.966 160.967 204.969 161.47C206.019 162.024 207.625 162.121 208.642 161.51C208.71 161.47 208.771 161.572 208.704 161.612C207.167 162.535 204.172 161.962 203.668 160.158Z" fill="#9A9DA3"/>
<path d="M203.13 160.379C203.283 160.258 203.47 160.161 203.686 160.09C203.761 160.066 203.797 160.179 203.723 160.203C203.52 160.27 203.345 160.36 203.203 160.472C203.142 160.52 203.068 160.428 203.13 160.379Z" fill="#9A9DA3"/>
<path d="M203.731 161.288L204.203 160.955C204.267 160.91 204.336 161.007 204.272 161.052L203.799 161.385C203.736 161.43 203.667 161.334 203.731 161.288Z" fill="#9A9DA3"/>
<path d="M204.91 162.068L205.135 161.608C205.171 161.538 205.276 161.59 205.242 161.661L205.017 162.12C204.982 162.19 204.876 162.138 204.91 162.068Z" fill="#9A9DA3"/>
<path d="M206.477 162.448L206.463 162.01C206.462 161.977 206.488 161.95 206.52 161.949C206.548 161.95 206.58 161.973 206.582 162.006L206.595 162.445C206.598 162.523 206.48 162.527 206.477 162.448Z" fill="#9A9DA3"/>
<path d="M207.762 162.455C207.712 162.289 207.668 162.165 207.622 162.012C207.599 161.936 207.714 161.903 207.736 161.978C207.786 162.144 207.83 162.268 207.876 162.421C207.898 162.496 207.784 162.53 207.762 162.455Z" fill="#9A9DA3"/>
<path d="M214.469 152.093C214.504 152.179 214.502 152.286 214.459 152.39C214.3 152.766 214.023 152.551 213.83 152.551C213.804 152.549 213.781 152.547 213.766 152.539C213.749 152.527 213.816 151.863 213.819 151.842C213.821 151.821 213.823 151.811 213.823 151.811L213.826 151.813C214.018 151.823 214.395 151.915 214.469 152.093Z" fill="#9A9DA3"/>
<path d="M214.434 153.136C214.397 152.968 214.294 152.929 214.128 152.903C213.975 152.88 213.843 152.858 213.739 152.856C213.739 152.863 213.739 152.873 213.736 152.88C213.671 153.554 213.695 153.545 213.672 153.603C213.672 153.608 213.67 153.613 213.67 153.618C213.72 153.642 214.046 153.691 214.159 153.672C214.38 153.635 214.486 153.349 214.434 153.136ZM214.434 153.136C214.397 152.968 214.294 152.929 214.128 152.903C213.975 152.88 213.843 152.858 213.739 152.856C213.739 152.863 213.739 152.873 213.736 152.88C213.671 153.554 213.695 153.545 213.672 153.603C213.672 153.608 213.67 153.613 213.67 153.618C213.72 153.642 214.046 153.691 214.159 153.672C214.38 153.635 214.486 153.349 214.434 153.136ZM214.557 152.759C214.844 152.707 214.9 152.191 214.74 151.904C214.683 151.811 214.565 151.703 214.503 151.677C214.363 151.594 214.36 151.561 214.386 151.446C214.396 151.423 214.394 151.413 214.413 151.29C214.386 151.271 214.339 151.269 214.28 151.269C214.237 151.273 214.239 151.271 214.239 151.314C214.245 151.499 214.253 151.531 214.213 151.567C214.184 151.594 214.15 151.59 214.078 151.589C213.985 151.589 213.901 151.518 213.94 151.413C213.957 151.363 213.962 151.314 213.962 151.257C213.924 151.25 213.886 151.25 213.85 151.254C213.817 151.403 213.875 151.46 213.838 151.503C213.796 151.546 213.767 151.51 213.395 151.463C213.393 151.472 213.369 151.655 213.369 151.665C213.371 151.665 213.376 151.667 213.385 151.667C213.453 151.692 213.571 151.682 213.558 151.764C213.475 152.337 213.467 152.96 213.35 153.544C213.345 153.563 213.333 153.577 213.316 153.587C213.266 153.608 213.25 153.557 213.183 153.568C213.179 153.632 213.176 153.703 213.179 153.774C213.262 153.81 213.345 153.834 213.43 153.85C213.44 153.85 213.456 153.855 213.461 153.85C213.496 153.837 213.544 153.858 213.544 153.907L213.539 154.18C213.565 154.189 213.592 154.197 213.618 154.201L213.646 154.012C213.648 153.997 213.653 153.974 213.648 153.964C213.629 153.921 213.665 153.87 213.715 153.881C213.984 153.94 213.938 153.825 213.91 154.265C213.959 154.28 214.009 154.277 214.057 154.256C214.058 154.232 214.058 154.196 214.071 154.109C214.079 154.085 214.067 154.02 214.09 153.978C214.129 153.913 214.222 153.944 214.356 153.905C214.747 153.794 214.859 153.151 214.526 152.861C214.492 152.831 214.505 152.764 214.557 152.759ZM214.087 153.798C214.019 153.798 213.948 153.787 213.881 153.779C213.769 153.767 213.537 153.743 213.551 153.606C213.554 153.596 213.556 153.584 213.558 153.57C213.574 153.538 213.561 153.439 213.618 152.875C213.635 152.692 213.707 152.719 214.144 152.787C214.239 152.801 214.401 152.825 214.491 152.963C214.669 153.239 214.522 153.798 214.087 153.798ZM214.246 152.725C214.114 152.755 213.962 152.688 213.86 152.673C213.808 152.663 213.759 152.677 213.701 152.64C213.632 152.593 213.639 152.512 213.644 152.457C213.656 152.306 213.676 152.041 213.698 151.831C213.703 151.786 213.713 151.693 213.829 151.696C214.075 151.707 214.48 151.819 214.576 152.047C214.685 152.308 214.516 152.681 214.246 152.725ZM214.128 152.903C213.975 152.88 213.843 152.858 213.739 152.856C213.739 152.863 213.739 152.873 213.736 152.88C213.671 153.554 213.695 153.545 213.672 153.603C213.672 153.608 213.67 153.613 213.67 153.618C213.72 153.642 214.046 153.691 214.159 153.672C214.38 153.635 214.486 153.349 214.434 153.136C214.397 152.968 214.294 152.929 214.128 152.903Z" fill="#9A9DA3"/>
<path d="M216.6 151.611C216.372 150.928 215.606 150.29 215.081 150.131C214.186 149.86 212.844 150.447 212.357 151.614C211.735 153.111 212.42 155.85 214.623 155.633C215.309 155.565 215.85 155.071 216.367 154.53C216.453 154.44 216.472 154.314 216.514 154.2C216.828 153.405 216.866 152.414 216.6 151.611ZM213.994 154.988C213.508 154.988 213.033 154.706 212.756 154.233C212.438 153.688 212.295 152.772 212.516 152.027C212.975 150.488 214.692 150.134 215.454 151.647C216.187 153.126 215.265 154.988 213.994 154.988ZM214.657 150.945C214.391 150.786 214.161 150.753 213.836 150.821C212.527 151.097 212.192 153.028 212.858 154.174C213.159 154.687 213.71 154.955 214.234 154.843C214.754 154.732 215.231 154.252 215.451 153.626C215.782 152.686 215.534 151.462 214.657 150.945ZM214.673 152.841C214.999 153.236 214.825 153.895 214.388 154.018C214.331 154.034 214.287 154.038 214.191 154.051C214.191 154.075 214.194 154.094 214.187 154.129C214.165 154.26 214.195 154.327 214.104 154.364C214.017 154.402 213.923 154.4 213.847 154.369C213.748 154.327 213.803 154.241 213.809 154.018C213.795 154.015 213.781 154.013 213.767 154.01C213.764 154.018 213.764 154.022 213.764 154.029C213.726 154.267 213.734 154.288 213.698 154.317C213.684 154.324 213.66 154.328 213.646 154.326C213.586 154.317 213.529 154.302 213.475 154.283C213.465 154.281 213.437 154.269 213.425 154.238C213.414 154.212 213.418 154.214 213.423 153.968C213.418 153.965 213.413 153.965 213.408 153.965C213.342 153.952 213.12 153.897 213.079 153.849C213.06 153.823 213.06 153.794 213.06 153.78C213.058 153.736 213.056 153.53 213.081 153.493C213.107 153.442 213.202 153.442 213.245 153.45C213.343 152.933 213.363 152.311 213.432 151.801L213.356 151.782C213.335 151.778 213.28 151.763 213.259 151.706C213.244 151.669 213.251 151.647 213.278 151.431C213.287 151.356 213.338 151.33 213.382 151.341L213.722 151.391C213.717 151.322 213.724 151.251 213.743 151.184C213.75 151.163 213.769 151.146 213.79 151.142C213.915 151.12 214.096 151.118 214.08 151.248C214.08 151.317 214.075 151.384 214.049 151.453C214.049 151.476 214.101 151.467 214.125 151.469C214.122 151.321 214.114 151.276 214.132 151.232C214.19 151.089 214.559 151.134 214.531 151.305L214.512 151.434C214.484 151.574 214.467 151.505 214.616 151.604C214.796 151.751 214.889 151.862 214.929 152.103C214.984 152.375 214.917 152.716 214.673 152.841Z" fill="#9A9DA3"/>
<path d="M214.851 155.116C215.862 154.553 216.293 153.144 216.008 152.066C215.719 150.986 214.841 150.326 213.724 150.294C213.646 150.294 213.645 150.177 213.723 150.176C213.73 150.176 213.775 150.177 213.778 150.177C214.95 150.223 215.834 150.954 216.122 152.036C216.419 153.157 215.972 154.628 214.908 155.219C214.84 155.258 214.782 155.154 214.851 155.116Z" fill="#9A9DA3"/>
<path d="M215.116 150.627C215.261 150.488 215.423 150.383 215.596 150.315C215.669 150.287 215.713 150.397 215.639 150.426C215.481 150.488 215.332 150.585 215.198 150.713C215.141 150.767 215.059 150.682 215.116 150.627Z" fill="#9A9DA3"/>
<path d="M215.807 151.405L216.3 151.18C216.371 151.148 216.421 151.255 216.349 151.288L215.857 151.513C215.785 151.546 215.736 151.438 215.807 151.405Z" fill="#9A9DA3"/>
<path d="M216.665 152.562C216.574 152.558 216.098 152.538 216.128 152.54C216.051 152.536 216.052 152.421 216.133 152.421L216.668 152.444C216.745 152.447 216.742 152.562 216.665 152.562Z" fill="#9A9DA3"/>
<path d="M216.461 153.937L216.028 153.736C215.956 153.703 216.007 153.596 216.078 153.629L216.511 153.83C216.582 153.863 216.531 153.971 216.461 153.937Z" fill="#9A9DA3"/>
<path d="M215.614 154.63C215.552 154.583 215.622 154.488 215.685 154.535C215.83 154.642 215.945 154.736 216.081 154.837C216.107 154.856 216.113 154.893 216.093 154.92C216.039 154.992 215.996 154.913 215.614 154.63Z" fill="#9A9DA3"/>
<path d="M206.332 155.969C206.216 154.326 207.643 152.67 210.058 152.545C210.133 152.534 210.146 152.659 210.064 152.663C207.729 152.784 206.339 154.377 206.45 155.961C206.455 156.04 206.337 156.048 206.332 155.969Z" fill="#9A9DA3"/>
<path d="M205.793 153.844C205.947 153.21 206.317 152.643 206.834 152.245C206.897 152.197 206.968 152.292 206.906 152.339C206.41 152.72 206.056 153.265 205.908 153.872C205.889 153.948 205.775 153.92 205.793 153.844Z" fill="#9A9DA3"/>
<path d="M212.697 165.709C212.626 165.673 212.682 165.568 212.751 165.604C213.472 165.976 214.271 166.377 215.084 166.169C215.499 166.063 215.838 165.794 215.988 165.449C216.151 165.077 216.061 164.614 215.78 164.372C215.732 164.33 215.774 164.252 215.836 164.27C216.7 164.51 217.426 164.824 218.022 164.565C218.304 164.443 218.544 164.186 218.681 163.86C218.798 163.583 218.847 163.259 218.833 162.871C218.83 162.792 218.949 162.789 218.952 162.867C218.988 163.878 218.569 164.457 218.07 164.674C217.439 164.947 216.701 164.635 216.003 164.443C216.458 165.087 216.072 166.039 215.113 166.284C214.259 166.502 213.426 166.086 212.697 165.709Z" fill="#9A9DA3"/>
<path d="M215.564 167.07C215.5 167.026 215.568 166.928 215.632 166.973C215.985 167.218 216.557 167.001 216.727 166.336C216.746 166.261 216.861 166.289 216.842 166.366C216.643 167.148 215.953 167.341 215.564 167.07Z" fill="#9A9DA3"/>
<path d="M217.503 150.878C217.482 150.66 217.314 150.454 217.104 150.387C217.049 150.369 217.049 150.291 217.104 150.274C217.241 150.231 217.282 150.175 217.356 150.039C217.409 149.943 217.443 149.838 217.456 149.731C217.45 149.682 217.452 149.632 217.464 149.585C217.48 149.518 217.579 149.528 217.581 149.597C217.582 149.641 217.581 149.685 217.576 149.729C217.614 149.959 217.837 150.083 218.038 150.189C218.08 150.211 218.08 150.271 218.04 150.294C217.828 150.412 217.671 150.632 217.621 150.883C217.607 150.95 217.51 150.945 217.503 150.878ZM217.267 150.33C217.397 150.406 217.504 150.525 217.566 150.662C217.637 150.495 217.751 150.349 217.894 150.246C217.752 150.168 217.615 150.076 217.53 149.937C217.488 150.064 217.39 150.254 217.267 150.33Z" fill="#9A9DA3"/>
<path d="M203.949 157.901C203.926 157.669 203.747 157.449 203.523 157.377C203.468 157.36 203.468 157.282 203.523 157.264C203.669 157.218 203.713 157.159 203.793 157.013C203.849 156.911 203.885 156.8 203.899 156.686C203.892 156.633 203.895 156.581 203.907 156.531C203.923 156.465 204.022 156.473 204.024 156.543C204.025 156.59 204.024 156.637 204.018 156.683C204.059 156.929 204.296 157.061 204.511 157.174C204.553 157.196 204.553 157.256 204.512 157.279C204.287 157.404 204.12 157.639 204.066 157.907C204.053 157.974 203.956 157.969 203.949 157.901ZM203.688 157.321C203.83 157.402 203.946 157.533 204.011 157.682C204.087 157.5 204.211 157.342 204.366 157.231C204.21 157.145 204.064 157.047 203.973 156.895C203.928 157.032 203.822 157.241 203.688 157.321Z" fill="#9A9DA3"/>
<path d="M211.673 151.236C211.316 151.158 210.949 151.112 210.583 151.101C210.507 151.098 210.504 150.984 210.586 150.982C210.96 150.994 211.334 151.04 211.699 151.121C211.774 151.137 211.751 151.254 211.673 151.236Z" fill="#9A9DA3"/>
<path d="M211.711 150.684L211.512 150.527C211.45 150.478 211.524 150.385 211.585 150.433L211.784 150.591C211.846 150.639 211.772 150.732 211.711 150.684Z" fill="#9A9DA3"/>
<path d="M212.199 150.513C212 150.354 211.881 150.106 211.883 149.851C211.883 149.818 211.909 149.792 211.942 149.792C211.942 149.792 211.942 149.792 211.943 149.792C211.975 149.792 212.002 149.819 212.001 149.852C212 150.068 212.104 150.286 212.273 150.421C212.335 150.47 212.26 150.562 212.199 150.513Z" fill="#9A9DA3"/>
<path d="M223.796 158.765C224.767 154.156 224.432 155.746 224.505 155.402C224.521 155.326 224.637 155.35 224.62 155.427C224.548 155.771 224.883 154.182 223.913 158.788C223.898 158.865 223.781 158.843 223.796 158.765Z" fill="#9A9DA3"/>
<path d="M223.584 157.082L223.769 156.295C223.786 156.217 223.902 156.246 223.884 156.322L223.699 157.109C223.682 157.186 223.566 157.158 223.584 157.082Z" fill="#9A9DA3"/>
<rect x="240.195" y="147.334" width="33.2558" height="7.9814" rx="2.66047" fill="#ECEEF3"/>
<rect x="282.763" y="147.334" width="151.647" height="7.9814" rx="2.66047" fill="#ECEEF3"/>
<rect x="240.195" y="164.627" width="126.372" height="7.9814" rx="2.66047" fill="#ECEEF3"/>
</g>
<defs>
<filter id="filter0_d_640_6905" x="0.75342" y="0.34309" width="603.926" height="383.107" filterUnits="userSpaceOnUse" color-interpolation-filters="sRGB">
<feFlood flood-opacity="0" result="BackgroundImageFix"/>
<feColorMatrix in="SourceAlpha" type="matrix" values="0 0 0 0 0 0 0 0 0 0 0 0 0 0 0 0 0 0 127 0" result="hardAlpha"/>
<feOffset dx="-21.2837" dy="31.9256"/>
<feGaussianBlur stdDeviation="79.8139"/>
<feComposite in2="hardAlpha" operator="out"/>
<feColorMatrix type="matrix" values="0 0 0 0 0.208385 0 0 0 0 0.288483 0 0 0 0 0.408629 0 0 0 0.1 0"/>
<feBlend mode="normal" in2="BackgroundImageFix" result="effect1_dropShadow_640_6905"/>
<feBlend mode="normal" in="SourceGraphic" in2="effect1_dropShadow_640_6905" result="shape"/>
</filter>
<linearGradient id="paint0_linear_640_6905" x1="325.33" y1="61.8975" x2="325.33" y2="260.102" gradientUnits="userSpaceOnUse">
<stop stop-color="#E6E9EF" stop-opacity="0.35"/>
<stop offset="1" stop-color="#E6E9EF" stop-opacity="0.3"/>
</linearGradient>
<linearGradient id="paint1_linear_640_6905" x1="325.33" y1="77.7539" x2="325.33" y2="244.246" gradientUnits="userSpaceOnUse">
<stop stop-color="#E6E9EF" stop-opacity="0.4"/>
<stop offset="1" stop-color="#E6E9EF" stop-opacity="0.3"/>
</linearGradient>
<linearGradient id="paint2_linear_640_6905" x1="325.33" y1="93.6104" x2="325.33" y2="228.39" gradientUnits="userSpaceOnUse">
<stop stop-color="#E6E9EF" stop-opacity="0.4"/>
<stop offset="1" stop-color="#E6E9EF" stop-opacity="0.3"/>
</linearGradient>
<linearGradient id="paint3_linear_640_6905" x1="325.33" y1="109.467" x2="325.33" y2="212.533" gradientUnits="userSpaceOnUse">
<stop stop-color="#E6E9EF" stop-opacity="0.4"/>
<stop offset="1" stop-color="#E6E9EF" stop-opacity="0.3"/>
</linearGradient>
<linearGradient id="paint4_linear_640_6905" x1="325.33" y1="125.323" x2="325.33" y2="196.677" gradientUnits="userSpaceOnUse">
<stop stop-color="#E6E9EF" stop-opacity="0.4"/>
<stop offset="1" stop-color="#E6E9EF" stop-opacity="0.3"/>
</linearGradient>
<linearGradient id="paint5_linear_640_6905" x1="325.33" y1="125.323" x2="325.33" y2="196.677" gradientUnits="userSpaceOnUse">
<stop stop-color="#E6E9EF" stop-opacity="0.4"/>
<stop offset="1" stop-color="#E6E9EF" stop-opacity="0.3"/>
</linearGradient>
</defs>
</svg>
