<svg width="30" height="30" viewBox="0 0 30 30" fill="none" xmlns="http://www.w3.org/2000/svg">
<rect x="1.5" y="1.5" width="27" height="27" rx="13.5" fill="#00AAFE"/>
<rect x="1.5" y="1.5" width="27" height="27" rx="13.5" stroke="white" stroke-width="3"/>
<path d="M17.0847 14.5302H12.9147C12.3247 14.5302 12.1197 14.1352 12.4647 13.6552L14.5497 10.7352C14.7947 10.3852 15.2047 10.3852 15.4497 10.7352L17.5347 13.6552C17.8797 14.1352 17.6747 14.5302 17.0847 14.5302Z" fill="white"/>
<path d="M17.7958 18.5003H12.2058C11.4158 18.5003 11.1458 17.9753 11.6108 17.3353L13.6058 14.5303H16.3958L18.3908 17.3353C18.8558 17.9753 18.5858 18.5003 17.7958 18.5003Z" fill="white"/>
<path d="M15.375 18.5V20.5C15.375 20.705 15.205 20.875 15 20.875C14.795 20.875 14.625 20.705 14.625 20.5V18.5H15.375Z" fill="white"/>
</svg>
