<svg width="26" height="26" viewBox="0 0 26 26" fill="none" xmlns="http://www.w3.org/2000/svg">
<rect x="1.5" y="1.5" width="23" height="23" rx="11.5" fill="#FF5E00"/>
<rect x="1.5" y="1.5" width="23" height="23" rx="11.5" stroke="white" stroke-width="3"/>
<path d="M10.9391 13.035C10.9391 12.83 11.1091 12.66 11.3141 12.66H14.0541V8.43C14.0491 8.19 13.8591 8 13.6191 8C10.6741 8 8.61914 10.055 8.61914 13C8.61914 15.945 10.6741 18 13.6191 18C13.8541 18 14.0491 17.81 14.0491 17.57V13.405H11.3141C11.1041 13.41 10.9391 13.24 10.9391 13.035Z" fill="white"/>
<path d="M17.2708 12.7701L15.8508 11.3451C15.7058 11.2001 15.4658 11.2001 15.3208 11.3451C15.1758 11.4901 15.1758 11.7301 15.3208 11.8751L16.1008 12.6551H14.0508V13.4051H16.0958L15.3158 14.1851C15.1708 14.3301 15.1708 14.5701 15.3158 14.7151C15.3908 14.7901 15.4858 14.8251 15.5808 14.8251C15.6758 14.8251 15.7708 14.7901 15.8458 14.7151L17.2658 13.2901C17.4158 13.1501 17.4158 12.9151 17.2708 12.7701Z" fill="white"/>
</svg>
