<svg width="30" height="30" viewBox="0 0 30 30" fill="none" xmlns="http://www.w3.org/2000/svg">
<rect x="1.5" y="1.5" width="27" height="27" rx="13.5" fill="#FF5E00"/>
<rect x="1.5" y="1.5" width="27" height="27" rx="13.5" stroke="white" stroke-width="3"/>
<path d="M17.4998 10.875H14.1398C13.4348 10.875 12.7648 11.17 12.2898 11.695L10.5248 13.635C9.81984 14.41 9.81984 15.59 10.5248 16.365L12.2898 18.305C12.7648 18.825 13.4348 19.125 14.1398 19.125H17.4998C18.8798 19.125 19.9998 18.005 19.9998 16.625V13.375C19.9998 11.995 18.8798 10.875 17.4998 10.875ZM17.2648 15.97C17.4098 16.115 17.4098 16.355 17.2648 16.5C17.1898 16.575 17.0948 16.61 16.9998 16.61C16.9048 16.61 16.8098 16.575 16.7348 16.5L15.7648 15.53L14.7948 16.5C14.7198 16.575 14.6248 16.61 14.5298 16.61C14.4348 16.61 14.3398 16.575 14.2648 16.5C14.1198 16.355 14.1198 16.115 14.2648 15.97L15.2348 15L14.2648 14.03C14.1198 13.885 14.1198 13.645 14.2648 13.5C14.4098 13.355 14.6498 13.355 14.7948 13.5L15.7648 14.47L16.7348 13.5C16.8798 13.355 17.1198 13.355 17.2648 13.5C17.4098 13.645 17.4098 13.885 17.2648 14.03L16.2948 15L17.2648 15.97Z" fill="white"/>
</svg>
