<svg width="26" height="26" viewBox="0 0 26 26" fill="none" xmlns="http://www.w3.org/2000/svg">
<rect x="1.5" y="1.5" width="23" height="23" rx="11.5" fill="#00CC2F"/>
<rect x="1.5" y="1.5" width="23" height="23" rx="11.5" stroke="white" stroke-width="3"/>
<path d="M12.3792 8.5C12.1392 8.5 11.9492 8.69 11.9492 8.93V13.16H13.7842L12.9992 12.375C12.8542 12.23 12.8542 11.99 12.9992 11.845C13.1442 11.7 13.3842 11.7 13.5292 11.845L14.9492 13.27C15.0942 13.415 15.0942 13.655 14.9492 13.8L13.5292 15.225C13.4542 15.3 13.3592 15.335 13.2642 15.335C13.1692 15.335 13.0742 15.3 12.9992 15.225C12.8542 15.08 12.8542 14.84 12.9992 14.695L13.7792 13.915H11.9492V18.08C11.9492 18.315 12.1392 18.51 12.3792 18.51C15.3242 18.51 17.3792 16.455 17.3792 13.51C17.3792 10.565 15.3192 8.5 12.3792 8.5Z" fill="white"/>
<path d="M8.99414 13.1602C8.78914 13.1602 8.61914 13.3302 8.61914 13.5352C8.61914 13.7402 8.78914 13.9102 8.99414 13.9102H11.9441V13.1602H8.99414Z" fill="white"/>
</svg>
