<svg width="14" height="14" viewBox="0 0 14 14" fill="none" xmlns="http://www.w3.org/2000/svg">
<path d="M12.396 10.7739L11.4335 11.0014C11.2176 11.0539 11.0485 11.2172 11.0018 11.4331L10.7976 12.2906C10.6868 12.7572 10.0918 12.9031 9.78264 12.5356L8.03847 10.5289C7.89847 10.3656 7.97431 10.1089 8.18431 10.0564C9.21681 9.80557 10.1443 9.22807 10.8268 8.40557C10.9376 8.27141 11.136 8.25391 11.2585 8.37641L12.5535 9.67141C12.9968 10.1147 12.8393 10.6689 12.396 10.7739Z" fill="#00AAFE"/>
<path d="M1.57485 10.7739L2.53735 11.0014C2.75318 11.0539 2.92235 11.2172 2.96902 11.4331L3.17318 12.2906C3.28402 12.7572 3.87902 12.9031 4.18818 12.5356L5.93235 10.5289C6.07235 10.3656 5.99652 10.1089 5.78652 10.0564C4.75402 9.80557 3.82652 9.22807 3.14402 8.40557C3.03318 8.27141 2.83485 8.25391 2.71235 8.37641L1.41735 9.67141C0.974017 10.1147 1.13152 10.6689 1.57485 10.7739Z" fill="#00AAFE"/>
<path d="M6.99984 1.16602C4.74234 1.16602 2.9165 2.99185 2.9165 5.24935C2.9165 6.09518 3.16734 6.87102 3.599 7.51852C4.229 8.45185 5.2265 9.11102 6.38734 9.28018C6.58567 9.31518 6.78984 9.33268 6.99984 9.33268C7.20984 9.33268 7.414 9.31518 7.61234 9.28018C8.77317 9.11102 9.77067 8.45185 10.4007 7.51852C10.8323 6.87102 11.0832 6.09518 11.0832 5.24935C11.0832 2.99185 9.25734 1.16602 6.99984 1.16602ZM8.78484 5.12102L8.30067 5.60518C8.219 5.68685 8.17234 5.84435 8.2015 5.96102L8.3415 6.56185C8.45234 7.03435 8.2015 7.22102 7.7815 6.97018L7.19817 6.62602C7.09317 6.56185 6.91817 6.56185 6.81317 6.62602L6.22984 6.97018C5.80984 7.21518 5.559 7.03435 5.66984 6.56185L5.80984 5.96102C5.83317 5.85018 5.79234 5.68685 5.71067 5.60518L5.21484 5.12102C4.929 4.83518 5.02234 4.54935 5.419 4.48518L6.04317 4.38018C6.14817 4.36268 6.27067 4.26935 6.31734 4.17602L6.6615 3.48768C6.84817 3.11435 7.1515 3.11435 7.33817 3.48768L7.68234 4.17602C7.729 4.26935 7.8515 4.36268 7.96234 4.38018L8.5865 4.48518C8.97734 4.54935 9.07067 4.83518 8.78484 5.12102Z" fill="#00AAFE"/>
</svg>
