<svg width="16" height="16" viewBox="0 0 16 16" fill="none" xmlns="http://www.w3.org/2000/svg">
<path d="M6.00065 1.33398C4.25398 1.33398 2.83398 2.75398 2.83398 4.50065C2.83398 6.21398 4.17398 7.60065 5.92065 7.66065C5.97398 7.65398 6.02732 7.65398 6.06732 7.66065C6.08065 7.66065 6.08732 7.66065 6.10065 7.66065C6.10732 7.66065 6.10732 7.66065 6.11398 7.66065C7.82065 7.60065 9.16065 6.21398 9.16732 4.50065C9.16732 2.75398 7.74732 1.33398 6.00065 1.33398Z" fill="#00AAFE"/>
<path d="M9.38664 9.43391C7.52664 8.19391 4.49331 8.19391 2.61997 9.43391C1.77331 10.0006 1.30664 10.7672 1.30664 11.5872C1.30664 12.4072 1.77331 13.1672 2.61331 13.7272C3.54664 14.3539 4.77331 14.6672 5.99997 14.6672C7.22664 14.6672 8.45331 14.3539 9.38664 13.7272C10.2266 13.1606 10.6933 12.4006 10.6933 11.5739C10.6866 10.7539 10.2266 9.99391 9.38664 9.43391Z" fill="#00AAFE"/>
<path d="M13.3263 4.89307C13.4329 6.18641 12.5129 7.31974 11.2396 7.47307C11.2329 7.47307 11.2329 7.47307 11.2263 7.47307H11.2062C11.1662 7.47307 11.1262 7.47307 11.0929 7.48641C10.4462 7.51974 9.85292 7.31307 9.40625 6.93307C10.0929 6.31974 10.4863 5.39974 10.4062 4.39974C10.3596 3.85974 10.1729 3.36641 9.89292 2.94641C10.1463 2.81974 10.4396 2.73974 10.7396 2.71307C12.0463 2.59974 13.2129 3.57307 13.3263 4.89307Z" fill="#00AAFE"/>
<path d="M14.6595 11.0599C14.6062 11.7066 14.1928 12.2666 13.4995 12.6466C12.8328 13.0133 11.9928 13.1866 11.1595 13.1666C11.6395 12.7333 11.9195 12.1933 11.9728 11.6199C12.0395 10.7933 11.6462 9.99994 10.8595 9.36661C10.4128 9.01327 9.89284 8.73327 9.32617 8.52661C10.7995 8.09994 12.6528 8.38661 13.7928 9.30661C14.4062 9.79994 14.7195 10.4199 14.6595 11.0599Z" fill="#00AAFE"/>
</svg>
