<svg width="246" height="176" viewBox="0 0 246 176" fill="none" xmlns="http://www.w3.org/2000/svg">
<g opacity="0.13" clip-path="url(#clip0_639_1954)">
<path d="M28.9536 152.674C11.516 170.214 -5.98579 187.817 -23.4092 205.342C-21.5362 207.227 -19.6078 209.167 -17.5956 211.191C-2.09226 195.597 13.4621 179.952 28.953 164.371C29.562 164.969 30.1892 165.584 30.8776 166.259C15.3423 181.885 -0.213396 197.531 -15.8761 213.285C-15.6743 213.435 -15.4535 213.56 -15.2799 213.733C-13.7043 215.306 -12.137 216.888 -10.5667 218.466C-9.97748 219.059 -9.9763 219.059 -9.40451 218.484C-4.59008 213.642 0.223467 208.799 5.04112 203.961C5.22468 203.776 5.36811 203.529 5.58712 203.468C6.23275 204.11 6.8441 204.719 7.46526 205.338C7.36168 205.577 7.13094 205.734 6.94166 205.925C2.13017 210.769 -2.68559 215.61 -7.49708 220.455C-8.13451 221.097 -8.11795 220.922 -7.47921 221.568C-5.94916 223.117 -4.41121 224.658 -2.87618 226.202C-2.18587 226.896 -2.18572 226.896 -1.51109 226.217C13.6292 210.989 28.7697 195.761 43.9064 180.529C44.114 180.32 44.2694 180.058 44.5046 179.748C45.0469 180.326 45.4634 180.783 45.8941 181.225C46.4808 181.829 46.4855 181.824 45.8692 182.444C28.7847 199.629 11.7001 216.813 -5.38177 234H-1.46362C15.6319 216.804 32.728 199.608 49.8228 182.412C50.0121 182.221 50.2327 182.055 50.3446 181.834C48.4067 179.892 46.4876 177.967 44.5085 175.983C28.9656 191.617 13.3988 207.274 -2.16756 222.931C-2.81187 222.281 -3.42057 221.668 -4.10063 220.982C1.06159 215.79 6.23158 210.589 11.3466 205.444C9.39261 203.476 7.46687 201.537 5.49571 199.552C0.409523 204.668 -4.76398 209.871 -9.90393 215.041C-10.5676 214.374 -11.1883 213.751 -11.838 213.098C3.67735 197.492 19.2335 181.846 34.7695 166.219C32.8045 164.251 30.873 162.316 28.9347 160.373C13.4228 175.975 -2.13313 191.621 -17.7322 207.311C-18.3604 206.68 -18.9308 206.102 -19.5067 205.53C-19.6767 205.362 -19.6183 205.235 -19.4701 205.099C-19.3426 204.982 -19.2251 204.854 -19.1031 204.731C-3.26499 188.801 12.5728 172.87 28.4115 156.941C28.5841 156.767 28.7643 156.601 28.8991 156.472C32.1411 159.733 35.36 162.972 38.5984 166.23C38.5087 166.402 38.2874 166.567 38.0974 166.758C28.1042 176.813 18.1089 186.866 8.11425 196.918C7.5388 197.497 7.53806 197.498 8.12084 198.085C9.6903 199.664 11.257 201.246 12.8326 202.82C13.4816 203.468 13.2992 203.477 13.9362 202.836C19.363 197.382 24.7871 191.925 30.2122 186.469C36.7358 179.908 43.2589 173.346 49.7846 166.786C49.9757 166.594 50.1933 166.429 50.3959 166.253C50.2589 165.942 50.0549 165.802 49.8887 165.634C47.6234 163.351 45.3538 161.073 43.0885 158.79C42.5592 158.256 42.5608 158.38 43.1012 157.836C45.3314 155.587 47.5643 153.342 49.8007 151.1C49.9914 150.909 50.2145 150.75 50.3944 150.6C48.3867 148.589 46.4492 146.649 44.4697 144.667C41.9513 147.2 39.3757 149.792 36.819 152.364C36.1639 151.712 35.5401 151.092 34.8807 150.436C37.4386 147.864 40.0164 145.272 42.5983 142.676C37.3987 137.447 32.2381 132.258 27.0866 127.079C27.7644 126.435 28.3988 125.833 29.0999 125.167C36.7644 132.875 44.5315 140.688 52.2594 148.461C54.2273 146.48 56.1566 144.539 58.1118 142.572C50.3931 134.808 42.6351 127.005 34.8788 119.204C40.0857 113.968 45.2587 108.766 50.4088 103.588C50.2271 103.234 50.0055 103.071 49.8172 102.881C47.6046 100.65 45.3882 98.4228 43.173 96.1948C43.051 96.0721 42.9306 95.9477 42.8068 95.8268C42.6764 95.6997 42.6679 95.5795 42.8079 95.4518C42.8992 95.3687 42.9811 95.2749 43.0683 95.1873C48.6502 89.5732 54.2323 83.9596 59.812 78.3432C59.8985 78.256 59.9538 78.1377 60.0724 77.9616C67.9226 85.8577 75.6944 93.6745 83.424 101.449C85.3794 99.4817 87.3099 97.5394 89.2789 95.5581C84.1444 90.3947 78.9697 85.1914 73.7484 79.9408C74.3374 79.3694 74.8999 78.8482 75.4313 78.2963C75.6727 78.0455 75.833 78.0927 76.0195 78.3286C76.0806 78.4058 76.1569 78.4707 76.2268 78.5407C81.704 84.0495 87.1806 89.559 92.6594 95.0662C92.8323 95.2398 93.0278 95.391 93.2058 95.5464C90.57 98.1971 87.9934 100.788 85.3937 103.402C90.6485 108.685 95.8226 113.887 100.98 119.072C100.853 119.376 100.642 119.52 100.471 119.693C92.4139 127.8 84.3561 135.907 76.2945 144.009C75.6254 144.682 75.8355 144.686 75.1345 144.012C74.6896 143.584 74.2419 143.159 73.7439 142.684C81.5718 134.81 89.34 126.997 97.0846 119.207C97.0235 118.959 96.868 118.866 96.7506 118.748C95.0783 117.061 93.4038 115.377 91.7282 113.694C91.2546 113.218 91.3476 113.202 90.8314 113.72C88.5448 116.016 86.2613 118.316 83.9762 120.614C83.8377 120.753 83.6927 120.886 83.5758 120.998C82.9514 120.358 82.3405 119.731 81.6687 119.041C84.165 116.53 86.7365 113.944 89.2588 111.407C79.51 101.601 69.7834 91.818 60.1239 82.1021C58.2498 83.9876 56.3182 85.9306 54.3614 87.8991C56.8797 90.4306 59.4424 93.0065 61.9608 95.5379C61.3176 96.1781 60.6932 96.7993 60.0309 97.4585C59.9492 97.3805 59.7738 97.2202 59.6064 97.0517C57.4598 94.8949 55.3143 92.7368 53.1689 90.579C53.0468 90.4563 52.9261 90.3318 52.8023 90.2109C52.2891 89.7088 52.3917 89.7014 51.9032 90.1901C51.2912 90.8027 50.6822 91.4182 50.0717 92.0323C49.0252 93.0852 47.9767 94.1358 46.9326 95.1912C46.4551 95.6739 46.4203 95.5725 46.9366 96.0918C50.3725 99.5485 53.8092 103.004 57.2455 106.46C58.6934 107.917 60.1415 109.372 61.5889 110.829C61.7267 110.967 61.8585 111.112 62.0553 111.319C59.4676 113.923 56.896 116.51 54.2765 119.146C56.8703 121.755 59.447 124.347 62.0158 126.931C61.8888 127.233 61.6581 127.388 61.4712 127.576C59.2241 129.843 56.9726 132.104 54.7231 134.368C54.2257 134.869 54.2411 134.779 54.7322 135.273C56.9975 137.556 59.2688 139.833 61.5324 142.118C62.1276 142.719 62.1577 142.557 61.5453 143.174C56.7331 148.018 51.9177 152.859 47.1038 157.702C46.4858 158.323 46.4865 158.324 47.0786 158.919C48.6835 160.534 50.2872 162.149 51.8933 163.761C52.3833 164.253 52.2819 164.269 52.7888 163.759C57.6216 158.9 62.453 154.04 67.2821 149.178C67.4725 148.987 67.6379 148.769 67.767 148.619C68.4441 149.307 69.059 149.93 69.7323 150.613C62.0648 158.326 54.2966 166.139 46.5472 173.934C46.6168 174.199 46.7967 174.303 46.931 174.438C48.5674 176.091 50.206 177.741 51.849 179.387C52.3921 179.931 52.257 179.961 52.8515 179.364C55.9935 176.208 59.1324 173.049 62.2722 169.892C107.432 124.469 152.591 79.0466 197.754 33.6279C197.961 33.4191 198.221 33.2631 198.411 33.1176C196.371 31.0684 194.442 29.1306 192.475 27.1555C189.959 29.6868 187.382 32.2783 184.835 34.8399C184.166 34.1804 183.539 33.5624 182.8 32.8333C183.032 32.6526 183.288 32.4949 183.494 32.2876C190.876 24.8703 198.254 17.4483 205.632 10.0272C206.207 9.44895 206.208 9.44807 205.623 8.86002C204.019 7.2456 202.415 5.63013 200.808 4.01864C200.31 3.51951 200.407 3.50486 199.91 4.00472C197.607 6.31986 195.306 8.63676 193.003 10.952C192.866 11.0905 192.719 11.2198 192.537 11.3908C191.971 10.8136 191.424 10.243 190.861 9.68877C190.673 9.50346 190.679 9.3697 190.869 9.20342C191.018 9.07377 191.149 8.92361 191.288 8.78326C193.644 6.41611 195.999 4.04882 198.291 1.74643C196.35 -0.206127 194.424 -2.14432 192.498 -4.08281C192.39 -4.18712 192.293 -3.99755 192.163 -3.86716C187.921 0.393497 183.683 4.65767 179.445 8.92126C179.341 9.02645 179.243 9.13925 179.133 9.23799C178.97 9.38377 178.956 9.51678 179.127 9.66871C179.256 9.78342 179.371 9.91366 179.493 10.0364C181.708 12.2647 183.922 14.4938 186.141 16.7186C186.315 16.8929 186.521 17.0346 186.761 17.231C181.51 22.5129 176.338 27.7153 171.145 32.9379C173.76 35.5668 176.336 38.1581 178.972 40.8089C178.35 41.4091 177.773 41.9501 177.216 42.5108C177.022 42.7056 176.894 42.6661 176.733 42.4888C176.55 42.2878 176.351 42.1013 176.159 41.9084C174.031 39.768 171.901 37.6288 169.777 35.4848C169.604 35.3097 169.463 35.1014 169.356 34.9684C167.365 36.9742 165.441 38.9124 163.456 40.913C165.923 43.3955 168.492 45.9798 170.995 48.4984C149.577 70.0409 128.184 91.5591 106.784 113.084C106.29 112.556 105.69 111.912 105.036 111.21C125.709 90.4166 146.458 69.5466 167.193 48.6906C167.123 48.4061 166.917 48.2906 166.766 48.1373C165.13 46.4843 163.49 44.8362 161.849 43.1875C161.34 42.6754 161.441 42.7008 160.954 43.1904C156.121 48.0491 151.289 52.9086 146.462 57.7724C146.271 57.9642 146.124 58.199 145.989 58.3722C145.292 57.6518 144.683 57.0232 144.014 56.3317C151.678 48.6233 159.446 40.8102 167.193 33.0182C164.595 30.4065 162.035 27.8335 159.402 25.1867C162.063 22.5102 164.648 19.9095 167.21 17.3326C165.25 15.3629 163.333 13.436 161.353 11.4452C158.807 14.0057 156.235 16.5927 153.703 19.1393C153.056 18.4925 152.431 17.8682 151.777 17.2143C151.836 17.0532 152.049 16.9152 152.218 16.7445C154.465 14.4784 156.718 12.2174 158.966 9.95174C159.533 9.37995 159.53 9.51488 158.962 8.94382C151.603 1.53825 144.242 -5.86513 136.88 -13.2672C136.637 -13.5114 136.375 -13.7355 136.179 -13.9159C139.453 -17.2085 142.672 -20.4458 145.872 -23.6652C146.419 -23.1162 147.043 -22.4895 147.778 -21.7509C147.582 -21.6036 147.34 -21.4645 147.149 -21.2736C144.893 -19.016 142.645 -16.7501 140.395 -14.4874C139.934 -14.0244 139.936 -14.0845 140.382 -13.6345C142.177 -11.8272 143.972 -10.0199 145.818 -8.16049C148.419 -10.7762 150.994 -13.3667 153.543 -15.9306C154.196 -15.2805 154.816 -14.6616 155.452 -14.0278C152.902 -11.4648 150.327 -8.87717 147.747 -6.28412C155.572 1.58689 163.332 9.39137 171.154 17.2589C168.534 19.8947 165.961 22.4819 163.441 25.0171C165.394 26.9812 167.32 28.9181 169.199 30.8082C173.647 26.3348 178.175 21.7804 182.732 17.1973C182.67 17.0511 182.461 16.9084 182.29 16.7362C180.043 14.4708 177.79 12.21 175.542 9.94398C174.974 9.37073 174.993 9.5077 175.56 8.93649C181.314 3.14491 187.071 -2.64433 192.827 -8.43401C207.462 -23.1536 222.096 -37.8736 236.733 -52.5906C236.924 -52.7825 237.15 -52.9388 237.303 -53.0655C237.274 -53.4186 237.077 -53.5128 236.947 -53.6446C235.26 -55.3511 233.568 -57.053 231.874 -58.7527C231.743 -58.8835 231.659 -58.9651 231.587 -59.0002H231.433C231.359 -58.9641 231.273 -58.8801 231.138 -58.7458C230.42 -58.0297 229.707 -57.3079 228.992 -56.5886C219.66 -47.2023 210.329 -37.816 200.997 -28.4301C200.351 -27.7811 200.351 -27.7818 199.73 -28.4056C197.532 -30.616 195.334 -32.8258 193.139 -35.0394C192.965 -35.2142 192.82 -35.4174 192.612 -35.6669C184.767 -27.776 176.995 -19.9589 169.253 -12.172C166.004 -15.4396 162.781 -18.6799 159.589 -21.8905C167.962 -30.3123 176.368 -38.7662 184.726 -47.173C185.304 -46.5885 185.924 -45.9612 186.553 -45.3249C178.869 -37.5953 171.097 -29.778 163.356 -21.9923C165.354 -19.9775 167.283 -18.0315 169.332 -15.965C169.465 -16.1503 169.597 -16.3991 169.786 -16.5901C183.835 -30.729 197.888 -44.8636 211.939 -59.0001H208.014C195.235 -46.1408 182.452 -33.2839 169.668 -20.4293C169.516 -20.2765 169.396 -20.0775 169.308 -20.0516C168.614 -20.7057 167.973 -21.309 167.305 -21.9381C175.076 -29.7543 182.844 -37.5674 190.495 -45.2631C188.503 -47.2675 186.577 -49.2067 184.732 -51.063C175.084 -41.3593 165.373 -31.5917 155.759 -21.9217C160.24 -17.4143 164.765 -12.8624 169.321 -8.2796C177.02 -16.0236 184.78 -23.8288 192.596 -31.691C195.191 -29.08 197.766 -26.4894 200.378 -23.8613C210.759 -34.3031 221.125 -44.7287 231.533 -55.1974C232.001 -54.7103 232.407 -54.2788 232.823 -53.8557C233.439 -53.2276 233.441 -53.2299 232.799 -52.5834C212.53 -32.1969 192.262 -11.8102 171.992 8.57435C171.716 8.85138 171.415 9.10321 171.104 9.38669C173.759 12.0564 176.334 14.646 178.87 17.1963C175.593 20.4921 172.37 23.7343 169.14 26.9832C169.138 26.9818 169.092 26.9597 169.057 26.9254C168.654 26.5241 168.251 26.1221 167.85 25.7189C167.258 25.1246 167.258 25.1239 167.824 24.5547C170.04 22.3265 172.256 20.0996 174.468 17.868C174.654 17.6802 174.888 17.5284 174.999 17.2385C167.232 9.42712 159.463 1.61282 151.686 -6.20926C151.84 -6.3729 151.922 -6.4649 152.008 -6.55236C154.346 -8.90339 156.684 -11.2534 159.02 -13.6056C159.52 -14.1091 159.498 -14.0187 159.01 -14.5107C157.372 -16.1614 155.733 -17.811 154.09 -19.457C153.568 -19.9803 153.693 -20.0268 153.144 -19.4756C150.893 -17.2139 148.645 -14.9483 146.391 -12.6885C146.205 -12.5017 146.057 -12.2626 145.731 -12.1487C145.265 -12.634 144.788 -13.135 144.306 -13.6323C143.837 -14.1157 143.858 -14.0244 144.311 -14.4801C146.595 -16.7791 148.881 -19.0768 151.165 -21.3761C151.33 -21.5428 151.484 -21.721 151.543 -21.7851C149.57 -23.7709 147.644 -25.7102 145.687 -27.6806C145.556 -27.5397 145.376 -27.3351 145.185 -27.1422C141.069 -23.0006 136.953 -18.8603 132.836 -14.7197C132.176 -14.0554 132.176 -14.0551 132.83 -13.3965C140.191 -5.99288 147.552 1.41064 154.912 8.81534C155.115 9.02015 155.307 9.23624 155.525 9.46844C152.914 12.0945 150.344 14.6805 147.869 17.1696C149.844 19.1785 151.763 21.1295 153.697 23.0956C155.779 20.9999 157.889 18.8765 159.999 16.7533C160.365 16.3846 160.74 16.0246 161.094 15.645C161.297 15.4279 161.444 15.3635 161.686 15.6154C162.217 16.167 162.78 16.6875 163.315 17.2057C163.153 17.5226 162.931 17.6872 162.742 17.8781C160.494 20.1434 158.242 22.405 155.993 24.6687C155.477 25.1882 155.518 25.0909 155.994 25.5708C158.26 27.8536 160.528 30.1333 162.795 32.4143C162.964 32.5839 163.13 32.7559 163.328 32.9588C155.523 40.8098 147.755 48.6226 140.069 56.3534C142.053 58.349 143.979 60.2867 145.943 62.2625C151.049 57.1261 156.208 51.9367 161.358 46.7553C161.429 46.7802 161.487 46.7836 161.518 46.8144C161.906 47.1956 162.292 47.5798 162.676 47.9651C163.333 48.6254 163.333 48.6263 162.676 49.2868C142.338 69.7434 122 90.1999 101.664 110.659C101.458 110.866 101.207 111.038 101.11 111.25C103.06 113.217 104.986 115.161 106.838 117.029C129.512 94.2226 152.214 71.3881 174.945 48.5246C172.424 45.9891 169.852 43.4022 167.263 40.7976C167.943 40.1218 168.524 39.4614 169.221 38.876C171.828 41.4982 174.401 44.0858 176.928 46.6273C178.91 44.6331 180.827 42.7045 182.781 40.738C180.233 38.1745 177.658 35.5834 175.03 32.9405C180.245 27.6958 185.417 22.4936 190.684 17.1966C188.082 14.5813 185.507 11.9919 183.035 9.50653C186.236 6.28837 189.453 3.05408 192.548 -0.0569878C193.107 0.49678 193.729 1.11296 194.414 1.79184C191.909 4.30915 189.349 6.88257 186.828 9.4157C188.75 11.3513 190.68 13.294 192.679 15.306C195.214 12.7555 197.791 10.1642 200.289 7.65022C200.918 8.27871 201.539 8.89914 202.201 9.56103C194.488 17.3183 186.731 25.1198 179.019 32.8765C180.968 34.8362 182.897 36.7749 184.85 38.7377C187.371 36.201 189.948 33.609 192.582 30.9581C192.844 31.2484 193.061 31.4855 193.273 31.7262C193.645 32.1469 194.121 32.47 194.409 32.9681C194.102 33.4215 193.68 33.7677 193.299 34.151C159.358 68.2952 125.414 102.436 91.4705 136.577C78.65 149.472 65.8298 162.368 53.0074 175.261C52.7877 175.481 52.6006 175.749 52.3413 175.867C51.6992 175.222 51.0919 174.612 50.4437 173.96C58.2042 166.154 65.9759 158.337 73.7101 150.558C71.7398 148.579 69.8092 146.64 67.8468 144.669C62.7113 149.834 57.5394 155.036 52.4699 160.135C51.7912 159.453 51.1709 158.83 50.4977 158.153C55.5964 153.026 60.7579 147.836 65.9806 142.584C63.4107 140.001 60.8365 137.413 58.2183 134.781C60.8101 132.175 63.3834 129.587 66.0296 126.926C63.4212 124.302 60.844 121.71 58.2471 119.098C60.8201 116.51 63.3926 113.922 66.0245 111.274C65.7611 111.038 65.5506 110.866 65.3599 110.675C60.5788 105.869 55.8 101.062 51.0207 96.2546C50.8987 96.1318 50.7822 96.0029 50.6535 95.8873C50.4774 95.7297 50.434 95.5997 50.6329 95.4064C51.1974 94.858 51.7431 94.2899 52.3363 93.6889C54.9521 96.3195 57.525 98.9073 60.0388 101.435C62.0078 99.4536 63.9367 97.5122 65.8927 95.5434C63.3692 93.0048 60.7977 90.4178 58.3051 87.9107C58.9798 87.2371 59.5992 86.6186 60.1506 86.0682C68.5018 94.4682 76.9033 102.919 85.3376 111.402C82.8139 113.942 80.2441 116.528 77.731 119.057C79.7063 121.044 81.6348 122.984 83.6406 125.002C86.1732 122.452 88.7483 119.859 91.2194 117.371C91.8494 117.989 92.4761 118.604 93.1544 119.27C85.4346 127.035 77.6777 134.837 69.974 142.585C71.9129 144.537 73.841 146.478 75.8406 148.491C75.9582 148.352 76.1043 148.154 76.276 147.981C85.6407 138.558 95.0078 129.137 104.374 119.715C104.479 119.61 104.575 119.494 104.69 119.401C104.933 119.205 104.879 119.041 104.666 118.866C104.552 118.773 104.455 118.658 104.35 118.552C99.5535 113.728 94.7576 108.903 89.956 104.083C89.7653 103.891 89.5206 103.754 89.1481 103.479C89.5085 103.216 89.7326 103.093 89.9059 102.919C92.1437 100.679 94.3759 98.4325 96.6057 96.1838C97.2463 95.5379 97.2217 95.7169 96.583 95.0737C91.8422 90.298 87.0961 85.5277 82.3517 80.7555C80.3285 78.7203 78.305 76.6854 76.2814 74.6505C75.7127 74.0788 75.7118 74.0782 75.1197 74.6737C73.5319 76.2695 71.9446 77.8662 70.3581 79.4635C70.2031 79.6195 70.0563 79.7836 69.7887 80.0688C70.0209 80.2449 70.2607 80.3857 70.4506 80.5768C75.2167 85.3619 79.9778 90.1524 84.7395 94.9421C84.8965 95.1 85.0456 95.2663 85.2102 95.4157C85.3691 95.5597 85.3947 95.6828 85.2299 95.8461C84.6552 96.4146 84.0884 96.9911 83.5012 97.5822C75.6833 89.7188 67.9139 81.9042 60.2124 74.158C53.035 81.3771 45.9236 88.5297 38.7755 95.7189C41.3107 98.2691 43.885 100.859 46.4797 103.468C41.275 108.703 36.1141 113.894 30.9001 119.138C38.7005 126.984 46.4719 134.801 54.3202 142.695C53.8199 143.165 53.3482 143.6 52.8861 144.045C52.225 144.682 52.409 144.662 51.7778 144.028C44.3624 136.574 36.9498 129.117 29.5355 121.662C29.3519 121.477 29.1553 121.306 29.0904 121.245C27.1168 123.23 25.1918 125.166 23.2133 127.156C28.3041 132.276 33.4634 137.465 38.6569 142.688C36.0862 145.273 33.5096 147.865 31.0085 150.381C32.9814 152.366 34.9079 154.304 36.8659 156.274C39.3882 153.738 41.9607 151.151 44.5864 148.51C45.1197 149.069 45.5919 149.575 46.0761 150.069C46.579 150.582 46.4701 150.494 46.0523 150.916C43.8046 153.181 41.5551 155.445 39.2994 157.703C39.1101 157.892 38.8705 158.03 38.6252 158.213C41.3208 160.924 43.8966 163.514 46.3792 166.01C35.3107 177.143 24.2953 188.223 13.2672 199.315C12.7289 198.738 12.0516 198.171 11.4411 197.4C21.8277 186.953 32.1836 176.536 42.4298 166.231C37.9186 161.692 33.3931 157.14 28.9536 152.674Z" fill="#99DDFF"/>
<path d="M114.609 160.326C114.43 160.504 114.222 160.709 114.015 160.917C102.747 172.25 91.4798 183.583 80.2119 194.916C67.261 207.943 54.3102 220.969 41.3633 234H45.2814C68.246 210.899 91.2117 187.799 114.179 164.702C114.331 164.549 114.447 164.341 114.629 164.3C115.281 164.941 115.907 165.557 116.556 166.195C113.974 168.792 111.398 171.383 108.79 174.008C109.355 174.566 109.869 175.066 110.375 175.573C111.65 176.852 112.919 178.137 114.196 179.415C114.735 179.954 114.604 179.922 115.146 179.395C115.181 179.36 115.216 179.325 115.251 179.29C119.437 175.079 123.624 170.869 127.809 166.658C127.965 166.501 128.114 166.336 128.317 166.121C125.727 163.518 123.152 160.929 120.538 158.302C130.926 147.854 141.291 137.428 151.569 127.09C149.589 125.09 147.664 123.146 145.689 121.151C132.774 134.14 119.818 147.173 106.778 160.288C106.47 159.94 106.155 159.592 105.85 159.234C105.58 158.919 105.049 158.699 105.066 158.308C105.083 157.93 105.577 157.682 105.87 157.388C128.665 134.455 151.463 111.525 174.26 88.5941C174.514 88.3387 174.76 88.0755 175.033 87.7908C172.421 85.1633 169.848 82.5754 167.206 79.9179C167.495 79.6677 167.732 79.4867 167.941 79.277C184.409 62.7173 200.874 46.1555 217.34 29.5937C219.294 27.6288 221.246 25.6619 223.203 23.7007C223.798 23.1048 223.645 23.1096 224.257 23.7234C226.492 25.9663 228.723 28.2138 230.958 30.4573C231.131 30.6302 231.277 30.835 231.551 30.9701C241.911 20.5495 252.282 10.1187 262.551 -0.209975C263.24 0.471982 263.864 1.08992 264.423 1.64325C253.462 12.6685 242.459 23.7355 231.381 34.8785C231.26 34.7257 231.123 34.514 230.95 34.3391C228.738 32.1069 226.525 29.8767 224.305 27.654C223.632 26.9812 223.83 26.9621 223.146 27.6496C205.963 44.9283 188.783 62.2097 171.604 79.4928C171.454 79.6439 171.26 79.7655 171.232 79.8553C173.216 81.8502 175.146 83.7911 177.138 85.7931C190.04 72.8157 202.997 59.7824 215.887 46.8167C216.51 47.4276 217.141 48.0454 217.801 48.692C194.47 72.1587 171.126 95.6393 147.879 119.021C149.866 121.019 151.794 122.958 153.735 124.911C156.246 122.385 158.819 119.799 161.425 117.177C164.059 119.827 166.621 122.406 169.224 125.026C187.381 106.763 205.534 88.5037 223.732 70.2004C226.329 72.8132 228.904 75.4023 231.422 77.9356C233.388 75.9557 235.317 74.0138 237.277 72.0397C234.752 69.499 232.18 66.9115 229.588 64.3048C230.253 63.6287 230.841 62.9758 231.536 62.3824C234.142 65.0032 236.716 67.5918 239.258 70.1487C241.235 68.16 243.153 66.2308 245.116 64.2562C242.551 61.6753 239.967 59.0748 237.453 56.5437C238.124 55.8434 238.72 55.2215 239.347 54.5671C241.913 57.148 244.486 59.7352 247.143 62.4071C247.324 62.1836 247.45 61.998 247.605 61.842C254.735 54.6657 261.868 47.4919 269 40.3169V36.3768C261.815 43.597 254.634 50.8207 247.451 58.0427C247.333 58.1609 247.242 58.3264 246.939 58.3273C244.431 55.8017 241.872 53.225 239.355 50.691C237.426 52.6329 235.497 54.5733 233.528 56.555C236.058 59.0897 238.642 61.6766 241.168 64.2071C240.506 64.8854 239.89 65.5164 239.236 66.1866C236.679 63.6111 234.104 61.0188 231.587 58.4847C229.616 60.4683 227.683 62.4131 225.686 64.4223C225.853 64.5625 226.075 64.7237 226.267 64.916C228.468 67.1227 230.665 69.3345 232.862 71.5448C232.984 71.6676 233.099 71.799 233.227 71.9145C233.39 72.0602 233.399 72.1843 233.236 72.3447C232.662 72.912 232.096 73.4886 231.468 74.1213C231.261 73.8792 231.111 73.6801 230.937 73.5049C228.794 71.3444 226.649 69.1857 224.5 67.0318C224.258 66.7895 224.055 66.3757 223.747 66.3646C223.391 66.3521 223.183 66.79 222.928 67.0464C205.22 84.8501 187.517 102.657 169.812 120.463C169.611 120.665 169.434 120.903 169.104 121.075C168.933 120.877 168.783 120.679 168.609 120.504C166.362 118.238 164.112 115.975 161.861 113.713C161.357 113.207 161.451 113.207 160.962 113.698C158.693 115.977 156.427 118.259 154.157 120.537C153.987 120.707 153.85 120.921 153.693 120.985C153.034 120.34 152.404 119.724 151.745 119.079C175.072 95.6152 198.416 72.1354 221.736 48.6799C219.753 46.6848 217.838 44.7576 215.88 42.7869C202.939 55.803 189.973 68.8438 177.107 81.7845C176.405 81.1179 175.77 80.5155 175.236 80.0089C191.421 63.7297 207.618 47.4383 223.837 31.1253C226.352 33.6551 228.922 36.2407 231.513 38.8462C233.386 36.9618 235.199 35.138 237.012 33.3144C247.338 22.9285 257.664 12.5431 267.988 2.15527C268.59 1.54993 268.613 1.70698 268.009 1.09724C266.39 -0.537402 264.767 -2.16824 263.141 -3.79615C262.991 -3.9466 262.873 -4.14775 262.603 -4.2207C252.248 6.19442 241.891 16.6128 231.478 27.0866C228.882 24.4742 226.308 21.8844 223.77 19.3317C203.648 39.5714 183.544 59.7925 163.376 80.0776C165.908 82.6211 168.486 85.2114 171.095 87.8326C147.732 111.332 124.387 134.813 101.131 158.205C103.114 160.199 105.04 162.137 107.042 164.151C119.937 151.18 132.89 138.152 145.794 125.174C146.402 125.798 147.016 126.429 147.685 127.115C147.183 127.599 146.623 128.122 146.084 128.665C136.436 138.365 126.791 148.066 117.147 157.77C116.511 158.411 116.518 158.238 117.157 158.883C119.386 161.132 121.622 163.375 123.851 165.623C124.019 165.793 124.237 165.925 124.274 166.037C121.006 169.324 117.789 172.561 114.595 175.774C114.038 175.222 113.425 174.614 112.763 173.958C115.326 171.38 117.913 168.777 120.461 166.214C118.479 164.221 116.565 162.295 114.609 160.326Z" fill="#99DDFF"/>
<path d="M6.33455 234C21.4866 218.755 36.6407 203.513 51.795 188.27C51.8994 188.165 52.0135 188.068 52.1073 187.953C52.2772 187.746 52.4255 187.772 52.5889 187.962C52.7014 188.093 52.8328 188.208 52.9548 188.33C55.1526 190.541 57.3498 192.751 59.5483 194.961C59.7344 195.148 59.9273 195.329 60.2366 195.628C60.4219 195.377 60.5599 195.132 60.7501 194.941C70.7056 184.919 80.6657 174.902 90.6251 164.885C90.7474 164.762 90.8781 164.646 90.9894 164.514C91.1811 164.286 91.3371 164.234 91.5791 164.486C92.1091 165.039 92.6726 165.559 93.2416 166.111C72.4371 187.036 51.6839 207.91 30.9671 228.747C32.74 230.532 34.4784 232.281 36.1858 234H37.3253C59.7994 211.395 82.315 188.748 104.897 166.035C102.371 163.494 99.7944 160.904 97.188 158.284C120.541 134.795 143.886 111.314 167.141 87.9226C165.157 85.9261 163.229 83.9862 161.239 81.9846C127.567 115.853 93.8361 149.78 60.1814 183.631C59.5426 183.032 58.8983 182.427 58.2158 181.787C112.739 126.947 167.243 72.1255 221.807 17.2443C216.615 12.0223 211.442 6.81965 206.249 1.59634C206.36 1.47768 206.457 1.3678 206.56 1.26408C208.461 -0.648769 210.362 -2.56104 212.264 -4.47316C215.926 -8.15734 219.589 -11.8424 223.253 -15.5248C223.793 -16.0666 223.669 -16.0489 224.201 -15.515C225.982 -13.7277 227.76 -11.937 229.539 -10.1475C235.225 -4.42818 240.911 1.29192 246.599 7.00864C247.146 7.55875 247.001 7.59391 247.597 6.99662C249.222 5.36798 250.844 3.73583 252.462 2.1003C252.612 1.94853 252.815 1.83323 252.92 1.44457C252.763 1.32517 252.524 1.18336 252.334 0.992321C247.585 -3.77552 242.842 -8.5482 238.098 -13.3203C237.941 -13.4782 237.795 -13.6496 237.626 -13.7926C237.39 -13.9918 237.433 -14.1553 237.645 -14.3332C237.758 -14.4284 237.855 -14.5422 237.96 -14.6474C243.419 -20.1385 248.88 -25.6291 254.335 -31.1246C254.507 -31.2985 254.629 -31.5235 254.782 -31.7358C255.041 -31.4904 255.187 -31.3585 255.326 -31.2189C259.884 -26.6351 264.441 -22.0507 269 -17.4674V-21.4108C264.46 -25.9794 259.92 -30.5469 255.378 -35.113C255.223 -35.2691 255.09 -35.4544 254.987 -35.501C247.83 -28.3031 240.704 -21.1355 233.555 -13.9441C238.672 -8.79681 243.842 -3.5965 249.052 1.64425C248.56 2.11891 248.129 2.52617 247.708 2.94399C247.089 3.55753 247.092 3.5612 246.499 2.9648C239.103 -4.47374 231.708 -11.9126 224.313 -19.3511C224.191 -19.4737 224.061 -19.5902 223.947 -19.72C223.807 -19.8801 223.677 -19.9178 223.521 -19.7405C223.424 -19.6289 223.312 -19.5306 223.207 -19.4252C216.387 -12.5658 209.566 -5.70698 202.749 1.15508C202.6 1.30524 202.39 1.41732 202.349 1.71471C207.492 6.88646 212.654 12.0774 217.849 17.3016C163.326 72.1417 108.813 126.972 54.3234 181.779C56.3039 183.77 58.2206 185.697 60.1537 187.64C60.3907 187.533 60.5623 187.281 60.7685 187.073C93.9977 153.655 127.225 120.234 160.452 86.8135C160.696 86.5678 160.949 86.3298 161.185 86.0769C161.336 85.915 161.456 85.9087 161.614 86.0696C162.18 86.6485 162.755 87.2196 163.361 87.8286C163.091 88.0813 162.868 88.2772 162.659 88.4875C141.535 109.732 120.413 130.977 99.2907 152.223C97.4246 154.1 95.5564 155.975 93.6929 157.855C93.1534 158.4 93.1885 158.282 93.713 158.811C95.5418 160.656 97.3738 162.497 99.2071 164.337C99.7999 164.933 100.399 165.521 100.941 166.059C79.51 187.614 58.1137 209.136 36.7116 230.662C36.1436 230.067 35.5342 229.428 34.8799 228.742C55.5918 207.91 76.3446 187.036 97.0548 166.206C95.1141 164.252 93.1865 162.311 91.2445 160.356C91.0579 160.444 90.9134 160.653 90.7407 160.826C88.8892 162.683 87.0413 164.544 85.1924 166.403C77.0294 174.614 68.8665 182.824 60.7035 191.034C60.1355 191.605 60.1351 191.605 59.5473 191.015C57.3321 188.787 55.115 186.561 52.9053 184.327C52.7346 184.155 52.6154 183.93 52.4504 183.7C52.135 184.001 51.9372 184.182 51.7484 184.372C45.4162 190.74 39.0845 197.108 32.7535 203.477C22.6391 213.651 12.5252 223.825 2.41113 234L6.33455 234Z" fill="#99DDFF"/>
<path d="M115.53 194.684C138.344 171.735 161.159 148.787 183.974 125.839C184.166 125.645 184.365 125.46 184.549 125.259C184.694 125.101 184.817 125.075 184.978 125.24C185.543 125.817 186.116 126.388 186.754 127.03C171.148 142.726 155.593 158.372 140.114 173.94C142.035 175.874 143.962 177.813 145.997 179.86C146.135 179.679 146.291 179.419 146.499 179.21C156.489 169.153 166.484 159.1 176.48 149.048C177.067 148.458 176.926 148.488 177.48 149.044C179.715 151.286 181.946 153.534 184.179 155.779C184.773 156.377 184.774 156.376 185.385 155.762C192.763 148.341 200.142 140.919 207.52 133.498C207.721 133.296 207.927 133.1 208.188 132.846C208.569 133.255 208.908 133.613 209.241 133.978C209.489 134.249 209.938 134.461 209.946 134.792C209.955 135.173 209.488 135.394 209.216 135.668C176.633 168.448 144.046 201.223 111.461 234H115.391C147.969 201.225 180.552 168.453 213.134 135.681C213.409 135.404 213.682 135.124 213.9 134.903C211.933 132.923 210.004 130.983 207.992 128.959C207.864 129.121 207.713 129.353 207.522 129.545C200.182 136.934 192.838 144.319 185.495 151.705C184.774 152.431 184.774 152.431 184.026 151.679C181.863 149.504 179.7 147.328 177.537 145.154C177.365 144.981 177.187 144.816 176.971 144.608L145.931 175.827C145.264 175.156 144.644 174.532 143.973 173.858C159.473 158.268 175.025 142.626 190.51 127.05C188.562 125.09 186.631 123.147 184.679 121.184C161.38 144.619 138.034 168.101 114.756 191.514C114.062 190.844 113.432 190.236 112.722 189.551C112.902 189.41 113.095 189.29 113.251 189.133C149.882 152.293 186.511 115.451 223.139 78.6084C223.261 78.4855 223.391 78.3699 223.506 78.2404C223.65 78.0771 223.772 78.0671 223.932 78.2316C224.493 78.8089 225.064 79.3761 225.676 79.9917C212.672 93.0717 199.717 106.101 186.801 119.092C188.742 121.055 190.669 123.004 192.619 124.976C200.364 117.185 208.137 109.368 215.93 101.529C218.559 104.174 221.132 106.761 223.665 109.309C225.649 107.314 227.566 105.386 229.522 103.419C226.974 100.856 224.397 98.2666 221.882 95.738C227.739 89.8454 233.556 83.9939 239.329 78.1873C239.904 78.7623 240.526 79.3842 241.225 80.0824C238.666 82.654 236.089 85.2446 233.632 87.7134C238.159 92.2663 242.683 96.818 247.151 101.312C248.997 99.4554 250.911 97.5299 252.867 95.5626C250.334 93.0134 247.763 90.4256 245.1 87.7459C245.348 87.5394 245.571 87.3816 245.761 87.1904C251.537 81.3862 257.31 75.5791 263.083 69.7716C265.056 67.7872 267.028 65.8019 269 63.8168V59.8477C264.554 64.3273 260.11 68.8098 255.663 73.2886C251.026 77.958 246.383 82.6221 241.745 87.2903C241.159 87.8793 241.179 87.7465 241.725 88.2975C243.711 90.3002 245.701 92.2987 247.69 94.2986C248.056 94.667 248.419 95.0396 248.789 95.4032C248.931 95.5416 249.007 95.6577 248.831 95.8305C248.252 96.4 247.681 96.9772 247.208 97.4505C243.951 94.1744 240.737 90.9404 237.494 87.6783C240.002 85.1552 242.572 82.5698 245.122 80.0046C243.143 78.0088 241.228 76.0794 239.307 74.1431C239.173 74.1784 239.08 74.2989 238.976 74.4032C237.947 75.4377 236.918 76.4731 235.889 77.5082C230.045 83.3855 224.201 89.2627 218.36 95.1417C217.806 95.6991 217.789 95.5614 218.371 96.1477C220.602 98.395 222.837 100.638 225.066 102.887C225.253 103.076 225.48 103.233 225.636 103.576C225.173 104.015 224.685 104.47 224.205 104.933C223.666 105.454 223.797 105.492 223.255 104.948C220.985 102.67 218.718 100.388 216.45 98.1082C216.284 97.9407 216.11 97.7797 215.92 97.5966C208.119 105.443 200.359 113.249 192.486 121.168C192.07 120.697 191.693 120.239 191.284 119.813C190.637 119.138 190.628 119.146 191.284 118.486C203.843 105.854 216.403 93.2225 228.959 80.5881C229.16 80.3862 229.407 80.2148 229.532 79.9198C227.838 78.2164 226.164 76.5331 224.489 74.8498C223.721 74.0776 223.721 74.0773 222.961 74.8421C185.109 112.914 147.259 150.985 109.404 189.053C109.213 189.245 108.972 189.386 108.814 189.505C110.849 191.552 112.78 193.494 114.775 195.5C114.999 195.257 115.255 194.961 115.53 194.684Z" fill="#99DDFF"/>
<path d="M123.186 234C132.619 224.509 142.052 215.018 151.486 205.528C164.951 191.984 178.416 178.442 191.879 164.895C192.087 164.686 192.26 164.441 192.465 164.193C193.145 164.918 193.746 165.558 194.397 166.253C186.7 173.995 178.929 181.812 171.197 189.588C173.157 191.559 175.088 193.502 176.985 195.41C186.658 185.68 196.367 175.914 206.136 166.087C203.613 163.549 201.043 160.963 198.527 158.432C204.375 152.55 210.192 146.699 216.008 140.85C216.556 141.399 217.178 142.022 217.847 142.692C215.264 145.29 212.686 147.882 210.1 150.483C212.69 153.087 215.253 155.663 217.779 158.203C202.197 173.875 186.646 189.517 171.161 205.092C173.217 207.155 175.159 209.103 177.178 211.129C177.327 210.955 177.55 210.657 177.81 210.396C192.894 195.219 207.982 180.044 223.069 164.869C223.722 164.212 223.723 164.213 224.384 164.878C227.21 167.72 230.035 170.563 232.863 173.402C233.035 173.576 233.231 173.727 233.485 173.949C217.868 189.657 202.319 205.297 186.705 221.002C189.291 223.604 191.864 226.193 194.399 228.744C193.757 229.381 193.132 230 192.558 230.567C189.426 227.417 186.209 224.181 182.984 220.937C198.463 205.368 214.015 189.726 229.518 174.133C227.523 172.127 225.594 170.187 223.63 168.212C223.49 168.275 223.345 168.481 223.175 168.652C201.517 190.433 179.861 212.216 158.206 234H162.133C182.463 213.544 202.797 193.092 223.131 172.64C223.253 172.517 223.384 172.401 223.499 172.272C223.642 172.112 223.767 172.093 223.928 172.258C224.495 172.838 225.071 173.41 225.67 174.011C225.196 174.477 224.767 174.888 224.349 175.309C209.471 190.272 194.593 205.236 179.716 220.199C179.525 220.392 179.34 220.593 179.142 220.779C178.987 220.923 178.945 221.053 179.121 221.209C179.232 221.308 179.331 221.42 179.435 221.525C183.569 225.684 187.704 229.844 191.841 234H193.076C194.847 232.22 196.58 230.478 198.356 228.693C198.221 228.58 198.019 228.433 197.845 228.259C195.679 226.087 193.518 223.91 191.355 221.735C190.627 221.003 190.627 221.003 191.373 220.252C206.46 205.078 221.546 189.904 236.632 174.729C236.869 174.49 237.098 174.244 237.327 174.004C237.247 173.898 237.209 173.834 237.158 173.783C232.799 169.396 228.438 165.011 224.08 160.623C223.675 160.216 223.692 160.289 223.338 160.652C223.165 160.83 222.989 161.003 222.815 161.179C207.763 176.318 192.712 191.457 177.659 206.596C177.441 206.815 177.212 207.026 177.092 207.141C176.41 206.473 175.783 205.86 175.104 205.196C175.203 205.118 175.351 205.022 175.473 204.899C182.102 198.235 188.73 191.569 195.357 184.902C203.991 176.219 212.624 167.535 221.256 158.85C221.868 158.234 221.851 158.39 221.258 157.791C219.047 155.559 216.831 153.332 214.611 151.109C214.421 150.918 214.184 150.773 213.916 150.566C216.601 147.865 219.177 145.274 221.725 142.712C219.762 140.738 217.834 138.798 215.889 136.842C215.815 136.907 215.699 136.998 215.596 137.101C208.706 144.03 201.816 150.958 194.928 157.888C194.422 158.397 194.467 158.293 194.959 158.789C197.224 161.071 199.493 163.35 201.758 165.633C201.925 165.802 202.134 165.94 202.202 166.106C193.766 174.591 185.364 183.042 176.95 191.506C176.378 190.895 175.773 190.249 175.134 189.565C182.842 181.813 190.617 173.993 198.353 166.212C196.389 164.241 194.456 162.301 192.433 160.271C192.311 160.43 192.179 160.647 192.006 160.821C167.758 185.215 143.507 209.606 119.259 234H123.186Z" fill="#99DDFF"/>
<path d="M112.615 17.3378C110.67 15.3839 108.739 13.4446 106.728 11.4243C106.596 11.5896 106.444 11.8213 106.253 12.0134C78.1222 40.3138 49.9884 68.611 21.8546 96.9087C9.471 109.365 -2.91294 121.82 -15.2948 134.278C-15.8994 134.886 -15.9211 134.72 -15.3124 135.334C-13.0661 137.601 -10.8141 139.862 -8.56491 142.126C-8.39834 142.294 -8.23821 142.468 -8.06754 142.648C-8.20554 142.797 -8.30223 142.909 -8.40595 143.013C-13.6036 148.243 -18.8022 153.472 -24 158.702V162.644C-17.4701 156.079 -10.9413 149.512 -4.41324 142.945C-4.32798 142.859 -4.254 142.762 -4.18397 142.681C-6.76486 140.087 -9.32539 137.513 -11.8127 135.013C27.832 95.1375 67.4116 55.3274 107 15.5084C107.493 16.0171 108.094 16.6369 108.764 17.3283C103.62 22.5024 98.4507 27.7015 93.2271 32.9559C95.8243 35.569 98.3997 38.16 100.938 40.7133C97.6939 43.9762 94.475 47.214 91.2132 50.4951C90.6941 49.9711 90.1236 49.3923 89.5485 48.8182C89.4155 48.6856 89.4155 48.5694 89.5448 48.4414C89.668 48.32 89.7892 48.1964 89.9112 48.0736C92.126 45.8454 94.3395 43.6158 96.5576 41.391C96.7315 41.2164 96.9371 41.074 97.0525 40.9788C95.0648 38.9782 93.1405 37.0415 91.2785 35.1671C81.6813 44.82 71.9576 54.6004 62.2041 64.4103C64.6795 66.8976 67.253 69.4836 69.7833 72.0261C69.1135 72.7047 68.4944 73.3318 67.8209 74.0141C65.3124 71.4767 62.7425 68.8771 60.1846 66.2899C59.8942 66.4178 59.7532 66.6279 59.5828 66.7993C37.2383 89.2702 14.8958 111.743 -7.44682 134.216C-8.04278 134.815 -8.04278 134.816 -7.42528 135.438C-5.69995 137.174 -3.97418 138.911 -2.24284 140.653C-1.93109 140.533 -1.76423 140.278 -1.56191 140.074C10.9986 127.445 23.556 114.814 36.1138 102.183C36.7625 101.531 36.7622 101.531 37.4289 102.201C37.7952 102.569 38.1626 102.936 38.5281 103.305C38.5622 103.339 38.5842 103.386 38.6416 103.471C38.5329 103.694 38.3157 103.855 38.1336 104.038C19.5076 122.775 0.879803 141.511 -17.7478 160.247C-19.8308 162.342 -21.9131 164.438 -23.9999 166.529V170.48C-1.94911 148.302 20.101 126.124 42.1486 103.943C42.2983 103.793 42.5027 103.679 42.5229 103.589C40.5308 101.586 38.5993 99.6435 36.6134 97.6463C23.7086 110.627 10.7513 123.66 -2.26189 136.749C-2.71047 136.277 -3.16653 135.792 -3.62756 135.312C-4.19862 134.718 -4.17621 134.875 -3.61262 134.308C17.456 113.114 38.5262 91.922 59.5966 70.7303C59.7655 70.5601 59.9416 70.3974 60.1445 70.2025C62.7468 72.8197 65.3232 75.4108 67.9207 78.0234C69.7651 76.169 71.5605 74.3626 73.3573 72.5577C73.8169 72.0963 73.8005 72.1544 73.3532 71.7044C71.1037 69.4407 68.8554 67.1758 66.6006 64.9178C66.4097 64.7266 66.1724 64.5823 66.0295 64.4724C74.5419 55.9102 82.9591 47.444 91.2937 39.0608C91.8838 39.6114 92.5276 40.2119 93.1892 40.8291C90.5995 43.4338 88.025 46.0237 85.4266 48.6372C87.3215 50.5378 89.1575 52.3744 90.9852 54.2192C91.1962 54.4319 91.3649 54.5144 91.5756 54.2375C91.65 54.1398 91.7477 54.0602 91.8349 53.9726C96.0209 49.7622 100.206 45.5508 104.397 41.345C104.569 41.1717 104.793 41.0503 105.061 40.8553C102.362 38.1409 99.7846 35.5491 97.1454 32.8949C102.333 27.6778 107.506 22.476 112.615 17.3378Z" fill="#99DDFF"/>
<path d="M74.3789 1.01915C94.2673 -18.9881 114.157 -38.9937 134.047 -59H130.118C110.245 -39.0039 90.3671 -19.0118 70.4929 0.983696C70.2893 1.1885 70.0266 1.35039 69.9109 1.69349C75.0626 6.87476 80.2235 12.065 85.3633 17.2342C84.7221 17.8763 84.0978 18.5014 83.4579 19.1421C83.2525 19.0417 83.0936 18.8149 82.905 18.6254C78.0717 13.7685 73.2419 8.90803 68.4091 4.05067C67.8759 3.51448 67.9973 3.49133 67.463 4.02752C65.8212 5.67419 64.1825 7.32349 62.5465 8.9763C62.3956 9.12865 62.1974 9.24996 62.1246 9.51292C64.6923 12.096 67.2633 14.6819 69.7216 17.1551C48.2762 38.725 26.8868 60.2391 5.60912 81.6407C5.03293 81.1122 4.3876 80.5203 3.65071 79.8442C24.4109 58.9631 45.1568 38.0964 65.8104 17.3227C63.8974 15.3989 61.9681 13.4588 60.01 11.4891C59.7724 11.7378 59.4874 12.0469 59.1913 12.3449C31.4617 40.2372 3.73113 68.1289 -24 96.0197V99.9598C3.81273 71.9936 31.6217 44.0228 59.4278 16.0495C59.6508 15.8253 59.838 15.5653 60.0409 15.3234C60.7382 16.0632 61.3423 16.7037 61.9937 17.3946C41.2908 38.2181 20.5411 59.089 -0.154049 79.9044C1.79865 81.8683 3.73084 83.8119 5.60384 85.6956C28.2671 62.9002 50.9712 40.0637 73.7524 17.15C73.6033 17.031 73.3923 16.8943 73.2181 16.7197C70.999 14.4958 68.785 12.2664 66.57 10.038C66.4479 9.9155 66.3326 9.78513 66.2034 9.67027C66.0339 9.51967 66.0503 9.39411 66.2061 9.23927C66.7789 8.67055 67.3433 8.09364 67.9359 7.49489C73.1524 12.7421 78.3143 17.9345 83.3848 23.0349C85.335 21.076 87.2769 19.1258 89.2558 17.1378C84.1569 12.0096 78.9967 6.82026 73.8356 1.62976C73.965 1.37441 74.1887 1.21033 74.3789 1.01915Z" fill="#99DDFF"/>
<path d="M75.5595 -23.989C77.5526 -25.9921 79.4784 -27.9276 81.4715 -29.9307C76.3865 -35.0446 71.2279 -40.2326 65.9784 -45.512C66.1773 -45.672 66.4073 -45.8241 66.5984 -46.0157C70.904 -50.3407 75.206 -54.6692 79.5055 -59H75.5895C71.2755 -54.6596 66.9602 -50.3203 62.648 -45.9783C62.462 -45.7911 62.2302 -45.6385 62.0708 -45.2488C67.2096 -40.0817 72.3797 -34.8827 77.5534 -29.6807C77.5372 -29.6536 77.5192 -29.6042 77.4857 -29.5701C77.0862 -29.165 76.6848 -28.7618 76.2833 -28.3585C75.7117 -27.7839 75.7105 -27.783 75.1213 -28.3756C70.3245 -33.1999 65.5285 -38.0249 60.7296 -42.8472C60.5402 -43.0374 60.3814 -43.2672 60.1092 -43.3948C60.0384 -43.3345 59.9605 -43.2773 59.8931 -43.2098C55.5494 -38.8423 51.2065 -34.4733 46.8623 -30.1062C46.4646 -29.7066 46.459 -29.7524 46.8997 -29.31C48.6277 -27.5743 50.3534 -25.8365 52.081 -24.1002C52.1659 -24.0149 52.2399 -23.9071 52.4147 -23.9141C54.9591 -26.4754 57.5205 -29.0541 60.0397 -31.5903C60.6884 -30.9423 61.3131 -30.3187 61.9863 -29.6462C49.0683 -16.6531 36.1029 -3.61216 23.115 9.45155C25.7422 12.0926 28.3048 14.6691 30.8172 17.1951C22.3807 25.6807 13.965 34.1454 5.57337 42.586C5.00466 42 4.39258 41.3694 3.75384 40.7111C11.4888 32.931 19.2569 25.1177 26.9255 17.4044C24.936 15.4043 23.0092 13.4675 21.0252 11.4727C8.12848 24.4445 -4.8252 37.4738 -17.823 50.5474C-18.2497 50.1069 -18.6771 49.6614 -19.1094 49.2212C-19.6954 48.6249 -19.6971 48.6265 -19.1277 48.0538C-9.13318 38.0015 0.860468 27.9486 10.8591 17.9005C11.0495 17.709 11.2949 17.5731 11.4949 17.4258C9.44595 15.3694 7.51406 13.4305 5.56795 11.4776C5.3589 11.578 5.19775 11.8054 5.00788 11.9962C-2.2846 19.3275 -9.57502 26.6612 -16.8657 33.9944C-19.2427 36.3853 -21.6197 38.7762 -24 41.1637V45.1143C-14.3361 35.396 -4.67372 25.6767 4.99206 15.9601C5.19174 15.7594 5.35538 15.5011 5.593 15.4213C6.25298 16.0637 6.87209 16.6661 7.52402 17.3006C-2.85624 27.741 -13.2268 38.172 -23.5127 48.5178C-21.534 50.5076 -19.6063 52.4465 -17.6268 54.4371C-4.72587 41.4609 8.22839 28.4312 21.1397 15.4447C21.7782 16.0678 22.4099 16.6842 23.0738 17.3324C15.3065 25.1451 7.53647 32.9603 -0.149651 40.6914C1.83103 42.6827 3.7619 44.6239 5.64442 46.5165C15.3054 36.7991 25.0176 27.0302 34.7576 17.2333C34.6204 17.0886 34.4566 16.9088 34.2855 16.7364C32.1411 14.578 29.9935 12.4227 27.8531 10.2604C27.5967 10.0015 27.1562 9.78307 27.165 9.43923C27.1735 9.10184 27.6077 8.88327 27.865 8.62426C40.367 -3.95541 52.8721 -16.5323 65.3744 -29.1119C65.5748 -29.3138 65.8263 -29.4816 65.8959 -29.6662C63.9259 -31.6461 62.0097 -33.5718 60.0736 -35.5178C59.8953 -35.4413 59.7552 -35.2307 59.5847 -35.0597C57.3671 -32.8347 55.1531 -30.6058 52.9383 -28.3781C52.8162 -28.2555 52.6866 -28.1398 52.5713 -28.0109C52.4326 -27.8559 52.3083 -27.8131 52.1423 -27.9827C51.5739 -28.564 50.9977 -29.1379 50.5133 -29.6253C53.7722 -32.9042 56.9886 -36.1404 60.2325 -39.4045C65.3549 -34.2525 70.5256 -29.0519 75.5595 -23.989Z" fill="#99DDFF"/>
<path d="M269 122.563C264.438 127.145 259.88 131.73 255.322 136.314C255.183 136.454 255.036 136.585 254.861 136.751C254.294 136.176 253.745 135.607 253.181 135.053C252.994 134.869 252.997 134.734 253.19 134.568C253.34 134.44 253.471 134.29 253.611 134.15C255.966 131.783 258.321 129.416 260.612 127.113C253.472 119.932 246.35 112.768 239.285 105.662C234.868 110.105 230.339 114.66 225.8 119.225C233.474 126.943 241.247 134.761 249.074 142.633C248.434 143.265 247.854 143.835 247.276 144.408C247.147 144.535 247.032 144.543 246.902 144.404C246.734 144.224 246.553 144.055 246.379 143.879C236.437 133.88 226.495 123.881 216.557 113.879C216.365 113.686 216.212 113.456 215.996 113.187C205.539 123.705 195.17 134.135 184.838 144.527C184.173 143.844 183.558 143.212 182.985 142.624C193.944 131.601 204.947 120.533 215.968 109.448C216.18 109.543 216.333 109.773 216.519 109.96C218.79 112.237 221.055 114.519 223.324 116.798C223.718 117.193 223.728 117.192 224.116 116.802C228.425 112.471 232.733 108.138 237.041 103.804C237.143 103.702 237.233 103.588 237.344 103.461C234.765 100.87 232.202 98.2936 229.604 95.6828C230.175 94.9613 230.855 94.3962 231.506 93.6919C241.892 104.139 252.259 114.566 262.582 124.949C264.546 122.974 266.474 121.037 268.404 119.096C263.289 113.951 258.131 108.764 252.943 103.546C253.554 102.803 254.216 102.223 254.882 101.534C257.474 104.14 260.046 106.727 262.664 109.36C262.841 109.187 262.996 109.041 263.147 108.889C265.098 106.927 267.049 104.964 269 103V99.0327C267.04 101.011 265.082 102.991 263.12 104.967C262.637 105.454 262.737 105.487 262.224 104.973C259.974 102.71 257.723 100.449 255.479 98.1798C255.29 97.9883 255.153 97.7444 255.017 97.5586C252.972 99.6155 251.039 101.56 249.043 103.568C254.19 108.744 259.364 113.946 264.468 119.078C263.84 119.711 263.222 120.334 262.569 120.992C252.258 110.62 241.903 100.205 231.588 89.8291C229.627 91.8017 227.7 93.7402 225.734 95.7184C228.269 98.2679 230.843 100.857 233.336 103.365C230.073 106.647 226.855 109.885 223.613 113.146C221.096 110.614 218.525 108.029 216.017 105.507C203.65 117.945 191.343 130.323 179.096 142.642C180.98 144.538 182.907 146.476 184.865 148.446C195.185 138.066 205.551 127.639 215.992 117.137C226.41 127.615 236.764 138.029 247.066 148.392C248.979 146.469 250.909 144.527 252.912 142.512C252.732 142.36 252.489 142.185 252.28 141.976C244.883 134.541 237.489 127.103 230.094 119.665C229.577 119.144 229.577 119.143 230.109 118.608C233.004 115.696 235.898 112.783 238.797 109.875C238.962 109.709 239.085 109.472 239.242 109.45C245.101 115.342 250.906 121.182 256.743 127.053C254.204 129.606 251.63 132.196 249.122 134.719C251.097 136.705 253.024 138.644 255.039 140.67C255.165 140.51 255.314 140.276 255.505 140.084C258.867 136.694 262.234 133.31 265.599 129.924C266.734 128.782 267.866 127.638 269 126.494V122.563H269Z" fill="#99DDFF"/>
<path d="M28.9441 -12.1106C28.49 -12.5768 28.0622 -13.0194 27.6303 -13.4581C27.0431 -14.0548 27.0411 -14.0539 27.6113 -14.6275C32.4255 -19.4698 37.2397 -24.312 42.0537 -29.1544C42.6194 -29.7233 42.6195 -29.724 42.0314 -30.3157C39.8166 -32.544 37.6033 -34.774 35.3825 -36.9969C35.2107 -37.1687 34.9874 -37.2884 34.838 -37.3964C38.1689 -40.7465 41.3902 -43.9864 44.5631 -47.1779C45.1479 -46.6098 45.7815 -45.9942 46.4925 -45.3031C43.9145 -42.7171 41.3346 -40.129 38.8459 -37.6321C40.7841 -35.681 42.7113 -33.7409 44.7185 -31.7201C44.8254 -31.8578 44.9595 -32.0721 45.1328 -32.2468C53.9953 -41.1666 62.8608 -50.0827 71.7256 -59H67.7981C60.2014 -51.3543 52.6027 -43.711 45.0032 -36.0681C44.8643 -35.9284 44.7185 -35.7953 44.5092 -35.5956C43.9554 -36.1757 43.416 -36.7525 42.8621 -37.314C42.6865 -37.4917 42.6514 -37.6265 42.8544 -37.799C42.986 -37.9103 43.0991 -38.0436 43.2211 -38.1664C45.4189 -40.3768 47.615 -42.5892 49.8185 -44.7936C50.0092 -44.9843 50.2521 -45.1225 50.444 -45.2649C48.3959 -47.3184 46.4599 -49.2595 44.5976 -51.1267C40.0957 -46.5994 35.5656 -42.0439 31.0344 -37.4871C33.5469 -34.9614 36.1087 -32.3862 38.7267 -29.7545C33.5093 -24.5069 28.3372 -19.3047 23.1725 -14.1098C23.2611 -13.8415 23.4548 -13.7171 23.6065 -13.564C25.2426 -11.9115 26.8826 -10.2627 28.5228 -8.61425C29.0366 -8.09784 28.9385 -8.1333 29.4197 -8.61689C34.2524 -13.4751 39.0838 -18.335 43.9117 -23.198C44.1025 -23.3902 44.2542 -23.621 44.3898 -23.7903C45.0787 -23.0782 45.688 -22.4482 46.2403 -21.8773C35.3342 -10.9074 24.3225 0.168274 13.3378 11.217C12.8035 10.6794 12.1973 10.0695 11.5204 9.38825C16.6431 4.23614 21.8132 -0.964462 26.985 -6.16638C26.9363 -6.40254 26.7542 -6.50216 26.6243 -6.63298C22.3717 -10.9166 18.1156 -15.1974 13.8597 -19.4784C13.7726 -19.566 13.6795 -19.6486 13.5987 -19.7418C13.4446 -19.9194 13.3126 -19.8814 13.1716 -19.7223C13.0571 -19.593 12.9271 -19.4772 12.8051 -19.3543C10.6073 -17.1436 8.40833 -14.9344 6.21479 -12.7198C6.02536 -12.5283 5.87168 -12.3011 5.65926 -12.0385C5.00469 -12.7056 4.43554 -13.2878 3.86361 -13.8666C3.73586 -13.9958 3.72297 -14.1142 3.85907 -14.2438C3.96645 -14.3461 4.06827 -14.4543 4.17272 -14.5595C7.06829 -17.4716 9.96357 -20.3841 12.8591 -23.296C12.9639 -23.4012 13.0774 -23.4987 13.1734 -23.6113C13.3162 -23.7791 13.4476 -23.7955 13.6004 -23.6245C13.7157 -23.4956 13.8439 -23.3787 13.966 -23.2558C16.181 -21.0278 18.3976 -18.801 20.609 -16.5691C20.7823 -16.394 20.9207 -16.1838 21.0419 -16.0317C21.3818 -16.1235 21.5 -16.3221 21.6502 -16.4731C25.8738 -20.7162 30.0941 -24.9623 34.3148 -29.2083C34.402 -29.296 34.4808 -29.394 34.5766 -29.4706C34.8205 -29.6662 34.7615 -29.8343 34.552 -30.0078C34.4572 -30.0862 34.3762 -30.1817 34.289 -30.2693C32.7017 -31.8659 31.1158 -33.4637 29.5253 -35.0566C29.355 -35.2273 29.215 -35.4372 28.9242 -35.5664C26.36 -32.9876 23.7845 -30.3975 21.2732 -27.872C20.6047 -28.5293 19.9745 -29.149 19.254 -29.8573C19.4638 -30.028 19.7123 -30.1958 19.9199 -30.4045C29.4005 -39.9339 38.8773 -49.4667 48.3539 -59H44.4252C34.9796 -49.4926 25.5305 -39.9887 16.08 -30.4863C15.8404 -30.2454 15.5789 -30.0267 15.3643 -29.8308C17.3636 -27.8201 19.2952 -25.8771 21.2895 -23.8709C23.8264 -26.4232 26.4034 -29.0156 28.9444 -31.5717C29.5641 -30.9278 30.1732 -30.2949 30.7087 -29.7387C27.5352 -26.5464 24.3169 -23.3092 21.0771 -20.0505C18.5551 -22.5871 15.98 -25.1767 13.4676 -27.7036C8.8931 -23.1028 4.37943 -18.5631 -0.0927734 -14.0652C1.8003 -12.164 3.73044 -10.2253 5.69281 -8.2543C8.22037 -10.7964 10.7922 -13.383 13.3332 -15.9388C16.5933 -12.6603 19.8002 -9.43539 23.029 -6.18821C22.9539 -5.97286 22.7151 -5.82196 22.5276 -5.63327C17.6989 -0.770493 12.8662 4.08818 8.03622 8.94978C7.46458 9.52509 7.48172 9.39191 8.04237 9.95741C9.6275 11.556 11.2159 13.1517 12.8033 14.7478C13.3942 15.3419 13.3949 15.3413 13.9619 14.771C25.9104 2.75312 37.8586 -9.26501 49.8104 -21.2795C50.0011 -21.4711 50.2345 -21.6194 50.4157 -21.7622C48.3921 -23.7982 46.4585 -25.7441 44.4765 -27.7384C39.3398 -22.57 34.1665 -17.3654 28.9441 -12.1106Z" fill="#99DDFF"/>
<path d="M99.3835 -11.8172C99.1625 -12.0406 99.0001 -12.0945 98.7978 -11.8238C98.7392 -11.7454 98.6593 -11.683 98.5897 -11.6128C94.3691 -7.36769 90.1481 -3.12285 85.9295 1.12418C85.7746 1.27977 85.5845 1.40868 85.4589 1.7304C88.0044 4.28799 90.5796 6.87548 93.1213 9.42927C92.4874 10.0522 91.8629 10.6657 91.3204 11.199C88.1418 8.00236 84.9245 4.76661 81.6488 1.47241C81.8275 1.30921 82.0732 1.10353 82.2985 0.876892C102.142 -19.0802 121.985 -39.0384 141.825 -59H137.906C118.035 -39.011 98.1625 -19.0231 78.292 0.966698C78.0847 1.17517 77.8405 1.35375 77.7524 1.52852C82.3083 6.1106 86.8372 10.6654 91.3894 15.2443C93.1376 13.4863 94.9321 11.6807 96.7284 9.87624C97.1885 9.41432 97.1738 9.47923 96.7216 9.0239C94.5251 6.81248 92.3288 4.60048 90.1269 2.39478C89.8834 2.15085 89.6039 1.94385 89.3834 1.75574C92.6836 -1.56365 95.9037 -4.80233 99.0988 -8.0161C99.6836 -7.44226 100.311 -6.82623 100.973 -6.17723C98.405 -3.59444 95.8285 -1.00285 93.1451 1.69612C93.396 1.88554 93.6146 2.01358 93.7882 2.18719C96.008 4.41032 98.2213 6.64005 100.436 8.86803C100.558 8.99079 100.674 9.12103 100.802 9.23618C100.97 9.38678 100.96 9.51922 100.799 9.66718C100.653 9.80079 100.52 9.94817 100.381 10.0887C96.5264 13.9655 92.6717 17.8425 88.8175 21.7193C51.2118 59.5437 13.6067 97.3681 -24 135.191V139.131C18.8241 96.0661 61.644 52.9966 104.462 9.92487C104.612 9.77325 104.825 9.66088 104.868 9.39308C102.31 6.82347 99.7463 4.248 97.1373 1.62712C99.7513 -1.00256 102.338 -3.60411 104.948 -6.22997C103.046 -8.13638 101.209 -9.97129 99.3835 -11.8172Z" fill="#99DDFF"/>
<path d="M73.2915 32.4688C71.8968 31.0646 70.4992 29.6636 69.1072 28.2569C68.7267 27.8728 68.3612 27.4739 67.9671 27.0588C47.1575 47.9896 26.4087 68.8592 5.62845 89.7605C2.9998 87.1162 0.422867 84.5236 -2.22424 81.8605C-2.43843 82.1088 -2.60295 82.3252 -2.79266 82.5161C-6.71476 86.4655 -10.6393 90.412 -14.5636 94.3592C-17.7078 97.522 -20.852 100.685 -24 103.844V107.794C-16.9163 100.672 -9.83345 93.5483 -2.7534 86.422C-2.5798 86.2473 -2.43813 86.0403 -2.24534 85.8034C0.408804 88.47 2.98589 91.0588 5.58392 93.6687C26.3679 72.7636 47.1156 51.8953 67.8618 31.0283C68.536 31.7058 69.1561 32.3287 69.789 32.9647C69.6699 33.2115 69.4422 33.3709 69.2543 33.5602C38.1721 64.8276 7.08818 96.0926 -24 127.353V131.305C5.14485 101.992 34.2891 72.6789 63.4331 43.3653C66.7121 40.0672 69.9909 36.7692 73.2694 33.4704C73.7767 32.9599 73.777 32.9577 73.2915 32.4688Z" fill="#99DDFF"/>
<path d="M28.8072 136.842C15.9166 149.808 2.96567 162.835 -9.95988 175.835C-10.5742 175.199 -11.1832 174.569 -11.8234 173.906C-4.09827 166.136 3.66828 158.324 11.4108 150.537C9.43262 148.547 7.51654 146.619 5.64647 144.738C-4.04655 154.487 -13.7717 164.269 -23.5672 174.122C-23.4407 174.23 -23.2442 174.376 -23.0731 174.548C-20.7862 176.843 -18.503 179.142 -16.2179 181.439C-15.8832 181.776 -15.7538 181.749 -16.1857 182.183C-18.7919 184.8 -21.3957 187.42 -24 190.039V193.988C-20.058 190.021 -16.1149 186.055 -12.1729 182.089C-12.1045 182.02 -12.0456 181.942 -11.9305 181.807C-14.5078 179.214 -17.0777 176.629 -19.5975 174.094C-11.155 165.602 -2.73933 157.138 5.62098 148.728C6.18764 149.302 6.80836 149.93 7.49252 150.622C7.29738 150.792 7.04174 150.989 6.8154 151.217C-0.529381 158.599 -7.87123 165.985 -15.2135 173.37C-15.832 173.992 -15.8322 173.992 -15.1883 174.64C-13.6189 176.219 -12.0507 177.799 -10.4783 179.375C-9.91388 179.94 -10.0462 179.948 -9.47599 179.374C-3.57966 173.447 2.31462 167.518 8.20949 161.589C14.9415 154.818 21.6731 148.047 28.405 141.276C28.9707 140.707 28.9715 140.707 29.5604 141.299C29.9615 141.702 30.3618 142.107 30.761 142.512C30.7951 142.546 30.8193 142.591 30.8506 142.634C30.7345 142.89 30.5063 143.051 30.3166 143.242C12.2129 161.454 -5.89245 179.665 -23.9999 197.874V201.815C-4.56355 182.275 14.8685 162.73 34.2981 143.182C34.4673 143.012 34.6917 142.88 34.7144 142.789C32.7235 140.785 30.7989 138.847 28.8072 136.842Z" fill="#99DDFF"/>
<path d="M82.175 -46.0125C86.4819 -50.3376 90.7849 -54.6673 95.084 -59H91.1647C86.866 -54.6724 82.5662 -50.346 78.2628 -46.023C78.0716 -45.8308 77.8435 -45.6761 77.628 -45.4997C82.8807 -40.2167 88.0525 -35.0152 93.1804 -29.8575C79.5114 -16.1086 65.9114 -2.42947 52.2751 11.2863C51.7184 10.8346 51.1951 10.2092 50.6077 9.65312C50.4352 9.49021 50.482 9.36407 50.6355 9.22343C50.7996 9.07356 50.9505 8.9089 51.1075 8.75127C58.4681 1.34789 65.8286 -6.05549 73.189 -13.4592C73.7784 -14.0522 73.778 -14.0538 73.2071 -14.6279C70.9923 -16.8562 68.7788 -19.0859 66.5596 -21.3098C66.3857 -21.4838 66.1714 -21.6177 66.0332 -21.7254C66.7225 -22.4462 67.3309 -23.0822 67.9622 -23.7423C68.1607 -23.6794 68.2921 -23.4578 68.4606 -23.289C70.7318 -21.012 72.9977 -18.7299 75.266 -16.45C75.7721 -15.9412 75.6839 -15.9694 76.1644 -16.4526C80.4211 -20.7323 84.677 -25.013 88.9312 -29.2952C89.0682 -29.4329 89.2429 -29.5446 89.3065 -29.7907C84.1585 -34.9677 78.9969 -40.1585 73.801 -45.3834C73.994 -45.5892 74.1694 -45.7853 74.3547 -45.9716C78.6709 -50.3145 82.9881 -54.6564 87.304 -59H83.3741C79.0747 -54.668 74.7721 -50.3386 70.465 -46.0139C70.2741 -45.8225 70.0353 -45.6792 69.8582 -45.5437C70.0347 -45.147 70.2637 -44.9892 70.452 -44.7995C75.2455 -39.9735 80.0419 -35.1505 84.8375 -30.3267C84.9596 -30.204 85.0731 -30.0714 85.2045 -29.9597C85.4101 -29.7851 85.3796 -29.6345 85.1902 -29.4763C85.1147 -29.413 85.0514 -29.3354 84.9817 -29.2653C82.0346 -26.3009 79.0876 -23.3365 76.1394 -20.3728C75.6852 -19.9161 75.7685 -19.8909 75.2967 -20.3647C73.011 -22.6614 70.7274 -24.96 68.4417 -27.2568C68.2753 -27.4244 68.1004 -27.5832 68.0095 -27.67C66.0369 -25.6859 64.1082 -23.7462 62.1623 -21.7894C64.5036 -19.4352 66.8925 -17.033 69.2814 -14.6307C69.855 -14.0538 69.8557 -14.0528 69.2741 -13.4678C61.9671 -6.11805 54.6603 1.23127 47.3533 8.58103C47.179 8.75624 47.0196 8.95094 46.8277 9.10374C46.5202 9.34884 46.5366 9.53006 46.8225 9.80518C47.6954 10.6457 48.5381 11.5173 49.3926 12.3767C50.195 13.1836 50.9971 13.9904 51.7993 14.7972C52.3396 15.3404 52.3399 15.3402 52.9049 14.7742C53.0273 14.6516 53.1489 14.5285 53.2709 14.4057C56.6367 11.0205 60.0026 7.63522 63.3684 4.2499C74.4248 -6.87062 85.4819 -17.9907 96.5345 -29.1152C96.7331 -29.3149 97.0007 -29.4729 97.1049 -29.8636C91.9579 -35.0402 86.799 -40.2282 81.5448 -45.5123C81.7496 -45.673 81.984 -45.8209 82.175 -46.0125Z" fill="#99DDFF"/>
<path d="M269 197.969C253.488 182.372 237.98 166.773 222.47 151.174C222.261 150.964 222.04 150.766 221.768 150.508C222.37 149.904 222.944 149.336 223.509 148.76C223.664 148.602 223.788 148.589 223.937 148.758C224.052 148.888 224.182 149.003 224.304 149.126C226.518 151.354 228.734 153.58 230.945 155.812C231.118 155.986 231.255 156.198 231.372 156.347C233.379 154.328 235.311 152.387 237.27 150.417C229.565 142.667 221.792 134.849 214.06 127.071C214.726 126.391 215.344 125.76 215.933 125.159C224.316 133.591 232.718 142.042 241.173 150.546C238.637 153.097 236.066 155.683 233.507 158.257C233.572 158.535 233.778 158.65 233.93 158.803C235.53 160.421 237.133 162.036 238.742 163.645C239.411 164.315 239.222 164.288 239.843 163.664C245.74 157.739 251.634 151.81 257.527 145.88C261.353 142.03 265.175 138.178 269 134.327V130.394C260.46 138.986 251.918 147.577 243.378 156.168C242.035 157.519 240.696 158.872 239.308 160.272C238.789 159.749 238.289 159.242 237.784 158.738C237.305 158.261 237.362 158.329 237.8 157.887C240.048 155.623 242.296 153.359 244.552 151.102C244.741 150.912 244.984 150.776 245.153 150.652C235.318 140.76 225.597 130.982 215.923 121.251C214.028 123.149 212.093 125.087 210.138 127.046C217.882 134.836 225.653 142.651 233.307 150.35C232.664 151.07 232.078 151.725 231.478 152.396C228.881 149.784 226.309 147.197 223.795 144.668C221.81 146.666 219.896 148.593 217.96 150.541C218.066 150.764 218.314 150.936 218.519 151.142C235.344 168.07 252.172 184.996 269 201.922V197.969Z" fill="#99DDFF"/>
<path d="M44.3991 11.447C44.2376 11.6389 44.0471 11.9018 43.8211 12.129C21.2158 34.8709 -1.39212 57.6103 -24 80.3499V84.2912C-4.28799 64.4693 15.4217 44.6449 35.1312 24.8206C38.0783 21.8561 41.0261 18.8922 43.9717 15.9261C44.1453 15.7515 44.3017 15.5596 44.4212 15.4258C45.0797 16.0982 45.6931 16.725 46.3758 17.4222C46.3538 17.5118 46.1278 17.64 45.9605 17.8082C22.6428 41.2668 -0.677494 64.7229 -24 88.1768V92.1167C0.63368 67.3498 25.2622 42.5777 49.8887 17.8034C50.0555 17.6356 50.2745 17.5045 50.3066 17.3914C48.3253 15.3978 46.3993 13.4596 44.3991 11.447Z" fill="#99DDFF"/>
<path d="M19.0454 -37.7643C18.9531 -37.846 18.8706 -37.9394 18.7834 -38.027C14.511 -42.3243 10.2385 -46.6221 5.9635 -50.9168C5.85099 -51.0299 5.76719 -51.1958 5.72661 -51.1992C3.72527 -49.1856 1.79894 -47.2474 -0.145552 -45.2909C2.37615 -42.7545 4.95001 -40.1656 7.52299 -37.5777C6.85231 -36.9011 6.24375 -36.287 5.59036 -35.6277C3.00054 -38.2325 0.413788 -40.8339 -2.19069 -43.4533C-4.03483 -41.5954 -5.81246 -39.8062 -7.58848 -38.0152C-8.03677 -37.5633 -8.03751 -37.5585 -7.6002 -37.1182C-5.33429 -34.8369 -3.06412 -32.5596 -0.801579 -30.2749C-0.180418 -29.6476 -0.156244 -29.8252 -0.812565 -29.1647C-6.28654 -23.6553 -11.763 -18.1479 -17.2406 -12.6422C-17.4084 -12.4734 -17.5478 -12.2664 -17.8769 -12.1192C-18.0193 -12.2938 -18.1608 -12.5001 -18.3343 -12.6748C-20.2196 -14.577 -22.1087 -16.4752 -24 -18.3712V-14.4308C-22.1148 -12.5361 -20.2294 -10.6416 -18.3488 -8.74191C-18.1762 -8.56758 -18.0465 -8.34973 -17.9485 -8.22066C-10.7368 -15.4743 -3.61379 -22.6389 3.55138 -29.8457C1.0663 -32.346 -1.50536 -34.9329 -4.05564 -37.4988C-3.40195 -38.1664 -2.78665 -38.7949 -2.13956 -39.4553C0.424189 -36.8772 3.00054 -34.2861 5.55022 -31.722C7.51669 -33.6986 9.43423 -35.6255 11.411 -37.6125C8.86992 -40.1685 6.29488 -42.7588 3.76556 -45.303C4.39815 -45.9681 5.0048 -46.6054 5.57073 -47.2002C8.77498 -43.9782 11.9937 -40.741 15.306 -37.4106C15.1218 -37.2624 14.8733 -37.0982 14.6675 -36.8913C7.28595 -29.4739 -0.0910511 -22.0528 -7.46879 -14.6318C-8.04234 -14.055 -8.04263 -14.0536 -7.4559 -13.4632C-5.24126 -11.2349 -3.0253 -9.00781 -0.81242 -6.77764C-0.641014 -6.60477 -0.436352 -6.45841 -0.325012 -6.22797C-0.419945 -5.98331 -0.632664 -5.84224 -0.804508 -5.66936C-8.53385 2.10876 -16.2647 9.88498 -24 17.6568V21.6111C-14.911 12.4695 -5.82184 3.32793 3.26438 -5.8163C3.39506 -5.94772 3.58932 -6.04367 3.59723 -6.29052C1.03202 -8.87141 -1.53862 -11.4576 -4.15379 -14.0887C-3.88892 -14.3265 -3.69627 -14.4831 -3.52208 -14.6582C3.85595 -22.0765 11.2324 -29.4964 18.6092 -36.9159C18.7487 -37.0563 18.8814 -37.2042 19.0287 -37.3356C19.1891 -37.4792 19.2184 -37.6111 19.0454 -37.7643Z" fill="#99DDFF"/>
<path d="M84.2281 234C101.962 216.161 119.697 198.323 137.433 180.485C137.62 180.296 137.816 180.114 137.977 179.958C138.614 180.601 139.22 181.212 139.878 181.876C139.811 182.07 139.556 182.235 139.356 182.437C125.636 196.241 111.913 210.043 98.1916 223.846C94.8283 227.229 91.4675 230.615 88.1061 234H92.024C106.943 218.99 121.864 203.982 136.785 188.974C139 186.746 141.216 184.518 143.431 182.289C143.95 181.766 143.924 181.864 143.451 181.388C141.796 179.719 140.139 178.052 138.479 176.388C137.98 175.886 138.079 175.9 137.579 176.39C137.526 176.442 137.475 176.495 137.422 176.548C118.383 195.698 99.3443 214.848 80.3076 234H84.2281Z" fill="#99DDFF"/>
<path d="M269 190.138C263.86 184.966 258.719 179.794 253.575 174.625C253.384 174.433 253.159 174.275 252.89 174.05C255.544 171.38 258.119 168.79 260.655 166.239C258.701 164.274 256.772 162.334 254.812 160.362C254.642 160.432 254.49 160.664 254.304 160.851C252.033 163.128 249.768 165.409 247.5 167.688C247.098 168.091 247.095 168.086 246.709 167.714C246.194 167.216 245.677 166.72 245.173 166.235C245.354 165.895 245.595 165.718 245.8 165.512C253.532 157.73 261.266 149.95 269 142.171V138.228C259.948 147.332 250.897 156.437 241.841 165.538C241.65 165.729 241.409 165.87 241.228 166.008C243.262 168.054 245.191 169.993 247.141 171.953C249.677 169.401 252.252 166.81 254.794 164.253C255.477 164.927 256.106 165.549 256.787 166.221C254.221 168.801 251.645 171.392 249.009 174.043C249.233 174.245 249.443 174.414 249.632 174.604C256.089 181.095 262.544 187.589 269 194.081L269 190.138Z" fill="#99DDFF"/>
<path d="M269 28.5335C261.798 35.7784 254.596 43.0231 247.393 50.2672C247.307 50.3529 247.214 50.4303 247.169 50.4709C243.929 47.2105 240.711 43.9723 237.531 40.7712C238.088 40.21 238.71 39.5839 239.315 38.9751C241.846 41.5232 244.405 44.0983 247.027 46.7374C254.392 39.3374 261.698 31.9976 269.001 24.6614V20.696C261.859 27.8801 254.718 35.0649 247.574 42.2469C247.421 42.4003 247.304 42.6061 247.026 42.6725C244.468 40.1011 241.898 37.5162 239.401 35.0063C237.421 36.9978 235.493 38.9365 233.689 40.7506C238.164 45.2506 242.688 49.8016 247.266 54.4069C247.311 54.3509 247.407 54.204 247.527 54.0824C254.683 46.8815 261.84 39.6825 269.001 32.4868L269 28.5335Z" fill="#99DDFF"/>
<path d="M-2.30262 89.7585C-2.45527 89.9453 -2.61071 90.1717 -2.80101 90.3632C-9.8648 97.4732 -16.9314 104.581 -24 111.686V115.636C-16.9837 108.579 -9.96706 101.522 -2.95234 94.463C-2.70945 94.2186 -2.4875 93.9528 -2.21179 93.6487C-1.58521 94.2892 -1.01781 94.873 -0.444996 95.4514C-0.312706 95.585 -0.311241 95.6997 -0.441772 95.8276C-0.565565 95.9488 -0.686136 96.0727 -0.808317 96.1953C-8.53722 103.969 -16.2655 111.743 -24 119.511V123.463C-14.959 114.376 -5.92117 105.286 3.11437 96.1933C3.28533 96.0211 3.49776 95.8809 3.57027 95.7066C1.62446 93.736 -0.297764 91.789 -2.30262 89.7585Z" fill="#99DDFF"/>
<path d="M-2.32679 42.7549C-2.47695 42.9421 -2.64293 43.1932 -2.85052 43.4021C-9.89688 50.4959 -16.9468 57.5862 -24 64.6729V68.6258C-16.9408 61.5261 -9.88165 54.426 -2.82401 47.3247C-2.63253 47.132 -2.45805 46.9228 -2.2487 46.6915C-1.55429 47.2455 -1.0206 47.8874 -0.422144 48.459C-0.278866 48.596 -0.344204 48.7183 -0.466532 48.8343C-0.592083 48.9533 -0.708549 49.0816 -0.830292 49.2042C-8.55363 56.9724 -16.2768 64.7406 -24 72.5087V76.4478C-14.9585 67.3612 -5.92043 58.2708 3.1151 49.178C3.28533 49.0069 3.49409 48.8652 3.57189 48.6887C1.62109 46.7262 -0.308458 44.7854 -2.32679 42.7549Z" fill="#99DDFF"/>
<path d="M269 52.054C261.709 59.3815 254.419 66.7076 247.157 74.0052C246.504 73.3504 245.885 72.7288 245.236 72.077C245.404 71.9002 245.602 71.6851 245.808 71.4782C253.538 63.7017 261.269 55.9261 269 48.1514V44.2021C260.041 53.2151 251.082 62.2268 242.122 71.239C241.948 71.4142 241.771 71.5881 241.601 71.7669C241.25 72.1335 241.245 72.1409 241.61 72.5096C243.352 74.2664 245.096 76.0195 246.84 77.7731C246.908 77.8406 246.985 77.8983 247.094 77.9921C247.298 77.7983 247.495 77.6181 247.683 77.4286C254.79 70.278 261.895 63.1266 269 55.9742V52.054Z" fill="#99DDFF"/>
<path d="M269 12.8699C261.88 20.0247 254.764 27.1834 247.647 34.3414C247.092 34.8999 247.091 34.8999 246.545 34.3512C246.094 33.8982 245.643 33.4448 245.198 32.9968C245.369 32.6826 245.61 32.5056 245.814 32.2992C253.541 24.524 261.269 16.7507 269 8.98035V5.02881C259.955 14.1275 250.909 23.2253 241.864 32.3247C241.662 32.5276 241.473 32.7429 241.381 32.8418C243.353 34.8257 245.276 36.7611 247.269 38.7666C247.334 38.6799 247.436 38.5048 247.575 38.3656C254.715 31.1783 261.858 23.9943 269 16.8089V12.8699Z" fill="#99DDFF"/>
<path d="M99.1395 109.281C97.182 107.314 95.2522 105.374 93.3001 103.412C95.8338 100.87 98.3987 98.2973 101.032 95.6562C90.6257 85.1898 80.2604 74.7638 69.9307 64.3741C74.4919 59.7861 79.02 55.2314 83.5222 50.7031C87.9992 55.2065 92.5136 59.7476 96.9841 64.2441C95.0835 66.1417 93.1506 68.0714 91.1604 70.0584C88.7068 67.5906 86.1321 65.0015 83.527 62.3818C82.8329 62.9788 82.2412 63.6288 81.6745 64.2094C90.1118 72.6954 98.5279 81.1599 107.002 89.6824C107.467 89.1938 107.982 88.6254 108.53 88.0908C108.78 87.8469 108.728 87.69 108.502 87.497C108.37 87.385 108.255 87.2536 108.133 87.1308C103.354 82.3238 98.5752 77.517 93.7964 72.7098C93.2247 72.1348 93.2243 72.1333 93.8122 71.5419C97.9982 67.3312 102.184 63.1208 106.371 58.9109C106.527 58.7537 106.69 58.6033 106.826 58.4719C108.769 60.4331 110.697 62.3795 112.646 64.3465C112.552 64.5428 112.327 64.6993 112.141 64.8868C109.876 67.1705 107.608 69.4507 105.34 71.7309C104.96 72.1132 104.881 72.0766 105.332 72.5293C108.371 75.5782 111.404 78.6322 114.44 81.6838C114.491 81.7353 114.551 81.7774 114.65 81.8588C115.334 81.3048 115.9 80.6275 116.58 79.9907C116.397 79.7941 116.241 79.6161 116.075 79.4486C113.791 77.1493 111.505 74.8519 109.222 72.5524C108.813 72.1405 108.81 72.1308 109.179 71.7594C113.538 67.372 117.898 62.9863 122.26 58.6011C122.31 58.5505 122.373 58.5122 122.381 58.5056C124.324 60.4591 126.256 62.4022 128.229 64.3868C125.71 66.9179 123.136 69.5048 120.594 72.06C121.24 72.7068 121.848 73.3151 122.529 73.9957C125.045 71.4657 127.63 68.8656 130.244 66.2381C131.209 67.2109 132.131 68.1409 133.054 69.0701C133.961 69.9831 134.86 70.9031 135.78 71.8023C136.029 72.0461 136.084 72.2268 135.787 72.4518C135.69 72.5258 135.611 72.6249 135.524 72.7126C123.559 84.7475 111.594 96.7822 99.6281 108.816C99.4566 108.99 99.2749 109.153 99.1395 109.281ZM73.8484 64.3686C84.182 74.7625 94.5503 85.1911 104.949 95.6501C102.316 98.2963 99.7525 100.873 97.1061 103.533C97.6574 104.053 98.2119 104.543 98.7249 105.074C98.9882 105.346 99.1794 105.415 99.422 105.084C99.4945 104.985 99.5941 104.907 99.6813 104.819C110.304 94.1345 120.926 83.4498 131.549 72.7653C131.688 72.6249 131.821 72.477 131.968 72.3453C132.139 72.1931 132.119 72.0706 131.963 71.9165C131.391 71.3517 130.829 70.7779 130.254 70.1991C130.09 70.3529 129.98 70.4507 129.876 70.5553C127.556 72.8881 125.236 75.2221 122.915 77.5547C122.386 78.0862 122.487 78.0531 122.02 77.5847C120.361 75.9202 118.704 74.2536 117.049 72.5849C116.559 72.0915 116.551 72.1832 117.051 71.6799C119.316 69.397 121.586 67.1183 123.85 64.8344C124.018 64.6652 124.236 64.5323 124.282 64.3944C123.624 63.7217 123.007 63.0906 122.383 62.4526C122.362 62.4699 122.299 62.5101 122.247 62.562C119.193 65.6315 116.14 68.7008 113.09 71.7732C112.738 72.1277 112.739 72.1413 113.113 72.5177C115.378 74.8006 117.647 77.0797 119.912 79.3634C120.1 79.5534 120.325 79.7139 120.413 79.8915C118.463 81.8536 116.534 83.7932 114.69 85.6482C110.208 81.1394 105.682 76.5869 101.128 72.0058C103.632 69.489 106.195 66.9123 108.714 64.3798C108.078 63.7293 107.46 63.0964 106.882 62.5035C103.704 65.6983 100.484 68.9356 97.2243 72.2121C102.362 77.3793 107.536 82.5843 112.63 87.7086C110.664 89.6956 108.739 91.6399 106.836 93.5627C97.1555 83.8262 87.4424 74.0565 77.7603 64.318C79.6697 62.3985 81.6042 60.4543 83.5884 58.4597C86.117 61.0041 88.6936 63.5972 91.2697 66.1892C91.9117 65.5393 92.5306 64.9127 93.1174 64.3187C89.9097 61.0928 86.6857 57.8507 83.5052 54.6523C80.315 57.8618 77.0919 61.1051 73.8484 64.3686Z" fill="#99DDFF"/>
<path d="M145.748 19.3031C147.704 21.2722 149.635 23.2157 151.528 25.1214C139.256 37.4647 126.948 49.8447 114.599 62.2657C114.454 62.2354 114.339 62.0269 114.187 61.8743C112.543 60.2291 110.904 58.5799 109.266 56.9289C108.71 56.3682 108.77 56.5014 109.287 55.9796C111.534 53.7129 113.785 51.4505 116.038 49.19C116.209 49.0176 116.407 48.8714 116.562 48.7388C115.866 48.0492 115.242 47.4313 114.575 46.7718C112.05 49.3113 109.475 51.901 106.929 54.462C104.97 52.4926 103.053 50.5646 101.071 48.5712C108.794 40.8026 116.565 32.987 124.309 25.1976C123.656 24.5508 123.03 23.9301 122.38 23.2862C117.262 28.4345 112.089 33.6374 106.967 38.7895C104.986 36.7923 103.057 34.8468 101.034 32.8077C101.181 32.6956 101.396 32.5681 101.567 32.396C110.954 22.9607 120.338 13.5217 129.721 4.08311C129.809 3.9955 129.906 3.91566 129.982 3.81941C130.168 3.58501 130.32 3.62164 130.514 3.82776C130.955 4.29583 131.418 4.74368 131.871 5.19973C133.109 6.44542 134.351 7.68774 135.585 8.93812C136.147 9.5083 136.179 9.36634 135.605 9.94502C133.357 12.2109 131.105 14.4717 128.857 16.7371C128.686 16.9096 128.479 17.0535 128.343 17.3614C130.903 19.9347 133.481 22.5263 136.073 25.1318C130.887 30.3469 125.727 35.5365 120.609 40.6842C121.256 41.3296 121.878 41.9488 122.559 42.6271C130.242 34.8998 138.013 27.0833 145.748 19.3031ZM132.238 25.1092C129.583 22.4441 127.008 19.8594 124.364 17.2048C124.59 17.0129 124.812 16.8513 125.004 16.6591C127.205 14.4525 129.401 12.2414 131.598 10.0315C131.72 9.90868 131.837 9.77947 131.965 9.66447C132.134 9.51401 132.118 9.39051 131.961 9.23522C131.389 8.6712 130.827 8.09736 130.317 7.58299C121.859 16.0895 113.459 24.5389 105.087 32.959C105.67 33.5504 106.291 34.179 106.971 34.8683C112.105 29.7045 117.277 24.5013 122.39 19.3587C124.329 21.3103 126.259 23.2515 128.271 25.2748C128.112 25.4022 127.883 25.5542 127.693 25.7453C120.296 33.179 112.903 40.6166 105.509 48.0533C105.387 48.1761 105.266 48.3006 105.143 48.4218C105.025 48.5378 104.962 48.6518 105.107 48.7971C105.691 49.3828 106.273 49.9716 106.922 50.6259C107.137 50.3677 107.283 50.1644 107.457 49.9893C109.703 47.7237 111.953 45.4614 114.203 43.1995C114.72 42.6797 114.62 42.6982 115.098 43.1775C116.757 44.842 118.413 46.5085 120.069 48.1758C120.567 48.6779 120.558 48.5831 120.066 49.0793C117.818 51.3437 115.567 53.6046 113.318 55.8681C113.132 56.0559 112.953 56.2512 112.681 56.5366C113.159 56.9765 113.622 57.3844 114.064 57.814C114.667 58.4008 114.661 58.4088 115.278 57.788C125.916 47.0888 136.553 36.3894 147.19 25.6895C147.362 25.5167 147.526 25.3362 147.683 25.1706C147.032 24.5355 146.4 23.9198 145.725 23.2622C138.013 31.0201 130.242 38.8366 122.515 46.6102C120.549 44.6364 118.617 42.6982 116.679 40.7535C121.817 35.5878 126.977 30.3988 132.238 25.1092Z" fill="#99DDFF"/>
<path d="M169.194 7.40985C164.686 2.87319 160.173 -1.66758 155.723 -6.14506C157.621 -8.05703 159.544 -9.99361 161.521 -11.9847C164.003 -9.48936 166.577 -6.89968 169.181 -4.28143C176.983 -12.1294 184.756 -19.9477 192.493 -27.7295C194.467 -25.7434 196.4 -23.7985 198.311 -21.8756C188.63 -12.139 178.92 -2.37283 169.194 7.40985ZM169.113 3.37539C177.518 -5.0784 185.93 -13.5395 194.31 -21.9681C193.779 -22.5265 193.184 -23.1521 192.575 -23.7924C184.789 -15.9601 177.015 -8.14112 169.173 -0.252831C166.539 -2.90272 163.963 -5.49431 161.405 -8.0689C160.789 -7.43777 160.176 -6.80973 159.591 -6.20981C162.773 -3.00732 165.978 0.219778 169.113 3.37539Z" fill="#99DDFF"/>
<path d="M136.06 -21.8356C130.902 -16.649 125.73 -11.4477 120.521 -6.20841C123.12 -3.59411 125.696 -1.00355 128.232 1.54584C126.27 3.51847 124.341 5.45842 122.453 7.35676C117.963 2.8409 113.437 -1.71056 108.945 -6.22891C116.034 -13.3586 123.158 -20.5248 130.254 -27.6619C132.156 -25.7527 134.09 -23.8118 136.06 -21.8356ZM124.409 1.48622C124.202 1.33092 123.982 1.2045 123.809 1.03104C121.589 -1.19166 119.376 -3.4208 117.161 -5.64863C117.039 -5.77125 116.925 -5.90207 116.796 -6.01678C116.623 -6.17061 116.654 -6.29996 116.811 -6.4409C116.94 -6.55619 117.056 -6.68526 117.179 -6.80788C121.974 -11.6317 126.769 -16.4559 131.569 -21.2758C131.759 -21.4674 131.992 -21.6174 132.177 -21.7639C131.466 -22.4828 130.845 -23.1113 130.268 -23.6951C124.473 -17.867 118.658 -12.0171 112.915 -6.24137C116.093 -3.04517 119.31 0.19101 122.52 3.42002C123.072 2.85482 123.675 2.23776 124.409 1.48622Z" fill="#99DDFF"/>
<path d="M159.44 32.7906C149.632 42.6562 139.922 52.4227 130.279 62.1218C128.424 60.2564 126.484 58.3044 124.467 56.2754C124.608 56.1567 124.87 55.9685 125.095 55.7426C134.411 46.3783 143.724 37.0106 153.037 27.6431C153.61 27.0664 153.611 27.0664 154.195 27.6541C155.765 29.2329 157.332 30.8141 158.907 32.3871C159.08 32.5595 159.299 32.6848 159.44 32.7906ZM130.21 58.2313C138.59 49.8021 147.006 41.3372 155.335 32.9596C154.772 32.3834 154.159 31.7554 153.59 31.1735C145.224 39.5882 136.823 48.0383 128.443 56.4667C129.033 57.0556 129.658 57.6797 130.21 58.2313Z" fill="#99DDFF"/>
<path d="M69.8717 126.96C67.2542 124.327 64.6932 121.752 62.179 119.223C64.1194 117.272 66.0466 115.334 67.9298 113.44C72.3959 117.932 76.9232 122.485 81.559 127.148C81.4198 127.248 81.1939 127.367 81.0214 127.54C76.831 131.746 72.6462 135.957 68.4605 140.167C68.4432 140.185 68.4257 140.202 68.408 140.219C67.8692 140.747 67.9988 140.778 67.4613 140.239C66.0808 138.856 64.7076 137.466 63.3256 136.084C62.9239 135.682 62.5023 135.301 62.0273 134.852C64.657 132.206 67.2307 129.617 69.8717 126.96ZM67.8459 117.261C67.3258 117.789 66.7783 118.357 66.2161 118.91C66.0227 119.1 66.0561 119.235 66.2378 119.395C66.3674 119.509 66.4814 119.64 66.6033 119.763C68.799 121.971 70.9961 124.178 73.1892 126.389C73.3777 126.579 73.6038 126.74 73.7698 127.1C73.6055 127.232 73.395 127.369 73.2211 127.543C71.0041 129.765 68.7924 131.992 66.5795 134.218C66.4575 134.341 66.3432 134.472 66.2143 134.587C66.0551 134.729 66.0283 134.852 66.1934 135.017C66.7681 135.59 67.3343 136.172 67.8459 136.692C71.1095 133.408 74.327 130.17 77.5032 126.975C74.3221 123.775 71.104 120.538 67.8459 117.261Z" fill="#99DDFF"/>
<path d="M145.638 15.2598C145.563 15.1631 145.428 14.9504 145.254 14.7759C141.094 10.5845 136.93 6.39712 132.766 2.20912C132.679 2.12152 132.601 2.02263 132.504 1.94792C132.235 1.74106 132.202 1.57332 132.473 1.30375C134.312 -0.524858 136.135 -2.37076 137.898 -4.14575C142.437 0.420214 146.959 4.96845 151.414 9.44974C149.591 11.2835 147.652 13.2344 145.638 15.2598ZM136.099 1.55178C139.404 4.87835 142.606 8.1015 145.851 11.367C146.41 10.8049 146.978 10.2268 147.555 9.65763C147.725 9.48915 147.679 9.36506 147.527 9.22721C147.417 9.12788 147.319 9.01581 147.215 8.91077C144.324 6.00303 141.433 3.09545 138.543 0.187864C138.455 0.100257 138.361 0.0190969 138.282 -0.0746632C138.125 -0.257788 137.993 -0.292655 137.799 -0.0973701C137.243 0.46182 136.669 1.00167 136.099 1.55178Z" fill="#99DDFF"/>
<path d="M13.3908 148.376C11.5058 146.479 9.57886 144.539 7.69238 142.641C12.1765 138.131 16.7005 133.58 21.1721 129.083C23.0637 130.986 24.9917 132.926 26.8713 134.817C22.3912 139.323 17.8693 143.871 13.3908 148.376ZM11.4952 142.696C12.0483 143.246 12.6138 143.796 13.1634 144.361C13.3507 144.554 13.4872 144.535 13.6454 144.344C13.7241 144.25 13.8186 144.169 13.9054 144.081C16.7793 141.191 19.6529 138.301 22.5265 135.411C22.6484 135.288 22.7634 135.158 22.8909 135.042C23.0437 134.902 23.0865 134.779 22.9161 134.612C22.3399 134.044 21.7731 133.467 21.2222 132.913C17.9786 136.175 14.7752 139.397 11.4952 142.696Z" fill="#99DDFF"/>
<path d="M101.17 1.55306C103.035 -0.323169 104.951 -2.24935 106.89 -4.20044C107.055 -4.17378 107.153 -3.98728 107.285 -3.85499C111.521 0.401858 115.755 4.6615 119.989 8.92113C120.094 9.02617 120.191 9.13956 120.302 9.23727C120.468 9.38407 120.475 9.51855 120.305 9.66652C120.212 9.74753 120.131 9.84188 120.044 9.92919C118.406 11.5769 116.766 13.2225 115.132 14.8746C114.995 15.0135 114.9 15.1947 114.83 15.2933C110.22 10.6566 105.695 6.10481 101.17 1.55306ZM116.421 9.52222C113.196 6.27988 109.984 3.04955 106.724 -0.227651C106.307 0.207015 105.835 0.710684 105.35 1.20161C104.845 1.71216 104.958 1.63305 105.37 2.04823C108.346 5.04488 111.325 8.0389 114.304 11.0323C114.422 11.1513 114.517 11.3104 114.636 11.3183C115.279 10.672 115.886 10.061 116.421 9.52222Z" fill="#99DDFF"/>
<path d="M62.1416 103.529C64.0861 101.576 66.0173 99.6354 67.9767 97.667C68.143 97.7464 68.2839 97.9509 68.4518 98.1197C72.6539 102.342 76.8536 106.567 81.0537 110.791C81.1409 110.879 81.2204 110.976 81.3164 111.053C81.5578 111.245 81.4981 111.399 81.2996 111.591C80.7667 112.106 80.2503 112.639 79.7276 113.165C78.5597 114.339 77.3942 115.516 76.2236 116.687C75.6567 117.255 75.7913 117.275 75.2223 116.704C73.0585 114.533 70.8991 112.358 68.7379 110.185C66.6466 108.081 64.5553 105.977 62.4646 103.873C62.3435 103.751 62.2289 103.622 62.1416 103.529ZM66.1287 103.37C69.3894 106.649 72.6038 109.883 75.82 113.118C76.3694 112.568 76.9781 111.959 77.5111 111.425C74.2778 108.172 71.0507 104.926 67.8498 101.706C67.2934 102.244 66.6743 102.843 66.1287 103.37Z" fill="#99DDFF"/>
<path d="M143.838 17.2416C141.866 19.2277 139.954 21.1528 138.021 23.0998C137.826 23.0519 137.709 22.8478 137.558 22.6965C135.882 21.0183 134.21 19.3365 132.541 17.6522C132.183 17.2918 132.184 17.2801 132.546 16.9153C134.251 15.1964 135.959 13.4808 137.665 11.7639C137.854 11.5739 137.992 11.341 138.307 11.6624C140.139 13.5317 141.99 15.382 143.838 17.2416ZM136.056 17.2821C136.662 17.8777 137.229 18.4245 137.782 18.9845C137.954 19.1587 138.075 19.1928 138.265 19.0013C138.821 18.4417 139.394 17.8999 140.045 17.2701C139.416 16.6724 138.841 16.1372 138.281 15.5876C138.109 15.4191 137.99 15.3741 137.798 15.5696C137.245 16.1328 136.674 16.6775 136.056 17.2821Z" fill="#99DDFF"/>
<path d="M138.039 58.5698C139.924 60.4658 141.852 62.4045 143.829 64.3928C143.43 64.7842 142.987 65.2098 142.553 65.6446C141.175 67.0264 139.798 68.4098 138.424 69.796C138.014 70.2106 138.041 70.2015 137.629 69.7857C135.907 68.049 134.18 66.3166 132.457 64.5813C132.373 64.4971 132.267 64.4256 132.261 64.3794C134.226 62.403 136.153 60.4655 138.039 58.5698ZM140.005 64.317C139.383 63.6998 138.804 63.1277 138.229 62.5524C138.106 62.4294 137.989 62.3872 137.855 62.5302C137.289 63.1323 136.648 63.663 136.113 64.3534C136.673 64.9032 137.211 65.4136 137.727 65.9458C137.938 66.1637 138.08 66.2149 138.317 65.9682C138.848 65.4169 139.41 64.8954 140.005 64.317Z" fill="#99DDFF"/>
<path d="M104.782 56.517C102.912 58.3974 100.999 60.3213 99.0553 62.276C98.8906 62.2522 98.795 62.0588 98.6628 61.927C96.9864 60.2493 95.3172 58.5644 93.6427 56.8849C93.148 56.3887 93.2384 56.4516 93.6515 56.0352C95.4425 54.231 97.2353 52.4287 98.9739 50.6794C100.927 52.6421 102.855 54.5806 104.782 56.517ZM97.1876 56.5251C97.7389 57.0714 98.3027 57.6224 98.8562 58.1833C99.0042 58.3335 99.1207 58.3742 99.2833 58.2085C99.8521 57.6287 100.427 57.0553 100.927 56.5534C100.282 55.8685 99.6776 55.2258 99.0977 54.6093C98.4816 55.2271 97.8739 55.8368 97.1876 56.5251Z" fill="#99DDFF"/>
<path d="M38.8633 119.152C43.3456 114.643 47.8683 110.094 52.3332 105.603C54.2168 107.497 56.143 109.434 58.036 111.338C53.559 115.839 49.0346 120.388 44.5577 124.89C42.6636 122.981 40.735 121.037 38.8633 119.152ZM54.2518 111.261C53.6763 110.692 53.1132 110.141 52.5593 109.581C52.4035 109.423 52.2773 109.414 52.1311 109.581C52.05 109.673 51.9563 109.755 51.8691 109.842C48.927 112.802 45.9839 115.76 43.0457 118.723C42.915 118.855 42.7205 118.951 42.7165 118.995C43.3916 119.735 43.982 120.382 44.5558 121.011C47.7746 117.775 50.9774 114.554 54.2518 111.261Z" fill="#99DDFF"/>
<path d="M208.165 11.5674C210.012 13.4309 211.94 15.3767 213.908 17.3615C213.87 17.4845 213.674 17.6048 213.523 17.757C209.325 21.9838 205.125 26.2074 200.925 30.4312C200.803 30.5539 200.673 30.6689 200.558 30.7974C200.408 30.9637 200.276 30.9622 200.13 30.7935C200.033 30.6817 199.922 30.5825 199.817 30.4775C198.231 28.8828 196.646 27.2867 195.057 25.6953C194.884 25.5224 194.685 25.3762 194.55 25.2618C199.144 20.6406 203.671 16.0876 208.165 11.5674ZM208.151 15.4871C204.957 18.7002 201.738 21.9372 198.556 25.1386C199.143 25.7199 199.766 26.3377 200.36 26.9256C203.545 23.7194 206.761 20.4818 209.936 17.2862C209.346 16.6917 208.724 16.0646 208.151 15.4871Z" fill="#99DDFF"/>
<path d="M46.5605 127.056C48.5149 125.09 50.4435 123.15 52.328 121.255C54.2122 123.152 56.138 125.09 58.0982 127.063C58.056 127.194 57.8605 127.315 57.7088 127.468C56.057 129.136 54.402 130.8 52.7453 132.462C52.3464 132.862 52.3369 132.864 51.9557 132.481C50.1435 130.662 48.3342 128.84 46.5605 127.056ZM50.3498 127.023C50.9574 127.599 51.5335 128.132 52.0936 128.683C52.2704 128.856 52.3895 128.883 52.5758 128.693C53.1299 128.131 53.7007 127.586 54.3166 126.983C53.7115 126.389 53.1445 125.841 52.5903 125.281C52.4178 125.106 52.2947 125.074 52.1072 125.268C51.5584 125.834 50.9925 126.384 50.3498 127.023Z" fill="#99DDFF"/>
<path d="M245.092 181.785C245.009 182.049 244.811 182.172 244.658 182.326C237.843 189.186 231.026 196.043 224.206 202.898C223.668 203.439 223.805 203.47 223.205 202.87C222.052 201.715 220.904 200.554 219.751 199.4C219.14 198.788 218.521 198.185 217.932 197.604C217.973 197.29 218.187 197.178 218.338 197.026C225.153 190.166 231.97 183.309 238.789 176.453C239.378 175.861 239.243 175.886 239.79 176.43C240.422 177.057 241.047 177.691 241.674 178.323C242.65 179.305 243.628 180.286 244.603 181.269C244.773 181.441 244.936 181.621 245.092 181.785ZM221.929 197.518C222.511 198.097 223.133 198.716 223.711 199.292C229.494 193.475 235.307 187.629 241.112 181.79C240.533 181.206 239.915 180.583 239.341 180.005C233.53 185.849 227.717 191.697 221.929 197.518Z" fill="#99DDFF"/>
<path d="M247.054 132.729C245.185 130.849 243.273 128.924 241.43 127.069C243.317 125.172 245.24 123.237 247.095 121.372C248.905 123.193 250.845 125.143 252.723 127.032C250.89 128.874 248.959 130.814 247.054 132.729ZM247.067 128.806C247.681 128.19 248.303 127.567 248.963 126.905C248.443 126.388 247.879 125.838 247.33 125.273C247.148 125.085 247.028 125.1 246.848 125.277C246.289 125.832 245.713 126.371 245.196 126.866C245.874 127.569 246.485 128.202 247.067 128.806Z" fill="#99DDFF"/>
<path d="M239.232 124.852C237.391 123 235.478 121.077 233.627 119.214C235.529 117.301 237.466 115.353 239.38 113.427C241.22 115.278 243.133 117.202 245.018 119.098C243.109 120.996 241.172 122.922 239.232 124.852ZM239.283 120.988C239.922 120.341 240.525 119.729 241.114 119.132C240.528 118.538 239.912 117.914 239.286 117.279C238.69 117.892 238.079 118.523 237.484 119.136C238.074 119.743 238.686 120.374 239.283 120.988Z" fill="#99DDFF"/>
<path d="M169.183 117.077C167.298 115.18 165.382 113.252 163.537 111.396C186.198 88.6032 208.909 65.7595 231.631 42.905C232.096 43.2881 236.912 48.1494 237.261 48.6021C214.556 71.4387 191.856 94.2714 169.183 117.077ZM169.258 113.269C169.41 113.086 169.525 112.921 169.664 112.782C190.729 91.5901 211.797 70.4003 232.864 49.2102C232.986 49.0875 233.099 48.9549 233.229 48.8411C233.4 48.6908 233.388 48.563 233.228 48.4118C232.644 47.8583 232.123 47.2364 231.607 46.8176C210.176 68.3741 188.783 89.8912 167.404 111.395C167.956 111.952 168.563 112.566 169.258 113.269Z" fill="#99DDFF"/>
<path d="M239.342 15.2808C239.052 15.1721 238.901 14.9333 238.712 14.7443C233.948 9.9579 229.187 5.16794 224.426 0.378558C224.286 0.238358 224.139 0.104604 224.009 -0.0443859C223.835 -0.243627 223.692 -0.30955 223.47 -0.0783739C222.924 0.491219 222.354 1.03766 221.773 1.61414C226.984 6.85327 232.147 12.0441 237.283 17.2076C235.33 19.1502 233.392 21.0784 231.509 22.9523C224.476 15.8783 217.351 8.7125 210.18 1.49914C210.208 1.41592 210.4 1.28862 210.555 1.13303C214.774 -3.11415 218.995 -7.35913 223.216 -11.6046C223.234 -11.6221 223.251 -11.6397 223.268 -11.6573C223.766 -12.1478 223.674 -12.1554 224.169 -11.6577C231.007 -4.78132 237.844 2.09598 244.68 8.97313C244.768 9.06073 244.848 9.1564 244.94 9.238C245.106 9.38421 245.113 9.52001 244.943 9.66827C244.85 9.74929 244.769 9.84407 244.682 9.93167C243.042 11.5808 241.403 13.2297 239.762 14.878C239.624 15.0165 239.48 15.1487 239.342 15.2808ZM241.095 9.48089C235.281 3.63379 229.478 -2.20351 223.728 -7.98601C220.554 -4.78747 217.338 -1.54689 214.149 1.66658C219.904 7.45553 225.71 13.2955 231.478 19.0969C232.079 18.4991 232.704 17.8762 233.37 17.2133C228.24 12.0539 223.07 6.85313 217.971 1.72489C219.947 -0.262818 221.874 -2.20277 223.828 -4.1688C228.949 0.981698 234.121 6.18333 239.253 11.3463C239.916 10.6759 240.521 10.0622 241.095 9.48089Z" fill="#99DDFF"/>
<path d="M223.752 35.043C225.649 36.9504 227.563 38.8757 229.496 40.8195C229.442 41.0036 229.244 41.1232 229.092 41.2761C227.459 42.926 225.821 44.5726 224.183 46.2175C223.692 46.7093 223.79 46.7489 223.288 46.2442C221.598 44.5455 219.908 42.8464 218.219 41.1467C218.116 41.0424 218.02 40.9307 217.961 40.8666C219.904 38.9131 221.83 36.9753 223.752 35.043ZM225.715 40.8009C225.078 40.1797 224.497 39.6157 223.92 39.0473C223.795 38.9245 223.685 38.8858 223.547 39.0248C222.966 39.6104 222.383 40.1929 221.763 40.8148C222.36 41.3978 222.898 41.9072 223.416 42.4351C223.623 42.646 223.765 42.7139 224.007 42.4625C224.537 41.9124 225.101 41.3945 225.715 40.8009Z" fill="#99DDFF"/>
<path d="M130.215 164.056C128.352 162.182 126.436 160.255 124.591 158.398C136.856 146.062 149.173 133.673 161.44 121.335C163.252 123.155 165.183 125.094 167.069 126.987C154.821 139.307 142.502 151.697 130.215 164.056ZM163.272 126.973C163.227 126.902 163.207 126.854 163.173 126.819C162.773 126.415 162.371 126.012 161.97 125.609C161.401 125.038 161.401 125.037 160.811 125.63C150.174 136.328 139.538 147.027 128.901 157.725C128.779 157.848 128.664 157.978 128.537 158.095C128.385 158.234 128.338 158.357 128.509 158.526C129.086 159.095 129.654 159.673 130.207 160.23C141.251 149.121 152.252 138.056 163.272 126.973Z" fill="#99DDFF"/>
<path d="M155.458 173.901C155.724 173.704 155.946 173.58 156.118 173.407C162.886 166.608 169.649 159.803 176.415 153.001C177.077 152.336 176.896 152.356 177.518 152.978C179.161 154.622 180.798 156.272 182.434 157.923C182.828 158.32 182.828 158.331 182.443 158.719C175.558 165.646 168.67 172.571 161.786 179.5C161.565 179.723 161.419 179.92 161.088 179.581C159.275 177.724 157.436 175.891 155.458 173.901ZM177.051 156.512C171.211 162.386 165.397 168.233 159.68 173.984C160.248 174.557 160.868 175.182 161.397 175.715C167.158 169.92 172.969 164.075 178.788 158.223C178.23 157.673 177.615 157.068 177.051 156.512Z" fill="#99DDFF"/>
<path d="M58.0923 -6.31066C50.9375 0.885858 43.8134 8.05191 36.6582 15.249C35.681 14.2634 34.6565 13.2283 33.6304 12.1945C32.8291 11.3873 32.0354 10.572 31.2186 9.78119C30.9586 9.5295 30.9457 9.35195 31.2249 9.13C31.3594 9.02305 31.4707 8.8871 31.5929 8.76433C38.3227 1.99545 45.0516 -4.77373 51.7831 -11.5406C52.4387 -12.1995 52.2625 -12.184 52.888 -11.5589C54.497 -9.95075 56.0986 -8.33544 57.6998 -6.71925C57.8526 -6.56513 58.0442 -6.44031 58.0923 -6.31066ZM52.3546 -8.00786C46.5747 -2.19474 40.7625 3.65104 34.9831 9.46402C35.5593 10.0446 36.1768 10.6671 36.7606 11.2554C42.5415 5.44054 48.3572 -0.409349 54.1299 -6.21602C53.5499 -6.80144 52.9318 -7.42538 52.3546 -8.00786Z" fill="#99DDFF"/>
<path d="M19.2011 -6.27473C6.83356 6.16532 -5.47273 18.5434 -17.743 30.8854C-19.6485 28.9708 -21.5791 27.0307 -23.5322 25.0679C-23.4615 24.8888 -23.2483 24.7478 -23.0769 24.5754C-11.136 12.5609 0.807283 0.548364 12.7504 -11.4639C13.3913 -12.1088 13.3916 -12.1078 14.0147 -11.4819C15.7415 -9.7478 17.4686 -8.01427 19.2011 -6.27473ZM13.304 -8.20633C13.1575 -8.00856 13.0572 -7.83159 12.9192 -7.69241C2.21486 3.0793 -8.49224 13.8482 -19.1992 24.6174C-19.2864 24.7052 -19.3658 24.8019 -19.4603 24.8803C-19.6592 25.0455 -19.6419 25.1823 -19.4635 25.3656C-18.9126 25.9318 -18.3786 26.5142 -17.9033 27.0206C-6.81116 15.8641 4.2033 4.78529 15.2002 -6.27546C14.6405 -6.84534 14.0358 -7.46123 13.304 -8.20633Z" fill="#99DDFF"/>
<path d="M75.655 19.338C77.5976 21.2916 79.5228 23.2276 81.4808 25.1962C81.4745 25.261 81.3629 25.3291 81.2797 25.413C79.5579 27.1473 77.8303 28.876 76.1126 30.6145C75.6328 31.1002 75.661 30.954 75.3182 30.6094C73.6122 28.8942 71.9094 27.1759 70.1972 25.4668C69.9772 25.2472 69.854 25.105 70.143 24.8185C71.9667 23.0119 73.7723 21.1864 75.5855 19.3692C75.6161 19.3383 75.6706 19.3314 75.655 19.338ZM77.6289 25.1074C77.0612 24.5376 76.4888 23.9643 75.9188 23.3887C75.8016 23.2703 75.6869 23.2073 75.5455 23.3494C74.9603 23.9372 74.3747 24.5241 73.7732 25.1277C74.4852 25.7824 75.0445 26.4684 75.7338 27.0223C76.3719 26.3773 76.9777 25.7655 77.6289 25.1074Z" fill="#99DDFF"/>
<path d="M213.846 158.325C211.933 160.25 210.021 162.174 208.082 164.125C208.012 164.115 207.943 164.007 207.859 163.923C206.134 162.19 204.413 160.453 202.687 158.723C202.258 158.292 202.279 158.324 202.677 157.924C204.402 156.192 206.125 154.457 207.849 152.724C207.933 152.639 208.028 152.566 208.074 152.526C210.024 154.485 211.952 156.422 213.846 158.325ZM208.114 156.346C207.544 156.94 207.02 157.497 206.481 158.039C206.293 158.227 206.228 158.357 206.455 158.577C207.015 159.121 207.55 159.691 208.126 160.283C208.737 159.668 209.289 159.106 209.849 158.553C210 158.404 210.036 158.286 209.871 158.122C209.296 157.549 208.729 156.968 208.114 156.346Z" fill="#99DDFF"/>
</g>
<defs>
<clipPath id="clip0_639_1954">
<rect width="293" height="293" fill="white" transform="translate(-24 -59)"/>
</clipPath>
</defs>
</svg>
