<svg width="418" height="215" viewBox="0 0 418 215" fill="none" xmlns="http://www.w3.org/2000/svg">
<path d="M15.3665 160.388V163.412H9.9625V168.788H6.9665V163.412H1.5625V160.388H6.9385V155.012H9.9625V160.388H15.3665ZM25.9404 171V166.912H16.0564V163.608L25.6324 151.4H29.7484V163.608H32.2404V166.912H29.7484V171H25.9404ZM19.9764 163.608H25.9404V155.936L19.9764 163.608ZM40.2478 171.224C38.3251 171.224 36.7011 170.729 35.3758 169.74C34.0505 168.751 33.2571 167.435 32.9958 165.792L36.4398 165.148C36.6265 166.007 37.0465 166.688 37.6998 167.192C38.3531 167.677 39.1558 167.92 40.1078 167.92C41.1345 167.92 41.9651 167.603 42.5998 166.968C43.2345 166.333 43.5518 165.493 43.5518 164.448C43.5518 163.365 43.2158 162.516 42.5438 161.9C41.8905 161.265 41.0038 160.948 39.8838 160.948C38.3345 160.948 37.1118 161.611 36.2158 162.936L33.4718 162.348L35.0958 151.4H45.9038V154.676H37.8678L37.1398 159.352C38.1665 158.419 39.3985 157.952 40.8358 157.952C42.7771 157.952 44.3451 158.559 45.5398 159.772C46.7531 160.967 47.3598 162.525 47.3598 164.448C47.3598 166.501 46.7065 168.144 45.3998 169.376C44.1118 170.608 42.3945 171.224 40.2478 171.224ZM52.8213 161.032C51.44 161.032 50.3293 160.575 49.4893 159.66C48.6493 158.745 48.2293 157.56 48.2293 156.104C48.2293 154.648 48.6493 153.463 49.4893 152.548C50.3293 151.633 51.44 151.176 52.8213 151.176C54.184 151.176 55.2853 151.633 56.1253 152.548C56.9653 153.463 57.3853 154.648 57.3853 156.104C57.3853 157.56 56.9653 158.745 56.1253 159.66C55.2853 160.575 54.184 161.032 52.8213 161.032ZM50.5253 171L63.6293 151.4H66.4853L53.3813 171H50.5253ZM52.8213 158.624C53.4 158.624 53.848 158.4 54.1653 157.952C54.5013 157.504 54.6693 156.888 54.6693 156.104C54.6693 155.32 54.5013 154.704 54.1653 154.256C53.848 153.808 53.4 153.584 52.8213 153.584C52.224 153.584 51.7573 153.808 51.4213 154.256C51.0853 154.704 50.9173 155.32 50.9173 156.104C50.9173 156.888 51.0853 157.504 51.4213 157.952C51.7573 158.4 52.224 158.624 52.8213 158.624ZM67.5773 169.852C66.7373 170.767 65.636 171.224 64.2733 171.224C62.9107 171.224 61.8 170.767 60.9413 169.852C60.1013 168.937 59.6813 167.752 59.6813 166.296C59.6813 164.84 60.1013 163.655 60.9413 162.74C61.8 161.825 62.9107 161.368 64.2733 161.368C65.636 161.368 66.7373 161.825 67.5773 162.74C68.4173 163.655 68.8373 164.84 68.8373 166.296C68.8373 167.752 68.4173 168.937 67.5773 169.852ZM62.9013 168.144C63.2373 168.592 63.6947 168.816 64.2733 168.816C64.852 168.816 65.3093 168.592 65.6453 168.144C65.9813 167.696 66.1493 167.08 66.1493 166.296C66.1493 165.512 65.9813 164.896 65.6453 164.448C65.3093 164 64.852 163.776 64.2733 163.776C63.6947 163.776 63.2373 164 62.9013 164.448C62.5653 164.896 62.3973 165.512 62.3973 166.296C62.3973 167.08 62.5653 167.696 62.9013 168.144Z" fill="#004466"/>
<path d="M7.3865 187.835V195H6.4165V191.74H2.5515V195H1.5815V187.835H2.5515V191.03H6.4165V187.835H7.3865ZM9.7701 189.935V195H8.8801V189.935H9.7701ZM9.9601 188.345C9.9601 188.432 9.94176 188.513 9.9051 188.59C9.87176 188.663 9.8251 188.73 9.7651 188.79C9.70843 188.847 9.6401 188.892 9.5601 188.925C9.48343 188.958 9.40176 188.975 9.3151 188.975C9.22843 188.975 9.14676 188.958 9.0701 188.925C8.99676 188.892 8.93176 188.847 8.8751 188.79C8.81843 188.73 8.77343 188.663 8.7401 188.59C8.70676 188.513 8.6901 188.432 8.6901 188.345C8.6901 188.258 8.70676 188.177 8.7401 188.1C8.77343 188.02 8.81843 187.952 8.8751 187.895C8.93176 187.835 8.99676 187.788 9.0701 187.755C9.14676 187.722 9.22843 187.705 9.3151 187.705C9.40176 187.705 9.48343 187.722 9.5601 187.755C9.6401 187.788 9.70843 187.835 9.7651 187.895C9.8251 187.952 9.87176 188.02 9.9051 188.1C9.94176 188.177 9.9601 188.258 9.9601 188.345ZM12.8974 192.525C13.0774 192.525 13.2358 192.5 13.3724 192.45C13.5091 192.4 13.6241 192.33 13.7174 192.24C13.8108 192.15 13.8808 192.043 13.9274 191.92C13.9741 191.793 13.9974 191.655 13.9974 191.505C13.9974 191.195 13.9024 190.948 13.7124 190.765C13.5258 190.582 13.2541 190.49 12.8974 190.49C12.5374 190.49 12.2624 190.582 12.0724 190.765C11.8858 190.948 11.7924 191.195 11.7924 191.505C11.7924 191.655 11.8158 191.793 11.8624 191.92C11.9124 192.043 11.9841 192.15 12.0774 192.24C12.1708 192.33 12.2858 192.4 12.4224 192.45C12.5591 192.5 12.7174 192.525 12.8974 192.525ZM14.5024 195.275C14.5024 195.152 14.4674 195.052 14.3974 194.975C14.3274 194.898 14.2324 194.838 14.1124 194.795C13.9958 194.752 13.8591 194.722 13.7024 194.705C13.5458 194.685 13.3791 194.67 13.2024 194.66C13.0291 194.65 12.8524 194.64 12.6724 194.63C12.4924 194.62 12.3191 194.603 12.1524 194.58C11.9658 194.667 11.8124 194.777 11.6924 194.91C11.5758 195.04 11.5174 195.193 11.5174 195.37C11.5174 195.483 11.5458 195.588 11.6024 195.685C11.6624 195.785 11.7524 195.87 11.8724 195.94C11.9924 196.013 12.1424 196.07 12.3224 196.11C12.5058 196.153 12.7208 196.175 12.9674 196.175C13.2074 196.175 13.4224 196.153 13.6124 196.11C13.8024 196.067 13.9624 196.005 14.0924 195.925C14.2258 195.845 14.3274 195.75 14.3974 195.64C14.4674 195.53 14.5024 195.408 14.5024 195.275ZM15.4074 190.135V190.465C15.4074 190.575 15.3374 190.645 15.1974 190.675L14.6224 190.75C14.7358 190.97 14.7924 191.213 14.7924 191.48C14.7924 191.727 14.7441 191.952 14.6474 192.155C14.5541 192.355 14.4241 192.527 14.2574 192.67C14.0908 192.813 13.8908 192.923 13.6574 193C13.4241 193.077 13.1708 193.115 12.8974 193.115C12.6608 193.115 12.4374 193.087 12.2274 193.03C12.1208 193.097 12.0391 193.168 11.9824 193.245C11.9258 193.318 11.8974 193.393 11.8974 193.47C11.8974 193.59 11.9458 193.682 12.0424 193.745C12.1424 193.805 12.2724 193.848 12.4324 193.875C12.5924 193.902 12.7741 193.918 12.9774 193.925C13.1841 193.932 13.3941 193.943 13.6074 193.96C13.8241 193.973 14.0341 193.998 14.2374 194.035C14.4441 194.072 14.6274 194.132 14.7874 194.215C14.9474 194.298 15.0758 194.413 15.1724 194.56C15.2724 194.707 15.3224 194.897 15.3224 195.13C15.3224 195.347 15.2674 195.557 15.1574 195.76C15.0508 195.963 14.8958 196.143 14.6924 196.3C14.4891 196.46 14.2391 196.587 13.9424 196.68C13.6491 196.777 13.3174 196.825 12.9474 196.825C12.5774 196.825 12.2541 196.788 11.9774 196.715C11.7008 196.642 11.4708 196.543 11.2874 196.42C11.1041 196.297 10.9658 196.153 10.8724 195.99C10.7824 195.83 10.7374 195.662 10.7374 195.485C10.7374 195.235 10.8158 195.023 10.9724 194.85C11.1291 194.677 11.3441 194.538 11.6174 194.435C11.4674 194.368 11.3474 194.28 11.2574 194.17C11.1708 194.057 11.1274 193.905 11.1274 193.715C11.1274 193.642 11.1408 193.567 11.1674 193.49C11.1941 193.41 11.2341 193.332 11.2874 193.255C11.3441 193.175 11.4124 193.1 11.4924 193.03C11.5724 192.96 11.6658 192.898 11.7724 192.845C11.5224 192.705 11.3274 192.52 11.1874 192.29C11.0474 192.057 10.9774 191.787 10.9774 191.48C10.9774 191.233 11.0241 191.01 11.1174 190.81C11.2141 190.607 11.3474 190.435 11.5174 190.295C11.6874 190.152 11.8891 190.042 12.1224 189.965C12.3591 189.888 12.6174 189.85 12.8974 189.85C13.1174 189.85 13.3224 189.875 13.5124 189.925C13.7024 189.972 13.8758 190.042 14.0324 190.135H15.4074ZM17.1228 190.61C17.3394 190.38 17.5794 190.197 17.8428 190.06C18.1061 189.923 18.4094 189.855 18.7528 189.855C19.0294 189.855 19.2728 189.902 19.4828 189.995C19.6961 190.085 19.8728 190.215 20.0128 190.385C20.1561 190.552 20.2644 190.753 20.3378 190.99C20.4111 191.227 20.4478 191.488 20.4478 191.775V195H19.5528V191.775C19.5528 191.392 19.4644 191.095 19.2878 190.885C19.1144 190.672 18.8494 190.565 18.4928 190.565C18.2294 190.565 17.9828 190.628 17.7528 190.755C17.5261 190.882 17.3161 191.053 17.1228 191.27V195H16.2278V187.635H17.1228V190.61ZM25.0939 191.915C25.0939 191.708 25.0639 191.52 25.0039 191.35C24.9473 191.177 24.8623 191.028 24.7489 190.905C24.6389 190.778 24.5039 190.682 24.3439 190.615C24.1839 190.545 24.0023 190.51 23.7989 190.51C23.3723 190.51 23.0339 190.635 22.7839 190.885C22.5373 191.132 22.3839 191.475 22.3239 191.915H25.0939ZM25.8139 194.29C25.7039 194.423 25.5723 194.54 25.4189 194.64C25.2656 194.737 25.1006 194.817 24.9239 194.88C24.7506 194.943 24.5706 194.99 24.3839 195.02C24.1973 195.053 24.0123 195.07 23.8289 195.07C23.4789 195.07 23.1556 195.012 22.8589 194.895C22.5656 194.775 22.3106 194.602 22.0939 194.375C21.8806 194.145 21.7139 193.862 21.5939 193.525C21.4739 193.188 21.4139 192.802 21.4139 192.365C21.4139 192.012 21.4673 191.682 21.5739 191.375C21.6839 191.068 21.8406 190.803 22.0439 190.58C22.2473 190.353 22.4956 190.177 22.7889 190.05C23.0823 189.92 23.4123 189.855 23.7789 189.855C24.0823 189.855 24.3623 189.907 24.6189 190.01C24.8789 190.11 25.1023 190.257 25.2889 190.45C25.4789 190.64 25.6273 190.877 25.7339 191.16C25.8406 191.44 25.8939 191.76 25.8939 192.12C25.8939 192.26 25.8789 192.353 25.8489 192.4C25.8189 192.447 25.7623 192.47 25.6789 192.47H22.2939C22.3039 192.79 22.3473 193.068 22.4239 193.305C22.5039 193.542 22.6139 193.74 22.7539 193.9C22.8939 194.057 23.0606 194.175 23.2539 194.255C23.4473 194.332 23.6639 194.37 23.9039 194.37C24.1273 194.37 24.3189 194.345 24.4789 194.295C24.6423 194.242 24.7823 194.185 24.8989 194.125C25.0156 194.065 25.1123 194.01 25.1889 193.96C25.2689 193.907 25.3373 193.88 25.3939 193.88C25.4673 193.88 25.5239 193.908 25.5639 193.965L25.8139 194.29ZM27.7321 190.95C27.8921 190.603 28.0888 190.333 28.3221 190.14C28.5555 189.943 28.8405 189.845 29.1771 189.845C29.2838 189.845 29.3855 189.857 29.4821 189.88C29.5821 189.903 29.6705 189.94 29.7471 189.99L29.6821 190.655C29.6621 190.738 29.6121 190.78 29.5321 190.78C29.4855 190.78 29.4171 190.77 29.3271 190.75C29.2371 190.73 29.1355 190.72 29.0221 190.72C28.8621 190.72 28.7188 190.743 28.5921 190.79C28.4688 190.837 28.3571 190.907 28.2571 191C28.1605 191.09 28.0721 191.203 27.9921 191.34C27.9155 191.473 27.8455 191.627 27.7821 191.8V195H26.8871V189.935H27.3971C27.4938 189.935 27.5605 189.953 27.5971 189.99C27.6338 190.027 27.6588 190.09 27.6721 190.18L27.7321 190.95ZM34.2285 195.08C33.8285 195.08 33.5201 194.968 33.3035 194.745C33.0901 194.522 32.9835 194.2 32.9835 193.78V190.68H32.3735C32.3201 190.68 32.2751 190.665 32.2385 190.635C32.2018 190.602 32.1835 190.552 32.1835 190.485V190.13L33.0135 190.025L33.2185 188.46C33.2285 188.41 33.2501 188.37 33.2835 188.34C33.3201 188.307 33.3668 188.29 33.4235 188.29H33.8735V190.035H35.3385V190.68H33.8735V193.72C33.8735 193.933 33.9251 194.092 34.0285 194.195C34.1318 194.298 34.2651 194.35 34.4285 194.35C34.5218 194.35 34.6018 194.338 34.6685 194.315C34.7385 194.288 34.7985 194.26 34.8485 194.23C34.8985 194.2 34.9401 194.173 34.9735 194.15C35.0101 194.123 35.0418 194.11 35.0685 194.11C35.1151 194.11 35.1568 194.138 35.1935 194.195L35.4535 194.62C35.3001 194.763 35.1151 194.877 34.8985 194.96C34.6818 195.04 34.4585 195.08 34.2285 195.08ZM37.0524 190.61C37.2691 190.38 37.5091 190.197 37.7724 190.06C38.0358 189.923 38.3391 189.855 38.6824 189.855C38.9591 189.855 39.2024 189.902 39.4124 189.995C39.6258 190.085 39.8024 190.215 39.9424 190.385C40.0858 190.552 40.1941 190.753 40.2674 190.99C40.3408 191.227 40.3774 191.488 40.3774 191.775V195H39.4824V191.775C39.4824 191.392 39.3941 191.095 39.2174 190.885C39.0441 190.672 38.7791 190.565 38.4224 190.565C38.1591 190.565 37.9124 190.628 37.6824 190.755C37.4558 190.882 37.2458 191.053 37.0524 191.27V195H36.1574V187.635H37.0524V190.61ZM44.3786 192.72C43.9686 192.733 43.6186 192.767 43.3286 192.82C43.0419 192.87 42.8069 192.937 42.6236 193.02C42.4436 193.103 42.3119 193.202 42.2286 193.315C42.1486 193.428 42.1086 193.555 42.1086 193.695C42.1086 193.828 42.1303 193.943 42.1736 194.04C42.2169 194.137 42.2753 194.217 42.3486 194.28C42.4253 194.34 42.5136 194.385 42.6136 194.415C42.7169 194.442 42.8269 194.455 42.9436 194.455C43.1003 194.455 43.2436 194.44 43.3736 194.41C43.5036 194.377 43.6253 194.33 43.7386 194.27C43.8553 194.21 43.9653 194.138 44.0686 194.055C44.1753 193.972 44.2786 193.877 44.3786 193.77V192.72ZM41.5036 190.65C41.7836 190.38 42.0853 190.178 42.4086 190.045C42.7319 189.912 43.0903 189.845 43.4836 189.845C43.7669 189.845 44.0186 189.892 44.2386 189.985C44.4586 190.078 44.6436 190.208 44.7936 190.375C44.9436 190.542 45.0569 190.743 45.1336 190.98C45.2103 191.217 45.2486 191.477 45.2486 191.76V195H44.8536C44.7669 195 44.7003 194.987 44.6536 194.96C44.6069 194.93 44.5703 194.873 44.5436 194.79L44.4436 194.31C44.3103 194.433 44.1803 194.543 44.0536 194.64C43.9269 194.733 43.7936 194.813 43.6536 194.88C43.5136 194.943 43.3636 194.992 43.2036 195.025C43.0469 195.062 42.8719 195.08 42.6786 195.08C42.4819 195.08 42.2969 195.053 42.1236 195C41.9503 194.943 41.7986 194.86 41.6686 194.75C41.5419 194.64 41.4403 194.502 41.3636 194.335C41.2903 194.165 41.2536 193.965 41.2536 193.735C41.2536 193.535 41.3086 193.343 41.4186 193.16C41.5286 192.973 41.7069 192.808 41.9536 192.665C42.2003 192.522 42.5219 192.405 42.9186 192.315C43.3153 192.222 43.8019 192.168 44.3786 192.155V191.76C44.3786 191.367 44.2936 191.07 44.1236 190.87C43.9536 190.667 43.7053 190.565 43.3786 190.565C43.1586 190.565 42.9736 190.593 42.8236 190.65C42.6769 190.703 42.5486 190.765 42.4386 190.835C42.3319 190.902 42.2386 190.963 42.1586 191.02C42.0819 191.073 42.0053 191.1 41.9286 191.1C41.8686 191.1 41.8169 191.085 41.7736 191.055C41.7303 191.022 41.6936 190.982 41.6636 190.935L41.5036 190.65ZM47.3443 190.67C47.4543 190.547 47.571 190.435 47.6943 190.335C47.8176 190.235 47.9476 190.15 48.0843 190.08C48.2243 190.007 48.371 189.952 48.5243 189.915C48.681 189.875 48.8493 189.855 49.0293 189.855C49.306 189.855 49.5493 189.902 49.7593 189.995C49.9727 190.085 50.1493 190.215 50.2893 190.385C50.4326 190.552 50.541 190.753 50.6143 190.99C50.6877 191.227 50.7243 191.488 50.7243 191.775V195H49.8293V191.775C49.8293 191.392 49.741 191.095 49.5643 190.885C49.391 190.672 49.126 190.565 48.7693 190.565C48.506 190.565 48.2593 190.628 48.0293 190.755C47.8026 190.882 47.5926 191.053 47.3993 191.27V195H46.5043V189.935H47.0393C47.166 189.935 47.2443 189.997 47.2743 190.12L47.3443 190.67ZM55.3591 187.635V195H54.4691V187.635H55.3591ZM59.4474 192.72C59.0374 192.733 58.6874 192.767 58.3974 192.82C58.1107 192.87 57.8757 192.937 57.6924 193.02C57.5124 193.103 57.3807 193.202 57.2974 193.315C57.2174 193.428 57.1774 193.555 57.1774 193.695C57.1774 193.828 57.199 193.943 57.2424 194.04C57.2857 194.137 57.344 194.217 57.4174 194.28C57.494 194.34 57.5824 194.385 57.6824 194.415C57.7857 194.442 57.8957 194.455 58.0124 194.455C58.169 194.455 58.3124 194.44 58.4424 194.41C58.5724 194.377 58.694 194.33 58.8074 194.27C58.924 194.21 59.034 194.138 59.1374 194.055C59.244 193.972 59.3474 193.877 59.4474 193.77V192.72ZM56.5724 190.65C56.8524 190.38 57.154 190.178 57.4774 190.045C57.8007 189.912 58.159 189.845 58.5524 189.845C58.8357 189.845 59.0874 189.892 59.3074 189.985C59.5274 190.078 59.7124 190.208 59.8624 190.375C60.0124 190.542 60.1257 190.743 60.2024 190.98C60.279 191.217 60.3174 191.477 60.3174 191.76V195H59.9224C59.8357 195 59.769 194.987 59.7224 194.96C59.6757 194.93 59.639 194.873 59.6124 194.79L59.5124 194.31C59.379 194.433 59.249 194.543 59.1224 194.64C58.9957 194.733 58.8624 194.813 58.7224 194.88C58.5824 194.943 58.4324 194.992 58.2724 195.025C58.1157 195.062 57.9407 195.08 57.7474 195.08C57.5507 195.08 57.3657 195.053 57.1924 195C57.019 194.943 56.8674 194.86 56.7374 194.75C56.6107 194.64 56.509 194.502 56.4324 194.335C56.359 194.165 56.3224 193.965 56.3224 193.735C56.3224 193.535 56.3774 193.343 56.4874 193.16C56.5974 192.973 56.7757 192.808 57.0224 192.665C57.269 192.522 57.5907 192.405 57.9874 192.315C58.384 192.222 58.8707 192.168 59.4474 192.155V191.76C59.4474 191.367 59.3624 191.07 59.1924 190.87C59.0224 190.667 58.774 190.565 58.4474 190.565C58.2274 190.565 58.0424 190.593 57.8924 190.65C57.7457 190.703 57.6174 190.765 57.5074 190.835C57.4007 190.902 57.3074 190.963 57.2274 191.02C57.1507 191.073 57.074 191.1 56.9974 191.1C56.9374 191.1 56.8857 191.085 56.8424 191.055C56.799 191.022 56.7624 190.982 56.7324 190.935L56.5724 190.65ZM64.5231 190.77C64.4831 190.843 64.4214 190.88 64.3381 190.88C64.2881 190.88 64.2314 190.862 64.1681 190.825C64.1047 190.788 64.0264 190.748 63.9331 190.705C63.8431 190.658 63.7347 190.617 63.6081 190.58C63.4814 190.54 63.3314 190.52 63.1581 190.52C63.0081 190.52 62.8731 190.54 62.7531 190.58C62.6331 190.617 62.5297 190.668 62.4431 190.735C62.3597 190.802 62.2947 190.88 62.2481 190.97C62.2047 191.057 62.1831 191.152 62.1831 191.255C62.1831 191.385 62.2197 191.493 62.2931 191.58C62.3697 191.667 62.4697 191.742 62.5931 191.805C62.7164 191.868 62.8564 191.925 63.0131 191.975C63.1697 192.022 63.3297 192.073 63.4931 192.13C63.6597 192.183 63.8214 192.243 63.9781 192.31C64.1347 192.377 64.2747 192.46 64.3981 192.56C64.5214 192.66 64.6197 192.783 64.6931 192.93C64.7697 193.073 64.8081 193.247 64.8081 193.45C64.8081 193.683 64.7664 193.9 64.6831 194.1C64.5997 194.297 64.4764 194.468 64.3131 194.615C64.1497 194.758 63.9497 194.872 63.7131 194.955C63.4764 195.038 63.2031 195.08 62.8931 195.08C62.5397 195.08 62.2197 195.023 61.9331 194.91C61.6464 194.793 61.4031 194.645 61.2031 194.465L61.4131 194.125C61.4397 194.082 61.4714 194.048 61.5081 194.025C61.5447 194.002 61.5914 193.99 61.6481 193.99C61.7081 193.99 61.7714 194.013 61.8381 194.06C61.9047 194.107 61.9847 194.158 62.0781 194.215C62.1747 194.272 62.2914 194.323 62.4281 194.37C62.5647 194.417 62.7347 194.44 62.9381 194.44C63.1114 194.44 63.2631 194.418 63.3931 194.375C63.5231 194.328 63.6314 194.267 63.7181 194.19C63.8047 194.113 63.8681 194.025 63.9081 193.925C63.9514 193.825 63.9731 193.718 63.9731 193.605C63.9731 193.465 63.9347 193.35 63.8581 193.26C63.7847 193.167 63.6864 193.088 63.5631 193.025C63.4397 192.958 63.2981 192.902 63.1381 192.855C62.9814 192.805 62.8197 192.753 62.6531 192.7C62.4897 192.647 62.3281 192.587 62.1681 192.52C62.0114 192.45 61.8714 192.363 61.7481 192.26C61.6247 192.157 61.5247 192.03 61.4481 191.88C61.3747 191.727 61.3381 191.542 61.3381 191.325C61.3381 191.132 61.3781 190.947 61.4581 190.77C61.5381 190.59 61.6547 190.433 61.8081 190.3C61.9614 190.163 62.1497 190.055 62.3731 189.975C62.5964 189.895 62.8514 189.855 63.1381 189.855C63.4714 189.855 63.7697 189.908 64.0331 190.015C64.2997 190.118 64.5297 190.262 64.7231 190.445L64.5231 190.77ZM67.3542 195.08C66.9542 195.08 66.6459 194.968 66.4292 194.745C66.2159 194.522 66.1092 194.2 66.1092 193.78V190.68H65.4992C65.4459 190.68 65.4009 190.665 65.3642 190.635C65.3276 190.602 65.3092 190.552 65.3092 190.485V190.13L66.1392 190.025L66.3442 188.46C66.3542 188.41 66.3759 188.37 66.4092 188.34C66.4459 188.307 66.4926 188.29 66.5492 188.29H66.9992V190.035H68.4642V190.68H66.9992V193.72C66.9992 193.933 67.0509 194.092 67.1542 194.195C67.2576 194.298 67.3909 194.35 67.5542 194.35C67.6476 194.35 67.7276 194.338 67.7942 194.315C67.8642 194.288 67.9242 194.26 67.9742 194.23C68.0242 194.2 68.0659 194.173 68.0992 194.15C68.1359 194.123 68.1676 194.11 68.1942 194.11C68.2409 194.11 68.2826 194.138 68.3192 194.195L68.5792 194.62C68.4259 194.763 68.2409 194.877 68.0242 194.96C67.8076 195.04 67.5842 195.08 67.3542 195.08ZM8.3565 205.935L6.7165 211H6.0115C5.92484 211 5.86484 210.943 5.8315 210.83L4.7115 207.395C4.68484 207.318 4.66317 207.242 4.6465 207.165C4.62984 207.085 4.61317 207.007 4.5965 206.93C4.57984 207.007 4.56317 207.085 4.5465 207.165C4.52984 207.242 4.50817 207.32 4.4815 207.4L3.3415 210.83C3.3115 210.943 3.24484 211 3.1415 211H2.4715L0.831504 205.935H1.5315C1.6015 205.935 1.65984 205.953 1.7065 205.99C1.7565 206.027 1.78984 206.07 1.8065 206.12L2.7765 209.38C2.83317 209.62 2.87817 209.847 2.9115 210.06C2.9415 209.95 2.9715 209.838 3.0015 209.725C3.03484 209.612 3.06984 209.497 3.1065 209.38L4.1765 206.1C4.19317 206.05 4.2215 206.008 4.2615 205.975C4.30484 205.942 4.3565 205.925 4.4165 205.925H4.8065C4.87317 205.925 4.92817 205.942 4.9715 205.975C5.01484 206.008 5.04484 206.05 5.0615 206.1L6.1065 209.38C6.14317 209.497 6.1765 209.612 6.2065 209.725C6.2365 209.838 6.26484 209.95 6.2915 210.06C6.30817 209.95 6.32817 209.84 6.3515 209.73C6.37817 209.617 6.4065 209.5 6.4365 209.38L7.4265 206.12C7.44317 206.067 7.47484 206.023 7.5215 205.99C7.56817 205.953 7.62317 205.935 7.6865 205.935H8.3565ZM12.4447 207.915C12.4447 207.708 12.4147 207.52 12.3547 207.35C12.298 207.177 12.213 207.028 12.0997 206.905C11.9897 206.778 11.8547 206.682 11.6947 206.615C11.5347 206.545 11.353 206.51 11.1497 206.51C10.723 206.51 10.3847 206.635 10.1347 206.885C9.88804 207.132 9.73471 207.475 9.67471 207.915H12.4447ZM13.1647 210.29C13.0547 210.423 12.923 210.54 12.7697 210.64C12.6164 210.737 12.4514 210.817 12.2747 210.88C12.1014 210.943 11.9214 210.99 11.7347 211.02C11.548 211.053 11.363 211.07 11.1797 211.07C10.8297 211.07 10.5064 211.012 10.2097 210.895C9.91637 210.775 9.66137 210.602 9.44471 210.375C9.23137 210.145 9.06471 209.862 8.94471 209.525C8.82471 209.188 8.76471 208.802 8.76471 208.365C8.76471 208.012 8.81804 207.682 8.92471 207.375C9.03471 207.068 9.19137 206.803 9.39471 206.58C9.59804 206.353 9.84637 206.177 10.1397 206.05C10.433 205.92 10.763 205.855 11.1297 205.855C11.433 205.855 11.713 205.907 11.9697 206.01C12.2297 206.11 12.453 206.257 12.6397 206.45C12.8297 206.64 12.978 206.877 13.0847 207.16C13.1914 207.44 13.2447 207.76 13.2447 208.12C13.2447 208.26 13.2297 208.353 13.1997 208.4C13.1697 208.447 13.113 208.47 13.0297 208.47H9.64471C9.65471 208.79 9.69804 209.068 9.77471 209.305C9.85471 209.542 9.96471 209.74 10.1047 209.9C10.2447 210.057 10.4114 210.175 10.6047 210.255C10.798 210.332 11.0147 210.37 11.2547 210.37C11.478 210.37 11.6697 210.345 11.8297 210.295C11.993 210.242 12.133 210.185 12.2497 210.125C12.3664 210.065 12.463 210.01 12.5397 209.96C12.6197 209.907 12.688 209.88 12.7447 209.88C12.818 209.88 12.8747 209.908 12.9147 209.965L13.1647 210.29ZM17.6279 207.915C17.6279 207.708 17.5979 207.52 17.5379 207.35C17.4812 207.177 17.3962 207.028 17.2829 206.905C17.1729 206.778 17.0379 206.682 16.8779 206.615C16.7179 206.545 16.5362 206.51 16.3329 206.51C15.9062 206.51 15.5679 206.635 15.3179 206.885C15.0712 207.132 14.9179 207.475 14.8579 207.915H17.6279ZM18.3479 210.29C18.2379 210.423 18.1062 210.54 17.9529 210.64C17.7996 210.737 17.6346 210.817 17.4579 210.88C17.2846 210.943 17.1046 210.99 16.9179 211.02C16.7312 211.053 16.5462 211.07 16.3629 211.07C16.0129 211.07 15.6896 211.012 15.3929 210.895C15.0996 210.775 14.8446 210.602 14.6279 210.375C14.4146 210.145 14.2479 209.862 14.1279 209.525C14.0079 209.188 13.9479 208.802 13.9479 208.365C13.9479 208.012 14.0012 207.682 14.1079 207.375C14.2179 207.068 14.3746 206.803 14.5779 206.58C14.7812 206.353 15.0296 206.177 15.3229 206.05C15.6162 205.92 15.9462 205.855 16.3129 205.855C16.6162 205.855 16.8962 205.907 17.1529 206.01C17.4129 206.11 17.6362 206.257 17.8229 206.45C18.0129 206.64 18.1612 206.877 18.2679 207.16C18.3746 207.44 18.4279 207.76 18.4279 208.12C18.4279 208.26 18.4129 208.353 18.3829 208.4C18.3529 208.447 18.2962 208.47 18.2129 208.47H14.8279C14.8379 208.79 14.8812 209.068 14.9579 209.305C15.0379 209.542 15.1479 209.74 15.2879 209.9C15.4279 210.057 15.5946 210.175 15.7879 210.255C15.9812 210.332 16.1979 210.37 16.4379 210.37C16.6612 210.37 16.8529 210.345 17.0129 210.295C17.1762 210.242 17.3162 210.185 17.4329 210.125C17.5496 210.065 17.6462 210.01 17.7229 209.96C17.8029 209.907 17.8712 209.88 17.9279 209.88C18.0012 209.88 18.0579 209.908 18.0979 209.965L18.3479 210.29ZM20.3161 203.635V207.97H20.5461C20.6128 207.97 20.6678 207.962 20.7111 207.945C20.7578 207.925 20.8061 207.887 20.8561 207.83L22.4561 206.115C22.5028 206.058 22.5511 206.015 22.6011 205.985C22.6544 205.952 22.7244 205.935 22.8111 205.935H23.6161L21.7511 207.92C21.6611 208.033 21.5644 208.122 21.4611 208.185C21.5211 208.225 21.5744 208.272 21.6211 208.325C21.6711 208.375 21.7178 208.433 21.7611 208.5L23.7411 211H22.9461C22.8694 211 22.8028 210.988 22.7461 210.965C22.6928 210.938 22.6461 210.892 22.6061 210.825L20.9411 208.75C20.8911 208.68 20.8411 208.635 20.7911 208.615C20.7444 208.592 20.6711 208.58 20.5711 208.58H20.3161V211H19.4211V203.635H20.3161ZM25.0142 203.355C25.1542 203.592 25.2492 203.842 25.2992 204.105C25.3492 204.368 25.3542 204.628 25.3142 204.885C25.2742 205.142 25.1909 205.388 25.0642 205.625C24.9376 205.862 24.7692 206.072 24.5592 206.255L24.2892 206.08C24.2392 206.05 24.2159 206.012 24.2192 205.965C24.2259 205.915 24.2426 205.875 24.2692 205.845C24.3559 205.738 24.4292 205.61 24.4892 205.46C24.5526 205.307 24.5926 205.143 24.6092 204.97C24.6292 204.793 24.6209 204.612 24.5842 204.425C24.5509 204.238 24.4826 204.058 24.3792 203.885C24.3359 203.815 24.3226 203.753 24.3392 203.7C24.3592 203.643 24.4009 203.602 24.4642 203.575L25.0142 203.355ZM29.1633 206.77C29.1233 206.843 29.0616 206.88 28.9783 206.88C28.9283 206.88 28.8716 206.862 28.8083 206.825C28.745 206.788 28.6666 206.748 28.5733 206.705C28.4833 206.658 28.375 206.617 28.2483 206.58C28.1216 206.54 27.9716 206.52 27.7983 206.52C27.6483 206.52 27.5133 206.54 27.3933 206.58C27.2733 206.617 27.17 206.668 27.0833 206.735C27 206.802 26.935 206.88 26.8883 206.97C26.845 207.057 26.8233 207.152 26.8233 207.255C26.8233 207.385 26.86 207.493 26.9333 207.58C27.01 207.667 27.11 207.742 27.2333 207.805C27.3566 207.868 27.4966 207.925 27.6533 207.975C27.81 208.022 27.97 208.073 28.1333 208.13C28.3 208.183 28.4616 208.243 28.6183 208.31C28.775 208.377 28.915 208.46 29.0383 208.56C29.1616 208.66 29.26 208.783 29.3333 208.93C29.41 209.073 29.4483 209.247 29.4483 209.45C29.4483 209.683 29.4066 209.9 29.3233 210.1C29.24 210.297 29.1166 210.468 28.9533 210.615C28.79 210.758 28.59 210.872 28.3533 210.955C28.1166 211.038 27.8433 211.08 27.5333 211.08C27.18 211.08 26.86 211.023 26.5733 210.91C26.2866 210.793 26.0433 210.645 25.8433 210.465L26.0533 210.125C26.08 210.082 26.1116 210.048 26.1483 210.025C26.185 210.002 26.2316 209.99 26.2883 209.99C26.3483 209.99 26.4116 210.013 26.4783 210.06C26.545 210.107 26.625 210.158 26.7183 210.215C26.815 210.272 26.9316 210.323 27.0683 210.37C27.205 210.417 27.375 210.44 27.5783 210.44C27.7516 210.44 27.9033 210.418 28.0333 210.375C28.1633 210.328 28.2716 210.267 28.3583 210.19C28.445 210.113 28.5083 210.025 28.5483 209.925C28.5916 209.825 28.6133 209.718 28.6133 209.605C28.6133 209.465 28.575 209.35 28.4983 209.26C28.425 209.167 28.3266 209.088 28.2033 209.025C28.08 208.958 27.9383 208.902 27.7783 208.855C27.6216 208.805 27.46 208.753 27.2933 208.7C27.13 208.647 26.9683 208.587 26.8083 208.52C26.6516 208.45 26.5116 208.363 26.3883 208.26C26.265 208.157 26.165 208.03 26.0883 207.88C26.015 207.727 25.9783 207.542 25.9783 207.325C25.9783 207.132 26.0183 206.947 26.0983 206.77C26.1783 206.59 26.295 206.433 26.4483 206.3C26.6016 206.163 26.79 206.055 27.0133 205.975C27.2366 205.895 27.4916 205.855 27.7783 205.855C28.1116 205.855 28.41 205.908 28.6733 206.015C28.94 206.118 29.17 206.262 29.3633 206.445L29.1633 206.77ZM34.4531 211.08C34.0531 211.08 33.7447 210.968 33.5281 210.745C33.3147 210.522 33.2081 210.2 33.2081 209.78V206.68H32.5981C32.5447 206.68 32.4997 206.665 32.4631 206.635C32.4264 206.602 32.4081 206.552 32.4081 206.485V206.13L33.2381 206.025L33.4431 204.46C33.4531 204.41 33.4747 204.37 33.5081 204.34C33.5447 204.307 33.5914 204.29 33.6481 204.29H34.0981V206.035H35.5631V206.68H34.0981V209.72C34.0981 209.933 34.1497 210.092 34.2531 210.195C34.3564 210.298 34.4897 210.35 34.6531 210.35C34.7464 210.35 34.8264 210.338 34.8931 210.315C34.9631 210.288 35.0231 210.26 35.0731 210.23C35.1231 210.2 35.1647 210.173 35.1981 210.15C35.2347 210.123 35.2664 210.11 35.2931 210.11C35.3397 210.11 35.3814 210.138 35.4181 210.195L35.6781 210.62C35.5247 210.763 35.3397 210.877 35.1231 210.96C34.9064 211.04 34.6831 211.08 34.4531 211.08ZM37.2271 206.95C37.3871 206.603 37.5837 206.333 37.8171 206.14C38.0504 205.943 38.3354 205.845 38.6721 205.845C38.7787 205.845 38.8804 205.857 38.9771 205.88C39.0771 205.903 39.1654 205.94 39.2421 205.99L39.1771 206.655C39.1571 206.738 39.1071 206.78 39.0271 206.78C38.9804 206.78 38.9121 206.77 38.8221 206.75C38.7321 206.73 38.6304 206.72 38.5171 206.72C38.3571 206.72 38.2137 206.743 38.0871 206.79C37.9637 206.837 37.8521 206.907 37.7521 207C37.6554 207.09 37.5671 207.203 37.4871 207.34C37.4104 207.473 37.3404 207.627 37.2771 207.8V211H36.3821V205.935H36.8921C36.9887 205.935 37.0554 205.953 37.0921 205.99C37.1287 206.027 37.1537 206.09 37.1671 206.18L37.2271 206.95ZM42.5915 208.72C42.1815 208.733 41.8315 208.767 41.5415 208.82C41.2548 208.87 41.0198 208.937 40.8365 209.02C40.6565 209.103 40.5248 209.202 40.4415 209.315C40.3615 209.428 40.3215 209.555 40.3215 209.695C40.3215 209.828 40.3432 209.943 40.3865 210.04C40.4298 210.137 40.4882 210.217 40.5615 210.28C40.6382 210.34 40.7265 210.385 40.8265 210.415C40.9298 210.442 41.0398 210.455 41.1565 210.455C41.3132 210.455 41.4565 210.44 41.5865 210.41C41.7165 210.377 41.8382 210.33 41.9515 210.27C42.0682 210.21 42.1782 210.138 42.2815 210.055C42.3882 209.972 42.4915 209.877 42.5915 209.77V208.72ZM39.7165 206.65C39.9965 206.38 40.2982 206.178 40.6215 206.045C40.9448 205.912 41.3032 205.845 41.6965 205.845C41.9798 205.845 42.2315 205.892 42.4515 205.985C42.6715 206.078 42.8565 206.208 43.0065 206.375C43.1565 206.542 43.2698 206.743 43.3465 206.98C43.4232 207.217 43.4615 207.477 43.4615 207.76V211H43.0665C42.9798 211 42.9132 210.987 42.8665 210.96C42.8198 210.93 42.7832 210.873 42.7565 210.79L42.6565 210.31C42.5232 210.433 42.3932 210.543 42.2665 210.64C42.1398 210.733 42.0065 210.813 41.8665 210.88C41.7265 210.943 41.5765 210.992 41.4165 211.025C41.2598 211.062 41.0848 211.08 40.8915 211.08C40.6948 211.08 40.5098 211.053 40.3365 211C40.1632 210.943 40.0115 210.86 39.8815 210.75C39.7548 210.64 39.6532 210.502 39.5765 210.335C39.5032 210.165 39.4665 209.965 39.4665 209.735C39.4665 209.535 39.5215 209.343 39.6315 209.16C39.7415 208.973 39.9198 208.808 40.1665 208.665C40.4132 208.522 40.7348 208.405 41.1315 208.315C41.5282 208.222 42.0148 208.168 42.5915 208.155V207.76C42.5915 207.367 42.5065 207.07 42.3365 206.87C42.1665 206.667 41.9182 206.565 41.5915 206.565C41.3715 206.565 41.1865 206.593 41.0365 206.65C40.8898 206.703 40.7615 206.765 40.6515 206.835C40.5448 206.902 40.4515 206.963 40.3715 207.02C40.2948 207.073 40.2182 207.1 40.1415 207.1C40.0815 207.1 40.0298 207.085 39.9865 207.055C39.9432 207.022 39.9065 206.982 39.8765 206.935L39.7165 206.65ZM48.0172 207.14C47.8505 206.917 47.6705 206.762 47.4772 206.675C47.2839 206.585 47.0672 206.54 46.8272 206.54C46.3572 206.54 45.9955 206.708 45.7422 207.045C45.4889 207.382 45.3622 207.862 45.3622 208.485C45.3622 208.815 45.3905 209.098 45.4472 209.335C45.5039 209.568 45.5872 209.762 45.6972 209.915C45.8072 210.065 45.9422 210.175 46.1022 210.245C46.2622 210.315 46.4439 210.35 46.6472 210.35C46.9405 210.35 47.1955 210.283 47.4122 210.15C47.6322 210.017 47.8339 209.828 48.0172 209.585V207.14ZM48.9072 203.635V211H48.3772C48.2505 211 48.1705 210.938 48.1372 210.815L48.0572 210.2C47.8405 210.46 47.5939 210.67 47.3172 210.83C47.0405 210.99 46.7205 211.07 46.3572 211.07C46.0672 211.07 45.8039 211.015 45.5672 210.905C45.3305 210.792 45.1289 210.627 44.9622 210.41C44.7955 210.193 44.6672 209.923 44.5772 209.6C44.4872 209.277 44.4422 208.905 44.4422 208.485C44.4422 208.112 44.4922 207.765 44.5922 207.445C44.6922 207.122 44.8355 206.842 45.0222 206.605C45.2089 206.368 45.4372 206.183 45.7072 206.05C45.9805 205.913 46.2872 205.845 46.6272 205.845C46.9372 205.845 47.2022 205.898 47.4222 206.005C47.6455 206.108 47.8439 206.253 48.0172 206.44V203.635H48.9072ZM53.6029 207.915C53.6029 207.708 53.5729 207.52 53.5129 207.35C53.4562 207.177 53.3712 207.028 53.2579 206.905C53.1479 206.778 53.0129 206.682 52.8529 206.615C52.6929 206.545 52.5112 206.51 52.3079 206.51C51.8812 206.51 51.5429 206.635 51.2929 206.885C51.0462 207.132 50.8929 207.475 50.8329 207.915H53.6029ZM54.3229 210.29C54.2129 210.423 54.0812 210.54 53.9279 210.64C53.7746 210.737 53.6096 210.817 53.4329 210.88C53.2596 210.943 53.0796 210.99 52.8929 211.02C52.7062 211.053 52.5212 211.07 52.3379 211.07C51.9879 211.07 51.6646 211.012 51.3679 210.895C51.0746 210.775 50.8196 210.602 50.6029 210.375C50.3896 210.145 50.2229 209.862 50.1029 209.525C49.9829 209.188 49.9229 208.802 49.9229 208.365C49.9229 208.012 49.9762 207.682 50.0829 207.375C50.1929 207.068 50.3496 206.803 50.5529 206.58C50.7562 206.353 51.0046 206.177 51.2979 206.05C51.5912 205.92 51.9212 205.855 52.2879 205.855C52.5912 205.855 52.8712 205.907 53.1279 206.01C53.3879 206.11 53.6112 206.257 53.7979 206.45C53.9879 206.64 54.1362 206.877 54.2429 207.16C54.3496 207.44 54.4029 207.76 54.4029 208.12C54.4029 208.26 54.3879 208.353 54.3579 208.4C54.3279 208.447 54.2712 208.47 54.1879 208.47H50.8029C50.8129 208.79 50.8562 209.068 50.9329 209.305C51.0129 209.542 51.1229 209.74 51.2629 209.9C51.4029 210.057 51.5696 210.175 51.7629 210.255C51.9562 210.332 52.1729 210.37 52.4129 210.37C52.6362 210.37 52.8279 210.345 52.9879 210.295C53.1512 210.242 53.2912 210.185 53.4079 210.125C53.5246 210.065 53.6212 210.01 53.6979 209.96C53.7779 209.907 53.8462 209.88 53.9029 209.88C53.9762 209.88 54.0329 209.908 54.0729 209.965L54.3229 210.29ZM58.3461 206.77C58.3061 206.843 58.2444 206.88 58.1611 206.88C58.1111 206.88 58.0544 206.862 57.9911 206.825C57.9278 206.788 57.8494 206.748 57.7561 206.705C57.6661 206.658 57.5578 206.617 57.4311 206.58C57.3044 206.54 57.1544 206.52 56.9811 206.52C56.8311 206.52 56.6961 206.54 56.5761 206.58C56.4561 206.617 56.3528 206.668 56.2661 206.735C56.1828 206.802 56.1178 206.88 56.0711 206.97C56.0278 207.057 56.0061 207.152 56.0061 207.255C56.0061 207.385 56.0428 207.493 56.1161 207.58C56.1928 207.667 56.2928 207.742 56.4161 207.805C56.5394 207.868 56.6794 207.925 56.8361 207.975C56.9928 208.022 57.1528 208.073 57.3161 208.13C57.4828 208.183 57.6444 208.243 57.8011 208.31C57.9578 208.377 58.0978 208.46 58.2211 208.56C58.3444 208.66 58.4428 208.783 58.5161 208.93C58.5928 209.073 58.6311 209.247 58.6311 209.45C58.6311 209.683 58.5894 209.9 58.5061 210.1C58.4228 210.297 58.2994 210.468 58.1361 210.615C57.9728 210.758 57.7728 210.872 57.5361 210.955C57.2994 211.038 57.0261 211.08 56.7161 211.08C56.3628 211.08 56.0428 211.023 55.7561 210.91C55.4694 210.793 55.2261 210.645 55.0261 210.465L55.2361 210.125C55.2628 210.082 55.2944 210.048 55.3311 210.025C55.3678 210.002 55.4144 209.99 55.4711 209.99C55.5311 209.99 55.5944 210.013 55.6611 210.06C55.7278 210.107 55.8078 210.158 55.9011 210.215C55.9978 210.272 56.1144 210.323 56.2511 210.37C56.3878 210.417 56.5578 210.44 56.7611 210.44C56.9344 210.44 57.0861 210.418 57.2161 210.375C57.3461 210.328 57.4544 210.267 57.5411 210.19C57.6278 210.113 57.6911 210.025 57.7311 209.925C57.7744 209.825 57.7961 209.718 57.7961 209.605C57.7961 209.465 57.7578 209.35 57.6811 209.26C57.6078 209.167 57.5094 209.088 57.3861 209.025C57.2628 208.958 57.1211 208.902 56.9611 208.855C56.8044 208.805 56.6428 208.753 56.4761 208.7C56.3128 208.647 56.1511 208.587 55.9911 208.52C55.8344 208.45 55.6944 208.363 55.5711 208.26C55.4478 208.157 55.3478 208.03 55.2711 207.88C55.1978 207.727 55.1611 207.542 55.1611 207.325C55.1611 207.132 55.2011 206.947 55.2811 206.77C55.3611 206.59 55.4778 206.433 55.6311 206.3C55.7844 206.163 55.9728 206.055 56.1961 205.975C56.4194 205.895 56.6744 205.855 56.9611 205.855C57.2944 205.855 57.5928 205.908 57.8561 206.015C58.1228 206.118 58.3528 206.262 58.5461 206.445L58.3461 206.77Z" fill="#666666"/>
<rect x="125" y="69" width="8" height="8" rx="4" fill="#00AAFE"/>
<line x1="129.5" y1="85" x2="129.5" y2="173" stroke="#E6E9EF"/>
<rect x="114" y="181" width="30" height="30" rx="15" fill="#F2F4F7"/>
<path d="M130.88 193.99C130.847 194.047 130.812 194.088 130.775 194.115C130.739 194.142 130.692 194.155 130.635 194.155C130.575 194.155 130.507 194.128 130.43 194.075C130.354 194.018 130.257 193.957 130.14 193.89C130.027 193.82 129.89 193.758 129.73 193.705C129.57 193.648 129.379 193.62 129.155 193.62C128.945 193.62 128.76 193.648 128.6 193.705C128.444 193.758 128.312 193.833 128.205 193.93C128.099 194.023 128.017 194.135 127.96 194.265C127.907 194.392 127.88 194.53 127.88 194.68C127.88 194.873 127.929 195.033 128.025 195.16C128.125 195.287 128.255 195.395 128.415 195.485C128.575 195.575 128.757 195.653 128.96 195.72C129.164 195.787 129.372 195.857 129.585 195.93C129.799 196 130.007 196.082 130.21 196.175C130.414 196.268 130.595 196.387 130.755 196.53C130.915 196.67 131.044 196.843 131.14 197.05C131.24 197.253 131.29 197.503 131.29 197.8C131.29 198.117 131.235 198.413 131.125 198.69C131.019 198.967 130.862 199.208 130.655 199.415C130.449 199.622 130.194 199.785 129.89 199.905C129.59 200.022 129.249 200.08 128.865 200.08C128.635 200.08 128.412 200.057 128.195 200.01C127.979 199.967 127.774 199.905 127.58 199.825C127.387 199.742 127.205 199.643 127.035 199.53C126.869 199.413 126.719 199.283 126.585 199.14L126.89 198.63C126.92 198.59 126.955 198.557 126.995 198.53C127.039 198.503 127.087 198.49 127.14 198.49C127.21 198.49 127.29 198.527 127.38 198.6C127.474 198.673 127.587 198.755 127.72 198.845C127.857 198.932 128.019 199.012 128.205 199.085C128.395 199.158 128.625 199.195 128.895 199.195C129.115 199.195 129.312 199.167 129.485 199.11C129.659 199.05 129.804 198.967 129.92 198.86C130.04 198.75 130.132 198.618 130.195 198.465C130.259 198.312 130.29 198.142 130.29 197.955C130.29 197.745 130.242 197.573 130.145 197.44C130.049 197.307 129.92 197.195 129.76 197.105C129.6 197.015 129.419 196.938 129.215 196.875C129.012 196.812 128.804 196.747 128.59 196.68C128.377 196.61 128.169 196.53 127.965 196.44C127.762 196.35 127.58 196.233 127.42 196.09C127.26 195.943 127.132 195.762 127.035 195.545C126.939 195.325 126.89 195.055 126.89 194.735C126.89 194.478 126.94 194.23 127.04 193.99C127.14 193.75 127.285 193.538 127.475 193.355C127.669 193.168 127.905 193.02 128.185 192.91C128.465 192.797 128.785 192.74 129.145 192.74C129.549 192.74 129.919 192.805 130.255 192.935C130.595 193.062 130.89 193.245 131.14 193.485L130.88 193.99Z" fill="#001119"/>
<rect x="152" y="38" width="56" height="177" rx="28" fill="url(#paint0_linear_2329_11029)"/>
<rect x="156" y="42" width="48" height="21" rx="10.5" fill="#006698"/>
<path d="M169.55 54.05C169.55 54.59 169.363 55.04 168.99 55.4C168.617 55.7533 168.11 55.97 167.47 56.05V57.09L166.48 57.08V56.04C165.907 55.9467 165.417 55.7067 165.01 55.32C164.603 54.9333 164.357 54.46 164.27 53.9L165.34 53.57C165.4 54.0167 165.583 54.3767 165.89 54.65C166.197 54.9233 166.563 55.06 166.99 55.06C167.403 55.06 167.733 54.97 167.98 54.79C168.233 54.61 168.36 54.37 168.36 54.07C168.36 53.8167 168.263 53.6033 168.07 53.43C167.883 53.2567 167.647 53.13 167.36 53.05C167.08 52.9633 166.773 52.8667 166.44 52.76C166.113 52.6467 165.807 52.5267 165.52 52.4C165.24 52.2733 165.003 52.0733 164.81 51.8C164.623 51.5267 164.53 51.1933 164.53 50.8C164.53 50.3133 164.71 49.9033 165.07 49.57C165.43 49.23 165.9 49.0233 166.48 48.95V48H167.47V48.96C167.997 49.0467 168.44 49.2433 168.8 49.55C169.16 49.85 169.383 50.2233 169.47 50.67L168.42 51.1C168.347 50.74 168.177 50.4567 167.91 50.25C167.65 50.0433 167.323 49.94 166.93 49.94C166.55 49.94 166.25 50.0167 166.03 50.17C165.817 50.3233 165.71 50.5333 165.71 50.8C165.71 51.02 165.803 51.2 165.99 51.34C166.183 51.48 166.42 51.5833 166.7 51.65C166.987 51.71 167.297 51.7933 167.63 51.9C167.963 52.0067 168.27 52.13 168.55 52.27C168.837 52.4033 169.073 52.6233 169.26 52.93C169.453 53.2367 169.55 53.61 169.55 54.05ZM171.459 56V50.35C171.032 50.7233 170.492 50.9767 169.839 51.11V50.06C170.539 49.9067 171.142 49.5533 171.649 49H172.559V56H171.459ZM176.761 56V54.43H173.161V53.41L176.631 49H177.931V53.41H178.871V54.43H177.931V56H176.761ZM174.391 53.41H176.761V50.38L174.391 53.41ZM182.021 56.08C181.148 56.08 180.468 55.7567 179.981 55.11C179.495 54.4633 179.251 53.5933 179.251 52.5C179.251 51.4067 179.495 50.5367 179.981 49.89C180.468 49.2433 181.148 48.92 182.021 48.92C182.888 48.92 183.565 49.2433 184.051 49.89C184.545 50.5367 184.791 51.4067 184.791 52.5C184.791 53.5933 184.545 54.4633 184.051 55.11C183.565 55.7567 182.888 56.08 182.021 56.08ZM182.021 55.05C182.528 55.05 182.918 54.8267 183.191 54.38C183.471 53.9267 183.611 53.3 183.611 52.5C183.611 51.7 183.471 51.0733 183.191 50.62C182.918 50.1667 182.528 49.94 182.021 49.94C181.508 49.94 181.115 50.1667 180.841 50.62C180.568 51.0733 180.431 51.7 180.431 52.5C180.431 53.3 180.568 53.9267 180.841 54.38C181.115 54.8267 181.508 55.05 182.021 55.05ZM188.93 56L187.24 53.68L186.61 54.27V56H185.51V48.92H186.61V52.86L188.69 50.96H190.1L188.01 52.95L190.26 56H188.93ZM195.279 52.25V53.19H193.309V55.16H192.369V53.18H190.389V52.24H192.359V50.27H193.299V52.25H195.279Z" fill="white"/>
<line x1="180.5" y1="71" x2="180.5" y2="173" stroke="#E6E9EF"/>
<rect x="165" y="181" width="30" height="30" rx="15" fill="#00AAFE"/>
<path d="M183.918 192.77V200H182.733V195.33C182.733 195.143 182.743 194.942 182.763 194.725L180.578 198.83C180.475 199.027 180.317 199.125 180.103 199.125H179.913C179.7 199.125 179.542 199.027 179.438 198.83L177.228 194.71C177.238 194.82 177.247 194.928 177.253 195.035C177.26 195.142 177.263 195.24 177.263 195.33V200H176.078V192.77H177.093C177.153 192.77 177.205 192.772 177.248 192.775C177.292 192.778 177.33 192.787 177.363 192.8C177.4 192.813 177.432 192.835 177.458 192.865C177.488 192.895 177.517 192.935 177.543 192.985L179.708 197C179.765 197.107 179.817 197.217 179.863 197.33C179.913 197.443 179.962 197.56 180.008 197.68C180.055 197.557 180.103 197.438 180.153 197.325C180.203 197.208 180.257 197.097 180.313 196.99L182.448 192.985C182.475 192.935 182.503 192.895 182.533 192.865C182.563 192.835 182.595 192.813 182.628 192.8C182.665 192.787 182.705 192.778 182.748 192.775C182.792 192.772 182.843 192.77 182.903 192.77H183.918Z" fill="white"/>
<rect x="227" y="96" width="8" height="8" rx="4" fill="#00AAFE"/>
<line x1="231.5" y1="112" x2="231.5" y2="173" stroke="#E6E9EF"/>
<rect x="216" y="181" width="30" height="30" rx="15" fill="#F2F4F7"/>
<path d="M233.816 193.71H231.536V200H230.476V193.71H228.186V192.82H233.816V193.71Z" fill="#001119"/>
<rect x="269" y="71" width="8" height="8" rx="4" fill="#00AAFE"/>
<line x1="273.5" y1="87" x2="273.5" y2="173" stroke="#E6E9EF"/>
<rect x="258" y="181" width="30" height="30" rx="15" fill="#F2F4F7"/>
<path d="M278.065 192.82L275.825 200H274.865L273.115 194.675C273.075 194.568 273.04 194.44 273.01 194.29C272.973 194.443 272.938 194.572 272.905 194.675L271.135 200H270.18L267.94 192.82H268.83C268.923 192.82 269.001 192.843 269.065 192.89C269.128 192.933 269.17 192.993 269.19 193.07L270.605 197.875C270.631 197.968 270.655 198.07 270.675 198.18C270.698 198.29 270.721 198.405 270.745 198.525C270.768 198.405 270.791 198.29 270.815 198.18C270.841 198.07 270.871 197.968 270.905 197.875L272.525 193.07C272.545 193.003 272.586 192.945 272.65 192.895C272.716 192.845 272.795 192.82 272.885 192.82H273.19C273.283 192.82 273.36 192.843 273.42 192.89C273.48 192.937 273.523 192.997 273.55 193.07L275.165 197.875C275.225 198.058 275.278 198.267 275.325 198.5C275.365 198.27 275.408 198.062 275.455 197.875L276.875 193.07C276.891 193.003 276.933 192.945 277 192.895C277.066 192.845 277.145 192.82 277.235 192.82H278.065Z" fill="#001119"/>
<rect x="311" y="116" width="8" height="8" rx="4" fill="#00AAFE"/>
<line x1="315.5" y1="132" x2="315.5" y2="173" stroke="#E6E9EF"/>
<rect x="300" y="181" width="30" height="30" rx="15" fill="#F2F4F7"/>
<path d="M317.816 193.71H315.536V200H314.476V193.71H312.186V192.82H317.816V193.71Z" fill="#001119"/>
<rect x="353" y="96" width="8" height="8" rx="4" fill="#00AAFE"/>
<line x1="357.5" y1="112" x2="357.5" y2="173" stroke="#E6E9EF"/>
<rect x="342" y="181" width="30" height="30" rx="15" fill="#F2F4F7"/>
<path d="M356.128 193.685V196.09H359.008V196.955H356.128V200H355.058V192.82H359.508V193.685H356.128Z" fill="#001119"/>
<rect x="395" y="84" width="8" height="8" rx="4" fill="#00AAFE"/>
<line x1="399.5" y1="100" x2="399.5" y2="173" stroke="#E6E9EF"/>
<rect x="384" y="181" width="30" height="30" rx="15" fill="#F2F4F7"/>
<path d="M400.88 193.99C400.847 194.047 400.812 194.088 400.775 194.115C400.739 194.142 400.692 194.155 400.635 194.155C400.575 194.155 400.507 194.128 400.43 194.075C400.354 194.018 400.257 193.957 400.14 193.89C400.027 193.82 399.89 193.758 399.73 193.705C399.57 193.648 399.379 193.62 399.155 193.62C398.945 193.62 398.76 193.648 398.6 193.705C398.444 193.758 398.312 193.833 398.205 193.93C398.099 194.023 398.017 194.135 397.96 194.265C397.907 194.392 397.88 194.53 397.88 194.68C397.88 194.873 397.929 195.033 398.025 195.16C398.125 195.287 398.255 195.395 398.415 195.485C398.575 195.575 398.757 195.653 398.96 195.72C399.164 195.787 399.372 195.857 399.585 195.93C399.799 196 400.007 196.082 400.21 196.175C400.414 196.268 400.595 196.387 400.755 196.53C400.915 196.67 401.044 196.843 401.14 197.05C401.24 197.253 401.29 197.503 401.29 197.8C401.29 198.117 401.235 198.413 401.125 198.69C401.019 198.967 400.862 199.208 400.655 199.415C400.449 199.622 400.194 199.785 399.89 199.905C399.59 200.022 399.249 200.08 398.865 200.08C398.635 200.08 398.412 200.057 398.195 200.01C397.979 199.967 397.774 199.905 397.58 199.825C397.387 199.742 397.205 199.643 397.035 199.53C396.869 199.413 396.719 199.283 396.585 199.14L396.89 198.63C396.92 198.59 396.955 198.557 396.995 198.53C397.039 198.503 397.087 198.49 397.14 198.49C397.21 198.49 397.29 198.527 397.38 198.6C397.474 198.673 397.587 198.755 397.72 198.845C397.857 198.932 398.019 199.012 398.205 199.085C398.395 199.158 398.625 199.195 398.895 199.195C399.115 199.195 399.312 199.167 399.485 199.11C399.659 199.05 399.804 198.967 399.92 198.86C400.04 198.75 400.132 198.618 400.195 198.465C400.259 198.312 400.29 198.142 400.29 197.955C400.29 197.745 400.242 197.573 400.145 197.44C400.049 197.307 399.92 197.195 399.76 197.105C399.6 197.015 399.419 196.938 399.215 196.875C399.012 196.812 398.804 196.747 398.59 196.68C398.377 196.61 398.169 196.53 397.965 196.44C397.762 196.35 397.58 196.233 397.42 196.09C397.26 195.943 397.132 195.762 397.035 195.545C396.939 195.325 396.89 195.055 396.89 194.735C396.89 194.478 396.94 194.23 397.04 193.99C397.14 193.75 397.285 193.538 397.475 193.355C397.669 193.168 397.905 193.02 398.185 192.91C398.465 192.797 398.785 192.74 399.145 192.74C399.549 192.74 399.919 192.805 400.255 192.935C400.595 193.062 400.89 193.245 401.14 193.485L400.88 193.99Z" fill="#001119"/>
<defs>
<linearGradient id="paint0_linear_2329_11029" x1="180" y1="38" x2="180" y2="215" gradientUnits="userSpaceOnUse">
<stop stop-color="#F2F4F7" stop-opacity="0.11"/>
<stop offset="1" stop-color="#F2F4F7"/>
</linearGradient>
</defs>
</svg>
