<svg width="24" height="24" viewBox="0 0 24 24" fill="none" xmlns="http://www.w3.org/2000/svg">
<rect width="24" height="24" rx="12" fill="#E6F7FF"/>
<path d="M15.3333 11.3333C15.56 11.3333 15.78 11.36 16 11.3933V8.18L11 6L6 8.18V11.4533C6 14.48 8.13333 17.3133 11 18C11.3667 17.9133 11.72 17.7867 12.0667 17.6333C11.6067 16.98 11.3333 16.1867 11.3333 15.3333C11.3333 13.1267 13.1267 11.3333 15.3333 11.3333Z" fill="#00AAFE"/>
<path d="M15.3327 12.666C13.8593 12.666 12.666 13.8593 12.666 15.3327C12.666 16.806 13.8593 17.9993 15.3327 17.9993C16.806 17.9993 17.9993 16.806 17.9993 15.3327C17.9993 13.8593 16.806 12.666 15.3327 12.666ZM15.3327 13.586C15.746 13.586 16.0793 13.926 16.0793 14.3327C16.0793 14.7393 15.7393 15.0793 15.3327 15.0793C14.926 15.0793 14.586 14.7393 14.586 14.3327C14.586 13.926 14.9193 13.586 15.3327 13.586ZM15.3327 17.166C14.7127 17.166 14.1727 16.8593 13.8393 16.386C13.8727 15.906 14.846 15.666 15.3327 15.666C15.8193 15.666 16.7927 15.906 16.826 16.386C16.4927 16.8593 15.9527 17.166 15.3327 17.166Z" fill="#00AAFE"/>
</svg>
