<svg width="73" height="72" viewBox="0 0 73 72" fill="none" xmlns="http://www.w3.org/2000/svg">
<rect x="0.5" width="72" height="72" rx="36" fill="#EFFAFF"/>
<path d="M52.4335 33.8999L50.1668 31.2666C49.7335 30.7666 49.3835 29.8333 49.3835 29.1666V26.3333C49.3835 24.5666 47.9335 23.1166 46.1668 23.1166H43.3335C42.6835 23.1166 41.7335 22.7666 41.2335 22.3333L38.6001 20.0666C37.4501 19.0833 35.5668 19.0833 34.4001 20.0666L31.7835 22.3499C31.2835 22.7666 30.3335 23.1166 29.6835 23.1166H26.8001C25.0335 23.1166 23.5835 24.5666 23.5835 26.3333V29.1833C23.5835 29.8333 23.2335 30.7666 22.8168 31.2666L20.5668 33.9166C19.6001 35.0666 19.6001 36.9333 20.5668 38.0833L22.8168 40.7333C23.2335 41.2333 23.5835 42.1666 23.5835 42.8166V45.6666C23.5835 47.4333 25.0335 48.8833 26.8001 48.8833H29.6835C30.3335 48.8833 31.2835 49.2333 31.7835 49.6666L34.4168 51.9333C35.5668 52.9166 37.4501 52.9166 38.6168 51.9333L41.2501 49.6666C41.7501 49.2333 42.6835 48.8833 43.3501 48.8833H46.1835C47.9501 48.8833 49.4001 47.4333 49.4001 45.6666V42.8333C49.4001 42.1833 49.7501 41.2333 50.1835 40.7333L52.4501 38.0999C53.4168 36.9499 53.4168 35.0499 52.4335 33.8999ZM43.4335 32.8499L35.3835 40.8999C35.1501 41.1333 34.8335 41.2666 34.5001 41.2666C34.1668 41.2666 33.8501 41.1333 33.6168 40.8999L29.5835 36.8666C29.1001 36.3833 29.1001 35.5833 29.5835 35.0999C30.0668 34.6166 30.8668 34.6166 31.3501 35.0999L34.5001 38.2499L41.6668 31.0833C42.1501 30.5999 42.9501 30.5999 43.4335 31.0833C43.9168 31.5666 43.9168 32.3666 43.4335 32.8499Z" fill="#00AAFE"/>
</svg>
