<svg width="418" height="16" viewBox="0 0 418 16" fill="none" xmlns="http://www.w3.org/2000/svg">
<rect x="51.1665" y="4" width="8" height="8" rx="2" fill="#B3E6FF"/>
<path d="M68.5965 11.23C68.8732 11.23 69.1115 11.1983 69.3115 11.135C69.5115 11.0717 69.6748 10.9833 69.8015 10.87C69.9315 10.7533 70.0265 10.6167 70.0865 10.46C70.1465 10.3 70.1765 10.125 70.1765 9.935C70.1765 9.565 70.0448 9.27333 69.7815 9.06C69.5182 8.84333 69.1232 8.735 68.5965 8.735H67.0465V11.23H68.5965ZM67.0465 5.6V8.045H68.3265C68.5998 8.045 68.8365 8.015 69.0365 7.955C69.2398 7.895 69.4065 7.81167 69.5365 7.705C69.6698 7.59833 69.7682 7.47 69.8315 7.32C69.8948 7.16667 69.9265 7 69.9265 6.82C69.9265 6.39667 69.7998 6.08833 69.5465 5.895C69.2932 5.69833 68.8998 5.6 68.3665 5.6H67.0465ZM68.3665 4.835C68.8065 4.835 69.1848 4.87833 69.5015 4.965C69.8215 5.05167 70.0832 5.175 70.2865 5.335C70.4932 5.495 70.6448 5.69167 70.7415 5.925C70.8382 6.155 70.8865 6.415 70.8865 6.705C70.8865 6.88167 70.8582 7.05167 70.8015 7.215C70.7482 7.375 70.6665 7.525 70.5565 7.665C70.4465 7.805 70.3065 7.93167 70.1365 8.045C69.9698 8.155 69.7732 8.245 69.5465 8.315C70.0732 8.415 70.4682 8.60333 70.7315 8.88C70.9982 9.15333 71.1315 9.51333 71.1315 9.96C71.1315 10.2633 71.0748 10.54 70.9615 10.79C70.8515 11.04 70.6882 11.255 70.4715 11.435C70.2582 11.615 69.9948 11.755 69.6815 11.855C69.3682 11.9517 69.0115 12 68.6115 12H66.0815V4.835H68.3665ZM73.0689 6.935V12H72.1789V6.935H73.0689ZM73.2589 5.345C73.2589 5.43167 73.2406 5.51333 73.2039 5.59C73.1706 5.66333 73.1239 5.73 73.0639 5.79C73.0073 5.84667 72.9389 5.89167 72.8589 5.925C72.7823 5.95833 72.7006 5.975 72.6139 5.975C72.5273 5.975 72.4456 5.95833 72.3689 5.925C72.2956 5.89167 72.2306 5.84667 72.1739 5.79C72.1173 5.73 72.0723 5.66333 72.0389 5.59C72.0056 5.51333 71.9889 5.43167 71.9889 5.345C71.9889 5.25833 72.0056 5.17667 72.0389 5.1C72.0723 5.02 72.1173 4.95167 72.1739 4.895C72.2306 4.835 72.2956 4.78833 72.3689 4.755C72.4456 4.72167 72.5273 4.705 72.6139 4.705C72.7006 4.705 72.7823 4.72167 72.8589 4.755C72.9389 4.78833 73.0073 4.835 73.0639 4.895C73.1239 4.95167 73.1706 5.02 73.2039 5.1C73.2406 5.17667 73.2589 5.25833 73.2589 5.345ZM75.9863 12.08C75.5863 12.08 75.2779 11.9683 75.0613 11.745C74.8479 11.5217 74.7413 11.2 74.7413 10.78V7.68H74.1313C74.0779 7.68 74.0329 7.665 73.9963 7.635C73.9596 7.60167 73.9413 7.55167 73.9413 7.485V7.13L74.7713 7.025L74.9763 5.46C74.9863 5.41 75.0079 5.37 75.0413 5.34C75.0779 5.30667 75.1246 5.29 75.1813 5.29H75.6313V7.035H77.0963V7.68H75.6313V10.72C75.6313 10.9333 75.6829 11.0917 75.7863 11.195C75.8896 11.2983 76.0229 11.35 76.1863 11.35C76.2796 11.35 76.3596 11.3383 76.4263 11.315C76.4963 11.2883 76.5563 11.26 76.6063 11.23C76.6563 11.2 76.6979 11.1733 76.7313 11.15C76.7679 11.1233 76.7996 11.11 76.8263 11.11C76.8729 11.11 76.9146 11.1383 76.9513 11.195L77.2113 11.62C77.0579 11.7633 76.8729 11.8767 76.6563 11.96C76.4396 12.04 76.2163 12.08 75.9863 12.08ZM81.411 7.835C81.3843 7.87167 81.3576 7.9 81.331 7.92C81.3043 7.94 81.2676 7.95 81.221 7.95C81.171 7.95 81.116 7.93 81.056 7.89C80.996 7.84667 80.921 7.8 80.831 7.75C80.7443 7.7 80.636 7.655 80.506 7.615C80.3793 7.57167 80.2226 7.55 80.036 7.55C79.786 7.55 79.566 7.595 79.376 7.685C79.186 7.77167 79.026 7.89833 78.896 8.065C78.7693 8.23167 78.6726 8.43333 78.606 8.67C78.5426 8.90667 78.511 9.17167 78.511 9.465C78.511 9.77167 78.546 10.045 78.616 10.285C78.686 10.5217 78.7843 10.7217 78.911 10.885C79.041 11.045 79.196 11.1683 79.376 11.255C79.5593 11.3383 79.7643 11.38 79.991 11.38C80.2076 11.38 80.386 11.355 80.526 11.305C80.666 11.2517 80.781 11.1933 80.871 11.13C80.9643 11.0667 81.041 11.01 81.101 10.96C81.1643 10.9067 81.226 10.88 81.286 10.88C81.3593 10.88 81.416 10.9083 81.456 10.965L81.706 11.29C81.596 11.4267 81.471 11.5433 81.331 11.64C81.191 11.7367 81.0393 11.8183 80.876 11.885C80.716 11.9483 80.5476 11.995 80.371 12.025C80.1943 12.055 80.0143 12.07 79.831 12.07C79.5143 12.07 79.2193 12.0117 78.946 11.895C78.676 11.7783 78.441 11.61 78.241 11.39C78.041 11.1667 77.8843 10.8933 77.771 10.57C77.6576 10.2467 77.601 9.87833 77.601 9.465C77.601 9.08833 77.6526 8.74 77.756 8.42C77.8626 8.1 78.016 7.825 78.216 7.595C78.4193 7.36167 78.6676 7.18 78.961 7.05C79.2576 6.92 79.5976 6.855 79.981 6.855C80.3376 6.855 80.651 6.91333 80.921 7.03C81.1943 7.14333 81.436 7.305 81.646 7.515L81.411 7.835ZM84.6085 6.855C84.9785 6.855 85.3118 6.91667 85.6085 7.04C85.9051 7.16333 86.1585 7.33833 86.3685 7.565C86.5785 7.79167 86.7385 8.06667 86.8485 8.39C86.9618 8.71 87.0185 9.06833 87.0185 9.465C87.0185 9.865 86.9618 10.225 86.8485 10.545C86.7385 10.865 86.5785 11.1383 86.3685 11.365C86.1585 11.5917 85.9051 11.7667 85.6085 11.89C85.3118 12.01 84.9785 12.07 84.6085 12.07C84.2351 12.07 83.8985 12.01 83.5985 11.89C83.3018 11.7667 83.0485 11.5917 82.8385 11.365C82.6285 11.1383 82.4668 10.865 82.3535 10.545C82.2435 10.225 82.1885 9.865 82.1885 9.465C82.1885 9.06833 82.2435 8.71 82.3535 8.39C82.4668 8.06667 82.6285 7.79167 82.8385 7.565C83.0485 7.33833 83.3018 7.16333 83.5985 7.04C83.8985 6.91667 84.2351 6.855 84.6085 6.855ZM84.6085 11.375C85.1085 11.375 85.4818 11.2083 85.7285 10.875C85.9751 10.5383 86.0985 10.07 86.0985 9.47C86.0985 8.86667 85.9751 8.39667 85.7285 8.06C85.4818 7.72333 85.1085 7.555 84.6085 7.555C84.3551 7.555 84.1335 7.59833 83.9435 7.685C83.7568 7.77167 83.6001 7.89667 83.4735 8.06C83.3501 8.22333 83.2568 8.425 83.1935 8.665C83.1335 8.90167 83.1035 9.17 83.1035 9.47C83.1035 10.07 83.2268 10.5383 83.4735 10.875C83.7235 11.2083 84.1018 11.375 84.6085 11.375ZM88.9873 6.935V12H88.0973V6.935H88.9873ZM89.1773 5.345C89.1773 5.43167 89.159 5.51333 89.1223 5.59C89.089 5.66333 89.0423 5.73 88.9823 5.79C88.9256 5.84667 88.8573 5.89167 88.7773 5.925C88.7006 5.95833 88.619 5.975 88.5323 5.975C88.4456 5.975 88.364 5.95833 88.2873 5.925C88.214 5.89167 88.149 5.84667 88.0923 5.79C88.0356 5.73 87.9906 5.66333 87.9573 5.59C87.924 5.51333 87.9073 5.43167 87.9073 5.345C87.9073 5.25833 87.924 5.17667 87.9573 5.1C87.9906 5.02 88.0356 4.95167 88.0923 4.895C88.149 4.835 88.214 4.78833 88.2873 4.755C88.364 4.72167 88.4456 4.705 88.5323 4.705C88.619 4.705 88.7006 4.72167 88.7773 4.755C88.8573 4.78833 88.9256 4.835 88.9823 4.895C89.0423 4.95167 89.089 5.02 89.1223 5.1C89.159 5.17667 89.1773 5.25833 89.1773 5.345ZM91.1896 7.67C91.2996 7.54667 91.4163 7.435 91.5396 7.335C91.663 7.235 91.793 7.15 91.9296 7.08C92.0696 7.00667 92.2163 6.95167 92.3696 6.915C92.5263 6.875 92.6946 6.855 92.8746 6.855C93.1513 6.855 93.3946 6.90167 93.6046 6.995C93.818 7.085 93.9946 7.215 94.1346 7.385C94.278 7.55167 94.3863 7.75333 94.4596 7.99C94.533 8.22667 94.5696 8.48833 94.5696 8.775V12H93.6746V8.775C93.6746 8.39167 93.5863 8.095 93.4096 7.885C93.2363 7.67167 92.9713 7.565 92.6146 7.565C92.3513 7.565 92.1046 7.62833 91.8746 7.755C91.648 7.88167 91.438 8.05333 91.2446 8.27V12H90.3496V6.935H90.8846C91.0113 6.935 91.0896 6.99667 91.1196 7.12L91.1896 7.67ZM98.8044 8.855C98.8044 9.56833 98.8944 10.2617 99.0744 10.935C99.2577 11.6083 99.5244 12.2483 99.8744 12.855C99.9277 12.9583 99.9411 13.0367 99.9144 13.09C99.8877 13.1467 99.8494 13.1917 99.7994 13.225L99.4044 13.465C99.1544 13.0817 98.9411 12.7017 98.7644 12.325C98.5911 11.9483 98.4494 11.57 98.3394 11.19C98.2327 10.81 98.1544 10.4283 98.1044 10.045C98.0544 9.65833 98.0294 9.26167 98.0294 8.855C98.0294 8.45167 98.0544 8.05667 98.1044 7.67C98.1544 7.28333 98.2327 6.90167 98.3394 6.525C98.4494 6.145 98.5911 5.76667 98.7644 5.39C98.9411 5.01333 99.1544 4.63167 99.4044 4.245L99.7994 4.49C99.8494 4.52333 99.8877 4.56833 99.9144 4.625C99.9411 4.67833 99.9277 4.755 99.8744 4.855C99.5244 5.46167 99.2577 6.10167 99.0744 6.775C98.8944 7.44833 98.8044 8.14167 98.8044 8.855ZM103.575 11.23C103.852 11.23 104.09 11.1983 104.29 11.135C104.49 11.0717 104.654 10.9833 104.78 10.87C104.91 10.7533 105.005 10.6167 105.065 10.46C105.125 10.3 105.155 10.125 105.155 9.935C105.155 9.565 105.024 9.27333 104.76 9.06C104.497 8.84333 104.102 8.735 103.575 8.735H102.025V11.23H103.575ZM102.025 5.6V8.045H103.305C103.579 8.045 103.815 8.015 104.015 7.955C104.219 7.895 104.385 7.81167 104.515 7.705C104.649 7.59833 104.747 7.47 104.81 7.32C104.874 7.16667 104.905 7 104.905 6.82C104.905 6.39667 104.779 6.08833 104.525 5.895C104.272 5.69833 103.879 5.6 103.345 5.6H102.025ZM103.345 4.835C103.785 4.835 104.164 4.87833 104.48 4.965C104.8 5.05167 105.062 5.175 105.265 5.335C105.472 5.495 105.624 5.69167 105.72 5.925C105.817 6.155 105.865 6.415 105.865 6.705C105.865 6.88167 105.837 7.05167 105.78 7.215C105.727 7.375 105.645 7.525 105.535 7.665C105.425 7.805 105.285 7.93167 105.115 8.045C104.949 8.155 104.752 8.245 104.525 8.315C105.052 8.415 105.447 8.60333 105.71 8.88C105.977 9.15333 106.11 9.51333 106.11 9.96C106.11 10.2633 106.054 10.54 105.94 10.79C105.83 11.04 105.667 11.255 105.45 11.435C105.237 11.615 104.974 11.755 104.66 11.855C104.347 11.9517 103.99 12 103.59 12H101.06V4.835H103.345ZM112.124 5.65H109.804V12H108.839V5.65H106.514V4.835H112.124V5.65ZM117.795 10.52C117.848 10.52 117.895 10.5417 117.935 10.585L118.32 11C118.026 11.34 117.67 11.605 117.25 11.795C116.833 11.985 116.328 12.08 115.735 12.08C115.221 12.08 114.755 11.9917 114.335 11.815C113.915 11.635 113.556 11.385 113.26 11.065C112.963 10.7417 112.733 10.355 112.57 9.905C112.406 9.455 112.325 8.96 112.325 8.42C112.325 7.88 112.41 7.385 112.58 6.935C112.75 6.485 112.988 6.09833 113.295 5.775C113.605 5.45167 113.975 5.20167 114.405 5.025C114.835 4.845 115.31 4.755 115.83 4.755C116.34 4.755 116.79 4.83667 117.18 5C117.57 5.16333 117.913 5.385 118.21 5.665L117.89 6.11C117.87 6.14333 117.843 6.17167 117.81 6.195C117.78 6.215 117.738 6.225 117.685 6.225C117.625 6.225 117.551 6.19333 117.465 6.13C117.378 6.06333 117.265 5.99 117.125 5.91C116.985 5.83 116.81 5.75833 116.6 5.695C116.39 5.62833 116.131 5.595 115.825 5.595C115.455 5.595 115.116 5.66 114.81 5.79C114.503 5.91667 114.238 6.10167 114.015 6.345C113.795 6.58833 113.623 6.885 113.5 7.235C113.376 7.585 113.315 7.98 113.315 8.42C113.315 8.86667 113.378 9.265 113.505 9.615C113.635 9.965 113.81 10.2617 114.03 10.505C114.253 10.745 114.515 10.9283 114.815 11.055C115.118 11.1817 115.445 11.245 115.795 11.245C116.008 11.245 116.2 11.2333 116.37 11.21C116.543 11.1833 116.701 11.1433 116.845 11.09C116.991 11.0367 117.126 10.97 117.25 10.89C117.376 10.8067 117.501 10.7083 117.625 10.595C117.681 10.545 117.738 10.52 117.795 10.52ZM119.874 8.855C119.874 8.14167 119.783 7.44833 119.599 6.775C119.419 6.10167 119.154 5.46167 118.804 4.855C118.778 4.805 118.761 4.76167 118.754 4.725C118.748 4.685 118.749 4.65167 118.759 4.625C118.769 4.595 118.784 4.57 118.804 4.55C118.828 4.52667 118.853 4.50667 118.879 4.49L119.274 4.245C119.524 4.63167 119.736 5.01333 119.909 5.39C120.086 5.76667 120.228 6.145 120.334 6.525C120.444 6.90167 120.524 7.28333 120.574 7.67C120.624 8.05667 120.649 8.45167 120.649 8.855C120.649 9.26167 120.624 9.65833 120.574 10.045C120.524 10.4283 120.444 10.81 120.334 11.19C120.228 11.57 120.086 11.9483 119.909 12.325C119.736 12.7017 119.524 13.0817 119.274 13.465L118.879 13.225C118.853 13.2083 118.828 13.1883 118.804 13.165C118.784 13.145 118.769 13.12 118.759 13.09C118.749 13.0633 118.748 13.03 118.754 12.99C118.761 12.95 118.778 12.905 118.804 12.855C119.154 12.2483 119.419 11.6083 119.599 10.935C119.783 10.2617 119.874 9.56833 119.874 8.855Z" fill="black"/>
<rect x="137.167" y="4" width="8" height="8" rx="2" fill="#B3FFC4"/>
<path d="M154.847 11.23C155.143 11.23 155.408 11.18 155.642 11.08C155.875 10.98 156.072 10.84 156.232 10.66C156.395 10.48 156.518 10.265 156.602 10.015C156.688 9.765 156.732 9.49 156.732 9.19V4.835H157.697V9.19C157.697 9.60333 157.63 9.98667 157.497 10.34C157.367 10.6933 157.178 11 156.932 11.26C156.688 11.5167 156.39 11.7183 156.037 11.865C155.683 12.0117 155.287 12.085 154.847 12.085C154.407 12.085 154.01 12.0117 153.657 11.865C153.303 11.7183 153.003 11.5167 152.757 11.26C152.51 11 152.32 10.6933 152.187 10.34C152.057 9.98667 151.992 9.60333 151.992 9.19V4.835H152.957V9.185C152.957 9.485 152.998 9.76 153.082 10.01C153.168 10.26 153.292 10.475 153.452 10.655C153.615 10.835 153.813 10.9767 154.047 11.08C154.283 11.18 154.55 11.23 154.847 11.23ZM163 5.955C162.97 6.005 162.937 6.04333 162.9 6.07C162.867 6.09333 162.825 6.105 162.775 6.105C162.718 6.105 162.652 6.07667 162.575 6.02C162.498 5.96333 162.402 5.90167 162.285 5.835C162.172 5.765 162.033 5.70167 161.87 5.645C161.71 5.58833 161.515 5.56 161.285 5.56C161.068 5.56 160.877 5.59 160.71 5.65C160.547 5.70667 160.408 5.785 160.295 5.885C160.185 5.985 160.102 6.10333 160.045 6.24C159.988 6.37333 159.96 6.51833 159.96 6.675C159.96 6.875 160.008 7.04167 160.105 7.175C160.205 7.305 160.335 7.41667 160.495 7.51C160.658 7.60333 160.842 7.685 161.045 7.755C161.252 7.82167 161.462 7.89167 161.675 7.965C161.892 8.03833 162.102 8.12167 162.305 8.215C162.512 8.305 162.695 8.42 162.855 8.56C163.018 8.7 163.148 8.87167 163.245 9.075C163.345 9.27833 163.395 9.52833 163.395 9.825C163.395 10.1383 163.342 10.4333 163.235 10.71C163.128 10.9833 162.972 11.2217 162.765 11.425C162.562 11.6283 162.31 11.7883 162.01 11.905C161.713 12.0217 161.375 12.08 160.995 12.08C160.528 12.08 160.105 11.9967 159.725 11.83C159.345 11.66 159.02 11.4317 158.75 11.145L159.03 10.685C159.057 10.6483 159.088 10.6183 159.125 10.595C159.165 10.5683 159.208 10.555 159.255 10.555C159.298 10.555 159.347 10.5733 159.4 10.61C159.457 10.6433 159.52 10.6867 159.59 10.74C159.66 10.7933 159.74 10.8517 159.83 10.915C159.92 10.9783 160.022 11.0367 160.135 11.09C160.252 11.1433 160.383 11.1883 160.53 11.225C160.677 11.2583 160.842 11.275 161.025 11.275C161.255 11.275 161.46 11.2433 161.64 11.18C161.82 11.1167 161.972 11.0283 162.095 10.915C162.222 10.7983 162.318 10.66 162.385 10.5C162.452 10.34 162.485 10.1617 162.485 9.965C162.485 9.74833 162.435 9.57167 162.335 9.435C162.238 9.295 162.11 9.17833 161.95 9.085C161.79 8.99167 161.607 8.91333 161.4 8.85C161.193 8.78333 160.983 8.71667 160.77 8.65C160.557 8.58 160.347 8.5 160.14 8.41C159.933 8.32 159.75 8.20333 159.59 8.06C159.43 7.91667 159.3 7.73833 159.2 7.525C159.103 7.30833 159.055 7.04167 159.055 6.725C159.055 6.47167 159.103 6.22667 159.2 5.99C159.3 5.75333 159.443 5.54333 159.63 5.36C159.82 5.17667 160.052 5.03 160.325 4.92C160.602 4.81 160.918 4.755 161.275 4.755C161.675 4.755 162.038 4.81833 162.365 4.945C162.695 5.07167 162.985 5.255 163.235 5.495L163 5.955ZM170.875 8.42C170.875 8.95667 170.79 9.445 170.62 9.885C170.45 10.325 170.21 10.7017 169.9 11.015C169.59 11.3283 169.216 11.5717 168.78 11.745C168.346 11.915 167.866 12 167.34 12H164.665V4.835H167.34C167.866 4.835 168.346 4.92167 168.78 5.095C169.216 5.265 169.59 5.50833 169.9 5.825C170.21 6.13833 170.45 6.515 170.62 6.955C170.79 7.395 170.875 7.88333 170.875 8.42ZM169.88 8.42C169.88 7.98 169.82 7.58667 169.7 7.24C169.58 6.89333 169.41 6.6 169.19 6.36C168.97 6.12 168.703 5.93667 168.39 5.81C168.076 5.68333 167.726 5.62 167.34 5.62H165.635V11.215H167.34C167.726 11.215 168.076 11.1517 168.39 11.025C168.703 10.8983 168.97 10.7167 169.19 10.48C169.41 10.24 169.58 9.94667 169.7 9.6C169.82 9.25333 169.88 8.86 169.88 8.42ZM176.685 5.65H174.365V12H173.4V5.65H171.075V4.835H176.685V5.65ZM180.114 8.855C180.114 9.56833 180.204 10.2617 180.384 10.935C180.567 11.6083 180.834 12.2483 181.184 12.855C181.237 12.9583 181.251 13.0367 181.224 13.09C181.197 13.1467 181.159 13.1917 181.109 13.225L180.714 13.465C180.464 13.0817 180.251 12.7017 180.074 12.325C179.901 11.9483 179.759 11.57 179.649 11.19C179.542 10.81 179.464 10.4283 179.414 10.045C179.364 9.65833 179.339 9.26167 179.339 8.855C179.339 8.45167 179.364 8.05667 179.414 7.67C179.464 7.28333 179.542 6.90167 179.649 6.525C179.759 6.145 179.901 5.76667 180.074 5.39C180.251 5.01333 180.464 4.63167 180.714 4.245L181.109 4.49C181.159 4.52333 181.197 4.56833 181.224 4.625C181.251 4.67833 181.237 4.755 181.184 4.855C180.834 5.46167 180.567 6.10167 180.384 6.775C180.204 7.44833 180.114 8.14167 180.114 8.855ZM184.885 11.23C185.162 11.23 185.4 11.1983 185.6 11.135C185.8 11.0717 185.964 10.9833 186.09 10.87C186.22 10.7533 186.315 10.6167 186.375 10.46C186.435 10.3 186.465 10.125 186.465 9.935C186.465 9.565 186.334 9.27333 186.07 9.06C185.807 8.84333 185.412 8.735 184.885 8.735H183.335V11.23H184.885ZM183.335 5.6V8.045H184.615C184.889 8.045 185.125 8.015 185.325 7.955C185.529 7.895 185.695 7.81167 185.825 7.705C185.959 7.59833 186.057 7.47 186.12 7.32C186.184 7.16667 186.215 7 186.215 6.82C186.215 6.39667 186.089 6.08833 185.835 5.895C185.582 5.69833 185.189 5.6 184.655 5.6H183.335ZM184.655 4.835C185.095 4.835 185.474 4.87833 185.79 4.965C186.11 5.05167 186.372 5.175 186.575 5.335C186.782 5.495 186.934 5.69167 187.03 5.925C187.127 6.155 187.175 6.415 187.175 6.705C187.175 6.88167 187.147 7.05167 187.09 7.215C187.037 7.375 186.955 7.525 186.845 7.665C186.735 7.805 186.595 7.93167 186.425 8.045C186.259 8.155 186.062 8.245 185.835 8.315C186.362 8.415 186.757 8.60333 187.02 8.88C187.287 9.15333 187.42 9.51333 187.42 9.96C187.42 10.2633 187.364 10.54 187.25 10.79C187.14 11.04 186.977 11.255 186.76 11.435C186.547 11.615 186.284 11.755 185.97 11.855C185.657 11.9517 185.3 12 184.9 12H182.37V4.835H184.655ZM193.155 11.21L193.15 12H188.735V4.835H193.15V5.625H189.705V8.005H192.495V8.765H189.705V11.21H193.155ZM196.522 8.55C196.798 8.55 197.042 8.51333 197.252 8.44C197.465 8.36667 197.643 8.265 197.787 8.135C197.933 8.00167 198.043 7.84333 198.117 7.66C198.19 7.47667 198.227 7.275 198.227 7.055C198.227 6.59833 198.085 6.24167 197.802 5.985C197.522 5.72833 197.095 5.6 196.522 5.6H195.372V8.55H196.522ZM196.522 4.835C196.975 4.835 197.368 4.88833 197.702 4.995C198.038 5.09833 198.317 5.24667 198.537 5.44C198.757 5.63333 198.92 5.86667 199.027 6.14C199.137 6.41333 199.192 6.71833 199.192 7.055C199.192 7.38833 199.133 7.69333 199.017 7.97C198.9 8.24667 198.728 8.485 198.502 8.685C198.278 8.885 198 9.04167 197.667 9.155C197.337 9.265 196.955 9.32 196.522 9.32H195.372V12H194.407V4.835H196.522ZM204.332 11.155C204.429 11.155 204.506 11.1833 204.562 11.24C204.619 11.2967 204.647 11.37 204.647 11.46V12H199.867V11.695C199.867 11.6317 199.881 11.5667 199.907 11.5C199.934 11.4333 199.976 11.3717 200.032 11.315L202.327 9.01C202.517 8.81667 202.691 8.63167 202.847 8.455C203.004 8.275 203.137 8.095 203.247 7.915C203.357 7.735 203.442 7.55333 203.502 7.37C203.562 7.18333 203.592 6.985 203.592 6.775C203.592 6.565 203.559 6.38167 203.492 6.225C203.426 6.065 203.334 5.93333 203.217 5.83C203.104 5.72667 202.969 5.65 202.812 5.6C202.656 5.54667 202.487 5.52 202.307 5.52C202.124 5.52 201.956 5.54667 201.802 5.6C201.649 5.65333 201.512 5.72833 201.392 5.825C201.276 5.91833 201.177 6.03 201.097 6.16C201.017 6.29 200.961 6.43333 200.927 6.59C200.887 6.70667 200.832 6.785 200.762 6.825C200.696 6.86167 200.601 6.87167 200.477 6.855L200.012 6.775C200.059 6.44833 200.149 6.16 200.282 5.91C200.419 5.65667 200.589 5.445 200.792 5.275C200.999 5.105 201.234 4.97667 201.497 4.89C201.761 4.8 202.046 4.755 202.352 4.755C202.656 4.755 202.939 4.8 203.202 4.89C203.466 4.98 203.694 5.11167 203.887 5.285C204.081 5.455 204.232 5.66333 204.342 5.91C204.452 6.15667 204.507 6.43667 204.507 6.75C204.507 7.01667 204.467 7.265 204.387 7.495C204.307 7.72167 204.199 7.93833 204.062 8.145C203.926 8.35167 203.767 8.55333 203.587 8.75C203.411 8.94667 203.222 9.145 203.022 9.345L201.132 11.275C201.266 11.2383 201.401 11.21 201.537 11.19C201.674 11.1667 201.806 11.155 201.932 11.155H204.332ZM210.598 8.42C210.598 9.04667 210.53 9.59 210.393 10.05C210.26 10.5067 210.076 10.885 209.843 11.185C209.61 11.485 209.333 11.7083 209.013 11.855C208.696 12.0017 208.356 12.075 207.993 12.075C207.626 12.075 207.285 12.0017 206.968 11.855C206.655 11.7083 206.381 11.485 206.148 11.185C205.915 10.885 205.731 10.5067 205.598 10.05C205.465 9.59 205.398 9.04667 205.398 8.42C205.398 7.79333 205.465 7.25 205.598 6.79C205.731 6.33 205.915 5.95 206.148 5.65C206.381 5.34667 206.655 5.12167 206.968 4.975C207.285 4.82833 207.626 4.755 207.993 4.755C208.356 4.755 208.696 4.82833 209.013 4.975C209.333 5.12167 209.61 5.34667 209.843 5.65C210.076 5.95 210.26 6.33 210.393 6.79C210.53 7.25 210.598 7.79333 210.598 8.42ZM209.673 8.42C209.673 7.87333 209.626 7.415 209.533 7.045C209.443 6.67167 209.32 6.37167 209.163 6.145C209.01 5.91833 208.831 5.75667 208.628 5.66C208.425 5.56 208.213 5.51 207.993 5.51C207.773 5.51 207.561 5.56 207.358 5.66C207.155 5.75667 206.976 5.91833 206.823 6.145C206.67 6.37167 206.546 6.67167 206.453 7.045C206.363 7.415 206.318 7.87333 206.318 8.42C206.318 8.96667 206.363 9.425 206.453 9.795C206.546 10.165 206.67 10.4633 206.823 10.69C206.976 10.9167 207.155 11.08 207.358 11.18C207.561 11.2767 207.773 11.325 207.993 11.325C208.213 11.325 208.425 11.2767 208.628 11.18C208.831 11.08 209.01 10.9167 209.163 10.69C209.32 10.4633 209.443 10.165 209.533 9.795C209.626 9.425 209.673 8.96667 209.673 8.42ZM212.244 8.855C212.244 8.14167 212.152 7.44833 211.969 6.775C211.789 6.10167 211.524 5.46167 211.174 4.855C211.147 4.805 211.131 4.76167 211.124 4.725C211.117 4.685 211.119 4.65167 211.129 4.625C211.139 4.595 211.154 4.57 211.174 4.55C211.197 4.52667 211.222 4.50667 211.249 4.49L211.644 4.245C211.894 4.63167 212.106 5.01333 212.279 5.39C212.456 5.76667 212.597 6.145 212.704 6.525C212.814 6.90167 212.894 7.28333 212.944 7.67C212.994 8.05667 213.019 8.45167 213.019 8.855C213.019 9.26167 212.994 9.65833 212.944 10.045C212.894 10.4283 212.814 10.81 212.704 11.19C212.597 11.57 212.456 11.9483 212.279 12.325C212.106 12.7017 211.894 13.0817 211.644 13.465L211.249 13.225C211.222 13.2083 211.197 13.1883 211.174 13.165C211.154 13.145 211.139 13.12 211.129 13.09C211.119 13.0633 211.117 13.03 211.124 12.99C211.131 12.95 211.147 12.905 211.174 12.855C211.524 12.2483 211.789 11.6083 211.969 10.935C212.152 10.2617 212.244 9.56833 212.244 8.855Z" fill="black"/>
<rect x="230.167" y="4" width="8" height="8" rx="2" fill="#B3B3FF"/>
<path d="M248.747 5.955C248.717 6.005 248.683 6.04333 248.647 6.07C248.613 6.09333 248.572 6.105 248.522 6.105C248.465 6.105 248.398 6.07667 248.322 6.02C248.245 5.96333 248.148 5.90167 248.032 5.835C247.918 5.765 247.78 5.70167 247.617 5.645C247.457 5.58833 247.262 5.56 247.032 5.56C246.815 5.56 246.623 5.59 246.457 5.65C246.293 5.70667 246.155 5.785 246.042 5.885C245.932 5.985 245.848 6.10333 245.792 6.24C245.735 6.37333 245.707 6.51833 245.707 6.675C245.707 6.875 245.755 7.04167 245.852 7.175C245.952 7.305 246.082 7.41667 246.242 7.51C246.405 7.60333 246.588 7.685 246.792 7.755C246.998 7.82167 247.208 7.89167 247.422 7.965C247.638 8.03833 247.848 8.12167 248.052 8.215C248.258 8.305 248.442 8.42 248.602 8.56C248.765 8.7 248.895 8.87167 248.992 9.075C249.092 9.27833 249.142 9.52833 249.142 9.825C249.142 10.1383 249.088 10.4333 248.982 10.71C248.875 10.9833 248.718 11.2217 248.512 11.425C248.308 11.6283 248.057 11.7883 247.757 11.905C247.46 12.0217 247.122 12.08 246.742 12.08C246.275 12.08 245.852 11.9967 245.472 11.83C245.092 11.66 244.767 11.4317 244.497 11.145L244.777 10.685C244.803 10.6483 244.835 10.6183 244.872 10.595C244.912 10.5683 244.955 10.555 245.002 10.555C245.045 10.555 245.093 10.5733 245.147 10.61C245.203 10.6433 245.267 10.6867 245.337 10.74C245.407 10.7933 245.487 10.8517 245.577 10.915C245.667 10.9783 245.768 11.0367 245.882 11.09C245.998 11.1433 246.13 11.1883 246.277 11.225C246.423 11.2583 246.588 11.275 246.772 11.275C247.002 11.275 247.207 11.2433 247.387 11.18C247.567 11.1167 247.718 11.0283 247.842 10.915C247.968 10.7983 248.065 10.66 248.132 10.5C248.198 10.34 248.232 10.1617 248.232 9.965C248.232 9.74833 248.182 9.57167 248.082 9.435C247.985 9.295 247.857 9.17833 247.697 9.085C247.537 8.99167 247.353 8.91333 247.147 8.85C246.94 8.78333 246.73 8.71667 246.517 8.65C246.303 8.58 246.093 8.5 245.887 8.41C245.68 8.32 245.497 8.20333 245.337 8.06C245.177 7.91667 245.047 7.73833 244.947 7.525C244.85 7.30833 244.802 7.04167 244.802 6.725C244.802 6.47167 244.85 6.22667 244.947 5.99C245.047 5.75333 245.19 5.54333 245.377 5.36C245.567 5.17667 245.798 5.03 246.072 4.92C246.348 4.81 246.665 4.755 247.022 4.755C247.422 4.755 247.785 4.81833 248.112 4.945C248.442 5.07167 248.732 5.255 248.982 5.495L248.747 5.955ZM252.307 6.855C252.677 6.855 253.01 6.91667 253.307 7.04C253.604 7.16333 253.857 7.33833 254.067 7.565C254.277 7.79167 254.437 8.06667 254.547 8.39C254.66 8.71 254.717 9.06833 254.717 9.465C254.717 9.865 254.66 10.225 254.547 10.545C254.437 10.865 254.277 11.1383 254.067 11.365C253.857 11.5917 253.604 11.7667 253.307 11.89C253.01 12.01 252.677 12.07 252.307 12.07C251.934 12.07 251.597 12.01 251.297 11.89C251 11.7667 250.747 11.5917 250.537 11.365C250.327 11.1383 250.165 10.865 250.052 10.545C249.942 10.225 249.887 9.865 249.887 9.465C249.887 9.06833 249.942 8.71 250.052 8.39C250.165 8.06667 250.327 7.79167 250.537 7.565C250.747 7.33833 251 7.16333 251.297 7.04C251.597 6.91667 251.934 6.855 252.307 6.855ZM252.307 11.375C252.807 11.375 253.18 11.2083 253.427 10.875C253.674 10.5383 253.797 10.07 253.797 9.47C253.797 8.86667 253.674 8.39667 253.427 8.06C253.18 7.72333 252.807 7.555 252.307 7.555C252.054 7.555 251.832 7.59833 251.642 7.685C251.455 7.77167 251.299 7.89667 251.172 8.06C251.049 8.22333 250.955 8.425 250.892 8.665C250.832 8.90167 250.802 9.17 250.802 9.47C250.802 10.07 250.925 10.5383 251.172 10.875C251.422 11.2083 251.8 11.375 252.307 11.375ZM256.666 4.635V12H255.776V4.635H256.666ZM260.754 9.72C260.344 9.73333 259.994 9.76667 259.704 9.82C259.417 9.87 259.182 9.93667 258.999 10.02C258.819 10.1033 258.687 10.2017 258.604 10.315C258.524 10.4283 258.484 10.555 258.484 10.695C258.484 10.8283 258.506 10.9433 258.549 11.04C258.592 11.1367 258.651 11.2167 258.724 11.28C258.801 11.34 258.889 11.385 258.989 11.415C259.092 11.4417 259.202 11.455 259.319 11.455C259.476 11.455 259.619 11.44 259.749 11.41C259.879 11.3767 260.001 11.33 260.114 11.27C260.231 11.21 260.341 11.1383 260.444 11.055C260.551 10.9717 260.654 10.8767 260.754 10.77V9.72ZM257.879 7.65C258.159 7.38 258.461 7.17833 258.784 7.045C259.107 6.91167 259.466 6.845 259.859 6.845C260.142 6.845 260.394 6.89167 260.614 6.985C260.834 7.07833 261.019 7.20833 261.169 7.375C261.319 7.54167 261.432 7.74333 261.509 7.98C261.586 8.21667 261.624 8.47667 261.624 8.76V12H261.229C261.142 12 261.076 11.9867 261.029 11.96C260.982 11.93 260.946 11.8733 260.919 11.79L260.819 11.31C260.686 11.4333 260.556 11.5433 260.429 11.64C260.302 11.7333 260.169 11.8133 260.029 11.88C259.889 11.9433 259.739 11.9917 259.579 12.025C259.422 12.0617 259.247 12.08 259.054 12.08C258.857 12.08 258.672 12.0533 258.499 12C258.326 11.9433 258.174 11.86 258.044 11.75C257.917 11.64 257.816 11.5017 257.739 11.335C257.666 11.165 257.629 10.965 257.629 10.735C257.629 10.535 257.684 10.3433 257.794 10.16C257.904 9.97333 258.082 9.80833 258.329 9.665C258.576 9.52167 258.897 9.405 259.294 9.315C259.691 9.22167 260.177 9.16833 260.754 9.155V8.76C260.754 8.36667 260.669 8.07 260.499 7.87C260.329 7.66667 260.081 7.565 259.754 7.565C259.534 7.565 259.349 7.59333 259.199 7.65C259.052 7.70333 258.924 7.765 258.814 7.835C258.707 7.90167 258.614 7.96333 258.534 8.02C258.457 8.07333 258.381 8.1 258.304 8.1C258.244 8.1 258.192 8.085 258.149 8.055C258.106 8.02167 258.069 7.98167 258.039 7.935L257.879 7.65ZM263.72 7.67C263.83 7.54667 263.946 7.435 264.07 7.335C264.193 7.235 264.323 7.15 264.46 7.08C264.6 7.00667 264.746 6.95167 264.9 6.915C265.056 6.875 265.225 6.855 265.405 6.855C265.681 6.855 265.925 6.90167 266.135 6.995C266.348 7.085 266.525 7.215 266.665 7.385C266.808 7.55167 266.916 7.75333 266.99 7.99C267.063 8.22667 267.1 8.48833 267.1 8.775V12H266.205V8.775C266.205 8.39167 266.116 8.095 265.94 7.885C265.766 7.67167 265.501 7.565 265.145 7.565C264.881 7.565 264.635 7.62833 264.405 7.755C264.178 7.88167 263.968 8.05333 263.775 8.27V12H262.88V6.935H263.415C263.541 6.935 263.62 6.99667 263.65 7.12L263.72 7.67ZM271.101 9.72C270.691 9.73333 270.341 9.76667 270.051 9.82C269.764 9.87 269.529 9.93667 269.346 10.02C269.166 10.1033 269.034 10.2017 268.951 10.315C268.871 10.4283 268.831 10.555 268.831 10.695C268.831 10.8283 268.853 10.9433 268.896 11.04C268.939 11.1367 268.998 11.2167 269.071 11.28C269.148 11.34 269.236 11.385 269.336 11.415C269.439 11.4417 269.549 11.455 269.666 11.455C269.823 11.455 269.966 11.44 270.096 11.41C270.226 11.3767 270.348 11.33 270.461 11.27C270.578 11.21 270.688 11.1383 270.791 11.055C270.898 10.9717 271.001 10.8767 271.101 10.77V9.72ZM268.226 7.65C268.506 7.38 268.808 7.17833 269.131 7.045C269.454 6.91167 269.813 6.845 270.206 6.845C270.489 6.845 270.741 6.89167 270.961 6.985C271.181 7.07833 271.366 7.20833 271.516 7.375C271.666 7.54167 271.779 7.74333 271.856 7.98C271.933 8.21667 271.971 8.47667 271.971 8.76V12H271.576C271.489 12 271.423 11.9867 271.376 11.96C271.329 11.93 271.293 11.8733 271.266 11.79L271.166 11.31C271.033 11.4333 270.903 11.5433 270.776 11.64C270.649 11.7333 270.516 11.8133 270.376 11.88C270.236 11.9433 270.086 11.9917 269.926 12.025C269.769 12.0617 269.594 12.08 269.401 12.08C269.204 12.08 269.019 12.0533 268.846 12C268.673 11.9433 268.521 11.86 268.391 11.75C268.264 11.64 268.163 11.5017 268.086 11.335C268.013 11.165 267.976 10.965 267.976 10.735C267.976 10.535 268.031 10.3433 268.141 10.16C268.251 9.97333 268.429 9.80833 268.676 9.665C268.923 9.52167 269.244 9.405 269.641 9.315C270.038 9.22167 270.524 9.16833 271.101 9.155V8.76C271.101 8.36667 271.016 8.07 270.846 7.87C270.676 7.66667 270.428 7.565 270.101 7.565C269.881 7.565 269.696 7.59333 269.546 7.65C269.399 7.70333 269.271 7.765 269.161 7.835C269.054 7.90167 268.961 7.96333 268.881 8.02C268.804 8.07333 268.728 8.1 268.651 8.1C268.591 8.1 268.539 8.085 268.496 8.055C268.453 8.02167 268.416 7.98167 268.386 7.935L268.226 7.65Z" fill="black"/>
<rect x="289.167" y="4" width="8" height="8" rx="2" fill="#FFCFB3"/>
<path d="M306.847 11.23C307.143 11.23 307.408 11.18 307.642 11.08C307.875 10.98 308.072 10.84 308.232 10.66C308.395 10.48 308.518 10.265 308.602 10.015C308.688 9.765 308.732 9.49 308.732 9.19V4.835H309.697V9.19C309.697 9.60333 309.63 9.98667 309.497 10.34C309.367 10.6933 309.178 11 308.932 11.26C308.688 11.5167 308.39 11.7183 308.037 11.865C307.683 12.0117 307.287 12.085 306.847 12.085C306.407 12.085 306.01 12.0117 305.657 11.865C305.303 11.7183 305.003 11.5167 304.757 11.26C304.51 11 304.32 10.6933 304.187 10.34C304.057 9.98667 303.992 9.60333 303.992 9.19V4.835H304.957V9.185C304.957 9.485 304.998 9.76 305.082 10.01C305.168 10.26 305.292 10.475 305.452 10.655C305.615 10.835 305.813 10.9767 306.047 11.08C306.283 11.18 306.55 11.23 306.847 11.23ZM315 5.955C314.97 6.005 314.937 6.04333 314.9 6.07C314.867 6.09333 314.825 6.105 314.775 6.105C314.718 6.105 314.652 6.07667 314.575 6.02C314.498 5.96333 314.402 5.90167 314.285 5.835C314.172 5.765 314.033 5.70167 313.87 5.645C313.71 5.58833 313.515 5.56 313.285 5.56C313.068 5.56 312.877 5.59 312.71 5.65C312.547 5.70667 312.408 5.785 312.295 5.885C312.185 5.985 312.102 6.10333 312.045 6.24C311.988 6.37333 311.96 6.51833 311.96 6.675C311.96 6.875 312.008 7.04167 312.105 7.175C312.205 7.305 312.335 7.41667 312.495 7.51C312.658 7.60333 312.842 7.685 313.045 7.755C313.252 7.82167 313.462 7.89167 313.675 7.965C313.892 8.03833 314.102 8.12167 314.305 8.215C314.512 8.305 314.695 8.42 314.855 8.56C315.018 8.7 315.148 8.87167 315.245 9.075C315.345 9.27833 315.395 9.52833 315.395 9.825C315.395 10.1383 315.342 10.4333 315.235 10.71C315.128 10.9833 314.972 11.2217 314.765 11.425C314.562 11.6283 314.31 11.7883 314.01 11.905C313.713 12.0217 313.375 12.08 312.995 12.08C312.528 12.08 312.105 11.9967 311.725 11.83C311.345 11.66 311.02 11.4317 310.75 11.145L311.03 10.685C311.057 10.6483 311.088 10.6183 311.125 10.595C311.165 10.5683 311.208 10.555 311.255 10.555C311.298 10.555 311.347 10.5733 311.4 10.61C311.457 10.6433 311.52 10.6867 311.59 10.74C311.66 10.7933 311.74 10.8517 311.83 10.915C311.92 10.9783 312.022 11.0367 312.135 11.09C312.252 11.1433 312.383 11.1883 312.53 11.225C312.677 11.2583 312.842 11.275 313.025 11.275C313.255 11.275 313.46 11.2433 313.64 11.18C313.82 11.1167 313.972 11.0283 314.095 10.915C314.222 10.7983 314.318 10.66 314.385 10.5C314.452 10.34 314.485 10.1617 314.485 9.965C314.485 9.74833 314.435 9.57167 314.335 9.435C314.238 9.295 314.11 9.17833 313.95 9.085C313.79 8.99167 313.607 8.91333 313.4 8.85C313.193 8.78333 312.983 8.71667 312.77 8.65C312.557 8.58 312.347 8.5 312.14 8.41C311.933 8.32 311.75 8.20333 311.59 8.06C311.43 7.91667 311.3 7.73833 311.2 7.525C311.103 7.30833 311.055 7.04167 311.055 6.725C311.055 6.47167 311.103 6.22667 311.2 5.99C311.3 5.75333 311.443 5.54333 311.63 5.36C311.82 5.17667 312.052 5.03 312.325 4.92C312.602 4.81 312.918 4.755 313.275 4.755C313.675 4.755 314.038 4.81833 314.365 4.945C314.695 5.07167 314.985 5.255 315.235 5.495L315 5.955ZM322.875 8.42C322.875 8.95667 322.79 9.445 322.62 9.885C322.45 10.325 322.21 10.7017 321.9 11.015C321.59 11.3283 321.216 11.5717 320.78 11.745C320.346 11.915 319.866 12 319.34 12H316.665V4.835H319.34C319.866 4.835 320.346 4.92167 320.78 5.095C321.216 5.265 321.59 5.50833 321.9 5.825C322.21 6.13833 322.45 6.515 322.62 6.955C322.79 7.395 322.875 7.88333 322.875 8.42ZM321.88 8.42C321.88 7.98 321.82 7.58667 321.7 7.24C321.58 6.89333 321.41 6.6 321.19 6.36C320.97 6.12 320.703 5.93667 320.39 5.81C320.076 5.68333 319.726 5.62 319.34 5.62H317.635V11.215H319.34C319.726 11.215 320.076 11.1517 320.39 11.025C320.703 10.8983 320.97 10.7167 321.19 10.48C321.41 10.24 321.58 9.94667 321.7 9.6C321.82 9.25333 321.88 8.86 321.88 8.42ZM328.685 5.65H326.365V12H325.4V5.65H323.075V4.835H328.685V5.65ZM332.114 8.855C332.114 9.56833 332.204 10.2617 332.384 10.935C332.567 11.6083 332.834 12.2483 333.184 12.855C333.237 12.9583 333.251 13.0367 333.224 13.09C333.197 13.1467 333.159 13.1917 333.109 13.225L332.714 13.465C332.464 13.0817 332.251 12.7017 332.074 12.325C331.901 11.9483 331.759 11.57 331.649 11.19C331.542 10.81 331.464 10.4283 331.414 10.045C331.364 9.65833 331.339 9.26167 331.339 8.855C331.339 8.45167 331.364 8.05667 331.414 7.67C331.464 7.28333 331.542 6.90167 331.649 6.525C331.759 6.145 331.901 5.76667 332.074 5.39C332.251 5.01333 332.464 4.63167 332.714 4.245L333.109 4.49C333.159 4.52333 333.197 4.56833 333.224 4.625C333.251 4.67833 333.237 4.755 333.184 4.855C332.834 5.46167 332.567 6.10167 332.384 6.775C332.204 7.44833 332.114 8.14167 332.114 8.855ZM339.215 5.65H336.895V12H335.93V5.65H333.605V4.835H339.215V5.65ZM342.163 8.305C342.443 8.305 342.69 8.27167 342.903 8.205C343.12 8.135 343.3 8.03833 343.443 7.915C343.59 7.78833 343.7 7.63833 343.773 7.465C343.847 7.29167 343.883 7.1 343.883 6.89C343.883 6.46333 343.743 6.14167 343.463 5.925C343.183 5.70833 342.763 5.6 342.203 5.6H341.143V8.305H342.163ZM345.473 12H344.613C344.437 12 344.307 11.9317 344.223 11.795L342.363 9.235C342.307 9.155 342.245 9.09833 342.178 9.065C342.115 9.02833 342.015 9.01 341.878 9.01H341.143V12H340.178V4.835H342.203C342.657 4.835 343.048 4.88167 343.378 4.975C343.708 5.065 343.98 5.19667 344.193 5.37C344.41 5.54333 344.57 5.75333 344.673 6C344.777 6.24333 344.828 6.51667 344.828 6.82C344.828 7.07333 344.788 7.31 344.708 7.53C344.628 7.75 344.512 7.94833 344.358 8.125C344.208 8.29833 344.023 8.44667 343.803 8.57C343.587 8.69333 343.34 8.78667 343.063 8.85C343.187 8.92 343.293 9.02167 343.383 9.155L345.473 12ZM351.31 10.52C351.363 10.52 351.41 10.5417 351.45 10.585L351.835 11C351.541 11.34 351.185 11.605 350.765 11.795C350.348 11.985 349.843 12.08 349.25 12.08C348.736 12.08 348.27 11.9917 347.85 11.815C347.43 11.635 347.071 11.385 346.775 11.065C346.478 10.7417 346.248 10.355 346.085 9.905C345.921 9.455 345.84 8.96 345.84 8.42C345.84 7.88 345.925 7.385 346.095 6.935C346.265 6.485 346.503 6.09833 346.81 5.775C347.12 5.45167 347.49 5.20167 347.92 5.025C348.35 4.845 348.825 4.755 349.345 4.755C349.855 4.755 350.305 4.83667 350.695 5C351.085 5.16333 351.428 5.385 351.725 5.665L351.405 6.11C351.385 6.14333 351.358 6.17167 351.325 6.195C351.295 6.215 351.253 6.225 351.2 6.225C351.14 6.225 351.066 6.19333 350.98 6.13C350.893 6.06333 350.78 5.99 350.64 5.91C350.5 5.83 350.325 5.75833 350.115 5.695C349.905 5.62833 349.646 5.595 349.34 5.595C348.97 5.595 348.631 5.66 348.325 5.79C348.018 5.91667 347.753 6.10167 347.53 6.345C347.31 6.58833 347.138 6.885 347.015 7.235C346.891 7.585 346.83 7.98 346.83 8.42C346.83 8.86667 346.893 9.265 347.02 9.615C347.15 9.965 347.325 10.2617 347.545 10.505C347.768 10.745 348.03 10.9283 348.33 11.055C348.633 11.1817 348.96 11.245 349.31 11.245C349.523 11.245 349.715 11.2333 349.885 11.21C350.058 11.1833 350.216 11.1433 350.36 11.09C350.506 11.0367 350.641 10.97 350.765 10.89C350.891 10.8067 351.016 10.7083 351.14 10.595C351.196 10.545 351.253 10.52 351.31 10.52ZM356.879 11.155C356.976 11.155 357.053 11.1833 357.109 11.24C357.166 11.2967 357.194 11.37 357.194 11.46V12H352.414V11.695C352.414 11.6317 352.428 11.5667 352.454 11.5C352.481 11.4333 352.523 11.3717 352.579 11.315L354.874 9.01C355.064 8.81667 355.238 8.63167 355.394 8.455C355.551 8.275 355.684 8.095 355.794 7.915C355.904 7.735 355.989 7.55333 356.049 7.37C356.109 7.18333 356.139 6.985 356.139 6.775C356.139 6.565 356.106 6.38167 356.039 6.225C355.973 6.065 355.881 5.93333 355.764 5.83C355.651 5.72667 355.516 5.65 355.359 5.6C355.203 5.54667 355.034 5.52 354.854 5.52C354.671 5.52 354.503 5.54667 354.349 5.6C354.196 5.65333 354.059 5.72833 353.939 5.825C353.823 5.91833 353.724 6.03 353.644 6.16C353.564 6.29 353.508 6.43333 353.474 6.59C353.434 6.70667 353.379 6.785 353.309 6.825C353.243 6.86167 353.148 6.87167 353.024 6.855L352.559 6.775C352.606 6.44833 352.696 6.16 352.829 5.91C352.966 5.65667 353.136 5.445 353.339 5.275C353.546 5.105 353.781 4.97667 354.044 4.89C354.308 4.8 354.593 4.755 354.899 4.755C355.203 4.755 355.486 4.8 355.749 4.89C356.013 4.98 356.241 5.11167 356.434 5.285C356.628 5.455 356.779 5.66333 356.889 5.91C356.999 6.15667 357.054 6.43667 357.054 6.75C357.054 7.01667 357.014 7.265 356.934 7.495C356.854 7.72167 356.746 7.93833 356.609 8.145C356.473 8.35167 356.314 8.55333 356.134 8.75C355.958 8.94667 355.769 9.145 355.569 9.345L353.679 11.275C353.813 11.2383 353.948 11.21 354.084 11.19C354.221 11.1667 354.353 11.155 354.479 11.155H356.879ZM363.145 8.42C363.145 9.04667 363.077 9.59 362.94 10.05C362.807 10.5067 362.623 10.885 362.39 11.185C362.157 11.485 361.88 11.7083 361.56 11.855C361.243 12.0017 360.903 12.075 360.54 12.075C360.173 12.075 359.832 12.0017 359.515 11.855C359.202 11.7083 358.928 11.485 358.695 11.185C358.462 10.885 358.278 10.5067 358.145 10.05C358.012 9.59 357.945 9.04667 357.945 8.42C357.945 7.79333 358.012 7.25 358.145 6.79C358.278 6.33 358.462 5.95 358.695 5.65C358.928 5.34667 359.202 5.12167 359.515 4.975C359.832 4.82833 360.173 4.755 360.54 4.755C360.903 4.755 361.243 4.82833 361.56 4.975C361.88 5.12167 362.157 5.34667 362.39 5.65C362.623 5.95 362.807 6.33 362.94 6.79C363.077 7.25 363.145 7.79333 363.145 8.42ZM362.22 8.42C362.22 7.87333 362.173 7.415 362.08 7.045C361.99 6.67167 361.867 6.37167 361.71 6.145C361.557 5.91833 361.378 5.75667 361.175 5.66C360.972 5.56 360.76 5.51 360.54 5.51C360.32 5.51 360.108 5.56 359.905 5.66C359.702 5.75667 359.523 5.91833 359.37 6.145C359.217 6.37167 359.093 6.67167 359 7.045C358.91 7.415 358.865 7.87333 358.865 8.42C358.865 8.96667 358.91 9.425 359 9.795C359.093 10.165 359.217 10.4633 359.37 10.69C359.523 10.9167 359.702 11.08 359.905 11.18C360.108 11.2767 360.32 11.325 360.54 11.325C360.76 11.325 360.972 11.2767 361.175 11.18C361.378 11.08 361.557 10.9167 361.71 10.69C361.867 10.4633 361.99 10.165 362.08 9.795C362.173 9.425 362.22 8.96667 362.22 8.42ZM364.791 8.855C364.791 8.14167 364.699 7.44833 364.516 6.775C364.336 6.10167 364.071 5.46167 363.721 4.855C363.694 4.805 363.677 4.76167 363.671 4.725C363.664 4.685 363.666 4.65167 363.676 4.625C363.686 4.595 363.701 4.57 363.721 4.55C363.744 4.52667 363.769 4.50667 363.796 4.49L364.191 4.245C364.441 4.63167 364.652 5.01333 364.826 5.39C365.002 5.76667 365.144 6.145 365.251 6.525C365.361 6.90167 365.441 7.28333 365.491 7.67C365.541 8.05667 365.566 8.45167 365.566 8.855C365.566 9.26167 365.541 9.65833 365.491 10.045C365.441 10.4283 365.361 10.81 365.251 11.19C365.144 11.57 365.002 11.9483 364.826 12.325C364.652 12.7017 364.441 13.0817 364.191 13.465L363.796 13.225C363.769 13.2083 363.744 13.1883 363.721 13.165C363.701 13.145 363.686 13.12 363.676 13.09C363.666 13.0633 363.664 13.03 363.671 12.99C363.677 12.95 363.694 12.905 363.721 12.855C364.071 12.2483 364.336 11.6083 364.516 10.935C364.699 10.2617 364.791 9.56833 364.791 8.855Z" fill="black"/>
</svg>
