<svg width="131" height="80" viewBox="0 0 131 80" fill="none" xmlns="http://www.w3.org/2000/svg">
<g clip-path="url(#clip0_1144_4502)">
<path d="M167.98 62.9997C167.98 64.1902 167.955 65.3756 167.906 66.554C166.093 110.108 131.107 145.094 87.553 146.907C86.3745 146.956 85.1892 146.981 83.9987 146.981C37.6174 146.981 0.0175781 109.381 0.0175781 62.9997C0.0175781 16.6184 37.6174 -20.9814 83.9987 -20.9814C130.38 -20.9814 167.98 16.6184 167.98 62.9997Z" fill="#FFFDB3"/>
<path d="M167.907 66.5539C166.094 110.108 131.108 145.094 87.5539 146.907C64.7414 124.094 43.9568 103.309 43.9258 103.278L124.278 22.9258C124.309 22.9568 145.094 43.7414 167.907 66.5539Z" fill="#FFFC99"/>
<path d="M127.096 100.026C128.776 105.251 131.537 110.13 135.209 114.21C128.096 114.862 120.837 113.779 114.203 111.133C105.453 116.635 95.0971 119.818 83.998 119.818C52.618 119.818 27.1797 94.3799 27.1797 63C27.1797 31.62 52.618 6.18164 83.998 6.18164C115.378 6.18164 140.816 31.62 140.816 63C140.816 77.1439 135.648 90.0815 127.096 100.026Z" fill="#FFFA66"/>
<path d="M91.4913 28.4961L87.0387 80.229C86.9883 80.8143 86.4985 81.2637 85.9111 81.2637H82.0704C81.483 81.2637 80.9932 80.8143 80.9428 80.229L76.596 29.725C76.5392 29.0641 77.0603 28.4961 77.7237 28.4961H91.4913Z" fill="white"/>
</g>
<defs>
<clipPath id="clip0_1144_4502">
<rect width="168" height="168" fill="white" transform="translate(0 -21)"/>
</clipPath>
</defs>
</svg>
