<svg width="20" height="20" viewBox="0 0 20 20" fill="none" xmlns="http://www.w3.org/2000/svg">
<path d="M7.5 18.3334C7.79987 18.3334 8.909 17.8272 10.0412 16.8149M10.0412 16.8149C11.0065 15.9516 11.9886 14.7203 12.5 13.121C13.6111 9.64613 6.94444 13.121 9.16667 16.0168C9.44008 16.373 9.73458 16.6335 10.0412 16.8149ZM10.0412 16.8149C11.3768 17.605 12.9426 16.895 14.0034 16.0787C14.3277 15.8292 14.4897 15.7045 14.5865 15.7433C14.6833 15.7821 14.7398 16.0054 14.853 16.4519C15.2151 17.8808 16.2846 19.0342 17.5 17.1755" stroke="currentColor" stroke-width="1.5" stroke-linecap="round" stroke-linejoin="round"/>
<path d="M16.6667 10.8334V6.57568C16.6667 5.14706 16.6667 4.43274 16.4433 3.86224C16.0844 2.94507 15.3252 2.22162 14.3627 1.87954C13.764 1.66675 13.0144 1.66675 11.5152 1.66675C8.8915 1.66675 7.57969 1.66675 6.53197 2.03913C4.84762 2.63777 3.51901 3.90381 2.89078 5.50885C2.5 6.50724 2.5 7.75728 2.5 10.2574V12.405C2.5 14.9947 2.5 16.2896 3.20642 17.1888C3.40882 17.4464 3.64885 17.6752 3.91923 17.8681C4.22513 18.0862 4.57468 18.2337 5 18.3334" stroke="currentColor" stroke-width="1.5" stroke-linecap="round" stroke-linejoin="round"/>
<path d="M2.5 10.0001C2.5 8.46591 3.74365 7.22231 5.27778 7.22231C5.8326 7.22231 6.4867 7.31952 7.02614 7.17498C7.50543 7.04655 7.8798 6.67218 8.00823 6.19288C8.15278 5.65345 8.05556 4.99935 8.05556 4.44452C8.05556 2.9104 9.29925 1.66675 10.8333 1.66675" stroke="currentColor" stroke-width="1.5" stroke-linecap="round" stroke-linejoin="round"/>
</svg>
