<svg width="20" height="20" viewBox="0 0 20 20" fill="none" xmlns="http://www.w3.org/2000/svg">
<path d="M9.58341 5C5.85146 5 3.98549 5 2.82611 5.97631C1.66675 6.95262 1.66675 8.524 1.66675 11.6667C1.66675 14.8093 1.66675 16.3807 2.82611 17.357C3.98549 18.3333 5.85146 18.3333 9.58341 18.3333C13.3153 18.3333 15.1813 18.3333 16.3407 17.357C17.5001 16.3807 17.5001 14.8093 17.5001 11.6667C17.5001 10.6918 17.5001 9.86825 17.4655 9.16667" stroke="currentColor" stroke-width="1.5" stroke-linecap="round"/>
<path d="M15.4167 1.66675L15.6316 2.24761C15.9134 3.00926 16.0543 3.3901 16.3322 3.66791C16.61 3.94572 16.9908 4.08664 17.7525 4.36848L18.3333 4.58341L17.7525 4.79835C16.9908 5.08019 16.61 5.22111 16.3322 5.49892C16.0543 5.77673 15.9134 6.15756 15.6316 6.91922L15.4167 7.50008L15.2017 6.91922C14.9199 6.15756 14.779 5.77673 14.5012 5.49892C14.2233 5.22111 13.8425 5.08019 13.0808 4.79835L12.5 4.58341L13.0808 4.36848C13.8425 4.08664 14.2233 3.94572 14.5012 3.66791C14.779 3.3901 14.9199 3.00926 15.2017 2.24761L15.4167 1.66675Z" stroke="currentColor" stroke-width="1.5" stroke-linejoin="round"/>
<path d="M10 8.33325V14.9999" stroke="currentColor" stroke-width="1.5" stroke-linecap="round" stroke-linejoin="round"/>
<path d="M7.5 10V13.3333" stroke="currentColor" stroke-width="1.5" stroke-linecap="round" stroke-linejoin="round"/>
<path d="M5 10.8333V12.4999" stroke="currentColor" stroke-width="1.5" stroke-linecap="round" stroke-linejoin="round"/>
<path d="M12.5 10V13.3333" stroke="currentColor" stroke-width="1.5" stroke-linecap="round" stroke-linejoin="round"/>
<path d="M15 10.8333V12.4999" stroke="currentColor" stroke-width="1.5" stroke-linecap="round" stroke-linejoin="round"/>
</svg>
