<svg width="20" height="20" viewBox="0 0 20 20" fill="none" xmlns="http://www.w3.org/2000/svg">
<path d="M2.08325 13.7499C2.08325 14.5243 2.08325 14.9116 2.1473 15.2336C2.41033 16.5558 3.44399 17.5895 4.76629 17.8525C5.08828 17.9166 5.47549 17.9166 6.24992 17.9166M17.9166 13.7499C17.9166 14.5243 17.9166 14.9116 17.8525 15.2336C17.5895 16.5558 16.5558 17.5895 15.2336 17.8525C14.9116 17.9166 14.5243 17.9166 13.7499 17.9166M17.9166 6.24992C17.9166 5.47549 17.9166 5.08828 17.8525 4.76629C17.5895 3.44399 16.5558 2.41033 15.2336 2.1473C14.9116 2.08325 14.5243 2.08325 13.7499 2.08325M2.08325 6.24992C2.08325 5.47549 2.08325 5.08828 2.1473 4.76629C2.41033 3.44399 3.44399 2.41033 4.76629 2.1473C5.08828 2.08325 5.47549 2.08325 6.24992 2.08325" stroke="currentColor" stroke-width="1.5" stroke-linecap="round" stroke-linejoin="round"/>
<path d="M9.99992 7.08341V5.41675M8.33325 9.58341V10.0001M11.6666 9.58341V10.0001M9.16659 7.08341H10.8333C12.4046 7.08341 13.1903 7.08341 13.6784 7.57157C14.1666 8.05972 14.1666 8.84541 14.1666 10.4167C14.1666 11.9881 14.1666 12.7737 13.6784 13.2619C13.1903 13.7501 12.4046 13.7501 10.8333 13.7501H9.16659C7.59524 13.7501 6.80956 13.7501 6.32141 13.2619C5.83325 12.7737 5.83325 11.9881 5.83325 10.4167C5.83325 8.84541 5.83325 8.05972 6.32141 7.57157C6.80956 7.08341 7.59524 7.08341 9.16659 7.08341Z" stroke="currentColor" stroke-width="1.5" stroke-linecap="round" stroke-linejoin="round"/>
</svg>
