<svg width="20" height="20" viewBox="0 0 20 20" fill="none" xmlns="http://www.w3.org/2000/svg">
<path d="M14.5058 11.1696C14.6827 10.7211 15.3174 10.7211 15.4943 11.1696L15.5249 11.2473C15.9569 12.3426 16.824 13.2097 17.9193 13.6417L17.9971 13.6723C18.4455 13.8492 18.4455 14.4839 17.9971 14.6608L17.9193 14.6914C16.824 15.1234 15.9569 15.9905 15.5249 17.0858L15.4943 17.1636C15.3174 17.612 14.6827 17.612 14.5058 17.1636L14.4752 17.0858C14.0432 15.9905 13.1761 15.1234 12.0808 14.6914L12.0031 14.6608C11.5546 14.4839 11.5546 13.8492 12.0031 13.6723L12.0808 13.6417C13.1761 13.2097 14.0432 12.3426 14.4752 11.2473L14.5058 11.1696Z" stroke="currentColor" stroke-width="1.5" stroke-linecap="round" stroke-linejoin="round"/>
<path d="M18.3334 9.16667V7.5C18.3334 5.14297 18.3334 3.96447 17.6012 3.23223C16.8689 2.5 15.6904 2.5 13.3334 2.5H6.66675C4.30972 2.5 3.13121 2.5 2.39898 3.23223C1.66675 3.96447 1.66675 5.14297 1.66675 7.5C1.66675 9.857 1.66675 11.0355 2.39898 11.7677C3.13121 12.5 4.30972 12.5 6.66675 12.5H9.16675" stroke="currentColor" stroke-width="1.5" stroke-linecap="round" stroke-linejoin="round"/>
<path d="M5 6.66675V8.33341" stroke="currentColor" stroke-width="1.5" stroke-linecap="round" stroke-linejoin="round"/>
<path d="M12.5 5.83325V9.16659" stroke="currentColor" stroke-width="1.5" stroke-linecap="round" stroke-linejoin="round"/>
<path d="M10 7.08325V7.91659" stroke="currentColor" stroke-width="1.5" stroke-linecap="round" stroke-linejoin="round"/>
<path d="M15 7.08325V7.91659" stroke="currentColor" stroke-width="1.5" stroke-linecap="round" stroke-linejoin="round"/>
<path d="M7.5 5.83325V9.16659" stroke="currentColor" stroke-width="1.5" stroke-linecap="round" stroke-linejoin="round"/>
</svg>
