<svg width="8" height="8" viewBox="0 0 8 8" fill="none" xmlns="http://www.w3.org/2000/svg">
<path d="M7.69352 3.51383L4.94352 0.763828C4.67768 0.497995 4.23768 0.497995 3.97185 0.763828C3.70602 1.02966 3.70602 1.46966 3.97185 1.73549L5.54852 3.31216H0.791016C0.415182 3.31216 0.103516 3.62383 0.103516 3.99966C0.103516 4.37549 0.415182 4.68716 0.791016 4.68716H5.54852L3.97185 6.26383C3.70602 6.52966 3.70602 6.96966 3.97185 7.23549C4.10935 7.37299 4.28352 7.43716 4.45768 7.43716C4.63185 7.43716 4.80602 7.37299 4.94352 7.23549L7.69352 4.48549C7.95935 4.21966 7.95935 3.77966 7.69352 3.51383Z" fill="currentColor"/>
</svg>
