<svg width="12" height="12" viewBox="0 0 12 12" fill="none" xmlns="http://www.w3.org/2000/svg">
<path d="M4.4548 10.3348C4.3598 10.3348 4.2648 10.2998 4.1898 10.2248C4.0448 10.0798 4.0448 9.83977 4.1898 9.69477L7.4498 6.43477C7.6898 6.19477 7.6898 5.80477 7.4498 5.56477L4.1898 2.30477C4.0448 2.15977 4.0448 1.91977 4.1898 1.77477C4.3348 1.62977 4.5748 1.62977 4.7198 1.77477L7.9798 5.03477C8.2348 5.28977 8.3798 5.63477 8.3798 5.99977C8.3798 6.36477 8.2398 6.70977 7.9798 6.96477L4.7198 10.2248C4.6448 10.2948 4.5498 10.3348 4.4548 10.3348Z" fill="currentColor"/>
</svg>
