<svg width="16" height="16" viewBox="0 0 16 16" fill="none" xmlns="http://www.w3.org/2000/svg">
<path d="M6.0063 14.1665C5.87964 14.1665 5.75297 14.1198 5.65297 14.0198L2.31297 10.6798C2.11964 10.4865 2.11964 10.1665 2.31297 9.97312C2.5063 9.77979 2.8263 9.77979 3.01964 9.97312L6.35964 13.3131C6.55297 13.5065 6.55297 13.8265 6.35964 14.0198C6.25964 14.1131 6.13297 14.1665 6.0063 14.1665Z" fill="black"/>
<path d="M6.00684 14.1663C5.7335 14.1663 5.50684 13.9397 5.50684 13.6663V2.33301C5.50684 2.05967 5.7335 1.83301 6.00684 1.83301C6.28017 1.83301 6.50684 2.05967 6.50684 2.33301V13.6663C6.50684 13.9397 6.28017 14.1663 6.00684 14.1663Z" fill="black"/>
<path d="M13.3403 6.17329C13.2136 6.17329 13.087 6.12663 12.987 6.02663L9.64695 2.68663C9.45362 2.49329 9.45362 2.17329 9.64695 1.97996C9.84029 1.78663 10.1603 1.78663 10.3536 1.97996L13.6936 5.31996C13.887 5.51329 13.887 5.83329 13.6936 6.02663C13.5936 6.12663 13.467 6.17329 13.3403 6.17329Z" fill="black"/>
<path d="M9.99316 14.1663C9.71983 14.1663 9.49316 13.9397 9.49316 13.6663V2.33301C9.49316 2.05967 9.71983 1.83301 9.99316 1.83301C10.2665 1.83301 10.4932 2.05967 10.4932 2.33301V13.6663C10.4932 13.9397 10.2732 14.1663 9.99316 14.1663Z" fill="#121212"/>
</svg>
