<svg width="20" height="20" viewBox="0 0 20 20" fill="none" xmlns="http://www.w3.org/2000/svg">
<path d="M7.5 10.8334H8.16693C8.692 10.8334 8.9545 10.8334 9.16542 10.9578C9.37642 11.0823 9.49383 11.3065 9.72858 11.7547L10.9921 14.1667L12.7381 9.16675L14.0015 11.5787C14.2363 12.027 14.3537 12.2512 14.5647 12.3757C14.7757 12.5001 15.0382 12.5001 15.5632 12.5001H16.6667" stroke="currentColor" stroke-width="1.5" stroke-linecap="round" stroke-linejoin="round"/>
<path d="M17.0834 10.0001C16.4434 7.01291 13.9365 4.199 12.1035 2.47693C10.9537 1.39669 9.20008 1.39669 8.05024 2.47693C5.93309 4.46597 2.91675 7.91164 2.91675 11.3984C2.91675 14.8171 5.62813 18.3334 10.0768 18.3334C12.9043 18.3334 15.03 16.913 16.2037 15.0001" stroke="currentColor" stroke-width="1.5" stroke-linecap="round"/>
</svg>
