<svg width="20" height="19" viewBox="0 0 20 19" fill="none" xmlns="http://www.w3.org/2000/svg">
<path d="M3.4375 14.8434C3.11292 14.8434 2.84375 14.5743 2.84375 14.2497V5.54134C2.84375 2.05009 3.90458 0.989258 7.39583 0.989258H12.9375C16.4287 0.989258 17.4896 2.05009 17.4896 5.54134V13.458C17.4896 13.5847 17.4896 13.7034 17.4817 13.8301C17.4579 14.1547 17.165 14.408 16.8483 14.3843C16.5237 14.3605 16.2704 14.0755 16.2942 13.7509C16.3021 13.6559 16.3021 13.553 16.3021 13.458V5.54134C16.3021 2.71509 15.7717 2.17676 12.9375 2.17676H7.39583C4.56167 2.17676 4.03125 2.71509 4.03125 5.54134V14.2497C4.03125 14.5743 3.76208 14.8434 3.4375 14.8434Z" fill="currentColor"/>
<path d="M14.125 18.0104H6.20833C4.35583 18.0104 2.84375 16.4983 2.84375 14.6458V14.1312C2.84375 12.5558 4.12625 11.2812 5.69375 11.2812H16.8958C17.2204 11.2812 17.4896 11.5504 17.4896 11.875V14.6458C17.4896 16.4983 15.9775 18.0104 14.125 18.0104ZM5.69375 12.4687C4.77542 12.4687 4.03125 13.2129 4.03125 14.1312V14.6458C4.03125 15.8492 5.005 16.8229 6.20833 16.8229H14.125C15.3283 16.8229 16.3021 15.8492 16.3021 14.6458V12.4687H5.69375Z" fill="currentColor"/>
<path d="M13.3333 6.13574H7C6.67542 6.13574 6.40625 5.86658 6.40625 5.54199C6.40625 5.21741 6.67542 4.94824 7 4.94824H13.3333C13.6579 4.94824 13.9271 5.21741 13.9271 5.54199C13.9271 5.86658 13.6579 6.13574 13.3333 6.13574Z" fill="currentColor"/>
<path d="M10.9583 8.90625H7C6.67542 8.90625 6.40625 8.63708 6.40625 8.3125C6.40625 7.98792 6.67542 7.71875 7 7.71875H10.9583C11.2829 7.71875 11.5521 7.98792 11.5521 8.3125C11.5521 8.63708 11.2829 8.90625 10.9583 8.90625Z" fill="currentColor"/>
</svg>
