<svg width="16" height="16" viewBox="0 0 16 16" fill="none" xmlns="http://www.w3.org/2000/svg">
<path d="M8.00022 8.86592C7.91355 8.86592 7.82688 8.84594 7.74688 8.79927L1.86023 5.39262C1.62023 5.25262 1.54021 4.94593 1.68021 4.70593C1.82021 4.46593 2.12021 4.38592 2.36688 4.52592L8.00022 7.78593L13.6002 4.54594C13.8402 4.40594 14.1469 4.49262 14.2869 4.72595C14.4269 4.96595 14.3402 5.27259 14.1069 5.41259L8.26023 8.79927C8.17356 8.83927 8.08689 8.86592 8.00022 8.86592Z" fill="currentColor"/>
<path d="M8 14.906C7.72667 14.906 7.5 14.6794 7.5 14.406V8.35937C7.5 8.08604 7.72667 7.85938 8 7.85938C8.27333 7.85938 8.5 8.08604 8.5 8.35937V14.406C8.5 14.6794 8.27333 14.906 8 14.906Z" fill="currentColor"/>
<path d="M7.99927 15.1662C7.3926 15.1662 6.8126 15.0262 6.3726 14.7795L2.8126 12.8062C1.84593 12.2729 1.08594 10.9862 1.08594 9.87951V6.10616C1.08594 4.99949 1.84593 3.71952 2.8126 3.17952L6.3726 1.20617C7.27927 0.699505 8.70593 0.699505 9.61926 1.20617L13.1793 3.17952C14.1459 3.71285 14.9059 4.99949 14.9059 6.10616V8.54618C14.9059 8.81951 14.6793 9.04618 14.4059 9.04618C14.1326 9.04618 13.9059 8.81951 13.9059 8.54618V6.10616C13.9059 5.37282 13.3393 4.41286 12.6993 4.05952L9.13926 2.08618C8.53259 1.74618 7.47259 1.74618 6.86593 2.08618L3.30593 4.05952C2.65926 4.41952 2.09926 5.37282 2.09926 6.10616V9.87951C2.09926 10.6128 2.66593 11.5728 3.30593 11.9262L6.86593 13.8995C7.45259 14.2262 8.55926 14.2262 9.13926 13.8995C9.37926 13.7662 9.68594 13.8528 9.81927 14.0928C9.95261 14.3328 9.86594 14.6395 9.62594 14.7728C9.18594 15.0262 8.60593 15.1662 7.99927 15.1662Z" fill="currentColor"/>
<path d="M12.7994 14.7667C11.346 14.7667 10.166 13.5867 10.166 12.1333C10.166 10.68 11.346 9.5 12.7994 9.5C14.2527 9.5 15.4327 10.68 15.4327 12.1333C15.4327 13.5867 14.2527 14.7667 12.7994 14.7667ZM12.7994 10.5C11.8994 10.5 11.166 11.2333 11.166 12.1333C11.166 13.0333 11.8994 13.7667 12.7994 13.7667C13.6994 13.7667 14.4327 13.0333 14.4327 12.1333C14.4327 11.2333 13.6994 10.5 12.7994 10.5Z" fill="currentColor"/>
<path d="M15.333 15.167C15.2063 15.167 15.0796 15.1203 14.9796 15.0203L14.313 14.3537C14.1196 14.1603 14.1196 13.8403 14.313 13.647C14.5063 13.4536 14.8263 13.4536 15.0196 13.647L15.6863 14.3136C15.8796 14.507 15.8796 14.827 15.6863 15.0203C15.5863 15.1203 15.4596 15.167 15.333 15.167Z" fill="currentColor"/>
</svg>
