<svg width="18" height="17" viewBox="0 0 18 17" fill="none" xmlns="http://www.w3.org/2000/svg">
<path d="M10.2507 16.1149H7.41732C3.57107 16.1149 1.92773 14.4716 1.92773 10.6253V6.37533C1.92773 2.52908 3.57107 0.885742 7.41732 0.885742H10.2507C14.0969 0.885742 15.7402 2.52908 15.7402 6.37533V10.6253C15.7402 14.4716 14.0969 16.1149 10.2507 16.1149ZM7.41732 1.94824C4.1519 1.94824 2.99023 3.10991 2.99023 6.37533V10.6253C2.99023 13.8907 4.1519 15.0524 7.41732 15.0524H10.2507C13.5161 15.0524 14.6777 13.8907 14.6777 10.6253V6.37533C14.6777 3.10991 13.5161 1.94824 10.2507 1.94824H7.41732Z" fill="currentColor"/>
<path d="M10.959 7.67122H6.70898C5.83065 7.67122 5.11523 6.95581 5.11523 6.07747V5.36914C5.11523 4.49081 5.83065 3.77539 6.70898 3.77539H10.959C11.8373 3.77539 12.5527 4.49081 12.5527 5.36914V6.07747C12.5527 6.95581 11.8373 7.67122 10.959 7.67122ZM6.70898 4.83789C6.41857 4.83789 6.17773 5.07872 6.17773 5.36914V6.07747C6.17773 6.36789 6.41857 6.60872 6.70898 6.60872H10.959C11.2494 6.60872 11.4902 6.36789 11.4902 6.07747V5.36914C11.4902 5.07872 11.2494 4.83789 10.959 4.83789H6.70898Z" fill="currentColor"/>
<path d="M6.1075 10.5687C6.01542 10.5687 5.92333 10.5474 5.83833 10.512C5.75333 10.4766 5.67542 10.427 5.61167 10.3632C5.47708 10.2287 5.40625 10.0516 5.40625 9.86032C5.40625 9.76824 5.42042 9.67616 5.45583 9.59116C5.49125 9.49907 5.54083 9.42824 5.61167 9.35741C5.64 9.32907 5.67542 9.29366 5.71792 9.27241C5.75333 9.24407 5.79583 9.22282 5.83833 9.20866C5.88083 9.18741 5.93042 9.17324 5.97292 9.16616C6.19958 9.11657 6.4475 9.19449 6.61042 9.35741C6.67417 9.42116 6.73083 9.49907 6.76625 9.59116C6.80167 9.67616 6.82292 9.76824 6.82292 9.86032C6.82292 10.0516 6.745 10.2287 6.61042 10.3632C6.47583 10.4978 6.29875 10.5687 6.1075 10.5687Z" fill="currentColor"/>
<path d="M8.94661 10.568C8.75536 10.568 8.57828 10.4972 8.4437 10.3626C8.30911 10.228 8.23828 10.051 8.23828 9.8597C8.23828 9.76762 8.25245 9.67553 8.28786 9.59053C8.32328 9.49845 8.37286 9.42762 8.4437 9.35678C8.47203 9.32845 8.50745 9.29303 8.54995 9.27178C8.58537 9.24345 8.62787 9.2222 8.67037 9.20803C8.71287 9.18678 8.76245 9.17262 8.80495 9.16553C8.93953 9.1372 9.0812 9.15137 9.21578 9.20803C9.30078 9.24345 9.3787 9.29303 9.44245 9.35678C9.5062 9.42762 9.56286 9.49845 9.59828 9.59053C9.6337 9.67553 9.65495 9.76762 9.65495 9.8597C9.65495 10.051 9.57703 10.228 9.44245 10.3626C9.30786 10.4972 9.13078 10.568 8.94661 10.568Z" fill="currentColor"/>
<path d="M11.7735 10.568C11.6814 10.568 11.5893 10.5467 11.5043 10.5113C11.4193 10.4759 11.3414 10.4263 11.2777 10.3626C11.2068 10.2917 11.1573 10.2138 11.1218 10.1288C11.0864 10.0438 11.0723 9.95172 11.0723 9.85964C11.0723 9.76755 11.0864 9.67547 11.1218 9.59047C11.1573 9.49839 11.2068 9.42755 11.2777 9.35672C11.5398 9.09464 12.0143 9.09464 12.2764 9.35672C12.411 9.4913 12.4889 9.67547 12.4889 9.85964C12.4889 10.0509 12.411 10.228 12.2764 10.3626C12.1489 10.4901 11.9718 10.568 11.7735 10.568Z" fill="currentColor"/>
<path d="M6.11385 13.4019C5.9226 13.4019 5.74552 13.3311 5.61094 13.1965C5.47635 13.0619 5.39844 12.8848 5.39844 12.6936C5.39844 12.5094 5.47635 12.3252 5.61094 12.1907C5.63927 12.1623 5.68177 12.1269 5.71719 12.1057C5.7526 12.0773 5.7951 12.0561 5.8376 12.0419C5.8801 12.0207 5.92969 12.0065 5.97219 11.9994C6.20594 11.9569 6.44677 12.0277 6.60969 12.1907C6.6451 12.2261 6.67344 12.2615 6.70177 12.2969C6.72302 12.3394 6.74427 12.3819 6.76552 12.4244C6.77969 12.4669 6.79385 12.5094 6.80802 12.5519C6.8151 12.6015 6.82219 12.644 6.82219 12.6936C6.82219 12.8848 6.74427 13.0619 6.60969 13.1965C6.4751 13.3311 6.29802 13.4019 6.11385 13.4019Z" fill="currentColor"/>
<path d="M8.94784 13.4019C8.75659 13.4019 8.57951 13.3311 8.44492 13.1965C8.31034 13.0619 8.23242 12.8848 8.23242 12.6936C8.23242 12.5094 8.31034 12.3252 8.44492 12.1907C8.60784 12.0277 8.85576 11.9569 9.08242 11.9994C9.12492 12.0065 9.17451 12.0207 9.21701 12.0419C9.25951 12.0561 9.30201 12.0773 9.33742 12.1057C9.37284 12.1269 9.40826 12.1623 9.44367 12.1907C9.57826 12.3252 9.64909 12.5094 9.64909 12.6936C9.64909 12.8848 9.57826 13.0619 9.44367 13.1965C9.30909 13.3311 9.13201 13.4019 8.94784 13.4019Z" fill="currentColor"/>
<path d="M11.7735 13.402C11.5893 13.402 11.4123 13.3312 11.2777 13.1966C11.1431 13.062 11.0723 12.8849 11.0723 12.6937C11.0723 12.5095 11.1431 12.3253 11.2777 12.1907C11.3414 12.127 11.4193 12.0774 11.5043 12.042C11.7664 11.9357 12.0852 11.9924 12.2764 12.1907C12.411 12.3253 12.4818 12.5095 12.4818 12.6937C12.4818 12.8849 12.411 13.062 12.2764 13.1966C12.2127 13.2603 12.1348 13.3099 12.0498 13.3453C11.9648 13.3807 11.8727 13.402 11.7735 13.402Z" fill="currentColor"/>
</svg>
