<svg width="19" height="20" viewBox="0 0 19 20" fill="none" xmlns="http://www.w3.org/2000/svg">
<path d="M6.33301 5.05176C6.00842 5.05176 5.73926 4.78259 5.73926 4.45801V2.08301C5.73926 1.75842 6.00842 1.48926 6.33301 1.48926C6.65759 1.48926 6.92676 1.75842 6.92676 2.08301V4.45801C6.92676 4.78259 6.65759 5.05176 6.33301 5.05176Z" fill="currentColor"/>
<path d="M12.667 5.05176C12.3424 5.05176 12.0732 4.78259 12.0732 4.45801V2.08301C12.0732 1.75842 12.3424 1.48926 12.667 1.48926C12.9916 1.48926 13.2607 1.75842 13.2607 2.08301V4.45801C13.2607 4.78259 12.9916 5.05176 12.667 5.05176Z" fill="currentColor"/>
<path d="M11.875 18.5101H7.125C2.67583 18.5101 1.78125 16.4122 1.78125 13.0238V8.13926C1.78125 4.38676 3.04792 2.85884 6.30167 2.67676H12.6667C12.6746 2.67676 12.6904 2.67676 12.6983 2.67676C15.9521 2.85884 17.2188 4.38676 17.2188 8.13926V13.0238C17.2188 16.4122 16.3242 18.5101 11.875 18.5101ZM6.33333 3.86426C4.11667 3.99092 2.96875 4.68759 2.96875 8.13926V13.0238C2.96875 16.0559 3.54667 17.3226 7.125 17.3226H11.875C15.4533 17.3226 16.0312 16.0559 16.0312 13.0238V8.13926C16.0312 4.69551 14.8912 3.99092 12.6508 3.86426H6.33333Z" fill="currentColor"/>
<path d="M16.4274 15.0273H2.57324C2.24866 15.0273 1.97949 14.7582 1.97949 14.4336C1.97949 14.109 2.24866 13.8398 2.57324 13.8398H16.4274C16.752 13.8398 17.0212 14.109 17.0212 14.4336C17.0212 14.7582 16.752 15.0273 16.4274 15.0273Z" fill="currentColor"/>
<path d="M9.49967 7.03125C8.52592 7.03125 7.70259 7.56167 7.70259 8.59083C7.70259 9.08167 7.93217 9.45375 8.28051 9.69125C7.79759 9.97625 7.52051 10.4354 7.52051 10.9737C7.52051 11.9554 8.27259 12.565 9.49967 12.565C10.7188 12.565 11.4788 11.9554 11.4788 10.9737C11.4788 10.4354 11.2018 9.96833 10.7109 9.69125C11.0672 9.44583 11.2888 9.08167 11.2888 8.59083C11.2888 7.56167 10.4734 7.03125 9.49967 7.03125ZM9.49967 9.27958C9.08801 9.27958 8.78717 9.03417 8.78717 8.64625C8.78717 8.25042 9.08801 8.02083 9.49967 8.02083C9.91134 8.02083 10.2122 8.25042 10.2122 8.64625C10.2122 9.03417 9.91134 9.27958 9.49967 9.27958ZM9.49967 11.5833C8.97717 11.5833 8.59717 11.3221 8.59717 10.8471C8.59717 10.3721 8.97717 10.1187 9.49967 10.1187C10.0222 10.1187 10.4022 10.38 10.4022 10.8471C10.4022 11.3221 10.0222 11.5833 9.49967 11.5833Z" fill="currentColor"/>
</svg>
