<svg width="20" height="20" viewBox="0 0 20 20" fill="none" xmlns="http://www.w3.org/2000/svg">
<path d="M6.66602 4.79102C6.32435 4.79102 6.04102 4.50768 6.04102 4.16602V1.66602C6.04102 1.32435 6.32435 1.04102 6.66602 1.04102C7.00768 1.04102 7.29102 1.32435 7.29102 1.66602V4.16602C7.29102 4.50768 7.00768 4.79102 6.66602 4.79102Z" fill="currentColor"/>
<path d="M13.334 4.79102C12.9923 4.79102 12.709 4.50768 12.709 4.16602V1.66602C12.709 1.32435 12.9923 1.04102 13.334 1.04102C13.6757 1.04102 13.959 1.32435 13.959 1.66602V4.16602C13.959 4.50768 13.6757 4.79102 13.334 4.79102Z" fill="currentColor"/>
<path d="M7.08333 12.0824C6.975 12.0824 6.86666 12.0574 6.76666 12.0158C6.65833 11.9741 6.57501 11.9158 6.49167 11.8408C6.34167 11.6824 6.25 11.4658 6.25 11.2491C6.25 11.0324 6.34167 10.8158 6.49167 10.6574C6.57501 10.5824 6.66666 10.5241 6.76666 10.4824C6.96666 10.3991 7.2 10.3991 7.4 10.4824C7.5 10.5241 7.59166 10.5824 7.67499 10.6574C7.70833 10.6991 7.74999 10.7408 7.77499 10.7824C7.80832 10.8324 7.83334 10.8824 7.85001 10.9324C7.87501 10.9824 7.89168 11.0324 7.90001 11.0824C7.90834 11.1408 7.91667 11.1991 7.91667 11.2491C7.91667 11.4658 7.82499 11.6824 7.67499 11.8408C7.59166 11.9158 7.5 11.9741 7.4 12.0158C7.3 12.0574 7.19167 12.0824 7.08333 12.0824Z" fill="currentColor"/>
<path d="M9.99935 12.084C9.89102 12.084 9.78268 12.059 9.68268 12.0173C9.57434 11.9757 9.49102 11.9173 9.40769 11.8423C9.25769 11.684 9.16602 11.4673 9.16602 11.2506C9.16602 11.2006 9.17434 11.1423 9.18267 11.084C9.19101 11.034 9.20767 10.984 9.23267 10.934C9.24934 10.884 9.27436 10.834 9.30769 10.784C9.34103 10.7423 9.37436 10.7007 9.40769 10.659C9.71602 10.3507 10.2743 10.3507 10.591 10.659C10.6243 10.7007 10.6577 10.7423 10.691 10.784C10.7243 10.834 10.7494 10.884 10.766 10.934C10.791 10.984 10.8077 11.034 10.816 11.084C10.8244 11.1423 10.8327 11.2006 10.8327 11.2506C10.8327 11.4673 10.741 11.684 10.591 11.8423C10.4327 11.9923 10.2243 12.084 9.99935 12.084Z" fill="currentColor"/>
<path d="M7.08333 15.0004C6.975 15.0004 6.86666 14.9754 6.76666 14.9337C6.66666 14.8921 6.57501 14.8337 6.49167 14.7587C6.34167 14.6004 6.25 14.3837 6.25 14.1671C6.25 14.1171 6.25832 14.0587 6.26666 14.0087C6.27499 13.9504 6.29166 13.9004 6.31666 13.8504C6.33332 13.8004 6.35834 13.7504 6.39168 13.7004C6.41668 13.6587 6.45834 13.6171 6.49167 13.5754C6.57501 13.5004 6.66666 13.4421 6.76666 13.4004C6.96666 13.3171 7.2 13.3171 7.4 13.4004C7.5 13.4421 7.59166 13.5004 7.67499 13.5754C7.70833 13.6171 7.74999 13.6587 7.77499 13.7004C7.80832 13.7504 7.83334 13.8004 7.85001 13.8504C7.87501 13.9004 7.89168 13.9504 7.90001 14.0087C7.90834 14.0587 7.91667 14.1171 7.91667 14.1671C7.91667 14.3837 7.82499 14.6004 7.67499 14.7587C7.59166 14.8337 7.5 14.8921 7.4 14.9337C7.3 14.9754 7.19167 15.0004 7.08333 15.0004Z" fill="currentColor"/>
<path d="M17.0827 8.19922H2.91602C2.57435 8.19922 2.29102 7.91589 2.29102 7.57422C2.29102 7.23255 2.57435 6.94922 2.91602 6.94922H17.0827C17.4243 6.94922 17.7077 7.23255 17.7077 7.57422C17.7077 7.91589 17.4243 8.19922 17.0827 8.19922Z" fill="currentColor"/>
<path d="M13.1843 18.9833C12.8676 18.9833 12.5676 18.8667 12.3509 18.65C12.0926 18.3917 11.9759 18.0167 12.0343 17.625L12.1926 16.5C12.2343 16.2083 12.4093 15.8583 12.6176 15.65L15.5676 12.7C15.9676 12.3 16.3593 12.0917 16.7843 12.05C17.3093 12 17.8176 12.2167 18.3009 12.7C18.8093 13.2083 19.4926 14.2417 18.3009 15.4333L15.3509 18.3833C15.1426 18.5917 14.7926 18.7667 14.5009 18.8083L13.3759 18.9667C13.3093 18.975 13.2509 18.9833 13.1843 18.9833ZM16.9259 13.2917C16.9176 13.2917 16.9093 13.2917 16.9009 13.2917C16.7843 13.3 16.6259 13.4083 16.4509 13.5833L13.5009 16.5333C13.4759 16.5583 13.4343 16.6417 13.4343 16.675L13.2843 17.7167L14.3259 17.5667C14.3593 17.5583 14.4426 17.5167 14.4676 17.4917L17.4176 14.5417C17.7843 14.175 17.8343 13.9917 17.4176 13.575C17.2843 13.45 17.0926 13.2917 16.9259 13.2917Z" fill="currentColor"/>
<path d="M17.4338 16.0418C17.3755 16.0418 17.3171 16.0334 17.2671 16.0168C16.1671 15.7084 15.2922 14.8334 14.9838 13.7334C14.8922 13.4001 15.0838 13.0584 15.4171 12.9584C15.7505 12.8668 16.0921 13.0584 16.1921 13.3918C16.3838 14.0751 16.9255 14.6168 17.6088 14.8084C17.9421 14.9001 18.1338 15.2501 18.0421 15.5834C17.9588 15.8584 17.7088 16.0418 17.4338 16.0418Z" fill="currentColor"/>
<path d="M10 18.9577H6.66667C3.625 18.9577 1.875 17.2077 1.875 14.166V7.08268C1.875 4.04102 3.625 2.29102 6.66667 2.29102H13.3333C16.375 2.29102 18.125 4.04102 18.125 7.08268V9.99935C18.125 10.341 17.8417 10.6243 17.5 10.6243C17.1583 10.6243 16.875 10.341 16.875 9.99935V7.08268C16.875 4.69935 15.7167 3.54102 13.3333 3.54102H6.66667C4.28333 3.54102 3.125 4.69935 3.125 7.08268V14.166C3.125 16.5493 4.28333 17.7077 6.66667 17.7077H10C10.3417 17.7077 10.625 17.991 10.625 18.3327C10.625 18.6743 10.3417 18.9577 10 18.9577Z" fill="currentColor"/>
</svg>
