<svg width="17" height="16" viewBox="0 0 17 16" fill="none" xmlns="http://www.w3.org/2000/svg">
<path d="M5.66699 3.83325C5.39366 3.83325 5.16699 3.60659 5.16699 3.33325V1.33325C5.16699 1.05992 5.39366 0.833252 5.66699 0.833252C5.94033 0.833252 6.16699 1.05992 6.16699 1.33325V3.33325C6.16699 3.60659 5.94033 3.83325 5.66699 3.83325Z" fill="currentColor"/>
<path d="M11 3.83325C10.7267 3.83325 10.5 3.60659 10.5 3.33325V1.33325C10.5 1.05992 10.7267 0.833252 11 0.833252C11.2733 0.833252 11.5 1.05992 11.5 1.33325V3.33325C11.5 3.60659 11.2733 3.83325 11 3.83325Z" fill="currentColor"/>
<path d="M10.3335 15.1666H6.3335C2.58683 15.1666 1.8335 13.3999 1.8335 10.5466V6.43325C1.8335 3.27325 2.90016 1.98659 5.64016 1.83325H11.0002C11.0068 1.83325 11.0202 1.83325 11.0268 1.83325C13.7668 1.98659 14.8335 3.27325 14.8335 6.43325V10.5466C14.8335 13.3999 14.0802 15.1666 10.3335 15.1666ZM5.66683 2.83325C3.80016 2.93992 2.8335 3.52658 2.8335 6.43325V10.5466C2.8335 13.0999 3.32016 14.1666 6.3335 14.1666H10.3335C13.3468 14.1666 13.8335 13.0999 13.8335 10.5466V6.43325C13.8335 3.53325 12.8735 2.93992 10.9868 2.83325H5.66683Z" fill="currentColor"/>
<path d="M14.1667 12.2334H2.5C2.22667 12.2334 2 12.0067 2 11.7334C2 11.4601 2.22667 11.2334 2.5 11.2334H14.1667C14.44 11.2334 14.6667 11.4601 14.6667 11.7334C14.6667 12.0067 14.44 12.2334 14.1667 12.2334Z" fill="currentColor"/>
<path d="M8.33366 5.5C7.51366 5.5 6.82033 5.94667 6.82033 6.81333C6.82033 7.22667 7.01366 7.54 7.30699 7.74C6.90033 7.98 6.66699 8.36667 6.66699 8.82C6.66699 9.64667 7.30033 10.16 8.33366 10.16C9.36033 10.16 10.0003 9.64667 10.0003 8.82C10.0003 8.36667 9.76699 7.97333 9.35366 7.74C9.65366 7.53333 9.84033 7.22667 9.84033 6.81333C9.84033 5.94667 9.15366 5.5 8.33366 5.5ZM8.33366 7.39333C7.98699 7.39333 7.73366 7.18667 7.73366 6.86C7.73366 6.52667 7.98699 6.33333 8.33366 6.33333C8.68033 6.33333 8.93366 6.52667 8.93366 6.86C8.93366 7.18667 8.68033 7.39333 8.33366 7.39333ZM8.33366 9.33333C7.89366 9.33333 7.57366 9.11333 7.57366 8.71333C7.57366 8.31333 7.89366 8.1 8.33366 8.1C8.77366 8.1 9.09366 8.32 9.09366 8.71333C9.09366 9.11333 8.77366 9.33333 8.33366 9.33333Z" fill="currentColor"/>
</svg>
