<svg width="22" height="22" viewBox="0 0 22 22" fill="none" xmlns="http://www.w3.org/2000/svg">
<path opacity="0.4" d="M11.0007 20.1673C16.0633 20.1673 20.1673 16.0633 20.1673 11.0007C20.1673 5.93804 16.0633 1.83398 11.0007 1.83398C5.93804 1.83398 1.83398 5.93804 1.83398 11.0007C1.83398 16.0633 5.93804 20.1673 11.0007 20.1673Z" fill="#B3E6FF"/>
<path d="M14.6935 10.5138L11.9435 7.76383C11.6777 7.49799 11.2377 7.49799 10.9718 7.76383C10.706 8.02966 10.706 8.46966 10.9718 8.73549L12.5485 10.3122H7.79102C7.41518 10.3122 7.10352 10.6238 7.10352 10.9997C7.10352 11.3755 7.41518 11.6872 7.79102 11.6872H12.5485L10.9718 13.2638C10.706 13.5297 10.706 13.9697 10.9718 14.2355C11.1093 14.373 11.2835 14.4372 11.4577 14.4372C11.6318 14.4372 11.806 14.373 11.9435 14.2355L14.6935 11.4855C14.9593 11.2197 14.9593 10.7797 14.6935 10.5138Z" fill="#00AAFE"/>
</svg>
