<svg width="10" height="11" viewBox="0 0 10 11" fill="none" xmlns="http://www.w3.org/2000/svg">
<path d="M4.99967 9.97909C2.52884 9.97909 0.520508 7.97075 0.520508 5.49992C0.520508 3.02909 2.52884 1.02075 4.99967 1.02075C7.47051 1.02075 9.47884 3.02909 9.47884 5.49992C9.47884 7.97075 7.47051 9.97909 4.99967 9.97909ZM4.99967 1.64575C2.87467 1.64575 1.14551 3.37492 1.14551 5.49992C1.14551 7.62492 2.87467 9.35409 4.99967 9.35409C7.12467 9.35409 8.85384 7.62492 8.85384 5.49992C8.85384 3.37492 7.12467 1.64575 4.99967 1.64575Z" fill="#009923"/>
<path d="M6.54544 7.13748C6.49128 7.13748 6.43711 7.12498 6.38711 7.09165L5.09544 6.32082C4.77461 6.12915 4.53711 5.70832 4.53711 5.33748V3.62915C4.53711 3.45832 4.67878 3.31665 4.84961 3.31665C5.02044 3.31665 5.16211 3.45832 5.16211 3.62915V5.33748C5.16211 5.48748 5.28711 5.70832 5.41628 5.78332L6.70794 6.55415C6.85794 6.64165 6.90378 6.83332 6.81628 6.98332C6.75378 7.08332 6.64961 7.13748 6.54544 7.13748Z" fill="#009923"/>
</svg>
