<svg width="9" height="12" viewBox="0 0 9 12" fill="none" xmlns="http://www.w3.org/2000/svg">
<path fill-rule="evenodd" clip-rule="evenodd" d="M4.85705 0.75C4.91889 0.749983 4.98003 0.763076 5.03644 0.788415C5.09284 0.813753 5.14324 0.850762 5.1843 0.897L8.6843 4.8345C8.7403 4.89756 8.77688 4.97546 8.78963 5.05882C8.80239 5.14218 8.79078 5.22746 8.75621 5.30437C8.72163 5.38129 8.66556 5.44658 8.59474 5.49238C8.52393 5.53817 8.44138 5.56252 8.35705 5.5625H1.35705C1.27272 5.56252 1.19018 5.53817 1.11936 5.49238C1.04854 5.44658 0.992473 5.38129 0.957896 5.30437C0.92332 5.22746 0.911711 5.14218 0.924468 5.05882C0.937225 4.97546 0.973804 4.89756 1.0298 4.8345L4.5298 0.897C4.57086 0.850762 4.62126 0.813753 4.67767 0.788415C4.73407 0.763076 4.79521 0.749983 4.85705 0.75ZM0.958051 6.69563C0.992617 6.61873 1.04866 6.55346 1.11945 6.50767C1.19023 6.46187 1.27274 6.43751 1.35705 6.4375H8.35705C8.44138 6.43748 8.52393 6.46183 8.59474 6.50762C8.66556 6.55342 8.72163 6.61871 8.75621 6.69563C8.79078 6.77254 8.80239 6.85782 8.78963 6.94118C8.77688 7.02454 8.7403 7.10244 8.6843 7.1655L5.1843 11.103C5.14325 11.1493 5.09286 11.1863 5.03645 11.2117C4.98004 11.237 4.9189 11.2501 4.85705 11.2501C4.7952 11.2501 4.73406 11.237 4.67765 11.2117C4.62124 11.1863 4.57085 11.1493 4.5298 11.103L1.0298 7.1655C0.973829 7.10243 0.937279 7.02452 0.92455 6.94116C0.91182 6.85779 0.923454 6.77253 0.958051 6.69563Z" fill="currentColor"/>
</svg>
