<svg width="18" height="20" viewBox="0 0 18 20" fill="none" xmlns="http://www.w3.org/2000/svg">
<path d="M0.879322 13.028C0.907655 12.7588 1.10265 12.5421 1.49265 12.108L2.35182 11.1471C2.56182 10.8805 2.71099 10.418 2.71099 10.0013C2.71099 9.58464 2.56182 9.1213 2.35265 8.85547L1.49182 7.89464C1.10182 7.4613 0.906822 7.2438 0.878488 6.97464C0.850155 6.70547 0.995155 6.45214 1.28682 5.9463L1.69849 5.23214C2.00932 4.69214 2.16515 4.42214 2.43015 4.31547C2.69432 4.20714 2.99349 4.29214 3.59265 4.46214L4.60932 4.74797C4.99182 4.8363 5.39265 4.7863 5.74099 4.60714L6.02182 4.44547C6.32116 4.25352 6.55126 3.97086 6.67849 3.6388L6.95682 2.80797C7.14015 2.25797 7.23182 1.98297 7.44932 1.82464C7.66849 1.66797 7.95765 1.66797 8.53599 1.66797H9.46515C10.0435 1.66797 10.3335 1.66797 10.551 1.82547C10.7685 1.98297 10.8602 2.25797 11.0427 2.80797L11.3218 3.6388C11.4491 3.97086 11.6791 4.25352 11.9785 4.44547L12.2593 4.60714C12.6077 4.7863 13.0093 4.8363 13.391 4.7488L14.4077 4.46214C15.0068 4.29214 15.306 4.20714 15.5702 4.31464C15.8352 4.42297 15.991 4.69214 16.3018 5.23214L16.7127 5.9463C17.0043 6.45214 17.1502 6.70464 17.1218 6.97464C17.0935 7.24464 16.8985 7.46047 16.5085 7.89464L15.6493 8.85547C15.4393 9.1213 15.2902 9.58464 15.2902 10.0013C15.2902 10.418 15.4393 10.8813 15.6485 11.1471L16.5085 12.108C16.8985 12.5413 17.0935 12.7588 17.1218 13.028C17.1502 13.2971 17.0052 13.5505 16.7135 14.0563L16.3018 14.7705C15.991 15.3105 15.8352 15.5805 15.5702 15.6871C15.306 15.7955 15.0068 15.7105 14.4077 15.5405L13.391 15.2546C13.0087 15.1668 12.6077 15.2167 12.2585 15.3955L11.9785 15.5571C11.6785 15.7488 11.4485 16.0321 11.3218 16.3638L11.0435 17.1946C10.8602 17.7446 10.7685 18.0196 10.551 18.178C10.3335 18.3346 10.0435 18.3346 9.46515 18.3346H8.53599C7.95765 18.3346 7.66849 18.3346 7.45015 18.1771C7.23265 18.0196 7.14099 17.7455 6.95849 17.1955" stroke="currentColor" stroke-width="1.4" stroke-linecap="round" stroke-linejoin="round"/>
<path d="M1.28047 15.6521C2.18047 14.7521 5.24047 11.7221 5.54047 11.3721C5.85797 11.0021 5.60047 10.5021 5.7538 8.95212C5.82797 8.20212 5.9888 7.64045 6.45047 7.22212C7.00047 6.70212 7.45047 6.70212 9.00047 6.66712C10.3505 6.70212 10.5105 6.55212 10.6505 6.90212C10.7505 7.15212 10.4505 7.30212 10.0905 7.70212C9.29047 8.50212 8.82047 8.90212 8.77547 9.15212C8.45047 10.2521 9.73047 10.9021 10.4305 10.2021C10.6955 9.93712 11.9205 8.70212 12.0405 8.60212C12.1305 8.52212 12.3463 8.52545 12.4505 8.65212C12.5405 8.74045 12.5505 8.75212 12.5405 9.15212C12.5321 9.52212 12.5355 10.0538 12.5371 10.6021C12.538 11.3121 12.5005 12.1021 12.2005 12.5021C11.6005 13.4021 10.6005 13.4521 9.70047 13.4921C8.85047 13.5421 8.15047 13.4521 7.93047 13.6121C7.75047 13.7021 6.80047 14.7021 5.65047 15.8521L3.60047 17.9021C1.90047 19.2521 0.0304718 17.1521 1.28047 15.6521Z" stroke="currentColor" stroke-width="1.4" stroke-linecap="round" stroke-linejoin="round"/>
</svg>
