<svg width="19" height="19" viewBox="0 0 19 19" fill="none" xmlns="http://www.w3.org/2000/svg">
<path d="M9.50054 18.0108C8.57429 18.0108 7.71138 17.6546 7.06222 17.0054L2.00345 11.9467C1.35429 11.2975 0.998047 10.4267 0.998047 9.50835C0.998047 8.59002 1.35429 7.71917 2.00345 7.07L7.06222 2.01124C7.71138 1.36208 8.58221 1.00586 9.50054 1.00586C10.4189 1.00586 11.2897 1.36208 11.9389 2.01124L16.9976 7.07C17.6468 7.71917 18.003 8.59002 18.003 9.50835C18.003 10.4267 17.6468 11.2975 16.9976 11.9467L11.9389 17.0054C11.2897 17.6546 10.4268 18.0108 9.50054 18.0108ZM9.50054 2.17751C8.89096 2.17751 8.32096 2.41502 7.90138 2.83461L2.84262 7.89332C2.41512 8.32082 2.18555 8.89084 2.18555 9.4925C2.18555 10.0942 2.42304 10.6721 2.84262 11.0917L7.90138 16.1504C8.74846 16.9975 10.2526 16.9975 11.0997 16.1504L16.1585 11.0917C16.586 10.6642 16.8155 10.1021 16.8155 9.4925C16.8155 8.88292 16.578 8.3129 16.1585 7.89332L11.0997 2.83461C10.6801 2.41502 10.1101 2.17751 9.50054 2.17751Z" fill="currentColor"/>
</svg>
