<svg width="21" height="20" viewBox="0 0 21 20" fill="none" xmlns="http://www.w3.org/2000/svg">
<path d="M9.75033 18.9587H6.25033C2.99199 18.9587 1.54199 17.5087 1.54199 14.2503V10.7503C1.54199 7.49199 2.99199 6.04199 6.25033 6.04199H9.75033C13.0087 6.04199 14.4587 7.49199 14.4587 10.7503V14.2503C14.4587 17.5087 13.0087 18.9587 9.75033 18.9587ZM6.25033 7.29199C3.66699 7.29199 2.79199 8.16699 2.79199 10.7503V14.2503C2.79199 16.8337 3.66699 17.7087 6.25033 17.7087H9.75033C12.3337 17.7087 13.2087 16.8337 13.2087 14.2503V10.7503C13.2087 8.16699 12.3337 7.29199 9.75033 7.29199H6.25033Z" fill="currentColor"/>
<path d="M14.7503 13.9587H13.8337C13.492 13.9587 13.2087 13.6753 13.2087 13.3337V10.7503C13.2087 8.16699 12.3337 7.29199 9.75033 7.29199H7.16699C6.82533 7.29199 6.54199 7.00866 6.54199 6.66699V5.75033C6.54199 2.49199 7.99199 1.04199 11.2503 1.04199H14.7503C18.0087 1.04199 19.4587 2.49199 19.4587 5.75033V9.25033C19.4587 12.5087 18.0087 13.9587 14.7503 13.9587ZM14.4587 12.7087H14.7503C17.3337 12.7087 18.2087 11.8337 18.2087 9.25033V5.75033C18.2087 3.16699 17.3337 2.29199 14.7503 2.29199H11.2503C8.66699 2.29199 7.79199 3.16699 7.79199 5.75033V6.04199H9.75033C13.0087 6.04199 14.4587 7.49199 14.4587 10.7503V12.7087Z" fill="currentColor"/>
</svg>
