<svg width="56" height="56" viewBox="0 0 56 56" fill="none" xmlns="http://www.w3.org/2000/svg">
<rect width="56" height="56" rx="8" fill="#00212E"/>
<path d="M26.5841 17.515C26.3987 17.5144 26.2128 17.5145 26.0263 17.5154C25.1288 17.5195 24.2169 17.5431 23.2973 17.5773L23.5633 18.7441C24.521 18.6358 25.571 18.5552 26.6208 18.5149C27.1896 18.493 27.7549 18.4815 28.3033 18.4844C29.9484 18.493 31.441 18.6311 32.4175 19.0095L32.8351 19.1714L32.6486 19.5785C31.2864 22.5544 30.9714 25.4253 31.1848 28.2423C31.2902 24.8992 32.6798 21.9258 34.504 18.1141C32.0217 17.7016 29.365 17.5243 26.5841 17.515V17.515ZM27.8982 19.3333C27.4885 19.3337 27.0708 19.342 26.6532 19.358C24.6999 19.433 22.7533 19.6622 21.4846 19.925C22.9018 22.5537 24.0482 25.1884 24.7885 27.757C24.8806 27.7539 24.9728 27.7546 25.0648 27.7591C25.2531 27.7683 25.4394 27.7938 25.6214 27.8336C24.8679 25.4244 24.0096 23.2023 22.9427 20.9837L22.7016 20.4824L23.2494 20.3855C24.6255 20.1418 26.0458 20.0475 27.3976 20.0471C27.4877 20.0471 27.5775 20.0475 27.667 20.0482C28.5259 20.0557 29.3538 20.1002 30.1207 20.167L30.6389 20.2123L30.4878 20.71C29.6112 23.5957 29.4395 26.6949 29.9351 29.6435C29.9434 29.6511 29.9516 29.6587 29.9598 29.6665C30.1385 29.6038 30.3057 29.54 30.4615 29.4717C30.0746 26.3126 30.2461 23.0535 31.691 19.6654C30.8847 19.46 29.6555 19.3526 28.3048 19.3357C28.1693 19.334 28.0337 19.3332 27.8982 19.3333ZM34.6925 19.6795C33.2414 22.7524 32.2108 25.215 32.0418 27.8734C32.9811 24.742 34.7966 21.935 36.8655 20.1316C36.1474 19.9525 35.4225 19.8016 34.6925 19.6795ZM20.8662 20.548C19.9868 20.7294 19.1278 20.9595 18.2969 21.2775C18.7012 21.6281 19.4322 22.2804 20.3191 23.1473C20.7273 22.7272 21.1435 22.3121 21.5778 21.9347C21.3478 21.4688 21.1106 21.0065 20.8662 20.548ZM27.5235 20.8988C26.8851 20.8957 26.2315 20.914 25.5757 20.9594C25.5069 21.6007 25.1275 22.2007 24.6745 22.7908C25.3978 24.5003 26.0225 26.2447 26.5849 28.0968C27.4463 28.3508 28.2984 28.6511 28.9887 29.011C28.7323 27.0208 28.7673 24.9815 29.1003 22.9872C28.4963 22.3633 28.1816 21.6705 28.1564 20.9088C27.9455 20.9031 27.7345 20.8998 27.5235 20.8988ZM36.0556 22.1637C34.8964 23.5371 33.8749 25.2573 33.1789 27.1283C34.4569 25.3104 36.0284 23.8924 37.7013 22.8908C37.1563 22.6405 36.6077 22.3981 36.0556 22.1637ZM21.9584 22.7243C21.2743 23.3425 20.5984 24.0844 19.8945 24.7913C21.408 25.6909 22.6972 26.7562 23.7488 27.9629C23.8141 27.9382 23.8801 27.916 23.9464 27.8958C23.4543 26.2038 22.7799 24.4724 21.9584 22.7243ZM32.8984 28.572C32.1298 29.4996 31.4062 29.9893 30.4098 30.38C30.5219 30.8122 30.3555 31.3083 29.9723 31.6878C29.7469 31.911 29.4637 32.1654 29.0496 32.3307C29.1094 32.3661 29.1703 32.3994 29.2324 32.4304C29.812 32.7197 30.8359 32.6264 31.7871 32.1938C32.7354 31.7625 33.5825 31.0176 33.8965 30.2629C34.0539 29.8387 33.9415 29.6175 33.666 29.293C33.4699 29.0621 33.1834 28.8294 32.8984 28.5721V28.572ZM24.926 28.5995C24.4237 28.5949 23.9136 28.7398 23.4921 29.057C22.8925 29.5081 22.4304 30.3125 22.4262 31.6789V31.6883L22.4258 31.6976C22.2889 34.5749 22.5008 35.9023 22.9205 36.6226C23.291 37.2583 23.9073 37.5626 24.8087 38.1223C24.8516 38.0095 24.8963 37.8708 24.9383 37.6958C25.045 37.2505 25.1333 36.639 25.1893 35.9626C25.3013 34.6099 25.2849 32.9856 25.0976 31.8168L24.9987 31.1985L25.6088 31.3389C27.0908 31.6798 27.9385 31.72 28.4307 31.6332C28.923 31.5463 29.0898 31.3743 29.3785 31.0884C29.65 30.8197 29.6449 30.723 29.5874 30.5718C29.5299 30.4205 29.2992 30.1712 28.9077 29.9327C28.1248 29.4557 26.7944 29.0134 25.5508 28.6836C25.3469 28.6296 25.137 28.6014 24.926 28.5995ZM33.79 31.8534C33.3207 32.3106 32.7431 32.6859 32.1364 32.9618C31.1529 33.4091 30.071 33.6137 29.1734 33.3159C28.8565 33.4338 28.6725 33.5693 28.5796 33.6815C28.4522 33.8354 28.4442 33.9487 28.4874 34.1109C28.5306 34.273 28.6592 34.4656 28.8183 34.6042C28.9773 34.7427 29.1664 34.8147 29.2383 34.8181C31.4317 34.9223 32.381 34.2928 33.5637 33.5627C33.9086 33.3498 34.0406 32.9185 34.0076 32.4878C33.991 32.2724 33.9284 32.0701 33.856 31.9426C33.8381 31.9101 33.8159 31.8801 33.79 31.8534ZM26 32.2797C26.1279 33.4548 26.13 34.8257 26.0301 36.0322C25.9717 36.7387 25.8813 37.3812 25.7588 37.8925C25.7055 38.1149 25.6468 38.3122 25.576 38.4858L32.4524 38.1828C32.3748 37.8946 32.2956 37.6051 32.2165 37.3155C31.9524 37.4035 31.6823 37.4727 31.4084 37.5229L31.4105 37.5571L31.0207 37.5814C30.7806 37.6102 30.5307 37.6261 30.2715 37.6279L26.3405 37.8721L26.4574 37.328C26.8299 35.5934 26.8643 34.066 26.6345 32.3952C26.4223 32.3608 26.2107 32.3223 26 32.2797H26ZM27.4987 32.4993C27.6838 33.9962 27.6615 35.4248 27.3859 36.9618L28.2889 36.9057C28.1473 36.6968 28.05 36.461 28.003 36.213C27.9423 35.8905 27.976 35.5315 28.187 35.2347C28.1964 35.2216 28.2064 35.209 28.2164 35.1963C27.9705 34.9691 27.7651 34.6777 27.672 34.3279C27.5729 33.9556 27.6348 33.4997 27.9297 33.1434C28.0271 33.0258 28.1449 32.9195 28.2833 32.8239C28.1609 32.7264 28.0537 32.623 27.961 32.5154C27.8174 32.5164 27.6636 32.511 27.4987 32.4993ZM33.7174 34.458C32.6179 35.1261 31.3826 35.7647 29.1982 35.661C29.1269 35.6575 29.0561 35.6478 28.9864 35.6321C28.9286 35.6581 28.8978 35.691 28.8748 35.7234C28.8296 35.7869 28.803 35.9015 28.8322 36.0568C28.8907 36.3675 29.1849 36.7079 29.4589 36.7397C31.3988 36.9654 32.7392 36.3307 33.553 35.5924C33.928 35.2522 33.9312 35.0346 33.876 34.7978C33.8483 34.6795 33.7874 34.5649 33.7174 34.458ZM33.4042 36.7577C33.2739 36.8394 33.1403 36.9154 33.0035 36.9856C33.0809 37.2692 33.1584 37.5528 33.235 37.8365L34.1687 37.6691C33.9278 37.4635 33.7392 37.2494 33.5879 37.0365C33.5203 36.9414 33.4608 36.8489 33.4042 36.7577Z" fill="white"/>
<rect x="27" y="27" width="14" height="14" rx="7" fill="#002233"/>
<path d="M33.9993 28.167C30.7852 28.167 28.166 30.7862 28.166 34.0003C28.166 37.2145 30.7852 39.8337 33.9993 39.8337C37.2135 39.8337 39.8327 37.2145 39.8327 34.0003C39.8327 30.7862 37.2135 28.167 33.9993 28.167ZM36.3327 34.4378H34.4368V36.3337C34.4368 36.5728 34.2385 36.7712 33.9993 36.7712C33.7602 36.7712 33.5618 36.5728 33.5618 36.3337V34.4378H31.666C31.4268 34.4378 31.2285 34.2395 31.2285 34.0003C31.2285 33.7612 31.4268 33.5628 31.666 33.5628H33.5618V31.667C33.5618 31.4278 33.7602 31.2295 33.9993 31.2295C34.2385 31.2295 34.4368 31.4278 34.4368 31.667V33.5628H36.3327C36.5718 33.5628 36.7702 33.7612 36.7702 34.0003C36.7702 34.2395 36.5718 34.4378 36.3327 34.4378Z" fill="#00AAFE"/>
</svg>
