<svg width="10" height="10" viewBox="0 0 10 10" fill="none" xmlns="http://www.w3.org/2000/svg">
<path d="M2.30882 8.13283C2.05465 8.13283 1.81715 8.04533 1.64632 7.88283C1.42965 7.67866 1.32548 7.37033 1.36298 7.03699L1.51715 5.68699C1.54632 5.43283 1.70048 5.09533 1.87965 4.91199L5.30048 1.29116C6.15465 0.386991 7.04632 0.361992 7.95048 1.21616C8.85465 2.07033 8.87965 2.96199 8.02548 3.86616L4.60465 7.48699C4.42965 7.67449 4.10465 7.84949 3.85048 7.89116L2.50882 8.12033C2.43798 8.12449 2.37548 8.13283 2.30882 8.13283ZM6.63798 1.21199C6.31715 1.21199 6.03798 1.41199 5.75465 1.71199L2.33382 5.33699C2.25048 5.42449 2.15465 5.63283 2.13798 5.75366L1.98382 7.10366C1.96715 7.24116 2.00048 7.35366 2.07548 7.42449C2.15048 7.49533 2.26298 7.52033 2.40048 7.49949L3.74215 7.27033C3.86298 7.24949 4.06298 7.14116 4.14632 7.05366L7.56715 3.43283C8.08382 2.88282 8.27132 2.37449 7.51715 1.66616C7.18382 1.34532 6.89632 1.21199 6.63798 1.21199Z" fill="#00AAFE"/>
<path d="M7.22486 4.56301C7.21652 4.56301 7.20402 4.56301 7.19569 4.56301C5.89569 4.43384 4.84986 3.44634 4.64986 2.15467C4.62486 1.98384 4.74152 1.82551 4.91236 1.79634C5.08319 1.77134 5.24152 1.88801 5.27069 2.05884C5.42902 3.06717 6.24569 3.84217 7.26236 3.94217C7.43319 3.95884 7.55819 4.11301 7.54152 4.28384C7.52069 4.44217 7.38319 4.56301 7.22486 4.56301Z" fill="#00AAFE"/>
<path d="M8.75 9.47852H1.25C1.07917 9.47852 0.9375 9.33685 0.9375 9.16602C0.9375 8.99518 1.07917 8.85352 1.25 8.85352H8.75C8.92083 8.85352 9.0625 8.99518 9.0625 9.16602C9.0625 9.33685 8.92083 9.47852 8.75 9.47852Z" fill="#00AAFE"/>
</svg>
