<svg width="10" height="10" viewBox="0 0 10 10" fill="none" xmlns="http://www.w3.org/2000/svg">
<path d="M8.2375 4.68742H6.55417C5.71667 4.68742 5.3125 4.31659 5.3125 3.54992V1.65825C5.3125 0.891585 5.72083 0.520752 6.55417 0.520752H8.2375C9.075 0.520752 9.47917 0.891585 9.47917 1.65825V3.54575C9.47917 4.31659 9.07083 4.68742 8.2375 4.68742ZM6.55417 1.14575C5.99583 1.14575 5.9375 1.30409 5.9375 1.65825V3.54575C5.9375 3.90409 5.99583 4.05825 6.55417 4.05825H8.2375C8.79583 4.05825 8.85417 3.89992 8.85417 3.54575V1.65825C8.85417 1.29992 8.79583 1.14575 8.2375 1.14575H6.55417Z" fill="currentColor"/>
<path d="M8.2375 9.47917H6.55417C5.71667 9.47917 5.3125 9.07083 5.3125 8.2375V6.55417C5.3125 5.71667 5.72083 5.3125 6.55417 5.3125H8.2375C9.075 5.3125 9.47917 5.72083 9.47917 6.55417V8.2375C9.47917 9.07083 9.07083 9.47917 8.2375 9.47917ZM6.55417 5.9375C6.0625 5.9375 5.9375 6.0625 5.9375 6.55417V8.2375C5.9375 8.72917 6.0625 8.85417 6.55417 8.85417H8.2375C8.72917 8.85417 8.85417 8.72917 8.85417 8.2375V6.55417C8.85417 6.0625 8.72917 5.9375 8.2375 5.9375H6.55417Z" fill="currentColor"/>
<path d="M3.446 4.68742H1.76266C0.925163 4.68742 0.520996 4.31659 0.520996 3.54992V1.65825C0.520996 0.891585 0.929329 0.520752 1.76266 0.520752H3.446C4.2835 0.520752 4.68766 0.891585 4.68766 1.65825V3.54575C4.68766 4.31659 4.27933 4.68742 3.446 4.68742ZM1.76266 1.14575C1.20433 1.14575 1.146 1.30409 1.146 1.65825V3.54575C1.146 3.90409 1.20433 4.05825 1.76266 4.05825H3.446C4.00433 4.05825 4.06266 3.89992 4.06266 3.54575V1.65825C4.06266 1.29992 4.00433 1.14575 3.446 1.14575H1.76266Z" fill="currentColor"/>
<path d="M3.446 9.47917H1.76266C0.925163 9.47917 0.520996 9.07083 0.520996 8.2375V6.55417C0.520996 5.71667 0.929329 5.3125 1.76266 5.3125H3.446C4.2835 5.3125 4.68766 5.72083 4.68766 6.55417V8.2375C4.68766 9.07083 4.27933 9.47917 3.446 9.47917ZM1.76266 5.9375C1.271 5.9375 1.146 6.0625 1.146 6.55417V8.2375C1.146 8.72917 1.271 8.85417 1.76266 8.85417H3.446C3.93766 8.85417 4.06266 8.72917 4.06266 8.2375V6.55417C4.06266 6.0625 3.93766 5.9375 3.446 5.9375H1.76266Z" fill="currentColor"/>
</svg>
