<svg width="18" height="17" viewBox="0 0 18 17" fill="none" xmlns="http://www.w3.org/2000/svg">
<path d="M11.2904 16.1149H7.04036C3.19411 16.1149 1.55078 14.4716 1.55078 10.6253V6.37533C1.55078 2.52908 3.19411 0.885742 7.04036 0.885742H11.2904C15.1366 0.885742 16.7799 2.52908 16.7799 6.37533V10.6253C16.7799 14.4716 15.1366 16.1149 11.2904 16.1149ZM7.04036 1.94824C3.77495 1.94824 2.61328 3.10991 2.61328 6.37533V10.6253C2.61328 13.8907 3.77495 15.0524 7.04036 15.0524H11.2904C14.5558 15.0524 15.7174 13.8907 15.7174 10.6253V6.37533C15.7174 3.10991 14.5558 1.94824 11.2904 1.94824H7.04036Z" fill="currentColor"/>
<path d="M11.6445 7.4375C10.7662 7.4375 10.0508 6.72208 10.0508 5.84375C10.0508 4.96542 10.7662 4.25 11.6445 4.25C12.5229 4.25 13.2383 4.96542 13.2383 5.84375C13.2383 6.72208 12.5229 7.4375 11.6445 7.4375ZM11.6445 5.3125C11.3541 5.3125 11.1133 5.55333 11.1133 5.84375C11.1133 6.13417 11.3541 6.375 11.6445 6.375C11.9349 6.375 12.1758 6.13417 12.1758 5.84375C12.1758 5.55333 11.9349 5.3125 11.6445 5.3125Z" fill="currentColor"/>
<path d="M6.6875 7.4375C5.80917 7.4375 5.09375 6.72208 5.09375 5.84375C5.09375 4.96542 5.80917 4.25 6.6875 4.25C7.56583 4.25 8.28125 4.96542 8.28125 5.84375C8.28125 6.72208 7.56583 7.4375 6.6875 7.4375ZM6.6875 5.3125C6.39708 5.3125 6.15625 5.55333 6.15625 5.84375C6.15625 6.13417 6.39708 6.375 6.6875 6.375C6.97792 6.375 7.21875 6.13417 7.21875 5.84375C7.21875 5.55333 6.97792 5.3125 6.6875 5.3125Z" fill="currentColor"/>
<path d="M9.16602 13.7771C7.11185 13.7771 5.44727 12.1055 5.44727 10.0584C5.44727 9.41381 5.97143 8.88965 6.61602 8.88965H11.716C12.3606 8.88965 12.8848 9.41381 12.8848 10.0584C12.8848 12.1055 11.2202 13.7771 9.16602 13.7771ZM6.61602 9.95215C6.55935 9.95215 6.50977 10.0017 6.50977 10.0584C6.50977 11.5246 7.69977 12.7146 9.16602 12.7146C10.6323 12.7146 11.8223 11.5246 11.8223 10.0584C11.8223 10.0017 11.7727 9.95215 11.716 9.95215H6.61602Z" fill="currentColor"/>
</svg>
