<svg width="16" height="16" viewBox="0 0 16 16" fill="none" xmlns="http://www.w3.org/2000/svg">
<path d="M11.826 15.167H4.17268C2.51268 15.167 1.16602 13.8203 1.16602 12.1603V7.67367C1.16602 6.01367 2.51268 4.66699 4.17268 4.66699H11.826C13.486 4.66699 14.8327 6.01367 14.8327 7.67367V8.63367C14.8327 8.907 14.606 9.13367 14.3327 9.13367H12.986C12.7527 9.13367 12.5393 9.22033 12.386 9.38033L12.3793 9.387C12.1927 9.567 12.106 9.81364 12.126 10.067C12.166 10.507 12.586 10.8603 13.066 10.8603H14.3327C14.606 10.8603 14.8327 11.087 14.8327 11.3603V12.1536C14.8327 13.8203 13.486 15.167 11.826 15.167ZM4.17268 5.66699C3.06602 5.66699 2.16602 6.567 2.16602 7.67367V12.1603C2.16602 13.267 3.06602 14.167 4.17268 14.167H11.826C12.9327 14.167 13.8327 13.267 13.8327 12.1603V11.867H13.066C12.0593 11.867 11.206 11.1203 11.126 10.1603C11.0727 9.61365 11.2727 9.07367 11.6727 8.68034C12.0193 8.32701 12.486 8.13367 12.986 8.13367H13.8327V7.67367C13.8327 6.567 12.9327 5.66699 11.826 5.66699H4.17268Z" fill="currentColor"/>
<path d="M1.66602 8.77301C1.39268 8.77301 1.16602 8.54635 1.16602 8.27301V5.22638C1.16602 4.23305 1.79268 3.33301 2.71935 2.97968L8.01268 0.979678C8.55935 0.773011 9.16602 0.846377 9.63935 1.17971C10.1193 1.51304 10.3993 2.05304 10.3993 2.63304V5.16636C10.3993 5.4397 10.1727 5.66636 9.89935 5.66636C9.62602 5.66636 9.39935 5.4397 9.39935 5.16636V2.63304C9.39935 2.37971 9.27935 2.14636 9.06602 1.9997C8.85268 1.85303 8.59935 1.81969 8.35935 1.91303L3.06602 3.91303C2.52602 4.11969 2.15935 4.64638 2.15935 5.22638V8.27301C2.16602 8.55301 1.93935 8.77301 1.66602 8.77301Z" fill="currentColor"/>
<path d="M13.0657 11.8661C12.059 11.8661 11.2057 11.1195 11.1257 10.1595C11.0723 9.60613 11.2723 9.06614 11.6723 8.67281C12.0123 8.32614 12.479 8.13281 12.979 8.13281H14.3657C15.0257 8.15281 15.5323 8.67278 15.5323 9.31279V10.6862C15.5323 11.3262 15.0257 11.8461 14.3857 11.8661H13.0657ZM14.3523 9.13281H12.9857C12.7523 9.13281 12.539 9.21948 12.3857 9.37948C12.1923 9.56614 12.099 9.81946 12.1257 10.0728C12.1657 10.5128 12.5857 10.8661 13.0657 10.8661H14.3723C14.459 10.8661 14.539 10.7862 14.539 10.6862V9.31279C14.539 9.21279 14.459 9.13948 14.3523 9.13281Z" fill="currentColor"/>
<path d="M9.33268 8.5H4.66602C4.39268 8.5 4.16602 8.27333 4.16602 8C4.16602 7.72667 4.39268 7.5 4.66602 7.5H9.33268C9.60602 7.5 9.83268 7.72667 9.83268 8C9.83268 8.27333 9.60602 8.5 9.33268 8.5Z" fill="currentColor"/>
</svg>
