<svg width="17" height="17" viewBox="0 0 17 17" fill="none" xmlns="http://www.w3.org/2000/svg">
<path d="M8.33393 11.3866C6.7406 11.3866 5.44727 10.0933 5.44727 8.49995C5.44727 6.90661 6.7406 5.61328 8.33393 5.61328C9.92727 5.61328 11.2206 6.90661 11.2206 8.49995C11.2206 10.0933 9.92727 11.3866 8.33393 11.3866ZM8.33393 6.61328C7.29393 6.61328 6.44727 7.45995 6.44727 8.49995C6.44727 9.53995 7.29393 10.3866 8.33393 10.3866C9.37393 10.3866 10.2206 9.53995 10.2206 8.49995C10.2206 7.45995 9.37393 6.61328 8.33393 6.61328Z" fill="currentColor"/>
<path d="M8.33469 14.513C5.82802 14.513 3.46135 13.0463 1.83469 10.4997C1.12802 9.39966 1.12802 7.60633 1.83469 6.49966C3.46802 3.95299 5.83469 2.48633 8.33469 2.48633C10.8347 2.48633 13.2014 3.95299 14.828 6.49966C15.5347 7.59966 15.5347 9.393 14.828 10.4997C13.2014 13.0463 10.8347 14.513 8.33469 14.513ZM8.33469 3.48633C6.18135 3.48633 4.12135 4.77966 2.68135 7.03966C2.18135 7.81966 2.18135 9.17966 2.68135 9.95966C4.12135 12.2197 6.18135 13.513 8.33469 13.513C10.488 13.513 12.548 12.2197 13.988 9.95966C14.488 9.17966 14.488 7.81966 13.988 7.03966C12.548 4.77966 10.488 3.48633 8.33469 3.48633Z" fill="currentColor"/>
</svg>
