<svg width="16" height="17" viewBox="0 0 16 17" fill="none" xmlns="http://www.w3.org/2000/svg">
<path opacity="0.6" d="M6 3.5H5.33333C3.762 3.5 2.976 3.5 2.488 3.988C2 4.476 2 5.262 2 6.83333V10.1667C2 11.738 2 12.5233 2.488 13.012C2.976 13.5007 3.762 13.5 5.33333 13.5H6" stroke="black"/>
<path d="M6 4.81723C6 3.28856 6 2.52389 6.47133 2.10589C6.94267 1.68789 7.66333 1.81323 9.10467 2.06456L10.658 2.33589C12.254 2.61389 13.052 2.75323 13.526 3.33856C14 3.92456 14 4.77123 14 6.46523V10.5352C14 12.2286 14 13.0752 13.5267 13.6612C13.052 14.2466 12.2533 14.3859 10.6573 14.6646L9.10533 14.9352C7.664 15.1866 6.94333 15.3119 6.472 14.8939C6.00067 14.4759 6 13.7112 6 12.1826V4.81723Z" stroke="black"/>
<path opacity="0.6" d="M8 7.83325V9.16659" stroke="black" stroke-linecap="round"/>
</svg>
