<svg width="24" height="25" viewBox="0 0 24 25" fill="none" xmlns="http://www.w3.org/2000/svg">
<path d="M12.7497 6.5C12.7497 6.30109 12.6707 6.11032 12.53 5.96967C12.3894 5.82902 12.1986 5.75 11.9997 5.75C11.8008 5.75 11.61 5.82902 11.4694 5.96967C11.3287 6.11032 11.2497 6.30109 11.2497 6.5V7.285C10.5626 7.34864 9.88756 7.5068 9.2437 7.755L8.9067 7.143C8.81069 6.96875 8.6494 6.83978 8.4583 6.78446C8.2672 6.72913 8.06195 6.75199 7.8877 6.848C7.71345 6.94401 7.58448 7.1053 7.52916 7.2964C7.47384 7.4875 7.49669 7.69275 7.5927 7.867L7.9047 8.432C7.33205 8.79714 6.80412 9.22807 6.3317 9.716L5.9827 9.424C5.82994 9.29656 5.6328 9.23503 5.43467 9.25294C5.23654 9.27085 5.05364 9.36673 4.9262 9.5195C4.79876 9.67226 4.73723 9.8694 4.75514 10.0675C4.77305 10.2657 4.86894 10.4486 5.0217 10.576L5.3687 10.866C5.10955 11.2263 4.87245 11.602 4.6587 11.991L4.3357 11.829C4.24758 11.7849 4.15165 11.7587 4.05338 11.7517C3.95511 11.7447 3.85643 11.7571 3.76297 11.7883C3.6695 11.8195 3.58309 11.8687 3.50867 11.9333C3.43424 11.9978 3.37326 12.0764 3.3292 12.1645C3.28514 12.2526 3.25887 12.3485 3.25189 12.4468C3.2449 12.5451 3.25734 12.6438 3.2885 12.7372C3.31965 12.8307 3.36891 12.9171 3.43346 12.9915C3.49801 13.066 3.57658 13.1269 3.6647 13.171L4.6647 13.671C4.75755 13.7174 4.85901 13.7441 4.96268 13.7492C5.06636 13.7544 5.16997 13.738 5.26698 13.7011C5.36398 13.6641 5.45226 13.6074 5.52623 13.5346C5.6002 13.4618 5.65825 13.3744 5.6967 13.278L5.7037 13.26L5.7387 13.182C5.78645 13.0768 5.8368 12.9727 5.8897 12.87C6.0297 12.602 6.2427 12.227 6.5367 11.811C7.1287 10.974 8.0217 10.007 9.2547 9.389C10.1065 8.96251 11.0471 8.74355 11.9997 8.75C12.9524 8.74386 13.893 8.96317 14.7447 9.39C15.9777 10.007 16.8707 10.974 17.4627 11.811C17.7689 12.2436 18.0363 12.7024 18.2617 13.182L18.2957 13.261L18.3027 13.278L18.3037 13.279C18.3425 13.3752 18.4007 13.4632 18.4748 13.5357C18.5489 13.6082 18.6372 13.6646 18.7342 13.7012C18.8312 13.7379 18.9347 13.754 19.0382 13.7486C19.1418 13.7433 19.243 13.7165 19.3357 13.67L20.3357 13.17C20.4281 13.1286 20.5111 13.069 20.5798 12.9947C20.6485 12.9203 20.7014 12.8329 20.7354 12.7376C20.7694 12.6422 20.7838 12.541 20.7776 12.44C20.7715 12.339 20.745 12.2402 20.6997 12.1498C20.6543 12.0593 20.5912 11.9789 20.514 11.9134C20.4368 11.848 20.3471 11.7989 20.2504 11.769C20.1537 11.7391 20.052 11.7291 19.9513 11.7396C19.8507 11.7501 19.7532 11.7808 19.6647 11.83L19.3407 11.991C19.1269 11.602 18.8898 11.2263 18.6307 10.866L18.9787 10.576C19.1315 10.4484 19.2273 10.2654 19.2451 10.0672C19.2629 9.86895 19.2013 9.67176 19.0737 9.519C18.9461 9.36624 18.7631 9.2704 18.5649 9.25259C18.3667 9.23477 18.1695 9.29643 18.0167 9.424L17.6677 9.716C17.1956 9.22813 16.668 8.7972 16.0957 8.432L16.4067 7.867C16.5027 7.69275 16.5256 7.4875 16.4702 7.2964C16.4149 7.1053 16.2859 6.94401 16.1117 6.848C15.9375 6.75199 15.7322 6.72913 15.5411 6.78446C15.35 6.83978 15.1887 6.96875 15.0927 7.143L14.7557 7.755C14.1118 7.5068 13.4368 7.34864 12.7497 7.285V6.5Z" fill="currentColor"/>
<path d="M8.25 15.5C8.25 14.5054 8.64509 13.5516 9.34835 12.8483C10.0516 12.1451 11.0054 11.75 12 11.75C12.9946 11.75 13.9484 12.1451 14.6517 12.8483C15.3549 13.5516 15.75 14.5054 15.75 15.5C15.75 16.4946 15.3549 17.4484 14.6517 18.1517C13.9484 18.8549 12.9946 19.25 12 19.25C11.0054 19.25 10.0516 18.8549 9.34835 18.1517C8.64509 17.4484 8.25 16.4946 8.25 15.5ZM12 13.25C11.4033 13.25 10.831 13.4871 10.409 13.909C9.98705 14.331 9.75 14.9033 9.75 15.5C9.75 16.0967 9.98705 16.669 10.409 17.091C10.831 17.5129 11.4033 17.75 12 17.75C12.5967 17.75 13.169 17.5129 13.591 17.091C14.0129 16.669 14.25 16.0967 14.25 15.5C14.25 14.9033 14.0129 14.331 13.591 13.909C13.169 13.4871 12.5967 13.25 12 13.25Z" fill="currentColor"/>
</svg>
