<svg width="24" height="24" viewBox="0 0 24 24" fill="none" xmlns="http://www.w3.org/2000/svg">
<path d="M15.2217 7.642C14.2485 7.05697 13.1342 6.74856 11.9987 6.75C10.8642 6.7491 9.75099 7.05749 8.7787 7.642C8.6086 7.74057 8.40661 7.7684 8.21619 7.71952C8.02577 7.67064 7.86216 7.54894 7.76058 7.38064C7.65899 7.21233 7.62755 7.01086 7.67302 6.8196C7.71849 6.62834 7.83724 6.46258 8.0037 6.358C9.21013 5.63209 10.5917 5.249 11.9997 5.25C13.408 5.24882 14.79 5.63191 15.9967 6.358C16.1602 6.46381 16.2762 6.6291 16.3201 6.81889C16.3639 7.00868 16.3322 7.20808 16.2316 7.3749C16.1311 7.54173 15.9695 7.66288 15.7812 7.71273C15.5929 7.76258 15.3916 7.73722 15.2217 7.642ZM4.6597 12.509L4.3357 12.671C4.24758 12.7151 4.15165 12.7413 4.05338 12.7483C3.95511 12.7553 3.85643 12.7429 3.76297 12.7117C3.6695 12.6806 3.58309 12.6313 3.50867 12.5667C3.43424 12.5022 3.37326 12.4236 3.3292 12.3355C3.28514 12.2474 3.25887 12.1515 3.25189 12.0532C3.2449 11.9549 3.25734 11.8562 3.2885 11.7628C3.31965 11.6693 3.36891 11.5829 3.43346 11.5085C3.49801 11.434 3.57658 11.3731 3.6647 11.329L4.6647 10.829C4.75733 10.7829 4.8585 10.7564 4.96185 10.7513C5.0652 10.7461 5.1685 10.7624 5.26524 10.7992C5.36198 10.8359 5.45008 10.8922 5.52399 10.9647C5.5979 11.0371 5.65602 11.124 5.6947 11.22L5.6967 11.222L5.7037 11.24L5.7387 11.318C5.7707 11.389 5.8207 11.496 5.8897 11.63C6.0297 11.898 6.2427 12.273 6.5367 12.689C7.1287 13.526 8.0217 14.493 9.2547 15.111C10.1065 15.5375 11.0471 15.7564 11.9997 15.75C12.9524 15.7561 13.893 15.5368 14.7447 15.11C15.9777 14.493 16.8707 13.526 17.4627 12.689C17.7689 12.2564 18.0363 11.7976 18.2617 11.318L18.2957 11.239L18.3027 11.222C18.3411 11.1255 18.3992 11.038 18.4733 10.965C18.5473 10.8921 18.6357 10.8354 18.7328 10.7984C18.8299 10.7615 18.9337 10.7451 19.0375 10.7504C19.1413 10.7557 19.2428 10.7824 19.3357 10.829L20.3357 11.329C20.5137 11.418 20.649 11.574 20.7119 11.7628C20.7748 11.9515 20.7602 12.1575 20.6712 12.3355C20.5822 12.5135 20.4262 12.6488 20.2374 12.7117C20.0487 12.7746 19.8427 12.76 19.6647 12.671L19.3407 12.509C19.1269 12.898 18.8898 13.2737 18.6307 13.634L18.9787 13.924C19.1315 14.0516 19.2273 14.2346 19.2451 14.4328C19.2629 14.6311 19.2013 14.8282 19.0737 14.981C18.9461 15.1338 18.7631 15.2296 18.5649 15.2474C18.3667 15.2652 18.1695 15.2036 18.0167 15.076L17.6677 14.784C17.1956 15.2719 16.668 15.7028 16.0957 16.068L16.4067 16.633C16.5027 16.8072 16.5256 17.0125 16.4702 17.2036C16.4149 17.3947 16.2859 17.556 16.1117 17.652C15.9375 17.748 15.7322 17.7709 15.5411 17.7155C15.35 17.6602 15.1887 17.5312 15.0927 17.357L14.7557 16.745C14.1118 16.9932 13.4368 17.1514 12.7497 17.215V18C12.7497 18.1989 12.6707 18.3897 12.53 18.5303C12.3894 18.671 12.1986 18.75 11.9997 18.75C11.8008 18.75 11.61 18.671 11.4694 18.5303C11.3287 18.3897 11.2497 18.1989 11.2497 18V17.215C10.5626 17.1514 9.88756 16.9932 9.2437 16.745L8.9067 17.357C8.81069 17.5312 8.6494 17.6602 8.4583 17.7155C8.2672 17.7709 8.06195 17.748 7.8877 17.652C7.71345 17.556 7.58448 17.3947 7.52916 17.2036C7.47384 17.0125 7.49669 16.8072 7.5927 16.633L7.9047 16.068C7.33205 15.7029 6.80412 15.2719 6.3317 14.784L5.9827 15.075C5.90788 15.1431 5.82007 15.1953 5.72454 15.2285C5.62902 15.2618 5.52775 15.2754 5.42684 15.2685C5.32593 15.2616 5.22746 15.2343 5.13735 15.1884C5.04724 15.1425 4.96735 15.0788 4.90249 15.0012C4.83763 14.9235 4.78914 14.8336 4.75994 14.7368C4.73074 14.6399 4.72142 14.5382 4.73256 14.4377C4.7437 14.3371 4.77505 14.2399 4.82474 14.1518C4.87443 14.0637 4.94143 13.9865 5.0217 13.925L5.3687 13.635C5.10952 13.2743 4.87342 12.8983 4.6597 12.509Z" fill="currentColor"/>
</svg>
