<svg width="18" height="18" viewBox="0 0 18 18" fill="none" xmlns="http://www.w3.org/2000/svg">
<path d="M17.3337 12.491C17.3337 15.5244 15.5253 17.3327 12.492 17.3327H11.5003C11.042 17.3327 10.667 16.9577 10.667 16.4993V11.691C10.667 11.466 10.8503 11.2744 11.0753 11.2744L12.542 11.2494C12.6587 11.241 12.7587 11.1577 12.7837 11.041L13.0753 9.44936C13.1003 9.29936 12.9837 9.15768 12.8253 9.15768L11.0503 9.18268C10.817 9.18268 10.6337 8.99936 10.6253 8.77436L10.592 6.73268C10.592 6.59935 10.7003 6.48269 10.842 6.48269L12.842 6.44935C12.9836 6.44935 13.092 6.34103 13.092 6.19936L13.0587 4.19934C13.0587 4.05767 12.9503 3.94935 12.8087 3.94935L10.5587 3.98269C9.17532 4.00769 8.07534 5.14102 8.10034 6.52435L8.14199 8.81602C8.15033 9.04935 7.967 9.23269 7.73367 9.24102L6.73366 9.25768C6.59199 9.25768 6.48367 9.366 6.48367 9.50767L6.50867 11.091C6.50867 11.2327 6.61699 11.341 6.75866 11.341L7.75867 11.3244C7.992 11.3244 8.17532 11.5077 8.18365 11.7327L8.25865 16.4827C8.26698 16.9494 7.89198 17.3327 7.42531 17.3327H5.50866C2.47532 17.3327 0.666992 15.5243 0.666992 12.4827V5.50768C0.666992 2.47435 2.47532 0.666016 5.50866 0.666016H12.492C15.5253 0.666016 17.3337 2.47435 17.3337 5.50768V12.491Z" fill="#121212"/>
</svg>
