<svg width="15" height="15" viewBox="0 0 15 15" fill="none" xmlns="http://www.w3.org/2000/svg">
<path d="M7.5 14.2188C3.79375 14.2188 0.78125 11.2063 0.78125 7.5C0.78125 3.79375 3.79375 0.78125 7.5 0.78125C11.2063 0.78125 14.2188 3.79375 14.2188 7.5C14.2188 11.2063 11.2063 14.2188 7.5 14.2188ZM7.5 1.71875C4.3125 1.71875 1.71875 4.3125 1.71875 7.5C1.71875 10.6875 4.3125 13.2812 7.5 13.2812C10.6875 13.2812 13.2812 10.6875 13.2812 7.5C13.2812 4.3125 10.6875 1.71875 7.5 1.71875Z" fill="currentColor"/>
<path d="M5.62539 13.5938H5.00039C4.74414 13.5938 4.53164 13.3813 4.53164 13.125C4.53164 12.8687 4.73164 12.6625 4.98789 12.6562C4.00664 9.30625 4.00664 5.69375 4.98789 2.34375C4.73164 2.3375 4.53164 2.13125 4.53164 1.875C4.53164 1.61875 4.74414 1.40625 5.00039 1.40625H5.62539C5.77539 1.40625 5.91914 1.48125 6.00664 1.6C6.09414 1.725 6.11914 1.88125 6.06914 2.025C4.89414 5.55625 4.89414 9.44375 6.06914 12.9813C6.11914 13.125 6.09414 13.2812 6.00664 13.4062C5.91914 13.5188 5.77539 13.5938 5.62539 13.5938Z" fill="currentColor"/>
<path d="M9.37452 13.5942C9.32452 13.5942 9.27452 13.5879 9.22452 13.5692C8.98077 13.4879 8.84327 13.2192 8.93077 12.9754C10.1058 9.44417 10.1058 5.55667 8.93077 2.01917C8.84952 1.77542 8.98077 1.50667 9.22452 1.42542C9.47452 1.34417 9.73702 1.47542 9.81827 1.71917C11.062 5.44417 11.062 9.54417 9.81827 13.2629C9.75577 13.4692 9.56827 13.5942 9.37452 13.5942Z" fill="currentColor"/>
<path d="M7.5 10.7505C5.75625 10.7505 4.01875 10.5067 2.34375 10.013C2.3375 10.263 2.13125 10.4692 1.875 10.4692C1.61875 10.4692 1.40625 10.2567 1.40625 10.0005V9.37548C1.40625 9.22548 1.48125 9.08173 1.6 8.99423C1.725 8.90673 1.88125 8.88173 2.025 8.93173C5.55625 10.1067 9.45 10.1067 12.9813 8.93173C13.125 8.88173 13.2812 8.90673 13.4062 8.99423C13.5313 9.08173 13.6 9.22548 13.6 9.37548V10.0005C13.6 10.2567 13.3875 10.4692 13.1313 10.4692C12.875 10.4692 12.6687 10.2692 12.6625 10.013C10.9812 10.5067 9.24375 10.7505 7.5 10.7505Z" fill="currentColor"/>
<path d="M13.1254 6.09336C13.0754 6.09336 13.0254 6.08711 12.9754 6.06836C9.4441 4.89336 5.55035 4.89336 2.0191 6.06836C1.7691 6.14961 1.5066 6.01836 1.42535 5.77461C1.35035 5.52461 1.4816 5.26211 1.72535 5.18086C5.45035 3.93711 9.55035 3.93711 13.2691 5.18086C13.5129 5.26211 13.6504 5.53086 13.5629 5.77461C13.5066 5.96836 13.3191 6.09336 13.1254 6.09336Z" fill="currentColor"/>
</svg>
