<svg width="15" height="15" viewBox="0 0 15 15" fill="none" xmlns="http://www.w3.org/2000/svg">
<path d="M7.48145 14.2188C3.78145 14.2188 0.762695 11.2063 0.762695 7.5C0.762695 3.79375 3.78145 0.78125 7.48145 0.78125C11.1814 0.78125 14.2002 3.79375 14.2002 7.5C14.2002 11.2063 11.1877 14.2188 7.48145 14.2188ZM7.48145 1.71875C4.29395 1.71875 1.7002 4.3125 1.7002 7.5C1.7002 10.6875 4.29395 13.2812 7.48145 13.2812C10.6689 13.2812 13.2627 10.6875 13.2627 7.5C13.2627 4.3125 10.6689 1.71875 7.48145 1.71875Z" fill="currentColor"/>
<path d="M7.50041 12.0311C6.15666 12.0311 4.89416 11.3748 4.12541 10.2686C3.97541 10.0561 4.03166 9.76233 4.24416 9.61858C4.45666 9.46858 4.75041 9.52483 4.89416 9.73733C5.48791 10.5873 6.46291 11.0998 7.50041 11.0998C8.53791 11.0998 9.51291 10.5936 10.1067 9.73733C10.2567 9.52483 10.5442 9.47483 10.7567 9.61858C10.9692 9.76858 11.0192 10.0561 10.8754 10.2686C10.1067 11.3748 8.84416 12.0311 7.50041 12.0311Z" fill="currentColor"/>
</svg>
