<svg width="19" height="20" viewBox="0 0 19 20" fill="none" xmlns="http://www.w3.org/2000/svg">
<path d="M6.33429 17.7196C6.31054 17.7196 6.28679 17.7196 6.27095 17.7196C5.94637 17.68 5.70887 17.3871 5.74845 17.0625L7.33179 2.81253C7.37137 2.48794 7.66429 2.25836 7.98887 2.29003C8.31345 2.32961 8.55095 2.62253 8.51137 2.94711L6.92804 17.1971C6.88845 17.4979 6.63512 17.7196 6.33429 17.7196Z" fill="currentColor"/>
<path d="M11.0843 17.7196C11.0605 17.7196 11.0368 17.7196 11.021 17.7196C10.6964 17.68 10.4589 17.3871 10.4985 17.0625L12.0818 2.81253C12.1214 2.48794 12.4064 2.25836 12.7389 2.29003C13.0635 2.32961 13.301 2.62253 13.2614 2.94711L11.678 17.1971C11.6385 17.4979 11.3851 17.7196 11.0843 17.7196Z" fill="currentColor"/>
<path d="M17.0215 8.21875H2.77148C2.4469 8.21875 2.17773 7.94958 2.17773 7.625C2.17773 7.30042 2.4469 7.03125 2.77148 7.03125H17.0215C17.3461 7.03125 17.6152 7.30042 17.6152 7.625C17.6152 7.94958 17.3461 8.21875 17.0215 8.21875Z" fill="currentColor"/>
<path d="M16.2285 12.9688H1.97852C1.65393 12.9688 1.38477 12.6996 1.38477 12.375C1.38477 12.0504 1.65393 11.7812 1.97852 11.7812H16.2285C16.5531 11.7812 16.8223 12.0504 16.8223 12.375C16.8223 12.6996 16.5531 12.9688 16.2285 12.9688Z" fill="currentColor"/>
</svg>
