<svg width="19" height="20" viewBox="0 0 19 20" fill="none" xmlns="http://www.w3.org/2000/svg">
<path d="M11.8747 18.5101H7.12467C2.82592 18.5101 0.989258 16.6734 0.989258 12.3747V7.62467C0.989258 3.32592 2.82592 1.48926 7.12467 1.48926H11.8747C16.1734 1.48926 18.0101 3.32592 18.0101 7.62467V12.3747C18.0101 16.6734 16.1734 18.5101 11.8747 18.5101ZM7.12467 2.67676C3.47509 2.67676 2.17676 3.97509 2.17676 7.62467V12.3747C2.17676 16.0243 3.47509 17.3226 7.12467 17.3226H11.8747C15.5243 17.3226 16.8226 16.0243 16.8226 12.3747V7.62467C16.8226 3.97509 15.5243 2.67676 11.8747 2.67676H7.12467Z" fill="currentColor"/>
<path d="M11.0837 14.5524H7.91699C6.27824 14.5524 4.94824 13.2224 4.94824 11.5837V8.41699C4.94824 6.77824 6.27824 5.44824 7.91699 5.44824H11.0837C12.7224 5.44824 14.0524 6.77824 14.0524 8.41699V11.5837C14.0524 13.2224 12.7224 14.5524 11.0837 14.5524ZM7.91699 6.63574C6.93533 6.63574 6.13574 7.43533 6.13574 8.41699V11.5837C6.13574 12.5653 6.93533 13.3649 7.91699 13.3649H11.0837C12.0653 13.3649 12.8649 12.5653 12.8649 11.5837V8.41699C12.8649 7.43533 12.0653 6.63574 11.0837 6.63574H7.91699Z" fill="currentColor"/>
<path d="M9.5 14.5524C9.17542 14.5524 8.90625 14.2832 8.90625 13.9587V6.04199C8.90625 5.71741 9.17542 5.44824 9.5 5.44824C9.82458 5.44824 10.0938 5.71741 10.0938 6.04199V13.9587C10.0938 14.2832 9.82458 14.5524 9.5 14.5524Z" fill="currentColor"/>
<path d="M13.4587 10.5938H5.54199C5.21741 10.5938 4.94824 10.3246 4.94824 10C4.94824 9.67542 5.21741 9.40625 5.54199 9.40625H13.4587C13.7832 9.40625 14.0524 9.67542 14.0524 10C14.0524 10.3246 13.7832 10.5938 13.4587 10.5938Z" fill="currentColor"/>
</svg>
