<svg width="24" height="25" viewBox="0 0 24 25" fill="none" xmlns="http://www.w3.org/2000/svg">
<path d="M18.3599 23.6957H5.58987C4.06987 23.6957 2.67987 22.9257 1.87987 21.6257C1.07987 20.3257 1.00987 18.7457 1.68987 17.3757L3.40987 13.9257C3.96987 12.8057 4.86987 12.1057 5.87987 11.9957C6.88987 11.8857 7.91987 12.3857 8.69987 13.3557L8.91987 13.6357C9.35987 14.1757 9.86987 14.4657 10.3699 14.4157C10.8699 14.3757 11.3299 14.0157 11.6699 13.4057L13.5599 9.99573C14.3399 8.58573 15.3799 7.85573 16.5099 7.90573C17.6299 7.96573 18.5899 8.80573 19.2299 10.2857L22.3599 17.5957C22.9399 18.9457 22.7999 20.4857 21.9899 21.7157C21.1899 22.9657 19.8299 23.6957 18.3599 23.6957ZM6.15987 13.4957C6.11987 13.4957 6.07987 13.4957 6.03987 13.5057C5.53987 13.5557 5.07987 13.9557 4.74987 14.6057L3.02987 18.0557C2.57987 18.9457 2.62987 19.9957 3.14987 20.8457C3.66987 21.6957 4.58987 22.2057 5.58987 22.2057H18.3499C19.3299 22.2057 20.1999 21.7357 20.7399 20.9157C21.2799 20.0957 21.3699 19.1157 20.9799 18.2157L17.8499 10.9057C17.4699 10.0057 16.9399 9.45573 16.4299 9.43573C15.9599 9.40573 15.3499 9.90573 14.8699 10.7557L12.9799 14.1657C12.3999 15.2057 11.4899 15.8557 10.4999 15.9457C9.50987 16.0257 8.49987 15.5457 7.74987 14.6057L7.52987 14.3257C7.10987 13.7757 6.62987 13.4957 6.15987 13.4957Z" fill="currentColor"/>
<path d="M6.96973 9.69629C4.90973 9.69629 3.21973 8.01629 3.21973 5.94629C3.21973 3.87629 4.89973 2.19629 6.96973 2.19629C9.03973 2.19629 10.7197 3.87629 10.7197 5.94629C10.7197 8.01629 9.03973 9.69629 6.96973 9.69629ZM6.96973 3.69629C5.72973 3.69629 4.71973 4.70629 4.71973 5.94629C4.71973 7.18629 5.72973 8.19629 6.96973 8.19629C8.20973 8.19629 9.21973 7.18629 9.21973 5.94629C9.21973 4.70629 8.20973 3.69629 6.96973 3.69629Z" fill="currentColor"/>
</svg>
