<svg width="20" height="20" viewBox="0 0 20 20" fill="none" xmlns="http://www.w3.org/2000/svg">
<path d="M13.492 1.66602H6.50866C3.47533 1.66602 1.66699 3.47435 1.66699 6.50768V13.4827C1.66699 16.5244 3.47533 18.3327 6.50866 18.3327H13.4837C16.517 18.3327 18.3253 16.5244 18.3253 13.491V6.50768C18.3337 3.47435 16.5253 1.66602 13.492 1.66602ZM10.0003 13.2327C8.21699 13.2327 6.76699 11.7827 6.76699 9.99935C6.76699 8.21602 8.21699 6.76602 10.0003 6.76602C11.7837 6.76602 13.2337 8.21602 13.2337 9.99935C13.2337 11.7827 11.7837 13.2327 10.0003 13.2327ZM14.9337 5.73268C14.892 5.83268 14.8337 5.92435 14.7587 6.00768C14.6753 6.08268 14.5837 6.14102 14.4837 6.18268C14.3837 6.22435 14.2753 6.24935 14.167 6.24935C13.942 6.24935 13.7337 6.16602 13.5753 6.00768C13.5003 5.92435 13.442 5.83268 13.4003 5.73268C13.3587 5.63268 13.3337 5.52435 13.3337 5.41602C13.3337 5.30768 13.3587 5.19935 13.4003 5.09935C13.442 4.99102 13.5003 4.90768 13.5753 4.82435C13.767 4.63268 14.0587 4.54102 14.3253 4.59935C14.3837 4.60768 14.4337 4.62435 14.4837 4.64935C14.5337 4.66602 14.5837 4.69102 14.6337 4.72435C14.6753 4.74935 14.717 4.79102 14.7587 4.82435C14.8337 4.90768 14.892 4.99102 14.9337 5.09935C14.9753 5.19935 15.0003 5.30768 15.0003 5.41602C15.0003 5.52435 14.9753 5.63268 14.9337 5.73268Z" fill="currentColor"/>
</svg>
