<svg width="20" height="19" viewBox="0 0 20 19" fill="none" xmlns="http://www.w3.org/2000/svg">
<path d="M13.587 15.5084H6.08996C5.46454 15.5084 5.01328 15.4847 4.62537 15.4293C1.87828 15.1284 1.33203 13.4818 1.33203 10.7505V5.74718C1.33203 3.01593 1.87037 1.36924 4.6412 1.06841C5.0212 1.01299 5.47246 0.989258 6.08996 0.989258H13.587C14.2045 0.989258 14.6558 1.01299 15.0516 1.06841C17.8066 1.36924 18.345 3.01593 18.345 5.74718V10.7505C18.345 13.4818 17.8066 15.1284 15.0358 15.4293C14.6637 15.4847 14.2125 15.5084 13.587 15.5084ZM6.08203 2.17676C5.51995 2.17676 5.1162 2.20053 4.7837 2.24803C3.0737 2.43803 2.51162 2.96844 2.51162 5.75511V10.7584C2.51162 13.5372 3.07371 14.0755 4.76787 14.2576C5.11621 14.3051 5.51996 14.3288 6.08996 14.3288H13.587C14.157 14.3288 14.5529 14.3051 14.8854 14.2576C16.5954 14.0676 17.1575 13.5372 17.1575 10.7505V5.74718C17.1575 2.96843 16.5954 2.43011 14.9012 2.24803C14.5449 2.20053 14.1491 2.17676 13.5791 2.17676H6.08203Z" fill="currentColor"/>
<path d="M13.9973 7.18066H11.084C10.7594 7.18066 10.4902 6.9115 10.4902 6.58691C10.4902 6.26233 10.7594 5.99316 11.084 5.99316H13.9973C14.3219 5.99316 14.5911 6.26233 14.5911 6.58691C14.5911 6.9115 14.3298 7.18066 13.9973 7.18066Z" fill="currentColor"/>
<path d="M8.25065 7.37826C7.81523 7.37826 7.45898 7.02201 7.45898 6.58659C7.45898 6.15117 7.80732 5.79492 8.25065 5.79492C8.68607 5.79492 9.04232 6.15117 9.04232 6.58659C9.04232 7.02201 8.69398 7.37826 8.25065 7.37826Z" fill="currentColor"/>
<path d="M5.75651 7.37826C5.32109 7.37826 4.96484 7.02201 4.96484 6.58659C4.96484 6.15117 5.31318 5.79492 5.75651 5.79492H5.76442C6.19984 5.79492 6.55609 6.15117 6.55609 6.58659C6.55609 7.02201 6.19193 7.37826 5.75651 7.37826Z" fill="currentColor"/>
<path d="M13.9982 11.7637H5.67783C5.35325 11.7637 5.07617 11.4945 5.07617 11.1699C5.07617 10.8453 5.33741 10.5762 5.662 10.5762H13.9982C14.3228 10.5762 14.592 10.8453 14.592 11.1699C14.592 11.4945 14.3307 11.7637 13.9982 11.7637Z" fill="currentColor"/>
<path d="M13.7917 18.0107H5.875C5.55042 18.0107 5.28125 17.7416 5.28125 17.417C5.28125 17.0924 5.55042 16.8232 5.875 16.8232H13.7917C14.1162 16.8232 14.3854 17.0924 14.3854 17.417C14.3854 17.7416 14.1162 18.0107 13.7917 18.0107Z" fill="currentColor"/>
</svg>
