<svg width="18" height="17" viewBox="0 0 18 17" fill="none" xmlns="http://www.w3.org/2000/svg">
<path d="M9.1653 16.1149C5.70864 16.1149 2.89657 13.3028 2.89657 9.84616C2.87532 5.78741 6.7428 2.40866 8.40738 1.14074C8.85363 0.800742 9.47698 0.800742 9.92323 1.14074C11.5878 2.42991 15.4553 5.85116 15.434 9.85324C15.434 13.3028 12.622 16.1149 9.1653 16.1149ZM9.1653 1.94824C9.12989 1.94824 9.08741 1.96241 9.05199 1.99074C7.85491 2.90449 3.94487 6.16991 3.96612 9.84616C3.96612 12.722 6.30364 15.0524 9.17239 15.0524C12.0411 15.0524 14.3786 12.722 14.3786 9.85324C14.3999 6.22658 10.4828 2.91866 9.27862 1.99074C9.23612 1.96241 9.20072 1.94824 9.1653 1.94824Z" fill="currentColor"/>
<path d="M9.16602 16.1149C8.8756 16.1149 8.63477 15.8741 8.63477 15.5837V1.41699C8.63477 1.12658 8.8756 0.885742 9.16602 0.885742C9.45643 0.885742 9.69727 1.12658 9.69727 1.41699V15.5837C9.69727 15.8741 9.45643 16.1149 9.16602 16.1149Z" fill="currentColor"/>
<path d="M9.16622 13.9614C8.96788 13.9614 8.77664 13.848 8.68456 13.6639C8.55706 13.4018 8.66329 13.083 8.93246 12.9555L14.3866 10.3064C14.6487 10.1789 14.9675 10.2922 15.095 10.5543C15.2225 10.8164 15.1162 11.1351 14.8471 11.2626L9.39289 13.9118C9.32206 13.9401 9.24413 13.9614 9.16622 13.9614Z" fill="currentColor"/>
<path d="M9.16622 10.4196C8.96788 10.4196 8.77664 10.3062 8.68456 10.1221C8.55706 9.86 8.66329 9.54125 8.93246 9.41375L14.1529 6.87791C14.415 6.75041 14.7337 6.85666 14.8612 7.12583C14.9887 7.39499 14.8825 7.70666 14.6133 7.83416L9.39289 10.37C9.32206 10.3983 9.24413 10.4196 9.16622 10.4196Z" fill="currentColor"/>
<path d="M9.16622 6.87747C8.96788 6.87747 8.77664 6.76413 8.68456 6.57997C8.55706 6.31788 8.66329 5.99913 8.93246 5.87163L12.4954 4.1433C12.7575 4.0158 13.0762 4.12913 13.2037 4.39121C13.3312 4.6533 13.225 4.97205 12.9558 5.09955L9.39289 6.82788C9.32206 6.85622 9.24413 6.87747 9.16622 6.87747Z" fill="currentColor"/>
</svg>
