<svg width="19" height="20" viewBox="0 0 19 20" fill="none" xmlns="http://www.w3.org/2000/svg">
<path d="M9.4993 11.7172C7.81305 11.7172 6.43555 10.3477 6.43555 8.65349C6.43555 6.95932 7.81305 5.59766 9.4993 5.59766C11.1855 5.59766 12.563 6.96724 12.563 8.66141C12.563 10.3556 11.1855 11.7172 9.4993 11.7172ZM9.4993 6.78516C8.47013 6.78516 7.62305 7.62432 7.62305 8.66141C7.62305 9.69849 8.46221 10.5377 9.4993 10.5377C10.5364 10.5377 11.3755 9.69849 11.3755 8.66141C11.3755 7.62432 10.5285 6.78516 9.4993 6.78516Z" fill="currentColor"/>
<path d="M9.49935 18.519C8.32768 18.519 7.1481 18.0757 6.22976 17.1969C3.89435 14.9486 1.31351 11.3623 2.28726 7.09523C3.16601 3.22398 6.54643 1.49023 9.49935 1.49023C9.49935 1.49023 9.49935 1.49023 9.50726 1.49023C12.4602 1.49023 15.8406 3.22398 16.7193 7.10315C17.6852 11.3702 15.1043 14.9486 12.7689 17.1969C11.8506 18.0757 10.671 18.519 9.49935 18.519ZM9.49935 2.67773C7.1956 2.67773 4.23476 3.90482 3.45101 7.35648C2.59601 11.0852 4.93935 14.2994 7.06101 16.334C8.4306 17.6561 10.576 17.6561 11.9456 16.334C14.0593 14.2994 16.4027 11.0852 15.5635 7.35648C14.7718 3.90482 11.8031 2.67773 9.49935 2.67773Z" fill="currentColor"/>
</svg>
