<svg width="16" height="17" viewBox="0 0 16 17" fill="none" xmlns="http://www.w3.org/2000/svg">
<path d="M11.6263 10.7466C11.4996 10.7466 11.3729 10.7 11.2729 10.6C11.0796 10.4066 11.0796 10.0866 11.2729 9.89329L12.6263 8.53996L11.2729 7.18663C11.0796 6.99329 11.0796 6.67329 11.2729 6.47996C11.4663 6.28663 11.7863 6.28663 11.9796 6.47996L13.6863 8.18663C13.8796 8.37996 13.8796 8.69996 13.6863 8.89329L11.9796 10.6C11.8796 10.7 11.7529 10.7466 11.6263 10.7466Z" fill="#FF2727"/>
<path d="M13.2868 9.04004L6.50684 9.04004C6.2335 9.04004 6.00684 8.81337 6.00684 8.54004C6.00684 8.26671 6.2335 8.04004 6.50684 8.04004L13.2868 8.04004C13.5602 8.04004 13.7868 8.26671 13.7868 8.54004C13.7868 8.81337 13.5602 9.04004 13.2868 9.04004Z" fill="#FF2727"/>
<path d="M7.84017 14.3334C4.40684 14.3334 2.00684 11.9334 2.00684 8.50008C2.00684 5.06675 4.40684 2.66675 7.84017 2.66675C8.1135 2.66675 8.34017 2.89341 8.34017 3.16675C8.34017 3.44008 8.1135 3.66675 7.84017 3.66675C4.9935 3.66675 3.00684 5.65341 3.00684 8.50008C3.00684 11.3467 4.9935 13.3334 7.84017 13.3334C8.1135 13.3334 8.34017 13.5601 8.34017 13.8334C8.34017 14.1067 8.1135 14.3334 7.84017 14.3334Z" fill="#FF2727"/>
</svg>
