<svg width="20" height="20" viewBox="0 0 20 20" fill="none" xmlns="http://www.w3.org/2000/svg">
<path d="M4.10768 16.516C3.94101 16.516 3.7827 16.4493 3.66604 16.3327C1.97437 14.641 1.04102 12.391 1.04102 9.99935C1.04102 5.05768 5.05768 1.04102 9.99935 1.04102C12.391 1.04102 14.641 1.97435 16.3327 3.66602C16.4493 3.78268 16.516 3.94102 16.516 4.10768C16.516 4.27435 16.4493 4.43268 16.3327 4.54935L4.54937 16.3327C4.4327 16.4493 4.27434 16.516 4.10768 16.516ZM9.99935 2.29102C5.74935 2.29102 2.29102 5.74935 2.29102 9.99935C2.29102 11.8493 2.94103 13.5993 4.12436 14.991L14.991 4.12435C13.5993 2.94101 11.8493 2.29102 9.99935 2.29102Z" fill="currentColor"/>
<path d="M10.001 18.9592C7.60938 18.9592 5.3594 18.0259 3.66773 16.3342C3.55107 16.2176 3.48438 16.0592 3.48438 15.8926C3.48438 15.7259 3.55107 15.5676 3.66773 15.4509L15.451 3.66758C15.6927 3.42591 16.0927 3.42591 16.3344 3.66758C18.026 5.35924 18.9594 7.60924 18.9594 10.0009C18.9594 14.9426 14.9427 18.9592 10.001 18.9592ZM5.00939 15.8759C6.40106 17.0592 8.15105 17.7092 10.001 17.7092C14.251 17.7092 17.7094 14.2509 17.7094 10.0009C17.7094 8.15091 17.0594 6.40091 15.876 5.00925L5.00939 15.8759Z" fill="currentColor"/>
<path d="M11.1755 18.8747C11.0172 18.8747 10.8589 18.8164 10.7339 18.6914L6.01719 13.9747C5.77552 13.7331 5.77552 13.3331 6.01719 13.0914C6.25885 12.8497 6.6589 12.8497 6.90057 13.0914L11.6172 17.8081C11.8589 18.0497 11.8589 18.4497 11.6172 18.6914C11.5005 18.8164 11.3422 18.8747 11.1755 18.8747Z" fill="currentColor"/>
<path d="M14.8914 16.6922C14.7331 16.6922 14.5748 16.6339 14.4498 16.5089L8.96641 11.0255C8.72474 10.7839 8.72474 10.3839 8.96641 10.1422C9.20807 9.90052 9.60807 9.90052 9.84974 10.1422L15.3331 15.6255C15.5748 15.8672 15.5748 16.2672 15.3331 16.5089C15.2081 16.6339 15.0497 16.6922 14.8914 16.6922Z" fill="currentColor"/>
<path d="M17.6009 13.5169C17.4426 13.5169 17.2843 13.4586 17.1593 13.3336L11.9176 8.09193C11.6759 7.85026 11.6759 7.45026 11.9176 7.20859C12.1592 6.96693 12.5592 6.96693 12.8009 7.20859L18.0426 12.4503C18.2843 12.6919 18.2843 13.0919 18.0426 13.3336C17.9259 13.4503 17.7676 13.5169 17.6009 13.5169Z" fill="currentColor"/>
</svg>
