<svg width="24" height="25" viewBox="0 0 24 25" fill="none" xmlns="http://www.w3.org/2000/svg">
<path d="M12 20.6963C8.28 20.6963 5.25 17.6663 5.25 13.9463V8.94629C5.25 5.22629 8.28 2.19629 12 2.19629C15.72 2.19629 18.75 5.22629 18.75 8.94629V13.9463C18.75 17.6663 15.72 20.6963 12 20.6963ZM12 3.69629C9.11 3.69629 6.75 6.04629 6.75 8.94629V13.9463C6.75 16.8463 9.11 19.1963 12 19.1963C14.89 19.1963 17.25 16.8463 17.25 13.9463V8.94629C17.25 6.04629 14.89 3.69629 12 3.69629Z" fill="currentColor"/>
<path d="M12 23.6963C6.62 23.6963 2.25 19.3263 2.25 13.9463V11.9463C2.25 11.5363 2.59 11.1963 3 11.1963C3.41 11.1963 3.75 11.5363 3.75 11.9463V13.9463C3.75 18.4963 7.45 22.1963 12 22.1963C16.55 22.1963 20.25 18.4963 20.25 13.9463V11.9463C20.25 11.5363 20.59 11.1963 21 11.1963C21.41 11.1963 21.75 11.5363 21.75 11.9463V13.9463C21.75 19.3263 17.38 23.6963 12 23.6963Z" fill="currentColor"/>
<path d="M14.6099 9.17617C14.5299 9.17617 14.4399 9.16617 14.3499 9.13617C12.7399 8.55617 10.9699 8.55617 9.35988 9.13617C8.97988 9.27617 8.54988 9.07617 8.40988 8.68617C8.26988 8.29617 8.46988 7.86617 8.85988 7.72617C10.7999 7.02617 12.9299 7.02617 14.8699 7.72617C15.2599 7.86617 15.4599 8.29617 15.3199 8.68617C15.2099 8.99617 14.9199 9.17617 14.6099 9.17617Z" fill="currentColor"/>
<path d="M13.6999 12.1768C13.6399 12.1768 13.5699 12.1668 13.4999 12.1468C12.4299 11.8568 11.2999 11.8568 10.2299 12.1468C9.81992 12.2568 9.41992 12.0168 9.30992 11.6168C9.19992 11.2168 9.43992 10.8068 9.83992 10.6968C11.1699 10.3368 12.5699 10.3368 13.8999 10.6968C14.2999 10.8068 14.5399 11.2168 14.4299 11.6168C14.3299 11.9668 14.0299 12.1768 13.6999 12.1768Z" fill="currentColor"/>
</svg>
