<svg width="20" height="20" viewBox="0 0 20 20" fill="none" xmlns="http://www.w3.org/2000/svg">
<path d="M15.8919 10.0085C16.0004 10.0238 16.1048 10.0604 16.1991 10.1161C16.2934 10.1719 16.3759 10.2456 16.4417 10.3333C16.5075 10.4209 16.5553 10.5206 16.5825 10.6268C16.6097 10.7329 16.6157 10.8434 16.6002 10.9518C16.3913 12.3968 15.7141 13.7334 14.6724 14.7564C13.6307 15.7795 12.2821 16.4324 10.8335 16.6152V17.5002C10.8335 17.7212 10.7457 17.9331 10.5894 18.0894C10.4332 18.2457 10.2212 18.3335 10.0002 18.3335C9.77918 18.3335 9.56722 18.2457 9.41094 18.0894C9.25466 17.9331 9.16686 17.7212 9.16686 17.5002V16.6152C7.7185 16.4321 6.37017 15.7791 5.32866 14.7561C4.28716 13.7331 3.60999 12.3967 3.40102 10.9518C3.36964 10.733 3.42646 10.5107 3.55899 10.3338C3.69151 10.1569 3.88889 10.0399 4.10769 10.0085C4.3265 9.97711 4.5488 10.0339 4.72571 10.1665C4.90262 10.299 5.01964 10.4964 5.05102 10.7152C5.22337 11.9048 5.81848 12.9926 6.72737 13.7793C7.63626 14.566 8.79811 14.999 10.0002 14.999C11.2023 14.999 12.3641 14.566 13.273 13.7793C14.1819 12.9926 14.777 11.9048 14.9494 10.7152C14.9649 10.6068 15.0016 10.5026 15.0574 10.4084C15.1132 10.3143 15.187 10.232 15.2746 10.1664C15.3622 10.1008 15.4619 10.0531 15.568 10.026C15.674 9.99888 15.7835 9.99294 15.8919 10.0085ZM10.0002 1.66683C10.6827 1.66683 11.3269 1.831 11.8952 2.12183C11.518 2.38716 11.2215 2.75166 11.0386 3.17501C10.8556 3.59836 10.7934 4.06406 10.8587 4.5206C10.924 4.97714 11.1143 5.40672 11.4085 5.76182C11.7028 6.11692 12.0896 6.38371 12.526 6.53266L12.841 6.641C12.9614 6.68206 13.0707 6.75012 13.1607 6.83996C13.2507 6.9298 13.3189 7.03905 13.3602 7.15933L13.4677 7.47433C13.6094 7.891 13.8544 8.251 14.1669 8.53016V10.0002C14.1669 11.1052 13.7279 12.165 12.9465 12.9464C12.1651 13.7278 11.1053 14.1668 10.0002 14.1668C8.89512 14.1668 7.83531 13.7278 7.05391 12.9464C6.27251 12.165 5.83352 11.1052 5.83352 10.0002V5.8335C5.83352 4.72843 6.27251 3.66862 7.05391 2.88722C7.83531 2.10582 8.89512 1.66683 10.0002 1.66683ZM15.8335 0.833496C15.9894 0.833496 16.1422 0.877228 16.2745 0.959722C16.4068 1.04222 16.5133 1.16016 16.5819 1.30016L16.6219 1.39766L16.7302 1.71266C16.8445 2.04782 17.0288 2.35485 17.2707 2.61345C17.5126 2.87204 17.8067 3.07629 18.1335 3.21266L18.2877 3.271L18.6027 3.3785C18.7587 3.43171 18.8954 3.53 18.9955 3.66091C19.0957 3.79182 19.1547 3.94949 19.1653 4.11398C19.1758 4.27846 19.1373 4.44237 19.0547 4.58498C18.972 4.72759 18.849 4.8425 18.701 4.91516L18.6027 4.95516L18.2877 5.0635C17.9525 5.17783 17.6455 5.36206 17.3869 5.60399C17.1283 5.84592 16.9241 6.14002 16.7877 6.46683L16.7294 6.621L16.6219 6.936C16.5685 7.09194 16.4702 7.22858 16.3392 7.32863C16.2083 7.42868 16.0506 7.48766 15.8861 7.49809C15.7216 7.50853 15.5577 7.46996 15.4152 7.38726C15.2726 7.30457 15.1578 7.18145 15.0852 7.0335L15.0452 6.936L14.9369 6.621C14.8225 6.28584 14.6383 5.9788 14.3964 5.72021C14.1544 5.46162 13.8603 5.25737 13.5335 5.121L13.3794 5.06266L13.0644 4.95516C12.9084 4.90194 12.7717 4.80366 12.6715 4.67275C12.5714 4.54183 12.5123 4.38417 12.5018 4.21968C12.4913 4.0552 12.5298 3.89129 12.6124 3.74868C12.695 3.60607 12.8181 3.49116 12.966 3.4185L13.0644 3.3785L13.3794 3.27016C13.7145 3.15583 14.0216 2.9716 14.2801 2.72967C14.5387 2.48774 14.743 2.19363 14.8794 1.86683L14.9377 1.71266L15.0452 1.39766C15.1013 1.23315 15.2075 1.09032 15.3489 0.989154C15.4902 0.887991 15.6597 0.833565 15.8335 0.833496Z" fill="currentColor"/>
</svg>
