<svg width="19" height="20" viewBox="0 0 19 20" fill="none" xmlns="http://www.w3.org/2000/svg">
<path d="M11.8763 18.5101H7.1263C3.63505 18.5101 2.57422 17.4493 2.57422 13.958V6.04134C2.57422 2.55009 3.63505 1.48926 7.1263 1.48926H11.8763C15.3676 1.48926 16.4284 2.55009 16.4284 6.04134V13.958C16.4284 17.4493 15.3676 18.5101 11.8763 18.5101ZM7.1263 2.67676C4.29214 2.67676 3.76172 3.21509 3.76172 6.04134V13.958C3.76172 16.7843 4.29214 17.3226 7.1263 17.3226H11.8763C14.7105 17.3226 15.2409 16.7843 15.2409 13.958V6.04134C15.2409 3.21509 14.7105 2.67676 11.8763 2.67676H7.1263Z" fill="currentColor"/>
<path d="M11.0846 5.44824H7.91797C7.59339 5.44824 7.32422 5.17908 7.32422 4.85449C7.32422 4.52991 7.59339 4.26074 7.91797 4.26074H11.0846C11.4092 4.26074 11.6784 4.52991 11.6784 4.85449C11.6784 5.17908 11.4092 5.44824 11.0846 5.44824Z" fill="currentColor"/>
<path d="M9.50052 16.2227C8.4951 16.2227 7.67969 15.4073 7.67969 14.4019C7.67969 13.3965 8.4951 12.5811 9.50052 12.5811C10.5059 12.5811 11.3214 13.3965 11.3214 14.4019C11.3214 15.4073 10.5059 16.2227 9.50052 16.2227ZM9.50052 13.7606C9.15219 13.7606 8.86719 14.0456 8.86719 14.394C8.86719 14.7423 9.15219 15.0273 9.50052 15.0273C9.84885 15.0273 10.1339 14.7423 10.1339 14.394C10.1339 14.0456 9.84885 13.7606 9.50052 13.7606Z" fill="currentColor"/>
</svg>
