<svg width="19" height="20" viewBox="0 0 19 20" fill="none" xmlns="http://www.w3.org/2000/svg">
<path d="M9.62604 9.69884C9.60229 9.69884 9.58646 9.69884 9.56271 9.69884C9.52312 9.69092 9.46771 9.69092 9.42021 9.69884C7.12437 9.62759 5.39062 7.82259 5.39062 5.59801C5.39062 3.33384 7.23521 1.48926 9.49937 1.48926C11.7635 1.48926 13.6081 3.33384 13.6081 5.59801C13.6002 7.82259 11.8585 9.62759 9.64979 9.69884C9.64187 9.69884 9.63396 9.69884 9.62604 9.69884ZM9.49937 2.67676C7.89229 2.67676 6.57813 3.99092 6.57813 5.59801C6.57813 7.18134 7.81312 8.45592 9.38854 8.51134C9.42812 8.50342 9.53896 8.50342 9.64188 8.51134C11.1935 8.44009 12.4127 7.16551 12.4206 5.59801C12.4206 3.99092 11.1065 2.67676 9.49937 2.67676Z" fill="currentColor"/>
<path d="M9.63354 18.3524C8.08188 18.3524 6.52229 17.9566 5.34271 17.1649C4.24229 16.4366 3.64062 15.4391 3.64062 14.3545C3.64062 13.2699 4.24229 12.2645 5.34271 11.5282C7.71771 9.95283 11.5652 9.95283 13.9244 11.5282C15.0169 12.2566 15.6265 13.2541 15.6265 14.3387C15.6265 15.4232 15.0248 16.4287 13.9244 17.1649C12.7369 17.9566 11.1852 18.3524 9.63354 18.3524ZM5.99979 12.5257C5.23979 13.0324 4.82812 13.6816 4.82812 14.3624C4.82812 15.0353 5.24771 15.6845 5.99979 16.1832C7.97104 17.5053 11.296 17.5053 13.2673 16.1832C14.0273 15.6766 14.439 15.0274 14.439 14.3466C14.439 13.6737 14.0194 13.0245 13.2673 12.5257C11.296 11.2116 7.97104 11.2116 5.99979 12.5257Z" fill="currentColor"/>
</svg>
