<svg width="10" height="10" viewBox="0 0 10 10" fill="none" xmlns="http://www.w3.org/2000/svg">
<path d="M5.00016 0.833252C2.70016 0.833252 0.833496 2.69992 0.833496 4.99992C0.833496 7.29992 2.70016 9.16659 5.00016 9.16659C7.30016 9.16659 9.16683 7.29992 9.16683 4.99992C9.16683 2.69992 7.30016 0.833252 5.00016 0.833252ZM5.00016 8.22909C3.221 8.22909 1.771 6.77909 1.771 4.99992C1.771 4.43325 1.921 3.87909 2.20016 3.39159C2.2835 3.24159 2.47516 3.19159 2.62516 3.27492L5.15433 4.72909C5.30433 4.81659 5.35433 5.00409 5.271 5.15409C5.1835 5.30409 4.996 5.35409 4.846 5.27075L3.6335 4.57492C3.59183 4.71242 3.56266 4.85409 3.56266 4.99992C3.56266 5.79159 4.2085 6.43742 5.00016 6.43742C5.79183 6.43742 6.43766 5.79159 6.43766 4.99992C6.43766 4.20825 5.79183 3.56242 5.00016 3.56242C4.78766 3.56242 4.57933 3.60825 4.38766 3.69992C4.22933 3.77492 4.046 3.70825 3.971 3.54992C3.896 3.39575 3.96266 3.20825 4.121 3.13325C4.396 3.00409 4.69183 2.93742 5.00016 2.93742C6.13766 2.93742 7.06266 3.86242 7.06266 4.99992C7.06266 6.13742 6.13766 7.06242 5.00016 7.06242C3.86266 7.06242 2.93766 6.13742 2.93766 4.99992C2.93766 4.74575 2.98766 4.49159 3.07933 4.25409L2.60016 3.98325C2.46683 4.30409 2.396 4.64992 2.396 4.99992C2.396 6.43742 3.56266 7.60409 5.00016 7.60409C6.43766 7.60409 7.60433 6.43742 7.60433 4.99992C7.60433 3.56242 6.43766 2.39575 5.00016 2.39575C4.4335 2.39575 3.89183 2.57492 3.43766 2.91659C3.30016 3.02075 3.10433 2.99159 3.00016 2.85409C2.896 2.71659 2.92516 2.52075 3.06266 2.41659C3.62516 1.99575 4.296 1.77075 5.00016 1.77075C6.77933 1.77075 8.22933 3.22075 8.22933 4.99992C8.22933 6.77909 6.77933 8.22909 5.00016 8.22909Z" fill="currentColor"/>
</svg>
