<svg width="56" height="56" viewBox="0 0 56 56" fill="none" xmlns="http://www.w3.org/2000/svg">
<rect width="56" height="56" rx="8" fill="#00212E"/>
<path d="M38 35V38H18V35C18 34.45 18.45 34 19 34H37C37.55 34 38 34.45 38 35Z" fill="white" stroke="white" stroke-width="1.5" stroke-miterlimit="10" stroke-linecap="round" stroke-linejoin="round"/>
<path d="M23 27H21V34H23V27Z" fill="white"/>
<path d="M27 27H25V34H27V27Z" fill="white"/>
<path d="M31 27H29V34H31V27Z" fill="white"/>
<path d="M35 27H33V34H35V27Z" fill="white"/>
<path d="M39 38.75H17C16.59 38.75 16.25 38.41 16.25 38C16.25 37.59 16.59 37.25 17 37.25H39C39.41 37.25 39.75 37.59 39.75 38C39.75 38.41 39.41 38.75 39 38.75Z" fill="white"/>
<path d="M37.37 21.7498L28.37 18.1498C28.17 18.0698 27.83 18.0698 27.63 18.1498L18.63 21.7498C18.28 21.8898 18 22.2998 18 22.6798V25.9998C18 26.5498 18.45 26.9998 19 26.9998H37C37.55 26.9998 38 26.5498 38 25.9998V22.6798C38 22.2998 37.72 21.8898 37.37 21.7498ZM28 24.4998C27.17 24.4998 26.5 23.8298 26.5 22.9998C26.5 22.1698 27.17 21.4998 28 21.4998C28.83 21.4998 29.5 22.1698 29.5 22.9998C29.5 23.8298 28.83 24.4998 28 24.4998Z" fill="white"/>
<rect x="31" y="27" width="14" height="14" rx="7" fill="#002233"/>
<path d="M37.9993 28.167C34.7852 28.167 32.166 30.7862 32.166 34.0003C32.166 37.2145 34.7852 39.8337 37.9993 39.8337C41.2135 39.8337 43.8327 37.2145 43.8327 34.0003C43.8327 30.7862 41.2135 28.167 37.9993 28.167ZM40.3327 34.4378H38.4368V36.3337C38.4368 36.5728 38.2385 36.7712 37.9993 36.7712C37.7602 36.7712 37.5618 36.5728 37.5618 36.3337V34.4378H35.666C35.4268 34.4378 35.2285 34.2395 35.2285 34.0003C35.2285 33.7612 35.4268 33.5628 35.666 33.5628H37.5618V31.667C37.5618 31.4278 37.7602 31.2295 37.9993 31.2295C38.2385 31.2295 38.4368 31.4278 38.4368 31.667V33.5628H40.3327C40.5718 33.5628 40.7702 33.7612 40.7702 34.0003C40.7702 34.2395 40.5718 34.4378 40.3327 34.4378Z" fill="#00AAFE"/>
</svg>
