<svg width="20" height="20" viewBox="0 0 20 20" fill="none" xmlns="http://www.w3.org/2000/svg">
<path d="M10.0007 18.9673C9.09232 18.9673 8.19233 18.7006 7.484 18.1756L3.90065 15.5006C2.95065 14.7923 2.20898 13.3173 2.20898 12.134V5.94232C2.20898 4.65898 3.15067 3.29231 4.359 2.84231L8.51732 1.28398C9.34232 0.975651 10.6423 0.975651 11.4673 1.28398L15.634 2.84231C16.8423 3.29231 17.784 4.65898 17.784 5.94232V12.134C17.784 13.3173 17.0423 14.7923 16.0923 15.5006L12.509 18.1756C11.809 18.7006 10.909 18.9673 10.0007 18.9673ZM8.95899 2.45065L4.80066 4.00898C4.084 4.27564 3.45898 5.17565 3.45898 5.94232V12.134C3.45898 12.9256 4.01733 14.034 4.64233 14.5006L8.22565 17.1756C9.18399 17.8923 10.809 17.8923 11.7673 17.1756L15.3507 14.5006C15.984 14.0256 16.534 12.9173 16.534 12.134V5.94232C16.534 5.18398 15.909 4.28398 15.1923 4.00898L11.034 2.45065C10.484 2.24231 9.51732 2.24231 8.95899 2.45065Z" fill="currentColor"/>
<path d="M9.9996 9.72579C9.98293 9.72579 9.96626 9.72579 9.94126 9.72579C8.73293 9.69246 7.84961 8.76746 7.84961 7.64246C7.84961 6.49246 8.79126 5.55078 9.94126 5.55078C11.0913 5.55078 12.0329 6.49246 12.0329 7.64246C12.0246 8.77579 11.1413 9.69244 10.0163 9.73411C10.0079 9.72577 10.0079 9.72579 9.9996 9.72579ZM9.94126 6.80078C9.47459 6.80078 9.09961 7.17579 9.09961 7.64246C9.09961 8.10079 9.45794 8.46744 9.90794 8.48411C9.90794 8.48411 9.9496 8.48411 9.9996 8.48411C10.4413 8.45911 10.7829 8.09246 10.7829 7.64246C10.7913 7.17579 10.4079 6.80078 9.94126 6.80078Z" fill="currentColor"/>
<path d="M10 14.4585C9.28334 14.4585 8.55835 14.2668 8.00002 13.8918C7.44168 13.5251 7.125 12.9835 7.125 12.4085C7.125 11.8335 7.44168 11.2918 8.00002 10.9168C9.12502 10.1668 10.8833 10.1751 12 10.9168C12.5583 11.2835 12.875 11.8251 12.875 12.4001C12.875 12.9751 12.5583 13.5168 12 13.8918C11.4417 14.2668 10.7167 14.4585 10 14.4585ZM8.69167 11.9501C8.48334 12.0835 8.36667 12.2501 8.375 12.4001C8.375 12.5501 8.49167 12.7168 8.69167 12.8501C9.39167 13.3168 10.6083 13.3168 11.3083 12.8501C11.5167 12.7168 11.6333 12.5501 11.6333 12.4001C11.6333 12.2501 11.5167 12.0835 11.3167 11.9501C10.6167 11.4918 9.39167 11.4918 8.69167 11.9501Z" fill="currentColor"/>
</svg>
