<svg width="24" height="25" viewBox="0 0 24 25" fill="none" xmlns="http://www.w3.org/2000/svg">
<path d="M16.1391 3.90633L7.10914 6.90633C1.03914 8.93633 1.03914 12.2463 7.10914 14.2663L9.78914 15.1563L10.6791 17.8363C12.6991 23.9063 16.0191 23.9063 18.0391 17.8363L21.0491 8.81633C22.3891 4.76633 20.1891 2.55633 16.1391 3.90633ZM16.4591 9.28633L12.6591 13.1063C12.5091 13.2563 12.3191 13.3263 12.1291 13.3263C11.9391 13.3263 11.7491 13.2563 11.5991 13.1063C11.3091 12.8163 11.3091 12.3363 11.5991 12.0463L15.3991 8.22633C15.6891 7.93633 16.1691 7.93633 16.4591 8.22633C16.7491 8.51633 16.7491 8.99633 16.4591 9.28633Z" fill="currentColor"/>
</svg>
