<svg width="22" height="22" viewBox="0 0 22 22" fill="none" xmlns="http://www.w3.org/2000/svg">
<path d="M11 14.4375C9.1025 14.4375 7.5625 12.8975 7.5625 11C7.5625 9.1025 9.1025 7.5625 11 7.5625C12.8975 7.5625 14.4375 9.1025 14.4375 11C14.4375 12.8975 12.8975 14.4375 11 14.4375ZM11 8.9375C9.86333 8.9375 8.9375 9.86333 8.9375 11C8.9375 12.1367 9.86333 13.0625 11 13.0625C12.1367 13.0625 13.0625 12.1367 13.0625 11C13.0625 9.86333 12.1367 8.9375 11 8.9375Z" fill="currentColor"/>
<path d="M13.9432 20.3417C13.7507 20.3417 13.5582 20.3142 13.3657 20.2684C12.7973 20.1126 12.3207 19.7551 12.0182 19.2509L11.9082 19.0676C11.3673 18.1326 10.6248 18.1326 10.084 19.0676L9.98315 19.2417C9.68065 19.7551 9.20398 20.1217 8.63565 20.2684C8.05815 20.4242 7.46232 20.3417 6.95815 20.0392L5.38148 19.1317C4.82232 18.8109 4.41898 18.2884 4.24482 17.6559C4.07982 17.0234 4.16232 16.3726 4.48315 15.8134C4.74898 15.3459 4.82232 14.9242 4.66648 14.6584C4.51065 14.3926 4.11648 14.2367 3.57565 14.2367C2.23732 14.2367 1.14648 13.1459 1.14648 11.8076V10.1942C1.14648 8.85591 2.23732 7.76508 3.57565 7.76508C4.11648 7.76508 4.51065 7.60925 4.66648 7.34341C4.82232 7.07758 4.75815 6.65591 4.48315 6.18841C4.16232 5.62925 4.07982 4.96925 4.24482 4.34591C4.40982 3.71341 4.81315 3.19091 5.38148 2.87008L6.96732 1.96258C8.00315 1.34841 9.36898 1.70591 9.99232 2.76008L10.1023 2.94341C10.6432 3.87841 11.3857 3.87841 11.9265 2.94341L12.0273 2.76925C12.6507 1.70591 14.0165 1.34841 15.0615 1.97175L16.6382 2.87925C17.1973 3.20008 17.6007 3.72258 17.7748 4.35508C17.9398 4.98758 17.8573 5.63841 17.5365 6.19758C17.2707 6.66508 17.1973 7.08675 17.3532 7.35258C17.509 7.61841 17.9032 7.77425 18.444 7.77425C19.7823 7.77425 20.8732 8.86508 20.8732 10.2034V11.8167C20.8732 13.1551 19.7823 14.2459 18.444 14.2459C17.9032 14.2459 17.509 14.4017 17.3532 14.6676C17.1973 14.9334 17.2615 15.3551 17.5365 15.8226C17.8573 16.3817 17.949 17.0417 17.7748 17.6651C17.6098 18.2976 17.2065 18.8201 16.6382 19.1409L15.0523 20.0484C14.704 20.2409 14.3282 20.3417 13.9432 20.3417ZM11.0007 16.9501C11.8165 16.9501 12.5773 17.4634 13.0998 18.3709L13.2007 18.5451C13.3107 18.7376 13.494 18.8751 13.714 18.9301C13.934 18.9851 14.154 18.9576 14.3373 18.8476L15.9232 17.9309C16.1615 17.7934 16.3448 17.5642 16.4182 17.2892C16.4915 17.0142 16.4548 16.7301 16.3173 16.4917C15.7948 15.5934 15.7307 14.6676 16.134 13.9617C16.5373 13.2559 17.3715 12.8526 18.4165 12.8526C19.0032 12.8526 19.4707 12.3851 19.4707 11.7984V10.1851C19.4707 9.60758 19.0032 9.13091 18.4165 9.13091C17.3715 9.13091 16.5373 8.72758 16.134 8.02175C15.7307 7.31591 15.7948 6.39008 16.3173 5.49175C16.4548 5.25341 16.4915 4.96925 16.4182 4.69425C16.3448 4.41925 16.1707 4.19925 15.9323 4.05258L14.3465 3.14508C13.9523 2.90675 13.4298 3.04425 13.1915 3.44758L13.0907 3.62175C12.5682 4.52925 11.8073 5.04258 10.9915 5.04258C10.1757 5.04258 9.41482 4.52925 8.89232 3.62175L8.79148 3.43841C8.56232 3.05341 8.04899 2.91591 7.65482 3.14508L6.06898 4.06175C5.83065 4.19925 5.64732 4.42841 5.57398 4.70341C5.50065 4.97841 5.53732 5.26258 5.67482 5.50091C6.19732 6.39925 6.26148 7.32508 5.85815 8.03091C5.45482 8.73675 4.62065 9.14008 3.57565 9.14008C2.98898 9.14008 2.52148 9.60758 2.52148 10.1942V11.8076C2.52148 12.3851 2.98898 12.8617 3.57565 12.8617C4.62065 12.8617 5.45482 13.2651 5.85815 13.9709C6.26148 14.6767 6.19732 15.6026 5.67482 16.5009C5.53732 16.7392 5.50065 17.0234 5.57398 17.2984C5.64732 17.5734 5.82148 17.7934 6.05982 17.9401L7.64565 18.8476C7.83815 18.9667 8.06732 18.9942 8.27815 18.9392C8.49815 18.8842 8.68148 18.7376 8.80065 18.5451L8.90148 18.3709C9.42398 17.4726 10.1848 16.9501 11.0007 16.9501Z" fill="currentColor"/>
</svg>
