<svg width="16" height="17" viewBox="0 0 16 17" fill="none" xmlns="http://www.w3.org/2000/svg">
<path d="M12.36 3.27997L8.69337 1.90664C8.31337 1.76664 7.69337 1.76664 7.31337 1.90664L3.6467 3.27997C2.94003 3.54664 2.3667 4.3733 2.3667 5.12664V10.5266C2.3667 11.0666 2.72003 11.78 3.15337 12.1L6.82003 14.84C7.4667 15.3266 8.5267 15.3266 9.17337 14.84L12.84 12.1C13.2734 11.7733 13.6267 11.0666 13.6267 10.5266V5.12664C13.6334 4.3733 13.06 3.54664 12.36 3.27997ZM8.50003 9.07997V10.8333C8.50003 11.1066 8.27337 11.3333 8.00003 11.3333C7.7267 11.3333 7.50003 11.1066 7.50003 10.8333V9.07997C6.8267 8.86664 6.33337 8.23997 6.33337 7.49997C6.33337 6.57997 7.08003 5.8333 8.00003 5.8333C8.92003 5.8333 9.6667 6.57997 9.6667 7.49997C9.6667 8.24664 9.17337 8.86664 8.50003 9.07997Z" fill="currentColor"/>
</svg>
