<svg width="24" height="25" viewBox="0 0 24 25" fill="none" xmlns="http://www.w3.org/2000/svg">
<path d="M12 3.19629C10.0716 3.19629 8.18657 3.76812 6.58319 4.83946C4.97982 5.9108 3.73013 7.43355 2.99218 9.21513C2.25422 10.9967 2.06114 12.9571 2.43735 14.8484C2.81355 16.7397 3.74215 18.477 5.10571 19.8406C6.46928 21.2041 8.20656 22.1327 10.0979 22.5089C11.9892 22.8852 13.9496 22.6921 15.7312 21.9541C17.5127 21.2162 19.0355 19.9665 20.1068 18.3631C21.1782 16.7597 21.75 14.8747 21.75 12.9463C21.7473 10.3613 20.7192 7.8829 18.8913 6.05501C17.0634 4.22712 14.585 3.19902 12 3.19629ZM12 21.1963C10.3683 21.1963 8.77326 20.7124 7.41655 19.8059C6.05984 18.8994 5.00242 17.6109 4.378 16.1034C3.75358 14.5959 3.5902 12.9371 3.90853 11.3368C4.22685 9.73645 5.01259 8.26644 6.16637 7.11266C7.32016 5.95887 8.79017 5.17314 10.3905 4.85481C11.9909 4.53648 13.6497 4.69986 15.1571 5.32428C16.6646 5.94871 17.9531 7.00613 18.8596 8.36283C19.7661 9.71954 20.25 11.3146 20.25 12.9463C20.2475 15.1336 19.3775 17.2305 17.8309 18.7772C16.2843 20.3238 14.1873 21.1938 12 21.1963ZM7.5 11.0713C7.5 10.8488 7.56598 10.6313 7.6896 10.4463C7.81322 10.2613 7.98892 10.1171 8.19449 10.0319C8.40005 9.94678 8.62625 9.9245 8.84448 9.96791C9.06271 10.0113 9.26317 10.1185 9.4205 10.2758C9.57783 10.4331 9.68498 10.6336 9.72839 10.8518C9.7718 11.07 9.74952 11.2962 9.66437 11.5018C9.57922 11.7074 9.43503 11.8831 9.25002 12.0067C9.06502 12.1303 8.84751 12.1963 8.625 12.1963C8.32664 12.1963 8.04049 12.0778 7.82951 11.8668C7.61853 11.6558 7.5 11.3697 7.5 11.0713ZM16.5 11.0713C16.5 11.2938 16.434 11.5113 16.3104 11.6963C16.1868 11.8813 16.0111 12.0255 15.8055 12.1107C15.6 12.1958 15.3738 12.2181 15.1555 12.1747C14.9373 12.1313 14.7368 12.0241 14.5795 11.8668C14.4222 11.7095 14.315 11.509 14.2716 11.2908C14.2282 11.0725 14.2505 10.8463 14.3356 10.6408C14.4208 10.4352 14.565 10.2595 14.75 10.1359C14.935 10.0123 15.1525 9.94629 15.375 9.94629C15.6734 9.94629 15.9595 10.0648 16.1705 10.2758C16.3815 10.4868 16.5 10.7729 16.5 11.0713ZM16.3997 15.5713C15.435 17.2391 13.8309 18.1963 12 18.1963C10.1691 18.1963 8.56594 17.24 7.60125 15.5713C7.54699 15.4859 7.51055 15.3905 7.49413 15.2907C7.47772 15.1908 7.48166 15.0887 7.50573 14.9905C7.52979 14.8923 7.57348 14.7999 7.63417 14.719C7.69485 14.638 7.77128 14.5702 7.85886 14.5196C7.94643 14.469 8.04334 14.4366 8.14375 14.4244C8.24417 14.4122 8.34601 14.4204 8.44316 14.4486C8.5403 14.4768 8.63074 14.5244 8.70904 14.5884C8.78734 14.6524 8.85187 14.7317 8.89875 14.8213C9.59907 16.0316 10.6997 16.6963 12 16.6963C13.3003 16.6963 14.4009 16.0307 15.1003 14.8213C15.1998 14.649 15.3636 14.5232 15.5558 14.4717C15.7479 14.4202 15.9527 14.4471 16.125 14.5466C16.2973 14.6461 16.4231 14.8099 16.4746 15.0021C16.5261 15.1942 16.4991 15.399 16.3997 15.5713Z" fill="currentColor"/>
</svg>
