<svg width="19" height="20" viewBox="0 0 19 20" fill="none" xmlns="http://www.w3.org/2000/svg">
<path d="M13.458 17.3226H5.54134C2.65176 17.3226 0.989258 15.6601 0.989258 12.7705V7.22884C0.989258 4.33926 2.65176 2.67676 5.54134 2.67676H13.458C16.3476 2.67676 18.0101 4.33926 18.0101 7.22884V12.7705C18.0101 15.6601 16.3476 17.3226 13.458 17.3226ZM5.54134 3.86426C3.27717 3.86426 2.17676 4.96467 2.17676 7.22884V12.7705C2.17676 15.0347 3.27717 16.1351 5.54134 16.1351H13.458C15.7222 16.1351 16.8226 15.0347 16.8226 12.7705V7.22884C16.8226 4.96467 15.7222 3.86426 13.458 3.86426H5.54134Z" fill="currentColor"/>
<path d="M9.49954 10.6885C8.83454 10.6885 8.16163 10.4827 7.64704 10.0631L5.16912 8.0839C4.91579 7.87807 4.86829 7.50598 5.07413 7.25265C5.27996 6.99931 5.65204 6.95182 5.90538 7.15765L8.38329 9.13682C8.98495 9.61974 10.0062 9.61974 10.6079 9.13682L13.0858 7.15765C13.3391 6.95182 13.7191 6.9914 13.917 7.25265C14.1229 7.50598 14.0833 7.88598 13.822 8.0839L11.3441 10.0631C10.8375 10.4827 10.1645 10.6885 9.49954 10.6885Z" fill="currentColor"/>
</svg>
