<svg width="20" height="20" viewBox="0 0 20 20" fill="none" xmlns="http://www.w3.org/2000/svg">
<path d="M7.90033 17.2421C7.48366 17.2421 7.192 17.1005 7.017 16.9671C6.68366 16.7255 6.16699 16.1005 6.49199 14.7005L6.96697 12.6505C7.00864 12.4755 6.91698 12.1588 6.79198 12.0255L5.13365 10.3671C4.25865 9.49213 4.33365 8.73379 4.45031 8.35879C4.56698 7.98379 4.95031 7.32545 6.16698 7.11712L8.29199 6.76712C8.45033 6.74212 8.70865 6.55046 8.77532 6.40879L9.95032 4.05879C10.517 2.92545 11.267 2.75879 11.667 2.75879C12.067 2.75879 12.817 2.92545 13.3836 4.05879L14.5587 6.40879C14.6337 6.55046 14.8836 6.74212 15.042 6.76712L17.167 7.11712C18.3837 7.31712 18.767 7.98379 18.8837 8.35879C19.0003 8.73379 19.0753 9.49213 18.2003 10.3671L16.542 12.0255C16.417 12.1505 16.3253 12.4755 16.367 12.6505L16.842 14.7005C17.167 16.1088 16.6503 16.7255 16.317 16.9671C15.9836 17.2088 15.242 17.5171 13.992 16.7755L12.0003 15.5921C11.8336 15.4921 11.4836 15.4921 11.317 15.5921L9.32532 16.7755C8.75032 17.1255 8.26699 17.2421 7.90033 17.2421ZM11.667 4.00879C11.5336 4.00879 11.292 4.16712 11.067 4.61712L9.89198 6.96712C9.64198 7.47546 9.05032 7.9088 8.49199 8.00046L6.367 8.35046C5.892 8.43379 5.67533 8.6088 5.63366 8.74213C5.59199 8.87546 5.66698 9.14213 6.00864 9.4838L7.66699 11.1421C8.09199 11.5671 8.31699 12.3421 8.18366 12.9255L7.70865 14.9755C7.56698 15.5671 7.65864 15.8838 7.75031 15.9588C7.84197 16.0255 8.17531 16.0171 8.69198 15.7005L10.692 14.5171C11.2503 14.1838 12.092 14.1838 12.642 14.5171L14.6336 15.7005C15.1586 16.0088 15.492 16.0255 15.5837 15.9588C15.6753 15.8921 15.767 15.5755 15.6253 14.9755L15.1503 12.9255C15.017 12.3338 15.2336 11.5671 15.667 11.1421L17.3253 9.4838C17.667 9.14213 17.742 8.86713 17.7003 8.74213C17.6586 8.61713 17.442 8.43379 16.967 8.35046L14.842 8.00046C14.2836 7.9088 13.692 7.47546 13.442 6.96712L12.267 4.61712C12.042 4.16712 11.8003 4.00879 11.667 4.00879Z" fill="currentColor"/>
<path d="M6.66602 4.79199H1.66602C1.32435 4.79199 1.04102 4.50866 1.04102 4.16699C1.04102 3.82533 1.32435 3.54199 1.66602 3.54199H6.66602C7.00768 3.54199 7.29102 3.82533 7.29102 4.16699C7.29102 4.50866 7.00768 4.79199 6.66602 4.79199Z" fill="currentColor"/>
<path d="M4.16602 16.458H1.66602C1.32435 16.458 1.04102 16.1747 1.04102 15.833C1.04102 15.4913 1.32435 15.208 1.66602 15.208H4.16602C4.50768 15.208 4.79102 15.4913 4.79102 15.833C4.79102 16.1747 4.50768 16.458 4.16602 16.458Z" fill="currentColor"/>
<path d="M2.49935 10.625H1.66602C1.32435 10.625 1.04102 10.3417 1.04102 10C1.04102 9.65833 1.32435 9.375 1.66602 9.375H2.49935C2.84102 9.375 3.12435 9.65833 3.12435 10C3.12435 10.3417 2.84102 10.625 2.49935 10.625Z" fill="currentColor"/>
</svg>
