<svg width="20" height="20" viewBox="0 0 20 20" fill="none" xmlns="http://www.w3.org/2000/svg">
<path d="M10.0002 16.1421C8.50854 16.1421 7.01686 15.5755 5.8752 14.4338C3.6002 12.1588 3.6002 8.45879 5.8752 6.18379C8.1502 3.90879 11.8502 3.90879 14.1252 6.18379C16.4002 8.45879 16.4002 12.1588 14.1252 14.4338C12.9835 15.5755 11.4919 16.1421 10.0002 16.1421ZM10.0002 5.72547C8.82521 5.72547 7.65019 6.17545 6.75853 7.06712C4.97519 8.85879 4.97519 11.7588 6.75853 13.5505C8.55019 15.3421 11.4586 15.3338 13.2419 13.5505C15.0252 11.7588 15.0252 8.85879 13.2419 7.06712C12.3502 6.17545 11.1752 5.72547 10.0002 5.72547Z" fill="currentColor"/>
<path d="M6.87487 18.6581C6.79987 18.6581 6.71653 18.6414 6.64153 18.6164C4.76653 17.8664 3.24986 16.5414 2.23319 14.7914C1.24986 13.0831 0.858197 11.1497 1.11653 9.18308C1.1582 8.84141 1.47486 8.59972 1.81653 8.64139C2.15819 8.68306 2.39986 8.99975 2.35819 9.34141C2.14152 11.0247 2.47488 12.6914 3.31654 14.1581C4.18321 15.6581 5.49152 16.7997 7.09986 17.4414C7.41652 17.5747 7.57487 17.933 7.44987 18.258C7.3582 18.508 7.11653 18.6581 6.87487 18.6581Z" fill="currentColor"/>
<path d="M4.87468 4.35846C4.69134 4.35846 4.50801 4.27514 4.38301 4.11681C4.16635 3.84181 4.21635 3.45015 4.49135 3.24182C6.08302 2.00015 7.983 1.3418 9.99967 1.3418C11.9663 1.3418 13.8413 1.97514 15.4163 3.17514C15.6913 3.38347 15.7413 3.77513 15.533 4.05013C15.3247 4.32513 14.933 4.37514 14.658 4.16681C13.308 3.13348 11.6997 2.5918 9.99967 2.5918C8.26634 2.5918 6.62467 3.15848 5.258 4.22515C5.14134 4.31682 5.00801 4.35846 4.87468 4.35846Z" fill="currentColor"/>
<path d="M13.1253 18.6585C12.8753 18.6585 12.6419 18.5085 12.5419 18.2668C12.4169 17.9502 12.5669 17.5835 12.8919 17.4502C14.5003 16.8002 15.8086 15.6668 16.6753 14.1668C17.5253 12.7002 17.8586 11.0335 17.6336 9.35015C17.5919 9.00848 17.8336 8.69185 18.1753 8.65018C18.5086 8.60851 18.8336 8.8502 18.8753 9.19187C19.1253 11.1502 18.7419 13.0918 17.7586 14.8002C16.7503 16.5502 15.2252 17.8668 13.3502 18.6252C13.2836 18.6418 13.2086 18.6585 13.1253 18.6585Z" fill="currentColor"/>
</svg>
