<svg width="18" height="17" viewBox="0 0 18 17" fill="none" xmlns="http://www.w3.org/2000/svg">
<path d="M8.83398 16.1149C8.33815 16.1149 7.83523 15.9237 7.45982 15.5482L6.24855 14.3512C5.95105 14.0537 5.54024 13.8907 5.12232 13.8907H4.58398C3.11773 13.8907 1.92773 12.7078 1.92773 11.2557V3.52074C1.92773 2.06866 3.11773 0.885742 4.58398 0.885742H13.084C14.5502 0.885742 15.7402 2.06866 15.7402 3.52074V11.2487C15.7402 12.7007 14.5502 13.8837 13.084 13.8837H12.5456C12.1277 13.8837 11.7169 14.0537 11.4194 14.3441L10.2082 15.5412C9.83274 15.9237 9.32982 16.1149 8.83398 16.1149ZM4.58398 1.94824C3.70565 1.94824 2.99023 2.65658 2.99023 3.52074V11.2487C2.99023 12.1199 3.70565 12.8212 4.58398 12.8212H5.12232C5.82357 12.8212 6.50355 13.1045 6.99938 13.5932L8.21065 14.7903C8.55773 15.1303 9.11733 15.1303 9.46441 14.7903L10.6756 13.5932C11.1715 13.1045 11.8515 12.8212 12.5527 12.8212H13.084C13.9623 12.8212 14.6777 12.1128 14.6777 11.2487V3.52074C14.6777 2.64949 13.9623 1.94824 13.084 1.94824H4.58398Z" fill="currentColor"/>
<path d="M8.88397 6.8709C8.86981 6.8709 8.84855 6.8709 8.83438 6.8709C8.81313 6.8709 8.78482 6.8709 8.76357 6.8709C7.7294 6.83548 6.92188 5.99965 6.92188 4.9584C6.92188 3.90298 7.77897 3.0459 8.83438 3.0459C9.8898 3.0459 10.7469 3.90298 10.7469 4.9584C10.7398 5.99965 9.93232 6.83548 8.89815 6.8709C8.89815 6.8709 8.89106 6.8709 8.88397 6.8709ZM8.83438 4.1084C8.36688 4.1084 7.98438 4.4909 7.98438 4.9584C7.98438 5.41881 8.34564 5.79423 8.79898 5.8084C8.79898 5.80131 8.84148 5.80131 8.89106 5.8084C9.33731 5.78006 9.68439 5.41173 9.68439 4.9584C9.68439 4.4909 9.30188 4.1084 8.83438 4.1084Z" fill="currentColor"/>
<path d="M8.83398 11.8288C8.02648 11.8288 7.219 11.6163 6.58858 11.1984C5.99358 10.8017 5.64648 10.228 5.64648 9.61881C5.64648 9.00965 5.9865 8.42882 6.58858 8.03215C7.84941 7.19632 9.81855 7.19632 11.0723 8.03215C11.6673 8.42882 12.0144 9.00965 12.0144 9.61173C12.0144 10.2209 11.6744 10.7946 11.0723 11.1984C10.449 11.6234 9.64148 11.8288 8.83398 11.8288ZM7.17647 8.91756C6.87188 9.12298 6.70898 9.3709 6.70898 9.61881C6.70898 9.86673 6.87897 10.1146 7.17647 10.3201C8.07605 10.9221 9.58483 10.9221 10.4844 10.3201C10.789 10.1146 10.959 9.86673 10.9519 9.61881C10.9519 9.3709 10.7819 9.12298 10.4844 8.91756C9.59191 8.31548 8.07605 8.31548 7.17647 8.91756Z" fill="currentColor"/>
</svg>
