<svg width="20" height="20" viewBox="0 0 20 20" fill="none" xmlns="http://www.w3.org/2000/svg">
<path d="M10.0004 3.875C6.01706 3.875 2.77539 7.11667 2.77539 11.1C2.77539 15.0833 6.01706 18.3333 10.0004 18.3333C13.9837 18.3333 17.2254 15.0917 17.2254 11.1083C17.2254 7.125 13.9837 3.875 10.0004 3.875ZM10.6254 10.8333C10.6254 11.175 10.3421 11.4583 10.0004 11.4583C9.65872 11.4583 9.37539 11.175 9.37539 10.8333V6.66667C9.37539 6.325 9.65872 6.04167 10.0004 6.04167C10.3421 6.04167 10.6254 6.325 10.6254 6.66667V10.8333Z" fill="currentColor"/>
<path d="M12.4089 2.87533H7.59219C7.25885 2.87533 6.99219 2.60866 6.99219 2.27533C6.99219 1.94199 7.25885 1.66699 7.59219 1.66699H12.4089C12.7422 1.66699 13.0089 1.93366 13.0089 2.26699C13.0089 2.60033 12.7422 2.87533 12.4089 2.87533Z" fill="currentColor"/>
</svg>
