<svg width="10" height="11" viewBox="0 0 10 11" fill="none" xmlns="http://www.w3.org/2000/svg">
<path d="M8.98385 4.97474L8.41719 4.31641C8.30886 4.19141 8.22135 3.95807 8.22135 3.79141V3.08307C8.22135 2.64141 7.85885 2.27891 7.41719 2.27891H6.70885C6.54635 2.27891 6.30885 2.19141 6.18385 2.08307L5.52552 1.51641C5.23802 1.27057 4.76719 1.27057 4.47552 1.51641L3.82135 2.08724C3.69635 2.19141 3.45885 2.27891 3.29635 2.27891H2.57552C2.13385 2.27891 1.77135 2.64141 1.77135 3.08307V3.79557C1.77135 3.95807 1.68385 4.19141 1.57969 4.31641L1.01719 4.97891C0.775521 5.26641 0.775521 5.73307 1.01719 6.02057L1.57969 6.68307C1.68385 6.80807 1.77135 7.04141 1.77135 7.20391V7.91641C1.77135 8.35807 2.13385 8.72057 2.57552 8.72057H3.29635C3.45885 8.72057 3.69635 8.80807 3.82135 8.91641L4.47969 9.48307C4.76719 9.72891 5.23802 9.72891 5.52969 9.48307L6.18802 8.91641C6.31302 8.80807 6.54635 8.72057 6.71302 8.72057H7.42135C7.86302 8.72057 8.22552 8.35807 8.22552 7.91641V7.20807C8.22552 7.04557 8.31302 6.80807 8.42135 6.68307L8.98802 6.02474C9.22969 5.73724 9.22969 5.26224 8.98385 4.97474ZM6.73385 4.71224L4.72135 6.72474C4.66302 6.78307 4.58385 6.81641 4.50052 6.81641C4.41719 6.81641 4.33802 6.78307 4.27969 6.72474L3.27135 5.71641C3.15052 5.59557 3.15052 5.39557 3.27135 5.27474C3.39219 5.15391 3.59219 5.15391 3.71302 5.27474L4.50052 6.06224L6.29219 4.27057C6.41302 4.14974 6.61302 4.14974 6.73385 4.27057C6.85469 4.39141 6.85469 4.59141 6.73385 4.71224Z" fill="currentColor"/>
</svg>
