<svg width="28" height="28" viewBox="0 0 28 28" fill="none" xmlns="http://www.w3.org/2000/svg">
<path d="M25.154 12.5298L23.579 10.6864C23.2873 10.3364 23.0423 9.6831 23.0423 9.21643V7.2331C23.0423 5.99643 22.0273 4.98143 20.7907 4.98143H18.8073C18.3407 4.98143 17.6757 4.73643 17.3257 4.44477L15.4823 2.86977C14.6773 2.18143 13.359 2.18143 12.554 2.86977L10.6873 4.44477C10.3373 4.73643 9.68401 4.98143 9.21734 4.98143H7.19901C5.96234 4.98143 4.94734 5.99643 4.94734 7.2331V9.21643C4.94734 9.67143 4.71401 10.3248 4.42234 10.6748L2.84734 12.5298C2.17068 13.3464 2.17068 14.6531 2.84734 15.4464L4.42234 17.3014C4.71401 17.6398 4.94734 18.3048 4.94734 18.7598V20.7548C4.94734 21.9914 5.96234 23.0064 7.19901 23.0064H9.22901C9.68401 23.0064 10.349 23.2514 10.699 23.5431L12.5423 25.1181C13.3473 25.8064 14.6657 25.8064 15.4707 25.1181L17.314 23.5431C17.664 23.2514 18.3173 23.0064 18.784 23.0064H20.7673C22.004 23.0064 23.019 21.9914 23.019 20.7548V18.7714C23.019 18.3048 23.264 17.6514 23.5557 17.3014L25.1307 15.4581C25.8423 14.6648 25.8423 13.3464 25.154 12.5298ZM13.1257 9.48477C13.1257 9.00643 13.5223 8.60977 14.0007 8.60977C14.479 8.60977 14.8757 9.00643 14.8757 9.48477V15.1198C14.8757 15.5981 14.479 15.9948 14.0007 15.9948C13.5223 15.9948 13.1257 15.5981 13.1257 15.1198V9.48477ZM14.0007 19.6814C13.359 19.6814 12.834 19.1564 12.834 18.5148C12.834 17.8731 13.3473 17.3481 14.0007 17.3481C14.6423 17.3481 15.1673 17.8731 15.1673 18.5148C15.1673 19.1564 14.654 19.6814 14.0007 19.6814Z" fill="currentColor"/>
</svg>
