<svg width="22" height="23" viewBox="0 0 22 23" fill="none" xmlns="http://www.w3.org/2000/svg">
<path d="M11 13.5508C10.6242 13.5508 10.3125 13.2391 10.3125 12.8633V8.05078C10.3125 7.67495 10.6242 7.36328 11 7.36328C11.3758 7.36328 11.6875 7.67495 11.6875 8.05078V12.8633C11.6875 13.2391 11.3758 13.5508 11 13.5508Z" fill="currentColor"/>
<path d="M10.9997 16.7584C10.7522 16.7584 10.523 16.6668 10.3488 16.4926C10.2663 16.4009 10.2022 16.3001 10.1472 16.1901C10.1013 16.0801 10.083 15.9609 10.083 15.8418C10.083 15.6034 10.1838 15.3651 10.3488 15.1909C10.688 14.8517 11.3114 14.8517 11.6505 15.1909C11.8155 15.3651 11.9163 15.6034 11.9163 15.8418C11.9163 15.9609 11.8888 16.0801 11.843 16.1901C11.7972 16.3001 11.733 16.4009 11.6505 16.4926C11.4764 16.6668 11.2472 16.7584 10.9997 16.7584Z" fill="black"/>
<path d="M11.0005 21.8008C10.3863 21.8008 9.76298 21.6449 9.21298 21.3241L3.76798 18.1799C2.66798 17.5383 1.98047 16.3558 1.98047 15.0816V8.81164C1.98047 7.53747 2.66798 6.35497 3.76798 5.7133L9.21298 2.56914C10.313 1.92747 11.6788 1.92747 12.788 2.56914L18.233 5.7133C19.333 6.35497 20.0205 7.53747 20.0205 8.81164V15.0816C20.0205 16.3558 19.333 17.5383 18.233 18.1799L12.788 21.3241C12.238 21.6449 11.6147 21.8008 11.0005 21.8008ZM11.0005 3.46746C10.6247 3.46746 10.2396 3.5683 9.90048 3.7608L4.45548 6.90496C3.77715 7.29912 3.35547 8.02331 3.35547 8.81164V15.0816C3.35547 15.8608 3.77715 16.5941 4.45548 16.9883L9.90048 20.1325C10.5788 20.5266 11.4222 20.5266 12.0913 20.1325L17.5363 16.9883C18.2147 16.5941 18.6363 15.8699 18.6363 15.0816V8.81164C18.6363 8.03247 18.2147 7.29912 17.5363 6.90496L12.0913 3.7608C11.7613 3.5683 11.3763 3.46746 11.0005 3.46746Z" fill="currentColor"/>
</svg>
